<svg width="36" height="36" viewBox="0 0 36 36" fill="none" xmlns="http://www.w3.org/2000/svg">
<rect x="6.5" y="6.5" width="23" height="23" rx="4.5" stroke="#007953"/>
<g clip-path="url(#clip0_490_500)">
<path d="M15.3338 18C15.3338 16.5273 16.5273 15.3331 18 15.3331C19.4727 15.3331 20.6669 16.5273 20.6669 18C20.6669 19.4727 19.4727 20.6669 18 20.6669C16.5273 20.6669 15.3338 19.4727 15.3338 18ZM13.8921 18C13.8921 20.2688 15.7312 22.1079 18 22.1079C20.2688 22.1079 22.1079 20.2688 22.1079 18C22.1079 15.7312 20.2688 13.8921 18 13.8921C15.7312 13.8921 13.8921 15.7312 13.8921 18ZM21.3105 13.7292C21.3105 14.2591 21.7402 14.6895 22.2708 14.6895C22.8006 14.6895 23.231 14.2591 23.231 13.7292C23.231 13.1994 22.8013 12.7696 22.2708 12.7696C21.7402 12.7696 21.3105 13.1994 21.3105 13.7292ZM14.7677 24.5118C13.9877 24.4763 13.5638 24.3464 13.2821 24.2365C12.9086 24.0911 12.6423 23.9179 12.3619 23.6381C12.0821 23.3583 11.9082 23.0921 11.7635 22.7186C11.6536 22.4368 11.5237 22.0129 11.4882 21.233C11.4494 20.3897 11.4417 20.1363 11.4417 18C11.4417 15.8637 11.4501 15.611 11.4882 14.767C11.5237 13.9871 11.6543 13.5638 11.7635 13.2814C11.9089 12.9079 12.0821 12.6417 12.3619 12.3612C12.6417 12.0814 12.9079 11.9076 13.2821 11.7628C13.5638 11.653 13.9877 11.5231 14.7677 11.4876C15.611 11.4488 15.8643 11.441 18 11.441C20.1363 11.441 20.389 11.4494 21.233 11.4876C22.0129 11.5231 22.4362 11.6536 22.7186 11.7628C23.0921 11.9076 23.3583 12.0814 23.6388 12.3612C23.9186 12.641 24.0918 12.9079 24.2372 13.2814C24.347 13.5632 24.4769 13.9871 24.5124 14.767C24.5512 15.611 24.559 15.8637 24.559 18C24.559 20.1357 24.5512 20.389 24.5124 21.233C24.4769 22.0129 24.3464 22.4368 24.2372 22.7186C24.0918 23.0921 23.9186 23.3583 23.6388 23.6381C23.359 23.9179 23.0921 24.0911 22.7186 24.2365C22.4368 24.3464 22.0129 24.4763 21.233 24.5118C20.3897 24.5506 20.1363 24.5583 18 24.5583C15.8643 24.5583 15.611 24.5506 14.7677 24.5118ZM14.7018 10.0485C13.8501 10.0872 13.2685 10.2223 12.7599 10.42C12.2339 10.6242 11.788 10.8982 11.3428 11.3428C10.8982 11.7874 10.6242 12.2333 10.42 12.7599C10.2223 13.2685 10.0872 13.8501 10.0485 14.7018C10.009 15.5548 10 15.8275 10 18C10 20.1725 10.009 20.4452 10.0485 21.2982C10.0872 22.1499 10.2223 22.7315 10.42 23.2401C10.6242 23.7661 10.8976 24.2126 11.3428 24.6572C11.7874 25.1018 12.2333 25.3751 12.7599 25.58C13.2691 25.7777 13.8501 25.9128 14.7018 25.9515C15.5554 25.9903 15.8275 26 18 26C20.1732 26 20.4452 25.991 21.2982 25.9515C22.1499 25.9128 22.7315 25.7777 23.2401 25.58C23.7661 25.3751 24.212 25.1018 24.6572 24.6572C25.1018 24.2126 25.3751 23.7661 25.58 23.2401C25.7777 22.7315 25.9134 22.1499 25.9515 21.2982C25.9903 20.4446 25.9994 20.1725 25.9994 18C25.9994 15.8275 25.9903 15.5548 25.9515 14.7018C25.9128 13.8501 25.7777 13.2685 25.58 12.7599C25.3751 12.2339 25.1018 11.788 24.6572 11.3428C24.2126 10.8982 23.7661 10.6242 23.2407 10.42C22.7315 10.2223 22.1499 10.0866 21.2989 10.0485C20.4459 10.0097 20.1732 10 18.0006 10C15.8275 10 15.5554 10.009 14.7018 10.0485Z" fill="#007953"/>
</g>
<defs>
<clipPath id="clip0_490_500">
<rect width="16" height="16" fill="white" transform="translate(10 10)"/>
</clipPath>
</defs>
</svg>
