<svg width="24" height="24" viewBox="0 0 24 24" fill="none" xmlns="http://www.w3.org/2000/svg">
<circle cx="12" cy="12" r="12" fill="white"/>
<g clip-path="url(#clip0_540_464)">
<path d="M9.75036 12C9.75036 10.7574 10.7574 9.74982 12 9.74982C13.2426 9.74982 14.2502 10.7574 14.2502 12C14.2502 13.2426 13.2426 14.2502 12 14.2502C10.7574 14.2502 9.75036 13.2426 9.75036 12ZM8.53395 12C8.53395 13.9143 10.0857 15.4661 12 15.4661C13.9143 15.4661 15.4661 13.9143 15.4661 12C15.4661 10.0857 13.9143 8.53395 12 8.53395C10.0857 8.53395 8.53395 10.0857 8.53395 12ZM14.7932 8.39655C14.7932 8.84364 15.1558 9.20676 15.6035 9.20676C16.0505 9.20676 16.4137 8.84364 16.4137 8.39655C16.4137 7.94945 16.0511 7.58687 15.6035 7.58687C15.1558 7.58687 14.7932 7.94945 14.7932 8.39655ZM9.27274 17.4943C8.61464 17.4643 8.25697 17.3547 8.01924 17.2621C7.7041 17.1394 7.47946 16.9933 7.24283 16.7572C7.00674 16.5211 6.86008 16.2964 6.73794 15.9813C6.64525 15.7436 6.53566 15.3859 6.50567 14.7278C6.47296 14.0163 6.46642 13.8025 6.46642 12C6.46642 10.1975 6.47351 9.98427 6.50567 9.27219C6.53566 8.6141 6.6458 8.25697 6.73794 8.0187C6.86062 7.70355 7.00674 7.47892 7.24283 7.24229C7.47892 7.0062 7.70355 6.85953 8.01924 6.7374C8.25697 6.64471 8.61464 6.53512 9.27274 6.50513C9.98427 6.47242 10.198 6.46587 12 6.46587C13.8025 6.46587 14.0157 6.47296 14.7278 6.50513C15.3859 6.53512 15.743 6.64525 15.9813 6.7374C16.2964 6.85953 16.5211 7.0062 16.7577 7.24229C16.9938 7.47837 17.1399 7.70355 17.2626 8.0187C17.3553 8.25642 17.4649 8.6141 17.4949 9.27219C17.5276 9.98427 17.5341 10.1975 17.5341 12C17.5341 13.802 17.5276 14.0157 17.4949 14.7278C17.4649 15.3859 17.3547 15.7436 17.2626 15.9813C17.1399 16.2964 16.9938 16.5211 16.7577 16.7572C16.5216 16.9933 16.2964 17.1394 15.9813 17.2621C15.7436 17.3547 15.3859 17.4643 14.7278 17.4943C14.0163 17.527 13.8025 17.5336 12 17.5336C10.198 17.5336 9.98427 17.527 9.27274 17.4943ZM9.21712 5.29089C8.49851 5.32361 8.00779 5.43756 7.5787 5.6044C7.13487 5.7767 6.75866 6.00788 6.383 6.383C6.00788 6.75812 5.7767 7.13433 5.6044 7.5787C5.43756 8.00779 5.32361 8.49851 5.29089 9.21712C5.25763 9.93683 5.25 10.1669 5.25 12C5.25 13.8331 5.25763 14.0632 5.29089 14.7829C5.32361 15.5015 5.43756 15.9922 5.6044 16.4213C5.7767 16.8651 6.00733 17.2419 6.383 17.617C6.75812 17.9921 7.13433 18.2228 7.5787 18.3956C8.00834 18.5624 8.49851 18.6764 9.21712 18.7091C9.93738 18.7418 10.1669 18.75 12 18.75C13.8336 18.75 14.0632 18.7424 14.7829 18.7091C15.5015 18.6764 15.9922 18.5624 16.4213 18.3956C16.8651 18.2228 17.2413 17.9921 17.617 17.617C17.9921 17.2419 18.2228 16.8651 18.3956 16.4213C18.5624 15.9922 18.6769 15.5015 18.7091 14.7829C18.7418 14.0626 18.7495 13.8331 18.7495 12C18.7495 10.1669 18.7418 9.93683 18.7091 9.21712C18.6764 8.49851 18.5624 8.00779 18.3956 7.5787C18.2228 7.13487 17.9921 6.75866 17.617 6.383C17.2419 6.00788 16.8651 5.7767 16.4218 5.6044C15.9922 5.43756 15.5015 5.32306 14.7834 5.29089C14.0637 5.25818 13.8336 5.25 12.0005 5.25C10.1669 5.25 9.93738 5.25763 9.21712 5.29089Z" fill="#007953"/>
</g>
<defs>
<clipPath id="clip0_540_464">
<rect width="13.5" height="13.5" fill="white" transform="translate(5.25 5.25)"/>
</clipPath>
</defs>
</svg>
