<svg width="32" height="32" viewBox="0 0 32 32" fill="none" xmlns="http://www.w3.org/2000/svg">
<circle cx="16" cy="16" r="16" fill="#007953"/>
<g clip-path="url(#clip0_4589_4537)">
<path d="M13.0005 16C13.0005 14.3432 14.3432 12.9998 16 12.9998C17.6568 12.9998 19.0002 14.3432 19.0002 16C19.0002 17.6568 17.6568 19.0002 16 19.0002C14.3432 19.0002 13.0005 17.6568 13.0005 16ZM11.3786 16C11.3786 18.5524 13.4476 20.6214 16 20.6214C18.5524 20.6214 20.6214 18.5524 20.6214 16C20.6214 13.4476 18.5524 11.3786 16 11.3786C13.4476 11.3786 11.3786 13.4476 11.3786 16ZM19.7243 11.1954C19.7243 11.7915 20.2078 12.2757 20.8046 12.2757C21.4007 12.2757 21.8849 11.7915 21.8849 11.1954C21.8849 10.5993 21.4015 10.1158 20.8046 10.1158C20.2078 10.1158 19.7243 10.5993 19.7243 11.1954ZM12.3637 23.3258C11.4862 23.2858 11.0093 23.1397 10.6923 23.0161C10.2721 22.8525 9.97262 22.6577 9.65711 22.3429C9.34233 22.0281 9.14677 21.7286 8.98393 21.3084C8.86034 20.9914 8.71422 20.5145 8.67423 19.6371C8.63061 18.6884 8.62189 18.4034 8.62189 16C8.62189 13.5966 8.63134 13.3124 8.67423 12.3629C8.71422 11.4855 8.86107 11.0093 8.98393 10.6916C9.1475 10.2714 9.34233 9.97189 9.65711 9.65638C9.97189 9.3416 10.2714 9.14604 10.6923 8.9832C11.0093 8.85961 11.4862 8.71349 12.3637 8.67351C13.3124 8.62989 13.5973 8.62116 16 8.62116C18.4034 8.62116 18.6876 8.63061 19.6371 8.67351C20.5145 8.71349 20.9907 8.86034 21.3084 8.9832C21.7286 9.14604 22.0281 9.3416 22.3436 9.65638C22.6584 9.97116 22.8532 10.2714 23.0168 10.6916C23.1404 11.0086 23.2865 11.4855 23.3265 12.3629C23.3701 13.3124 23.3788 13.5966 23.3788 16C23.3788 18.4027 23.3701 18.6876 23.3265 19.6371C23.2865 20.5145 23.1397 20.9914 23.0168 21.3084C22.8532 21.7286 22.6584 22.0281 22.3436 22.3429C22.0288 22.6577 21.7286 22.8525 21.3084 23.0161C20.9914 23.1397 20.5145 23.2858 19.6371 23.3258C18.6884 23.3694 18.4034 23.3781 16 23.3781C13.5973 23.3781 13.3124 23.3694 12.3637 23.3258ZM12.2895 7.05452C11.3313 7.09814 10.6771 7.25008 10.1049 7.47254C9.51317 7.70226 9.01155 8.0105 8.51066 8.51066C8.0105 9.01082 7.70226 9.51244 7.47254 10.1049C7.25008 10.6771 7.09814 11.3313 7.05452 12.2895C7.01018 13.2491 7 13.5559 7 16C7 18.4441 7.01018 18.7509 7.05452 19.7105C7.09814 20.6687 7.25008 21.3229 7.47254 21.8951C7.70226 22.4868 8.00977 22.9892 8.51066 23.4893C9.01082 23.9895 9.51244 24.297 10.1049 24.5275C10.6778 24.7499 11.3313 24.9019 12.2895 24.9455C13.2498 24.9891 13.5559 25 16 25C18.4448 25 18.7509 24.9898 19.7105 24.9455C20.6687 24.9019 21.3229 24.7499 21.8951 24.5275C22.4868 24.297 22.9884 23.9895 23.4893 23.4893C23.9895 22.9892 24.297 22.4868 24.5275 21.8951C24.7499 21.3229 24.9026 20.6687 24.9455 19.7105C24.9891 18.7502 24.9993 18.4441 24.9993 16C24.9993 13.5559 24.9891 13.2491 24.9455 12.2895C24.9019 11.3313 24.7499 10.6771 24.5275 10.1049C24.297 9.51317 23.9895 9.01155 23.4893 8.51066C22.9892 8.0105 22.4868 7.70226 21.8958 7.47254C21.3229 7.25008 20.6687 7.09742 19.7112 7.05452C18.7516 7.0109 18.4448 7 16.0007 7C13.5559 7 13.2498 7.01018 12.2895 7.05452Z" fill="white"/>
</g>
<defs>
<clipPath id="clip0_4589_4537">
<rect width="18" height="18" fill="white" transform="translate(7 7)"/>
</clipPath>
</defs>
</svg>
