<svg width="24" height="24" viewBox="0 0 24 24" fill="none" xmlns="http://www.w3.org/2000/svg">
<circle cx="12" cy="12" r="12" fill="white"/>
<g clip-path="url(#clip0_540_465)">
<path d="M5.25 6.81818C5.25 6.36363 5.40203 5.98863 5.70608 5.69318C6.01013 5.39772 6.40541 5.25 6.89189 5.25C7.3697 5.25 7.75627 5.39545 8.05164 5.68636C8.35569 5.98636 8.50772 6.37726 8.50772 6.85909C8.50772 7.29545 8.36004 7.65908 8.06467 7.95C7.76062 8.24999 7.361 8.39999 6.86583 8.39999H6.8528C6.375 8.39999 5.98842 8.24999 5.69305 7.95C5.39768 7.65 5.25 7.27272 5.25 6.81818ZM5.4194 18.75V9.6409H8.31226V18.75H5.4194ZM9.91506 18.75H12.8079V13.6636C12.8079 13.3454 12.8427 13.1 12.9122 12.9273C13.0338 12.6182 13.2184 12.3568 13.466 12.1432C13.7136 11.9295 14.0241 11.8227 14.3977 11.8227C15.3707 11.8227 15.8571 12.5091 15.8571 13.8818V18.75H18.75V13.5273C18.75 12.1818 18.4459 11.1614 17.8378 10.4659C17.2297 9.77045 16.4262 9.42272 15.4271 9.42272C14.3065 9.42272 13.4334 9.92727 12.8079 10.9364V10.9636H12.7949L12.8079 10.9364V9.6409H9.91506C9.93243 9.93181 9.94112 10.8363 9.94112 12.3545C9.94112 13.8727 9.93243 16.0045 9.91506 18.75Z" fill="#007953"/>
</g>
<defs>
<clipPath id="clip0_540_465">
<rect width="13.5" height="13.5" fill="white" transform="translate(5.25 5.25)"/>
</clipPath>
</defs>
</svg>
