<svg width="36" height="36" viewBox="0 0 36 36" fill="none" xmlns="http://www.w3.org/2000/svg">
<rect x="6.5" y="6.5" width="23" height="23" rx="4.5" stroke="#007953"/>
<g clip-path="url(#clip0_490_486)">
<path d="M11 12.6263C11 12.1549 11.1577 11.766 11.473 11.4596C11.7883 11.1532 12.1982 11 12.7027 11C13.1982 11 13.5991 11.1508 13.9054 11.4525C14.2207 11.7637 14.3784 12.169 14.3784 12.6687C14.3784 13.1212 14.2252 13.4983 13.9189 13.8C13.6036 14.1111 13.1892 14.2667 12.6757 14.2667H12.6622C12.1667 14.2667 11.7658 14.1111 11.4595 13.8C11.1531 13.4889 11 13.0977 11 12.6263ZM11.1757 25V15.5535H14.1757V25H11.1757ZM15.8378 25H18.8378V19.7253C18.8378 19.3953 18.8739 19.1407 18.9459 18.9616C19.0721 18.6411 19.2635 18.37 19.5203 18.1485C19.777 17.9269 20.0991 17.8162 20.4865 17.8162C21.4955 17.8162 22 18.5279 22 19.9515V25H25V19.5838C25 18.1886 24.6847 17.1303 24.0541 16.4091C23.4234 15.6879 22.5901 15.3273 21.5541 15.3273C20.3919 15.3273 19.4865 15.8505 18.8378 16.897V16.9253H18.8243L18.8378 16.897V15.5535H15.8378C15.8559 15.8552 15.8649 16.7933 15.8649 18.3677C15.8649 19.9421 15.8559 22.1528 15.8378 25Z" fill="#007953"/>
</g>
<defs>
<clipPath id="clip0_490_486">
<rect width="14" height="14" fill="white" transform="translate(11 11)"/>
</clipPath>
</defs>
</svg>
