<svg width="32" height="32" viewBox="0 0 32 32" fill="none" xmlns="http://www.w3.org/2000/svg">
<circle cx="16" cy="16" r="16" fill="#007953"/>
<g clip-path="url(#clip0_4589_4541)">
<path d="M7 9.09091C7 8.48483 7.20271 7.98483 7.60811 7.59091C8.01351 7.19696 8.54055 7 9.18919 7C9.82626 7 10.3417 7.19393 10.7355 7.58182C11.1409 7.98182 11.3436 8.50302 11.3436 9.14545C11.3436 9.72727 11.1467 10.2121 10.7529 10.6C10.3475 11 9.81467 11.2 9.15444 11.2H9.13707C8.49999 11.2 7.98456 11 7.59073 10.6C7.19691 10.2 7 9.69696 7 9.09091ZM7.22587 25V12.8545H11.083V25H7.22587ZM13.2201 25H17.0772V18.2182C17.0772 17.7939 17.1236 17.4666 17.2162 17.2363C17.3784 16.8242 17.6245 16.4757 17.9546 16.1909C18.2847 15.906 18.6988 15.7636 19.1969 15.7636C20.4942 15.7636 21.1429 16.6788 21.1429 18.5091V25H25V18.0363C25 16.2424 24.5946 14.8818 23.7838 13.9545C22.973 13.0273 21.9016 12.5636 20.5695 12.5636C19.0753 12.5636 17.9112 13.2364 17.0772 14.5818V14.6182H17.0598L17.0772 14.5818V12.8545H13.2201C13.2432 13.2424 13.2548 14.4485 13.2548 16.4727C13.2548 18.4969 13.2432 21.3394 13.2201 25Z" fill="white"/>
</g>
<defs>
<clipPath id="clip0_4589_4541">
<rect width="18" height="18" fill="white" transform="translate(7 7)"/>
</clipPath>
</defs>
</svg>
