<svg width="32" height="32" viewBox="0 0 32 32" fill="none" xmlns="http://www.w3.org/2000/svg">
<circle cx="16" cy="16" r="16" fill="#007953"/>
<path d="M26.1667 10.3169C25.4776 10.6158 24.749 10.8134 24.0033 10.9035C24.79 10.4336 25.3795 9.69424 25.6625 8.82269C24.9233 9.26275 24.114 9.5728 23.27 9.73936C22.7058 9.12755 21.9546 8.7203 21.134 8.58147C20.3134 8.44265 19.47 8.5801 18.736 8.97228C18.002 9.36446 17.4189 9.98918 17.0781 10.7485C16.7374 11.5077 16.6584 12.3586 16.8533 13.1677C15.3586 13.0921 13.8966 12.7029 12.5621 12.0254C11.2276 11.3479 10.0506 10.3972 9.1075 9.23519C8.77671 9.81285 8.6029 10.467 8.60334 11.1327C8.60216 11.7509 8.75387 12.3598 9.04494 12.9051C9.33602 13.4505 9.75744 13.9154 10.2717 14.2585C9.67398 14.2423 9.08906 14.0819 8.56667 13.791V13.8369C8.57115 14.703 8.87466 15.541 9.42587 16.2092C9.97708 16.8773 10.7422 17.3345 11.5917 17.5035C11.2647 17.603 10.9251 17.6555 10.5833 17.6594C10.3467 17.6566 10.1107 17.6351 9.8775 17.5952C10.1194 18.3403 10.5876 18.9914 11.2168 19.458C11.8461 19.9246 12.6051 20.1834 13.3883 20.1985C12.0658 21.2392 10.4329 21.8071 8.75 21.8119C8.44359 21.8129 8.13743 21.7945 7.83334 21.7569C9.55156 22.8663 11.5539 23.4552 13.5992 23.4527C15.0106 23.4673 16.4107 23.2006 17.7179 22.6681C19.025 22.1356 20.2129 21.3479 21.2123 20.3511C22.2116 19.3544 23.0023 18.1685 23.5382 16.8627C24.0741 15.5569 24.3444 14.1574 24.3333 12.746C24.3333 12.5902 24.3333 12.4252 24.3333 12.2602C25.0526 11.7238 25.673 11.0662 26.1667 10.3169Z" fill="white"/>
</svg>
