<svg width="36" height="36" viewBox="0 0 36 36" fill="none" xmlns="http://www.w3.org/2000/svg">
<rect x="6.5" y="6.5" width="23" height="23" rx="4.5" stroke="#007953"/>
<path d="M25.5 13.35C24.9363 13.5946 24.3401 13.7563 23.73 13.83C24.3736 13.4455 24.856 12.8406 25.0875 12.1275C24.4827 12.4876 23.8206 12.7412 23.13 12.8775C22.6684 12.3769 22.0537 12.0437 21.3824 11.9301C20.711 11.8166 20.0209 11.929 19.4203 12.2499C18.8198 12.5708 18.3427 13.0819 18.0639 13.7031C17.7852 14.3244 17.7205 15.0205 17.88 15.6825C16.6571 15.6206 15.4608 15.3022 14.369 14.7479C13.2772 14.1936 12.3141 13.4158 11.5425 12.465C11.2719 12.9376 11.1296 13.4729 11.13 14.0175C11.129 14.5233 11.2532 15.0215 11.4913 15.4677C11.7295 15.9139 12.0743 16.2943 12.495 16.575C12.006 16.5617 11.5274 16.4305 11.1 16.1925V16.23C11.1037 16.9387 11.352 17.6243 11.803 18.171C12.254 18.7176 12.8799 19.0917 13.575 19.23C13.3074 19.3114 13.0297 19.3544 12.75 19.3575C12.5564 19.3552 12.3633 19.3377 12.1725 19.305C12.3704 19.9146 12.7535 20.4474 13.2683 20.8291C13.7831 21.2109 14.4042 21.4227 15.045 21.435C13.9629 22.2865 12.6269 22.7511 11.25 22.755C10.9993 22.7558 10.7488 22.7408 10.5 22.71C11.9058 23.6177 13.5441 24.0995 15.2175 24.0975C16.3723 24.1095 17.5179 23.8913 18.5873 23.4556C19.6568 23.0199 20.6288 22.3754 21.4464 21.5599C22.264 20.7443 22.911 19.774 23.3494 18.7057C23.7879 17.6373 24.009 16.4923 24 15.3375C24 15.21 24 15.075 24 14.94C24.5885 14.5011 25.0961 13.9631 25.5 13.35V13.35Z" fill="#007953"/>
</svg>
