<svg width="24" height="24" viewBox="0 0 24 24" fill="none" xmlns="http://www.w3.org/2000/svg">
<circle cx="12" cy="12" r="12" fill="white"/>
<path d="M19.625 7.73752C19.1082 7.96171 18.5617 8.10992 18.0025 8.17752C18.5925 7.82506 19.0346 7.27056 19.2469 6.6169C18.6924 6.94694 18.0855 7.17948 17.4525 7.3044C17.0294 6.84554 16.4659 6.5401 15.8505 6.43598C15.2351 6.33186 14.6025 6.43496 14.052 6.72909C13.5015 7.02322 13.0641 7.49176 12.8086 8.06122C12.5531 8.63068 12.4938 9.26885 12.64 9.87565C11.519 9.81895 10.4224 9.52705 9.42158 9.01893C8.42072 8.5108 7.53796 7.79781 6.83063 6.92627C6.58253 7.35951 6.45217 7.85015 6.4525 8.3494C6.45162 8.81303 6.5654 9.2697 6.78371 9.67872C7.00201 10.0877 7.31808 10.4364 7.70375 10.6938C7.25548 10.6816 6.8168 10.5613 6.425 10.3431V10.3775C6.42836 11.0271 6.656 11.6556 7.0694 12.1567C7.48281 12.6578 8.05661 13.0008 8.69375 13.1275C8.44849 13.2022 8.19385 13.2415 7.9375 13.2444C7.76005 13.2423 7.58304 13.2262 7.40813 13.1963C7.58956 13.7551 7.94068 14.2434 8.41261 14.5934C8.88455 14.9433 9.45383 15.1375 10.0413 15.1488C9.04933 15.9293 7.82467 16.3552 6.5625 16.3588C6.33269 16.3595 6.10307 16.3457 5.875 16.3175C7.16367 17.1496 8.66543 17.5913 10.1994 17.5894C11.2579 17.6004 12.308 17.4003 13.2884 17.001C14.2688 16.6016 15.1597 16.0108 15.9092 15.2632C16.6587 14.5157 17.2517 13.6262 17.6536 12.6469C18.0555 11.6676 18.2583 10.618 18.25 9.5594C18.25 9.44252 18.25 9.31877 18.25 9.19502C18.7895 8.7927 19.2548 8.2995 19.625 7.73752Z" fill="#007953"/>
</svg>
