<svg width="24" height="24" viewBox="0 0 24 24" fill="none" xmlns="http://www.w3.org/2000/svg">
<circle cx="12" cy="12" r="12" fill="white"/>
<path d="M19.4965 10.4647C19.5302 9.48941 19.317 8.5214 18.8765 7.65058C18.5776 7.29326 18.1629 7.05212 17.7045 6.96919C15.8085 6.79716 13.9048 6.72665 12.0013 6.75796C10.1047 6.72523 8.20779 6.79346 6.3185 6.96238C5.94498 7.03032 5.59931 7.20553 5.32367 7.4666C4.71042 8.03216 4.64228 8.99973 4.57415 9.81739C4.47528 11.2875 4.47528 12.7626 4.57415 14.2328C4.59386 14.693 4.66238 15.1498 4.77856 15.5956C4.86072 15.9397 5.02694 16.2581 5.26235 16.5223C5.53986 16.7972 5.89358 16.9823 6.27762 17.0537C7.74663 17.2351 9.22681 17.3102 10.7066 17.2786C13.0915 17.3127 15.1834 17.2786 17.6568 17.0878C18.0503 17.0208 18.4139 16.8354 18.6993 16.5563C18.8901 16.3655 19.0326 16.1319 19.115 15.8749C19.3587 15.1272 19.4783 14.3446 19.4693 13.5582C19.4965 13.1766 19.4965 10.8735 19.4965 10.4647ZM10.4613 13.967V9.74925L14.4952 11.8684C13.3641 12.4952 11.8718 13.2039 10.4613 13.967Z" fill="#007953"/>
</svg>
