<svg width="36" height="36" viewBox="0 0 36 36" fill="none" xmlns="http://www.w3.org/2000/svg">
<rect x="6.5" y="6.5" width="23" height="23" rx="4.5" stroke="#007953"/>
<path d="M26.2498 16.2825C26.2869 15.209 26.0521 14.1435 25.5673 13.185C25.2383 12.7917 24.7818 12.5263 24.2773 12.435C22.1904 12.2456 20.0949 12.168 17.9998 12.2025C15.9123 12.1665 13.8243 12.2416 11.7448 12.4275C11.3336 12.5023 10.9532 12.6951 10.6498 12.9825C9.97478 13.605 9.89978 14.67 9.82478 15.57C9.71596 17.1882 9.71596 18.8118 9.82478 20.43C9.84647 20.9366 9.9219 21.4394 10.0498 21.93C10.1402 22.3088 10.3232 22.6593 10.5823 22.95C10.8877 23.2526 11.2771 23.4564 11.6998 23.535C13.3167 23.7346 14.9459 23.8173 16.5748 23.7825C19.1998 23.82 21.5023 23.7825 24.2248 23.5725C24.6579 23.4987 25.0582 23.2947 25.3723 22.9875C25.5822 22.7774 25.7391 22.5203 25.8298 22.2375C26.098 21.4145 26.2297 20.5531 26.2198 19.6875C26.2498 19.2675 26.2498 16.7325 26.2498 16.2825ZM16.3048 20.1375V15.495L20.7448 17.8275C19.4998 18.5175 17.8573 19.2975 16.3048 20.1375Z" fill="#007953"/>
</svg>
