<svg width="48" height="49" viewBox="0 0 48 49" fill="none" xmlns="http://www.w3.org/2000/svg">
<path d="M45 11.0006H37.5C35.1075 2.85147 12.8475 2.85893 10.5 11.0006H3C2.70163 11.0006 2.41548 11.1185 2.2045 11.3284C1.99353 11.5384 1.875 11.8231 1.875 12.12V27.6644C1.875 27.9613 1.99353 28.246 2.2045 28.456C2.41548 28.6659 2.70163 28.7838 3 28.7838H4.2975V43.5373C4.2975 43.8341 4.41603 44.1189 4.627 44.3288C4.83798 44.5387 5.12413 44.6567 5.4225 44.6567H42.5775C42.8759 44.6567 43.162 44.5387 43.373 44.3288C43.584 44.1189 43.7025 43.8341 43.7025 43.5373V28.7838H45C45.2984 28.7838 45.5845 28.6659 45.7955 28.456C46.0065 28.246 46.125 27.9613 46.125 27.6644V12.12C46.125 11.8231 46.0065 11.5384 45.7955 11.3284C45.5845 11.1185 45.2984 11.0006 45 11.0006ZM24 7.09019C29.6925 7.09019 33.9075 8.97822 35.0925 11.0006H12.9075C14.0925 8.97822 18.3075 7.09019 24 7.09019ZM41.4525 42.4179H6.5475V28.7838H17.7075V32.3957C17.7075 32.6926 17.826 32.9773 18.037 33.1872C18.248 33.3971 18.5341 33.5151 18.8325 33.5151H29.1675C29.4659 33.5151 29.752 33.3971 29.963 33.1872C30.174 32.9773 30.2925 32.6926 30.2925 32.3957V28.7838H41.4525V42.4179ZM19.9575 28.7838H28.0425V31.2763H19.9575V28.7838ZM43.875 26.5451H4.125V13.2393H43.875V26.5451Z" fill="#219963" stroke="white" stroke-width="0.5"/>
</svg>
