<svg width="48" height="48" viewBox="0 0 48 48" fill="none" xmlns="http://www.w3.org/2000/svg">
<path fill-rule="evenodd" clip-rule="evenodd" d="M44.8008 8.00002H3.20078C2.75895 8.00002 2.40078 8.3582 2.40078 8.80002V39.2C2.40078 39.6419 2.75895 40 3.20078 40H44.8008C45.2426 40 45.6008 39.6419 45.6008 39.2V8.80002C45.6008 8.3582 45.2426 8.00002 44.8008 8.00002ZM3.20078 6.40002C1.8753 6.40002 0.800781 7.47454 0.800781 8.80002V39.2C0.800781 40.5255 1.8753 41.6 3.20078 41.6H44.8008C46.1263 41.6 47.2008 40.5255 47.2008 39.2V8.80002C47.2008 7.47454 46.1263 6.40002 44.8008 6.40002H3.20078Z" fill="#219963"/>
<path d="M22.0827 25.9199C22.0827 23.5689 20.3806 21.6163 18.1457 21.2073C18.7966 20.3875 19.2027 19.3651 19.2027 18.2399C19.2027 15.5932 17.0494 13.4399 14.4027 13.4399C11.7559 13.4399 9.60266 15.5932 9.60266 18.2399C9.60266 19.3651 10.0078 20.3875 10.6596 21.2073C8.42474 21.6163 6.72266 23.5689 6.72266 25.9199V32.6399H22.0827V25.9199ZM14.4027 15.3599C15.9905 15.3599 17.2827 16.6521 17.2827 18.2399C17.2827 19.8278 15.9905 21.1199 14.4027 21.1199C12.8148 21.1199 11.5227 19.8278 11.5227 18.2399C11.5227 16.6521 12.8148 15.3599 14.4027 15.3599ZM20.1627 30.7199H8.64266V25.9199C8.64266 24.3321 9.93482 23.0399 11.5227 23.0399H17.2827C18.8705 23.0399 20.1627 24.3321 20.1627 25.9199V30.7199Z" fill="#219963"/>
<path d="M31.6809 16.3199H24.9609V18.2399H31.6809V16.3199Z" fill="#219963"/>
<path d="M41.2825 16.3199H34.5625V18.2399H41.2825V16.3199Z" fill="#219963"/>
<path d="M27.8409 21.12H24.9609V23.04H27.8409V21.12Z" fill="#219963"/>
<path d="M41.2827 21.12H30.7227V23.04H41.2827V21.12Z" fill="#219963"/>
<path d="M32.6409 25.9199H24.9609V27.8399H32.6409V25.9199Z" fill="#219963"/>
<path d="M41.2814 25.9199H37.4414V27.8399H41.2814V25.9199Z" fill="#219963"/>
<path d="M26.8809 30.72H24.9609V32.64H26.8809V30.72Z" fill="#219963"/>
<path d="M30.7208 30.72H28.8008V32.64H30.7208V30.72Z" fill="#219963"/>
<path d="M34.5606 30.72H32.6406V32.64H34.5606V30.72Z" fill="#219963"/>
<path d="M41.2794 30.72H39.3594V32.64H41.2794V30.72Z" fill="#219963"/>
</svg>
