<svg width="48" height="48" viewBox="0 0 48 48" fill="none" xmlns="http://www.w3.org/2000/svg">
<path d="M40.8 0H7.2C5.29044 0 3.45909 0.75857 2.10883 2.10883C0.75857 3.45909 0 5.29044 0 7.2V40.8C0 42.7096 0.75857 44.5409 2.10883 45.8912C3.45909 47.2414 5.29044 48 7.2 48H40.8C41.1948 47.9945 41.5883 47.9543 41.976 47.88L42.696 47.712H42.864H42.984L43.872 47.376L44.184 47.208C44.424 47.064 44.688 46.944 44.928 46.776C45.2485 46.5402 45.5531 46.2837 45.84 46.008L46.008 45.792C46.2436 45.5532 46.4603 45.2964 46.656 45.024L46.872 44.712C47.0396 44.4448 47.1842 44.1638 47.304 43.872C47.3699 43.7569 47.426 43.6364 47.472 43.512C47.592 43.224 47.664 42.912 47.76 42.6V42.24C47.8961 41.771 47.9766 41.2877 48 40.8V7.2C48 5.29044 47.2414 3.45909 45.8912 2.10883C44.5409 0.75857 42.7096 0 40.8 0ZM7.2 43.2C6.56348 43.2 5.95303 42.9471 5.50294 42.4971C5.05286 42.047 4.8 41.4365 4.8 40.8V30.456L12.696 22.536C12.9191 22.3111 13.1846 22.1325 13.477 22.0107C13.7695 21.8888 14.0832 21.8261 14.4 21.8261C14.7168 21.8261 15.0305 21.8888 15.323 22.0107C15.6154 22.1325 15.8809 22.3111 16.104 22.536L36.744 43.2H7.2ZM43.2 40.8C43.1977 41.0959 43.1408 41.3888 43.032 41.664C42.9771 41.781 42.9129 41.8934 42.84 42C42.7758 42.1016 42.7036 42.1979 42.624 42.288L29.784 29.448L31.896 27.336C32.1191 27.1111 32.3846 26.9325 32.677 26.8107C32.9695 26.6888 33.2832 26.6261 33.6 26.6261C33.9168 26.6261 34.2305 26.6888 34.523 26.8107C34.8154 26.9325 35.0809 27.1111 35.304 27.336L43.2 35.256V40.8ZM43.2 28.464L38.688 24C37.3145 22.6968 35.4934 21.9703 33.6 21.9703C31.7066 21.9703 29.8855 22.6968 28.512 24L26.4 26.112L19.488 19.2C18.1145 17.8968 16.2934 17.1703 14.4 17.1703C12.5066 17.1703 10.6855 17.8968 9.312 19.2L4.8 23.664V7.2C4.8 6.56348 5.05286 5.95303 5.50294 5.50294C5.95303 5.05286 6.56348 4.8 7.2 4.8H40.8C41.4365 4.8 42.047 5.05286 42.4971 5.50294C42.9471 5.95303 43.2 6.56348 43.2 7.2V28.464ZM27.6 9.6C26.888 9.6 26.192 9.81114 25.5999 10.2067C25.0079 10.6023 24.5465 11.1645 24.274 11.8223C24.0016 12.4802 23.9303 13.204 24.0692 13.9023C24.2081 14.6007 24.5509 15.2421 25.0544 15.7456C25.5579 16.2491 26.1993 16.5919 26.8977 16.7308C27.596 16.8697 28.3198 16.7984 28.9777 16.526C29.6355 16.2535 30.1977 15.7921 30.5933 15.2001C30.9889 14.608 31.2 13.912 31.2 13.2C31.2 12.2452 30.8207 11.3295 30.1456 10.6544C29.4705 9.97928 28.5548 9.6 27.6 9.6Z" fill="#219963"/>
</svg>
