<svg width="12" height="8" viewBox="0 0 12 8" xmlns="http://www.w3.org/2000/svg">
<g>
<path d="M1.38411 0.679908C1.20733 0.467769 0.892046 0.439107 0.679908 0.615889C0.467769 0.792671 0.439107 1.10795 0.615889 1.32009L1.38411 0.679908ZM6 7L5.61589 7.32009L6 7.78103L6.38411 7.32009L6 7ZM11.3841 1.32009C11.5609 1.10795 11.5322 0.792671 11.3201 0.615889C11.108 0.439107 10.7927 0.467769 10.6159 0.679908L11.3841 1.32009ZM0.615889 1.32009L5.61589 7.32009L6.38411 6.67991L1.38411 0.679908L0.615889 1.32009ZM6.38411 7.32009L11.3841 1.32009L10.6159 0.679908L5.61589 6.67991L6.38411 7.32009Z" />
</g>
</svg>
