<svg width="36" height="36" viewBox="0 0 36 36" fill="none" xmlns="http://www.w3.org/2000/svg">
<path d="M20.1159 18.0003L26.5659 11.5653C26.8483 11.2828 27.007 10.8997 27.007 10.5003C27.007 10.1008 26.8483 9.71773 26.5659 9.43528C26.2834 9.15282 25.9003 8.99414 25.5009 8.99414C25.1014 8.99414 24.7183 9.15282 24.4359 9.43528L18.0009 15.8853L11.5659 9.43528C11.2834 9.15282 10.9003 8.99414 10.5009 8.99414C10.1014 8.99414 9.71834 9.15282 9.43588 9.43528C9.15343 9.71773 8.99475 10.1008 8.99475 10.5003C8.99475 10.8997 9.15343 11.2828 9.43588 11.5653L15.8859 18.0003L9.43588 24.4353C9.29529 24.5747 9.1837 24.7406 9.10755 24.9234C9.0314 25.1062 8.99219 25.3023 8.99219 25.5003C8.99219 25.6983 9.0314 25.8944 9.10755 26.0771C9.1837 26.2599 9.29529 26.4258 9.43588 26.5653C9.57533 26.7059 9.74123 26.8175 9.92402 26.8936C10.1068 26.9698 10.3029 27.009 10.5009 27.009C10.6989 27.009 10.895 26.9698 11.0778 26.8936C11.2605 26.8175 11.4264 26.7059 11.5659 26.5653L18.0009 20.1153L24.4359 26.5653C24.5753 26.7059 24.7412 26.8175 24.924 26.8936C25.1068 26.9698 25.3029 27.009 25.5009 27.009C25.6989 27.009 25.895 26.9698 26.0778 26.8936C26.2605 26.8175 26.4264 26.7059 26.5659 26.5653C26.7065 26.4258 26.8181 26.2599 26.8942 26.0771C26.9704 25.8944 27.0096 25.6983 27.0096 25.5003C27.0096 25.3023 26.9704 25.1062 26.8942 24.9234C26.8181 24.7406 26.7065 24.5747 26.5659 24.4353L20.1159 18.0003Z" fill="#708090"/>
</svg>
