<svg width="20" height="20" viewBox="0 0 20 20" xmlns="http://www.w3.org/2000/svg">
<g>
<path d="M8.16769 10.0177L0.380083 2.22987C-0.126722 1.7233 -0.126722 0.904253 0.380083 0.397686C0.88665 -0.10888 1.7057 -0.10888 2.21227 0.397686L10.0001 8.18553L17.7877 0.397686C18.2945 -0.10888 19.1133 -0.10888 19.6199 0.397686C20.1267 0.904253 20.1267 1.7233 19.6199 2.22987L11.8323 10.0177L19.6199 17.8055C20.1267 18.3121 20.1267 19.1312 19.6199 19.6377C19.3674 19.8904 19.0355 20.0174 18.7038 20.0174C18.3721 20.0174 18.0404 19.8904 17.7877 19.6377L10.0001 11.8499L2.21227 19.6377C1.95957 19.8904 1.62787 20.0174 1.29617 20.0174C0.964474 20.0174 0.632772 19.8904 0.380083 19.6377C-0.126722 19.1312 -0.126722 18.3121 0.380083 17.8055L8.16769 10.0177Z" />
</g>
</svg>
