<svg width="24" height="24" viewBox="0 0 24 24" xmlns="http://www.w3.org/2000/svg">
<g>
<path d="M4.35824 15.7406C5.74376 17.1276 7.58884 17.9603 9.54589 18.0817C11.5029 18.2031 13.4368 17.6049 14.9833 16.3997L20.3043 21.7192C20.493 21.9014 20.7458 22.0022 21.0081 22C21.2705 21.9977 21.5214 21.8925 21.7069 21.707C21.8925 21.5216 21.9977 21.2707 22 21.0084C22.0022 20.7461 21.9014 20.4935 21.7191 20.3048L16.3981 14.9853C17.6571 13.3701 18.2524 11.3355 18.0624 9.29654C17.8725 7.2576 16.9117 5.36788 15.376 4.01277C13.8403 2.65766 11.8453 1.93925 9.798 2.00403C7.75066 2.06881 5.80515 2.91192 4.35824 4.3614C3.61061 5.10843 3.01754 5.9954 2.6129 6.97164C2.20827 7.94788 2 8.99425 2 10.051C2 11.1077 2.20827 12.1541 2.6129 13.1303C3.01754 14.1066 3.61061 14.9935 4.35824 15.7406ZM5.77304 5.7778C6.76218 4.78897 8.06367 4.17359 9.45577 4.03651C10.8479 3.89943 12.2444 4.24912 13.4076 5.02601C14.5707 5.8029 15.4284 6.95892 15.8345 8.29711C16.2406 9.6353 16.17 11.0729 15.6348 12.3649C15.0996 13.6569 14.1328 14.7234 12.8992 15.3827C11.6656 16.0421 10.2415 16.2534 8.86953 15.9807C7.49754 15.7081 6.26257 14.9683 5.37501 13.8874C4.48746 12.8065 4.00225 11.4514 4.00204 10.053C3.99929 9.25834 4.15443 8.47105 4.45844 7.73682C4.76246 7.00259 5.2093 6.33602 5.77304 5.7758V5.7778Z" />
</g>
</svg>
