<?xml version="1.0" encoding="utf-8"?>
<svg xmlns="http://www.w3.org/2000/svg" xmlns:xlink="http://www.w3.org/1999/xlink">
<symbol viewBox="0 0 12 8" id="arrow-down" xmlns="http://www.w3.org/2000/svg">
<g><path d="M1.38411 0.679908C1.20733 0.467769 0.892046 0.439107 0.679908 0.615889C0.467769 0.792671 0.439107 1.10795 0.615889 1.32009L1.38411 0.679908ZM6 7L5.61589 7.32009L6 7.78103L6.38411 7.32009L6 7ZM11.3841 1.32009C11.5609 1.10795 11.5322 0.792671 11.3201 0.615889C11.108 0.439107 10.7927 0.467769 10.6159 0.679908L11.3841 1.32009ZM0.615889 1.32009L5.61589 7.32009L6.38411 6.67991L1.38411 0.679908L0.615889 1.32009ZM6.38411 7.32009L11.3841 1.32009L10.6159 0.679908L5.61589 6.67991L6.38411 7.32009Z" /></g>
</symbol>
<symbol viewBox="0 0 12 20" id="arrow-right" xmlns="http://www.w3.org/2000/svg">
<g><path d="M1.5 1.50677L10 10.0068L1.5 18.5068" stroke="#556176" stroke-width="2"/></g>
</symbol>
<symbol viewBox="0 0 24 19" id="burger" xmlns="http://www.w3.org/2000/svg">
<rect width="24" height="3" rx="1.5" />
<rect y="8" width="24" height="3" rx="1.5" />
<rect y="16" width="24" height="3" rx="1.5" />
</symbol>
<symbol viewBox="0 0 20 20" id="close-rounded" xmlns="http://www.w3.org/2000/svg">
<g><path d="M8.16769 10.0177L0.380083 2.22987C-0.126722 1.7233 -0.126722 0.904253 0.380083 0.397686C0.88665 -0.10888 1.7057 -0.10888 2.21227 0.397686L10.0001 8.18553L17.7877 0.397686C18.2945 -0.10888 19.1133 -0.10888 19.6199 0.397686C20.1267 0.904253 20.1267 1.7233 19.6199 2.22987L11.8323 10.0177L19.6199 17.8055C20.1267 18.3121 20.1267 19.1312 19.6199 19.6377C19.3674 19.8904 19.0355 20.0174 18.7038 20.0174C18.3721 20.0174 18.0404 19.8904 17.7877 19.6377L10.0001 11.8499L2.21227 19.6377C1.95957 19.8904 1.62787 20.0174 1.29617 20.0174C0.964474 20.0174 0.632772 19.8904 0.380083 19.6377C-0.126722 19.1312 -0.126722 18.3121 0.380083 17.8055L8.16769 10.0177Z" /></g>
</symbol>
<symbol viewBox="0 0 24 24" id="close" xmlns="http://www.w3.org/2000/svg">
<g><path d="M12.0002 10.586L16.9502 5.63599L18.3642 7.04999L13.4142 12L18.3642 16.95L16.9502 18.364L12.0002 13.414L7.05023 18.364L5.63623 16.95L10.5862 12L5.63623 7.04999L7.05023 5.63599L12.0002 10.586Z" /></g>
</symbol>
<symbol viewBox="0 0 24 24" id="search" xmlns="http://www.w3.org/2000/svg">
<g><path d="M4.35824 15.7406C5.74376 17.1276 7.58884 17.9603 9.54589 18.0817C11.5029 18.2031 13.4368 17.6049 14.9833 16.3997L20.3043 21.7192C20.493 21.9014 20.7458 22.0022 21.0081 22C21.2705 21.9977 21.5214 21.8925 21.7069 21.707C21.8925 21.5216 21.9977 21.2707 22 21.0084C22.0022 20.7461 21.9014 20.4935 21.7191 20.3048L16.3981 14.9853C17.6571 13.3701 18.2524 11.3355 18.0624 9.29654C17.8725 7.2576 16.9117 5.36788 15.376 4.01277C13.8403 2.65766 11.8453 1.93925 9.798 2.00403C7.75066 2.06881 5.80515 2.91192 4.35824 4.3614C3.61061 5.10843 3.01754 5.9954 2.6129 6.97164C2.20827 7.94788 2 8.99425 2 10.051C2 11.1077 2.20827 12.1541 2.6129 13.1303C3.01754 14.1066 3.61061 14.9935 4.35824 15.7406ZM5.77304 5.7778C6.76218 4.78897 8.06367 4.17359 9.45577 4.03651C10.8479 3.89943 12.2444 4.24912 13.4076 5.02601C14.5707 5.8029 15.4284 6.95892 15.8345 8.29711C16.2406 9.6353 16.17 11.0729 15.6348 12.3649C15.0996 13.6569 14.1328 14.7234 12.8992 15.3827C11.6656 16.0421 10.2415 16.2534 8.86953 15.9807C7.49754 15.7081 6.26257 14.9683 5.37501 13.8874C4.48746 12.8065 4.00225 11.4514 4.00204 10.053C3.99929 9.25834 4.15443 8.47105 4.45844 7.73682C4.76246 7.00259 5.2093 6.33602 5.77304 5.7758V5.7778Z" /></g>
</symbol>
<symbol viewBox="0 0 35 35" id="chat" fill="none" xmlns="http://www.w3.org/2000/svg">
<g clip-path="url(#clip0_2831_18673)">
<path d="M31.5871 5.79626V5.79598C31.5871 4.47494 30.518 3.39795 29.2035 3.39795H6.01928C4.70151 3.39795 3.62125 4.47821 3.62125 5.79598V23.1842C3.62125 24.5019 4.70151 25.5822 6.01928 25.5822H26.3055H26.5126L26.6591 25.7286L31.6009 30.6705L31.5871 5.79626Z" stroke="white"/>
<rect x="8.66602" y="9.47583" width="18" height="1" fill="white"/>
<rect x="8.66602" y="14.4758" width="18" height="1" fill="white"/>
<rect x="15.666" y="19.4758" width="11" height="1" fill="white"/>
</g>
</symbol>
<symbol viewBox="0 0 28 32" id="helper" xmlns="http://www.w3.org/2000/svg">
<g>
<mask id="path-1-inside-1_2831_18725" fill="white">
<path fill-rule="evenodd" clip-rule="evenodd" d="M3 0C1.34315 0 0 1.34314 0 3V24.4286C0 26.0854 1.34314 27.4286 3 27.4286H9.14286L13.7143 32L18.2857 27.4286H24.4286C26.0854 27.4286 27.4286 26.0854 27.4286 24.4286V3C27.4286 1.34315 26.0854 0 24.4286 0H3Z"/>
</mask>
<path d="M9.14286 27.4286L9.84996 26.7215L9.55707 26.4286H9.14286V27.4286ZM13.7143 32L13.0072 32.7071L13.7143 33.4142L14.4214 32.7071L13.7143 32ZM18.2857 27.4286V26.4286H17.8715L17.5786 26.7215L18.2857 27.4286ZM1 3C1 1.89543 1.89543 1 3 1V-1C0.790862 -1 -1 0.790859 -1 3H1ZM1 24.4286V3H-1V24.4286H1ZM3 26.4286C1.89543 26.4286 1 25.5331 1 24.4286H-1C-1 26.6377 0.790859 28.4286 3 28.4286V26.4286ZM9.14286 26.4286H3V28.4286H9.14286V26.4286ZM14.4214 31.2929L9.84996 26.7215L8.43575 28.1357L13.0072 32.7071L14.4214 31.2929ZM17.5786 26.7215L13.0072 31.2929L14.4214 32.7071L18.9928 28.1357L17.5786 26.7215ZM24.4286 26.4286H18.2857V28.4286H24.4286V26.4286ZM26.4286 24.4286C26.4286 25.5331 25.5331 26.4286 24.4286 26.4286V28.4286C26.6377 28.4286 28.4286 26.6377 28.4286 24.4286H26.4286ZM26.4286 3V24.4286H28.4286V3H26.4286ZM24.4286 1C25.5331 1 26.4286 1.89543 26.4286 3H28.4286C28.4286 0.790862 26.6377 -1 24.4286 -1V1ZM3 1H24.4286V-1H3V1Z" fill="white" mask="url(#path-1-inside-1_2831_18725)"/>
<path d="M12.0938 22.9084H14.823V20.0427H12.0938V22.9084ZM13.4584 5.71436C10.4426 5.71436 8 8.27913 8 11.4457H10.7292C10.7292 9.86958 11.9574 8.58003 13.4584 8.58003C14.9595 8.58003 16.1876 9.86958 16.1876 11.4457C16.1876 14.3114 12.0938 13.9532 12.0938 18.6099H14.823C14.823 15.386 18.9168 15.0278 18.9168 11.4457C18.9168 8.27913 16.4742 5.71436 13.4584 5.71436Z"/>
</g>
</symbol>
<symbol viewBox="0 0 32 32" id="letter" xmlns="http://www.w3.org/2000/svg">
<g><path d="M0.639648 7.35166V26.0051C0.639648 26.8417 1.31788 27.52 2.15453 27.52H29.8448C30.6814 27.52 31.3596 26.8417 31.3596 26.0051V7.35166V6.47998C31.3596 5.37541 30.4642 4.47998 29.3596 4.47998H2.63965C1.53508 4.47998 0.639648 5.37541 0.639648 6.47998V7.35166ZM1.91965 8.3539L11.9036 16.1677L1.91965 24.887V8.3539ZM2.31645 26.24L12.9302 16.9709L15.9996 19.3728L19.0691 16.9709L29.6828 26.24H2.31645ZM30.0796 24.887L20.0956 16.167L30.0796 8.35326V24.887ZM1.91965 5.75998H30.0796V6.7283L15.9996 17.7472L1.91965 6.7283V5.75998Z"/></g>
</symbol>
<symbol viewBox="0 0 32 32" id="telephone" fill="none" xmlns="http://www.w3.org/2000/svg">
<g><path d="M29.3329 22.56V26.56C29.3344 26.9313 29.2584 27.2989 29.1096 27.6391C28.9608 27.9793 28.7426 28.2847 28.469 28.5358C28.1954 28.7868 27.8723 28.9779 27.5206 29.0969C27.1688 29.2159 26.7961 29.2601 26.4262 29.2266C22.3234 28.7808 18.3823 27.3788 14.9196 25.1333C11.698 23.0862 8.9667 20.3549 6.91959 17.1333C4.66622 13.6549 3.26391 9.69463 2.82625 5.5733C2.79293 5.20459 2.83675 4.83298 2.95492 4.48213C3.07309 4.13128 3.26301 3.80889 3.51261 3.53546C3.7622 3.26204 4.06599 3.04358 4.40464 2.894C4.74329 2.74441 5.10937 2.66698 5.47959 2.66663H9.47959C10.1267 2.66026 10.754 2.8894 11.2446 3.31134C11.7352 3.73328 12.0557 4.31923 12.1463 4.95997C12.3151 6.24005 12.6282 7.49694 13.0796 8.70663C13.259 9.18386 13.2978 9.70252 13.1915 10.2011C13.0851 10.6998 12.8381 11.1574 12.4796 11.52L10.7863 13.2133C12.6843 16.5514 15.4482 19.3152 18.7863 21.2133L20.4796 19.52C20.8421 19.1615 21.2998 18.9144 21.7984 18.8081C22.297 18.7017 22.8157 18.7406 23.2929 18.92C24.5026 19.3714 25.7595 19.6845 27.0396 19.8533C27.6873 19.9447 28.2788 20.2709 28.7016 20.77C29.1245 21.269 29.3491 21.9061 29.3329 22.56Z" stroke="white" stroke-linecap="round" stroke-linejoin="round"/></g>
</symbol>
<symbol viewBox="0 0 31 30" id="whatsapp" xmlns="http://www.w3.org/2000/svg">
<g>
<path fill-rule="evenodd" clip-rule="evenodd" d="M3.73707 22.5796C3.99641 22.965 4.05128 23.4527 3.88406 23.8861L2.44558 27.6144L6.34267 26.221C6.76175 26.0712 7.22681 26.126 7.59951 26.3693C9.37035 27.5252 11.3867 28.2515 13.4879 28.4903C15.5891 28.729 17.717 28.4736 19.702 27.7445C21.6871 27.0154 23.4744 25.8326 24.9214 24.2905C26.3685 22.7484 27.4353 20.8897 28.0369 18.8623C28.6385 16.835 28.7582 14.6952 28.3864 12.6134C28.0147 10.5316 27.1618 8.56542 25.8958 6.87157C24.6297 5.17772 22.9855 3.80303 21.0942 2.85707C19.2028 1.9111 17.1167 1.42001 15.002 1.42294L15 1.43897e-05C17.3363 -0.00322149 19.6411 0.539336 21.7307 1.58445C23.8202 2.62955 25.6368 4.14832 27.0355 6.01968C28.4342 7.89105 29.3765 10.0633 29.7872 12.3632C30.1979 14.6632 30.0656 17.0273 29.401 19.2671C28.7364 21.5069 27.5577 23.5605 25.959 25.2642C24.3603 26.9679 22.3857 28.2746 20.1927 29.0802C17.9996 29.8857 15.6487 30.1679 13.3273 29.9041C11.0059 29.6403 8.77817 28.8379 6.82174 27.5609L0 30L2.55652 23.3739C1.03787 21.117 0.161573 18.4895 0.0214238 15.7728C-0.118725 13.0561 0.482552 10.3524 1.76089 7.95116C3.03924 5.54991 4.94652 3.5415 7.27857 2.14091C9.61063 0.740325 12.2797 0.000287115 15 1.43897e-05L15.0001 1.42294C12.5379 1.42319 10.122 2.09302 8.01118 3.36075C5.90035 4.62848 4.174 6.44636 3.01692 8.61982C1.85984 10.7933 1.3156 13.2405 1.44246 15.6995C1.56931 18.1585 2.36248 20.5367 3.73707 22.5796Z"/>
<path d="M11.7394 18.2612C13.435 19.9568 17.1785 22.1742 18.9133 22.1742C19.6743 22.1821 20.4146 21.9267 21.0088 21.4513C21.6031 20.9759 22.0148 20.3097 22.1742 19.5655V18.2612C22.1742 18.2612 20.5698 17.4786 19.5655 16.9568C18.5611 16.4351 16.9568 18.2612 16.9568 18.2612C15.7361 17.8635 14.6213 17.1946 13.6959 16.3047C12.806 15.3793 12.1371 14.2645 11.7394 13.0438C11.7394 13.0438 13.5655 11.4395 13.0437 10.4351C12.522 9.43076 11.7394 7.82642 11.7394 7.82642H10.435C9.6909 7.9858 9.02471 8.39748 8.5493 8.99174C8.0739 9.586 7.81849 10.3263 7.82635 11.0873C7.82635 12.8221 10.0437 16.5655 11.7394 18.2612Z"/>
</g>
</symbol>
<symbol viewBox="0 0 9 15" fill="none" id="arrow-pagination-left" xmlns="http://www.w3.org/2000/svg">
<path d="M8 13.3159L1.8858 8.07518C1.42019 7.67608 1.42019 6.95576 1.8858 6.55666L8 1.31592" stroke-width="2" stroke-linecap="round"/>
</symbol>
<symbol viewBox="0 0 9 15" fill="none" id="arrow-pagination-right" xmlns="http://www.w3.org/2000/svg">
<path d="M1 13.3159L7.1142 8.07518C7.57981 7.67608 7.57981 6.95576 7.1142 6.55666L1 1.31592" stroke-width="2" stroke-linecap="round"/>
</symbol>
</svg>