<svg width="60" height="60" viewBox="0 0 60 60" fill="none" xmlns="http://www.w3.org/2000/svg">
<path d="M40.411 34.682L36.7305 34.2617C35.8466 34.1603 34.9772 34.4646 34.3541 35.0877L31.6879 37.7539C27.5872 35.6673 24.2255 32.3201 22.1389 28.2049L24.8196 25.5242C25.4427 24.9011 25.747 24.0317 25.6455 23.1478L25.2253 19.4963C25.0515 18.0328 23.8198 16.9315 22.3418 16.9315H19.835C18.1976 16.9315 16.8355 18.2936 16.937 19.931C17.7049 32.3056 27.6017 42.1879 39.9618 42.9558C41.5992 43.0573 42.9613 41.6952 42.9613 40.0578V37.551C42.9758 36.0875 41.8745 34.8558 40.411 34.682Z" fill="white"/>
</svg>
