<svg width="60" height="60" viewBox="0 0 60 60" fill="none" xmlns="http://www.w3.org/2000/svg">
<path fill-rule="evenodd" clip-rule="evenodd" d="M42.117 18.7415C41.6006 18.2251 40.7633 18.2251 40.2469 18.7415L30.4291 28.5593L20.6113 18.7415C20.095 18.2251 19.2577 18.2251 18.7413 18.7415C18.2249 19.2579 18.2249 20.0951 18.7413 20.6115L28.5591 30.4294L18.7414 40.2471C18.225 40.7635 18.225 41.6007 18.7414 42.1172C19.2578 42.6336 20.095 42.6336 20.6114 42.1172L30.4291 32.2994L40.2468 42.1171C40.7632 42.6335 41.6005 42.6335 42.1169 42.1171C42.6333 41.6007 42.6333 40.7635 42.1169 40.2471L32.2992 30.4294L42.117 20.6115C42.6334 20.0951 42.6334 19.2579 42.117 18.7415Z" fill="#007953"/>
</svg>
