<svg width="60" height="60" viewBox="0 0 60 60" fill="none" xmlns="http://www.w3.org/2000/svg">
<path fill-rule="evenodd" clip-rule="evenodd" d="M18.3541 18.3541H41.5383C43.1323 18.3541 44.4364 19.6582 44.4364 21.2522V38.6403C44.4364 40.2343 43.1323 41.5384 41.5383 41.5384H18.3541C16.7602 41.5384 15.4561 40.2343 15.4561 38.6403L15.4705 21.2522C15.4705 19.6582 16.7602 18.3541 18.3541 18.3541ZM30.7142 30.9171L40.9587 24.5124C41.321 24.2806 41.5383 23.8894 41.5383 23.4692C41.5383 22.4983 40.4806 21.9187 39.6546 22.4259L29.9462 28.4972L20.2378 22.4259C19.4119 21.9187 18.3541 22.4983 18.3541 23.4692C18.3541 23.8894 18.5714 24.2806 18.9337 24.5124L29.1782 30.9171C29.6419 31.2069 30.2505 31.2069 30.7142 30.9171Z" fill="white"/>
</svg>
