<svg width="60" height="60" viewBox="0 0 60 60" fill="none" xmlns="http://www.w3.org/2000/svg">
<g><path d="M39.3333 16.6666H20.6667C19.1867 16.6666 18 17.8666 18 19.3333V38C18 39.4666 19.1867 40.6666 20.6667 40.6666H26L30 44.6666L34 40.6666H39.3333C40.8 40.6666 42 39.4666 42 38V19.3333C42 17.8666 40.8 16.6666 39.3333 16.6666ZM31.3333 38H28.6667V35.3333H31.3333V38ZM34.0933 27.6666L32.8933 28.8933C31.9333 29.8666 31.3333 30.6666 31.3333 32.6666H28.6667V32C28.6667 30.5333 29.2667 29.2 30.2267 28.2266L31.88 26.5466C32.3733 26.0666 32.6667 25.4 32.6667 24.6666C32.6667 23.2 31.4667 22 30 22C28.5333 22 27.3333 23.2 27.3333 24.6666H24.6667C24.6667 21.72 27.0533 19.3333 30 19.3333C32.9467 19.3333 35.3333 21.72 35.3333 24.6666C35.3333 25.84 34.8533 26.9066 34.0933 27.6666Z" fill="white"/></g>
</svg>
