<svg width="60" height="60" viewBox="0 0 60 60" fill="none" xmlns="http://www.w3.org/2000/svg">
<g clip-path="url(#clip0_403_469)">
<path d="M14.3318 46.3685C14.1365 46.3685 13.9465 46.2913 13.8056 46.1488C13.6199 45.961 13.5483 45.6883 13.618 45.4333L15.8789 37.1775C14.4713 34.6323 13.7292 31.753 13.7303 28.8302C13.7343 19.325 21.4695 11.5922 30.9738 11.5922C35.5838 11.594 39.9155 13.3897 43.1712 16.6479C46.4265 19.9063 48.2185 24.2377 48.2171 28.844C48.2129 38.3494 40.4777 46.0828 30.9738 46.0828C30.9738 46.0828 30.9667 46.0828 30.9664 46.0828C28.1903 46.0817 25.4382 45.4052 22.9876 44.1236L14.5193 46.3444C14.4573 46.3606 14.3941 46.3685 14.3318 46.3685Z" fill="white"/>
<path d="M14.332 45.6285L16.6732 37.079C15.2291 34.5768 14.4695 31.7383 14.4705 28.8304C14.4742 19.7333 21.8773 12.3322 30.9742 12.3322C35.3886 12.334 39.5322 14.0522 42.6481 17.1708C45.7638 20.2894 47.4791 24.4348 47.4775 28.8437C47.4735 37.9405 40.0694 45.3427 30.9742 45.3427C30.9736 45.3427 30.9744 45.3427 30.9742 45.3427H30.967C28.205 45.3417 25.4913 44.6489 23.0808 43.3342L14.332 45.6285ZM23.4859 40.3475L23.9871 40.6444C26.0927 41.8941 28.5069 42.555 30.9688 42.5563H30.9742C38.5343 42.5563 44.6876 36.404 44.6908 28.8426C44.6922 25.1783 43.2668 21.7325 40.677 19.1406C38.0869 16.5487 34.6433 15.1204 30.9792 15.1188C23.413 15.1188 17.2599 21.2703 17.257 28.8315C17.2559 31.4226 17.9808 33.9458 19.3541 36.1294L19.6804 36.6484L18.2944 41.7086L23.4859 40.3475Z" fill="white"/>
<path d="M14.9058 45.0525L17.166 36.7986C15.7715 34.3831 15.0384 31.6426 15.0392 28.8357C15.0427 20.0536 22.1897 12.9087 30.971 12.9087C35.2332 12.9105 39.2334 14.5693 42.2409 17.58C45.2491 20.5906 46.9047 24.5924 46.9031 28.8482C46.8994 37.6307 39.7521 44.7763 30.9718 44.7763C30.971 44.7763 30.9721 44.7763 30.9718 44.7763H30.9647C28.2984 44.7753 25.6784 44.1061 23.3515 42.8379L14.9058 45.0525Z" fill="#007953"/>
<path d="M14.332 45.6285L16.6732 37.079C15.2291 34.5768 14.4695 31.7383 14.4705 28.8304C14.4742 19.7333 21.8773 12.3322 30.9742 12.3322C35.3886 12.334 39.5322 14.0522 42.6481 17.1708C45.7638 20.2894 47.4791 24.4348 47.4775 28.8437C47.4735 37.9405 40.0694 45.3427 30.9742 45.3427C30.9736 45.3427 30.9744 45.3427 30.9742 45.3427H30.967C28.205 45.3417 25.4913 44.6489 23.0808 43.3342L14.332 45.6285ZM23.4859 40.3475L23.9871 40.6444C26.0927 41.8941 28.5069 42.555 30.9688 42.5563H30.9742C38.5343 42.5563 44.6876 36.404 44.6908 28.8426C44.6922 25.1783 43.2668 21.7325 40.677 19.1406C38.0869 16.5487 34.6433 15.1204 30.9792 15.1188C23.413 15.1188 17.2599 21.2703 17.257 28.8315C17.2559 31.4226 17.9808 33.9458 19.3541 36.1294L19.6804 36.6484L18.2944 41.7086L23.4859 40.3475Z" fill="white"/>
<path fill-rule="evenodd" clip-rule="evenodd" d="M26.8492 21.9332C26.5404 21.2465 26.2151 21.2327 25.9211 21.2208C25.6808 21.2104 25.4056 21.2109 25.131 21.2109C24.8561 21.2109 24.4093 21.3144 24.0315 21.727C23.6534 22.1396 22.5879 23.1372 22.5879 25.1661C22.5879 27.1953 24.0657 29.1558 24.2719 29.4312C24.478 29.7064 27.1246 34.003 31.3159 35.656C34.7993 37.0298 35.508 36.7565 36.2642 36.6878C37.0204 36.6191 38.7038 35.6902 39.0474 34.7273C39.3913 33.7645 39.3913 32.9393 39.2881 32.7666C39.1848 32.5949 38.91 32.4917 38.4977 32.2856C38.0854 32.0794 36.058 31.0815 35.6799 30.9441C35.3019 30.8064 35.027 30.7379 34.7521 31.1508C34.477 31.5631 33.6874 32.4917 33.4467 32.7666C33.2061 33.0423 32.9654 33.0768 32.5531 32.8703C32.1408 32.6637 30.8126 32.2285 29.2371 30.8236C28.0113 29.7308 27.1835 28.3808 26.9429 27.9679C26.7025 27.5556 26.9389 27.3519 27.1241 27.1266C27.4576 26.7209 28.0172 25.9916 28.1546 25.7167C28.292 25.4413 28.2233 25.2006 28.1204 24.9942C28.0172 24.788 27.2156 22.7488 26.8492 21.9332Z" fill="white"/>
</g>
</svg>
