<svg width="23" height="23" viewBox="0 0 23 23" fill="none" xmlns="http://www.w3.org/2000/svg">
<g clip-path="url(#clip0_2775_16610)">
<path d="M2.37954 15.2765C1.37081 12.8412 1.37076 10.1588 2.37954 7.72345C3.22707 5.67738 4.7015 4.01179 6.59543 2.93326V7.00428H8.22373V0.817017H2.0364V2.44532H4.41128C0.449084 5.54799 -1.14252 11.0286 0.875156 15.8997C1.64409 17.7561 2.88719 19.382 4.47012 20.6019C6.00473 21.7845 7.82837 22.5668 9.74374 22.864L9.99347 21.2549C6.55542 20.7214 3.70916 18.4865 2.37954 15.2765Z" fill="#007953"/>
<path d="M22.1188 15.8997C23.2939 13.0626 23.2939 9.93755 22.1188 7.1004C21.3499 5.24403 20.1068 3.61806 18.5238 2.39825C16.9892 1.21556 15.1655 0.433327 13.2502 0.136108L13.0005 1.74519C16.4385 2.27868 19.2847 4.51357 20.6144 7.72355C21.6231 10.1589 21.6231 12.8413 20.6144 15.2766C19.7669 17.3227 18.2924 18.9883 16.3985 20.0668V15.9958H14.7702V22.1831H20.9575V20.5548H18.5897C20.134 19.3489 21.3486 17.7591 22.1188 15.8997Z" fill="#007953"/>
</g>
<defs>
<clipPath id="clip0_2775_16610">
<rect width="23" height="23" fill="white"/>
</clipPath>
</defs>
</svg>
