<svg width="24" height="24" viewBox="0 0 24 24" fill="none" xmlns="http://www.w3.org/2000/svg">
<path d="M8.54517 15.4546C11.1557 15.4546 13.272 13.3383 13.272 10.7278C13.272 8.11724 11.1557 6.00098 8.54517 6.00098C5.93462 6.00098 3.81836 8.11724 3.81836 10.7278C3.81836 13.3383 5.93462 15.4546 8.54517 15.4546Z" stroke="#007953" stroke-width="1.5" stroke-miterlimit="10"/>
<path d="M14.673 6.17716C15.3231 5.99398 16.0049 5.95225 16.6726 6.05478C17.3402 6.15731 17.9781 6.40171 18.5433 6.77153C19.1085 7.14136 19.5879 7.628 19.9492 8.1987C20.3105 8.7694 20.5453 9.41089 20.6378 10.08C20.7303 10.7491 20.6783 11.4302 20.4854 12.0775C20.2925 12.7248 19.9631 13.3233 19.5194 13.8326C19.0758 14.3419 18.5281 14.7502 17.9133 15.03C17.2986 15.3098 16.631 15.4546 15.9555 15.4547M2 18.8541C2.73823 17.804 3.71828 16.9469 4.8574 16.3553C5.99652 15.7636 7.26128 15.4547 8.54488 15.4547C9.82849 15.4546 11.0933 15.7634 12.2324 16.355C13.3716 16.9466 14.3517 17.8035 15.09 18.8536M15.9555 15.4547C17.2393 15.4538 18.5043 15.7622 19.6436 16.3538C20.7828 16.9455 21.7627 17.8029 22.5004 18.8536" stroke="#007953" stroke-width="1.5" stroke-linecap="round" stroke-linejoin="round"/>
</svg>
