<svg width="31" height="36" viewBox="0 0 31 36" fill="none" xmlns="http://www.w3.org/2000/svg">
<g clip-path="url(#clip0_2603_14242)">
<path d="M7.17641 5.06537C7.17392 4.05996 7.46531 3.07641 8.01368 2.23925C8.56206 1.40208 9.34277 0.74894 10.257 0.362532C11.1711 -0.0238754 12.1777 -0.126179 13.1492 0.0685725C14.1207 0.263324 15.0134 0.746368 15.7143 1.45656C16.4153 2.16674 16.8929 3.07214 17.0867 4.0581C17.2806 5.04406 17.1819 6.06624 16.8033 6.99524C16.4246 7.92425 15.783 8.71828 14.9596 9.27682C14.1362 9.83536 13.1681 10.1333 12.1779 10.1329C11.5217 10.1337 10.8718 10.0033 10.2653 9.74903C9.65884 9.4948 9.10763 9.12173 8.64317 8.65114C8.17871 8.18055 7.81013 7.62167 7.55846 7.00641C7.30679 6.39115 7.17696 5.73158 7.17641 5.06537Z" fill="#007854"/>
<path d="M15.3041 13.4495C15.3019 12.4892 15.5676 11.548 16.0704 10.7347C16.5732 9.92139 17.2926 9.26928 18.1453 8.85384C18.9979 8.43839 19.949 8.27659 20.8885 8.38715C21.8279 8.49772 22.7174 8.87615 23.4538 9.47862C24.1902 10.0811 24.7436 10.883 25.0498 11.7915C25.3561 12.7 25.4026 13.678 25.1842 14.6123C24.9657 15.5466 24.4912 16.3989 23.8154 17.0708C23.1397 17.7426 22.2904 18.2064 21.3658 18.4085C20.8357 17.2889 20.0051 16.344 18.9693 15.6827C17.9336 15.0214 16.735 14.6706 15.5115 14.6706H15.4508C15.3528 14.2712 15.3035 13.8611 15.3041 13.4495Z" fill="#003D70"/>
<path d="M10.5016 21.2401C10.4987 20.2334 10.7901 19.2485 11.3388 18.41C11.8875 17.5716 12.6689 16.9173 13.5841 16.53C14.4993 16.1428 15.5071 16.0399 16.4799 16.2345C17.4526 16.4291 18.3467 16.9123 19.0488 17.6231C19.7509 18.3339 20.2295 19.2402 20.424 20.2273C20.6185 21.2145 20.5201 22.238 20.1414 23.1683C19.7626 24.0986 19.1205 24.8939 18.2963 25.4535C17.4722 26.0131 16.503 26.3118 15.5115 26.3118C14.8545 26.3129 14.2038 26.1826 13.5964 25.9283C12.989 25.674 12.4369 25.3007 11.9717 24.8297C11.5065 24.3588 11.1372 23.7993 10.885 23.1834C10.6327 22.5675 10.5024 21.9071 10.5016 21.2401V21.2401ZM-3.14547e-05 27.4372C-3.14547e-05 23.944 3.79037 20.938 9.2193 19.6084C9.13368 19.9477 9.07483 20.2934 9.0433 20.6423C6.70075 21.5103 5.20052 22.8356 5.20052 24.3269C5.20052 26.9394 9.81017 29.0562 15.501 29.0562C21.1919 29.0562 25.8015 26.9288 25.8015 24.3269C25.8015 22.8378 24.3055 21.5124 21.965 20.6465C21.9343 20.2984 21.8762 19.9534 21.7911 19.6147C27.2138 20.9465 30.9937 23.9483 30.9937 27.4372C30.9937 32.1664 24.0541 36 15.4885 36C6.92286 36 -0.0167847 32.1707 -0.0167847 27.4372" fill="#E0261C"/>
</g>
<defs>
<clipPath id="clip0_2603_14242">
<rect width="31" height="36" fill="white"/>
</clipPath>
</defs>
</svg>
