<svg width="27" height="48" viewBox="0 0 27 48" fill="none" xmlns="http://www.w3.org/2000/svg">
<g clip-path="url(#clip0_2648_15193)">
<path d="M4.82432 5.09358C2.89517 7.28358 1.68682 10.4738 1.73374 13.4746C1.83172 19.7452 4.489 22.1189 8.73846 30.7493C10.2692 34.547 11.8668 38.5655 13.3863 45.2209C13.5975 46.2027 13.8034 47.1146 13.8987 47.1936C13.9939 47.2727 14.1999 46.3575 14.4111 45.3758C15.9306 38.7203 17.5282 34.7051 19.0589 30.9074C23.3084 22.277 25.9657 19.9032 26.0637 13.6325C26.1106 10.6318 24.8992 7.43838 22.9701 5.24837C20.7663 2.74665 17.4424 0.895195 13.8987 0.817774C10.355 0.740303 7.02806 2.59186 4.82432 5.09358Z" fill="#FF4646" stroke="#D73534" stroke-width="1.18559"/>
<path d="M13.8985 18.6584C16.4691 18.6584 18.553 16.4419 18.553 13.7076C18.553 10.9734 16.4691 8.75684 13.8985 8.75684C11.328 8.75684 9.24414 10.9734 9.24414 13.7076C9.24414 16.4419 11.328 18.6584 13.8985 18.6584Z" fill="#590000"/>
</g>
<defs>
<clipPath id="clip0_2648_15193">
<rect width="25.8659" height="48" fill="white" transform="translate(0.964844)"/>
</clipPath>
</defs>
</svg>
