<svg width="15" height="15" viewBox="0 0 15 15" fill="none" xmlns="http://www.w3.org/2000/svg">
<path fill-rule="evenodd" clip-rule="evenodd" d="M8.83983 0.331307C8.86175 0.127301 9.04239 -0.0200347 9.2433 0.00222406C10.7103 0.164757 12.0794 0.820022 13.1254 1.86187C14.1715 2.90384 14.8322 4.27066 14.9976 5.73832C15.0206 5.94221 14.8764 6.1264 14.6756 6.14973C14.4748 6.17305 14.2934 6.02668 14.2705 5.82279C14.1244 4.52604 13.5404 3.31623 12.6129 2.3924C11.6853 1.46846 10.4692 0.88561 9.16392 0.740997C8.96301 0.718738 8.81791 0.535314 8.83983 0.331307ZM4.44811 1.6661C4.26428 1.50844 4.02813 1.422 3.78355 1.4244L3.78001 1.42443L1.73099 1.42442C1.59121 1.42457 1.45318 1.45374 1.32573 1.50989C1.19825 1.56604 1.08437 1.64784 0.991135 1.74971C0.897915 1.85155 0.827346 1.97123 0.783537 2.10095C0.740027 2.22978 0.723761 2.366 0.735625 2.50114C0.953925 4.54653 1.65205 6.51239 2.77398 8.23956L2.77576 8.2423C3.79509 9.84211 5.15547 11.199 6.76069 12.2163L6.76353 12.2181C8.48863 13.3338 10.4524 14.0309 12.4972 14.253C12.6359 14.2651 12.7755 14.2484 12.9071 14.204C13.0397 14.1593 13.161 14.0876 13.2634 13.9939C13.3658 13.9002 13.447 13.7866 13.5023 13.6607C13.5575 13.5347 13.5856 13.3989 13.585 13.262L13.585 13.2604V11.2168C13.585 11.2136 13.5851 11.2105 13.5851 11.2074C13.5911 10.9664 13.5082 10.7306 13.3505 10.5449C13.1929 10.3595 12.9714 10.2368 12.7273 10.2021C12.0452 10.1123 11.3755 9.94582 10.7307 9.70589L10.7299 9.70558C10.55 9.63815 10.3543 9.62349 10.166 9.66353C9.97816 9.70348 9.80653 9.79605 9.67106 9.92937C9.67081 9.92961 9.67056 9.92986 9.67031 9.93011L8.80427 10.7938C8.68836 10.9094 8.51128 10.9336 8.36944 10.8531C6.60239 9.85108 5.13844 8.39144 4.13273 6.62752C4.04905 6.48076 4.07385 6.29508 4.19301 6.17625L5.05905 5.31255C5.05928 5.31232 5.05951 5.31209 5.05973 5.31186C5.19335 5.17685 5.28473 5.00728 5.32402 4.82352C5.36338 4.6395 5.34905 4.44806 5.28255 4.27162L5.28223 4.27077C5.04126 3.62675 4.87402 2.95754 4.78373 2.2759C4.74993 2.0402 4.63136 1.82328 4.44811 1.6661ZM3.77834 0.681259C4.1961 0.677611 4.60196 0.825281 4.92036 1.09836C5.2394 1.37199 5.44905 1.75319 5.50835 2.17162L5.50885 2.17509C5.59158 2.8007 5.74499 3.41504 5.96623 4.00641C6.08339 4.31751 6.10879 4.65589 6.03922 4.98122C5.96962 5.30667 5.80811 5.60452 5.57479 5.83983L5.57334 5.84129L4.91114 6.5017C5.79635 7.96062 7.02425 9.18406 8.4896 10.066L9.16041 9.397C9.39626 9.1644 9.69329 9.00479 10.016 8.93616C10.3385 8.86755 10.6741 8.89253 10.9831 9.00832C11.5771 9.22933 12.1944 9.38266 12.8231 9.46536L12.8263 9.46578C13.2452 9.52473 13.6293 9.73536 13.9046 10.0595C14.1791 10.3825 14.3263 10.7957 14.3169 11.2211V13.2598C14.3178 13.5019 14.2679 13.7414 14.1709 13.9629C14.0737 14.1846 13.9313 14.3831 13.7533 14.546C13.5754 14.7088 13.3657 14.8324 13.1378 14.9092C12.91 14.9861 12.6688 15.0146 12.4295 14.993L12.423 14.9924C10.2658 14.7586 8.19329 14.0236 6.37184 12.8459C4.67727 11.7717 3.23993 10.3385 2.16216 8.64739C0.976364 6.82142 0.238118 4.74213 0.00766485 2.57786L0.00708359 2.57196C-0.0147296 2.33123 0.0139768 2.08869 0.0912489 1.85988C0.168515 1.63109 0.292547 1.42132 0.455063 1.24377C0.617561 1.06624 0.814956 0.924812 1.03446 0.828119C1.25394 0.731432 1.49095 0.681484 1.73045 0.681259L3.77834 0.681259ZM8.84421 3.02659C8.88225 2.82504 9.07399 2.69296 9.27247 2.73158C10.0099 2.87506 10.6884 3.23488 11.221 3.76602C11.7537 4.29723 12.116 4.9757 12.2607 5.71497C12.3 5.91625 12.1713 6.11184 11.973 6.15183C11.7748 6.19181 11.5822 6.06105 11.5428 5.85977C11.4271 5.26828 11.1369 4.72374 10.7082 4.29622C10.2795 3.86863 9.73171 3.57762 9.13474 3.46146C8.93625 3.42284 8.80618 3.22814 8.84421 3.02659Z" fill="#219963"/>
</svg>
