<svg width="24" height="24" viewBox="0 0 24 24" fill="none" xmlns="http://www.w3.org/2000/svg">
<rect width="24" height="24" rx="5" fill="#007953"/>
<path d="M16.7999 6.28H7.19988V5.64C7.19988 5.47026 7.26731 5.30747 7.38733 5.18745C7.50736 5.06743 7.67014 5 7.83988 5H16.1599C16.3296 5 16.4924 5.06743 16.6124 5.18745C16.7325 5.30747 16.7999 5.47026 16.7999 5.64V6.28ZM16.7999 11.4H7.19988C7.11501 11.4 7.03362 11.4337 6.97361 11.4937C6.9136 11.5537 6.87988 11.6351 6.87988 11.72V19.08C6.87988 19.2497 6.94731 19.4125 7.06733 19.5325C7.18736 19.6526 7.35014 19.72 7.51988 19.72H16.4799C16.6496 19.72 16.8124 19.6526 16.9324 19.5325C17.0525 19.4125 17.1199 19.2497 17.1199 19.08V11.72C17.1199 11.6351 17.0862 11.5537 17.0262 11.4937C16.9661 11.4337 16.8848 11.4 16.7999 11.4ZM15.8399 18.44H8.15988V12.04H15.8399V18.44Z" fill="white"/>
<path d="M19.36 7.55957H4.64C4.47026 7.55957 4.30747 7.627 4.18745 7.74702C4.06743 7.86705 4 8.02983 4 8.19957V15.2396C4 15.4093 4.06743 15.5721 4.18745 15.6921C4.30747 15.8121 4.47026 15.8796 4.64 15.8796H8.16V12.0396H15.84V15.8796H19.36C19.5297 15.8796 19.6925 15.8121 19.8125 15.6921C19.9326 15.5721 20 15.4093 20 15.2396V8.19957C20 8.02983 19.9326 7.86705 19.8125 7.74702C19.6925 7.627 19.5297 7.55957 19.36 7.55957Z" fill="white"/>
</svg>
