<svg width="24" height="24" viewBox="0 0 24 24" fill="none" xmlns="http://www.w3.org/2000/svg">
<rect width="24" height="24" rx="5" fill="#007953"/>
<path d="M19.5 7.34967C18.9363 7.59424 18.3401 7.75592 17.73 7.82967C18.3736 7.44516 18.856 6.84026 19.0875 6.12717C18.4827 6.48722 17.8206 6.74089 17.13 6.87717C16.6684 6.3766 16.0537 6.04339 15.3824 5.92981C14.711 5.81622 14.0209 5.92869 13.4203 6.24956C12.8198 6.57043 12.3427 7.08157 12.0639 7.7028C11.7852 8.32403 11.7205 9.02021 11.88 9.68217C10.6571 9.62031 9.46083 9.30188 8.36899 8.74757C7.27715 8.19325 6.31413 7.41544 5.5425 6.46467C5.27185 6.9373 5.12964 7.47254 5.13 8.01717C5.12904 8.52296 5.25316 9.02113 5.49132 9.46734C5.72947 9.91355 6.07426 10.294 6.495 10.5747C6.00598 10.5614 5.52741 10.4301 5.1 10.1922V10.2297C5.10367 10.9383 5.352 11.624 5.80299 12.1706C6.25398 12.7173 6.87994 13.0914 7.575 13.2297C7.30744 13.3111 7.02966 13.354 6.75 13.3572C6.55642 13.3549 6.36332 13.3374 6.1725 13.3047C6.37043 13.9143 6.75347 14.447 7.26831 14.8288C7.78315 15.2105 8.40418 15.4223 9.045 15.4347C7.9629 16.2861 6.62691 16.7508 5.25 16.7547C4.9993 16.7555 4.7488 16.7405 4.5 16.7097C5.90582 17.6174 7.54411 18.0992 9.2175 18.0972C10.3723 18.1092 11.5179 17.8909 12.5873 17.4552C13.6568 17.0195 14.6288 16.3751 15.4464 15.5595C16.264 14.744 16.911 13.7737 17.3494 12.7053C17.7879 11.637 18.009 10.492 18 9.33717C18 9.20967 18 9.07467 18 8.93967C18.5885 8.50078 19.0961 7.96274 19.5 7.34967Z" fill="white"/>
</svg>
