<svg width="60" height="59" viewBox="0 0 60 59" fill="none" xmlns="http://www.w3.org/2000/svg">
<path d="M28.4953 43.8577H31.7424V26.0452H28.4953V43.8577ZM30.0001 21.375C30.5283 21.375 30.99 21.1901 31.3852 20.8202C31.7817 20.4516 31.9799 19.9766 31.9799 19.3952C31.9799 18.7619 31.795 18.2609 31.4251 17.8923C31.0552 17.5224 30.5802 17.3375 30.0001 17.3375C29.3668 17.3375 28.8785 17.5224 28.5352 17.8923C28.1919 18.2609 28.0203 18.7359 28.0203 19.3173C28.0203 19.8974 28.2052 20.3851 28.5751 20.7803C28.945 21.1768 29.42 21.375 30.0001 21.375V21.375ZM30.0001 58.425C25.9366 58.425 22.1366 57.6599 18.6001 56.1298C15.0636 54.5984 11.9761 52.5135 9.3376 49.875C6.69913 47.2365 4.6142 44.149 3.0828 40.6125C1.55266 37.076 0.787598 33.276 0.787598 29.2125C0.787598 25.149 1.55266 21.349 3.0828 17.8125C4.6142 14.276 6.71243 11.1752 9.3775 8.5101C12.0426 5.84503 15.1301 3.7601 18.64 2.2553C22.1499 0.751766 25.9366 0 30.0001 0C34.0116 0 37.8116 0.751766 41.4001 2.2553C44.9886 3.7601 48.1027 5.83173 50.7424 8.4702C53.3809 11.1099 55.4525 14.2107 56.9573 17.7726C58.4608 21.3357 59.2126 25.149 59.2126 29.2125C59.2126 33.276 58.4608 37.0627 56.9573 40.5726C55.4525 44.0825 53.3809 47.1567 50.7424 49.7952C48.1027 52.4349 45.0019 54.5332 41.44 56.0899C37.8769 57.6466 34.0636 58.425 30.0001 58.425ZM30.0001 55.1798C37.2302 55.1798 43.366 52.6598 48.4073 47.6197C53.4474 42.5784 55.9674 36.4426 55.9674 29.2125C55.9674 21.9824 53.4474 15.8473 48.4073 10.8072C43.366 5.76587 37.2302 3.2452 30.0001 3.2452C22.77 3.2452 16.6342 5.76587 11.5929 10.8072C6.55283 15.8473 4.0328 21.9824 4.0328 29.2125C4.0328 36.4426 6.55283 42.5784 11.5929 47.6197C16.6342 52.6598 22.77 55.1798 30.0001 55.1798Z" fill="white"/>
</svg>
