<svg width="24" height="28" viewBox="0 0 24 28" fill="none" xmlns="http://www.w3.org/2000/svg">
<g clip-path="url(#clip0_6502_10317)">
<path d="M5.55665 3.8594C5.55473 3.09337 5.78032 2.344 6.20487 1.70616C6.62942 1.06832 7.23383 0.570691 7.94159 0.276285C8.64935 -0.018121 9.42863 -0.0960664 10.1807 0.0523154C10.9329 0.200697 11.624 0.568731 12.1667 1.10983C12.7093 1.65092 13.0791 2.34075 13.2292 3.09195C13.3792 3.84316 13.3029 4.62197 13.0097 5.32978C12.7166 6.03759 12.2198 6.64257 11.5824 7.06812C10.9449 7.49367 10.1954 7.72066 9.42877 7.72034C8.92078 7.72098 8.41763 7.62161 7.94809 7.4279C7.47854 7.2342 7.05179 6.94996 6.69221 6.59141C6.33263 6.23287 6.04728 5.80705 5.85243 5.33829C5.65759 4.86952 5.55708 4.36699 5.55665 3.8594Z" fill="white"/>
<path d="M11.8477 10.247C11.846 9.51542 12.0517 8.79828 12.441 8.17863C12.8302 7.55897 13.3872 7.06213 14.0473 6.74559C14.7074 6.42906 15.4437 6.30578 16.171 6.39003C16.8984 6.47427 17.587 6.76259 18.1571 7.22162C18.7273 7.68065 19.1557 8.29161 19.3928 8.98381C19.6298 9.67602 19.6659 10.4212 19.4968 11.133C19.3276 11.8448 18.9602 12.4942 18.4371 13.0061C17.9139 13.518 17.2564 13.8713 16.5406 14.0253C16.1302 13.1723 15.4871 12.4524 14.6853 11.9486C13.8834 11.4447 12.9555 11.1774 12.0083 11.1774H11.9612C11.8854 10.8731 11.8472 10.5606 11.8477 10.247Z" fill="white"/>
<path d="M8.12961 16.1828C8.12737 15.4158 8.35293 14.6654 8.77775 14.0266C9.20257 13.3877 9.80753 12.8892 10.5161 12.5942C11.2246 12.2991 12.0048 12.2207 12.7579 12.369C13.511 12.5172 14.2032 12.8854 14.7468 13.427C15.2903 13.9685 15.6609 14.6591 15.8115 15.4112C15.962 16.1633 15.8859 16.9431 15.5927 17.6519C15.2994 18.3607 14.8023 18.9667 14.1642 19.393C13.5262 19.8194 12.7758 20.047 12.0082 20.047C11.4996 20.0478 10.9958 19.9485 10.5256 19.7548C10.0553 19.561 9.62793 19.2766 9.26775 18.9178C8.90756 18.5589 8.62167 18.1327 8.42638 17.6634C8.2311 17.1941 8.13025 16.691 8.12961 16.1828ZM-0.000701645 20.9044C-0.000701645 18.2429 2.9338 15.9526 7.13685 14.9396C7.07056 15.1981 7.025 15.4615 7.00059 15.7273C5.187 16.3886 4.02553 17.3984 4.02553 18.5347C4.02553 20.5251 7.59429 22.1379 12.0001 22.1379C16.4059 22.1379 19.9747 20.517 19.9747 18.5347C19.9747 17.4001 18.8165 16.3902 17.0045 15.7305C16.9807 15.4653 16.9357 15.2024 16.8699 14.9444C21.068 15.9591 23.9944 18.2462 23.9944 20.9044C23.9944 24.5076 18.6218 27.4285 11.9904 27.4285C5.35895 27.4285 -0.0136719 24.5109 -0.0136719 20.9044" fill="white"/>
</g>
<defs>
<clipPath id="clip0_6502_10317">
<rect width="24" height="27.4286" fill="white"/>
</clipPath>
</defs>
</svg>
