<svg width="23" height="22" viewBox="0 0 23 22" fill="none" xmlns="http://www.w3.org/2000/svg">
<path opacity="0.58" d="M10.4607 21.6142C15.6857 21.6142 19.9214 17.3785 19.9214 12.1535C19.9214 6.92854 15.6857 2.69284 10.4607 2.69284C5.2357 2.69284 1 6.92854 1 12.1535C1 17.3785 5.2357 21.6142 10.4607 21.6142Z" fill="#EEECED"/>
<path d="M17.0252 2.35538C16.8652 2.35538 16.7229 2.21312 16.7229 2.05308V0.701622C16.7229 0.541581 16.8652 0.399323 17.0252 0.399323C17.1852 0.399323 17.3275 0.541581 17.3275 0.701622V2.05308C17.3275 2.21312 17.203 2.35538 17.0252 2.35538Z" fill="#BDC0C4"/>
<path d="M16.0471 1.37731C16.0471 1.21727 16.1894 1.07501 16.3494 1.07501H17.7009C17.8609 1.07501 18.0032 1.21727 18.0032 1.37731C18.0032 1.53735 17.8609 1.67961 17.7009 1.67961H16.3494C16.1894 1.67961 16.0471 1.53735 16.0471 1.37731Z" fill="#BDC0C4"/>
<path d="M22.0218 8.41919C21.8617 8.41919 21.7195 8.27693 21.7195 8.11689V6.76543C21.7195 6.60539 21.8617 6.46313 22.0218 6.46313C22.1818 6.46313 22.3241 6.60539 22.3241 6.76543V8.11689C22.3241 8.27693 22.1818 8.41919 22.0218 8.41919Z" fill="#BDC0C4"/>
<path d="M21.0439 7.44115C21.0439 7.28111 21.1862 7.13885 21.3462 7.13885H22.6977C22.8577 7.13885 23 7.28111 23 7.44115C23 7.6012 22.8577 7.74346 22.6977 7.74346H21.3462C21.1862 7.74346 21.0439 7.6012 21.0439 7.44115Z" fill="#BDC0C4"/>
<path d="M19.9549 8.60243V17.3154C19.9549 18.3116 19.1505 19.1187 18.1543 19.1187H2.80066C1.80444 19.1187 1 18.3116 1 17.3154V8.60243C1 7.60621 1.80444 6.7991 2.80066 6.7991H18.1543C19.1505 6.7991 19.9549 7.60621 19.9549 8.60243Z" fill="white"/>
<path d="M19.9549 8.60243V17.3154C19.9549 18.3116 19.1505 19.1187 18.1543 19.1187H2.80066C1.80444 19.1187 1 18.3116 1 17.3154V8.60243C1 7.60621 1.80444 6.7991 2.80066 6.7991H18.1543C19.1505 6.7991 19.9549 7.60621 19.9549 8.60243Z" stroke="#007953" stroke-width="0.5" stroke-miterlimit="10" stroke-linecap="round" stroke-linejoin="round"/>
<path d="M13.9324 4.25262V6.79912H7.02271V4.25262C7.02271 3.89036 7.31571 3.59735 7.68064 3.59735H13.2744C13.6393 3.59735 13.9324 3.89036 13.9324 4.25262Z" stroke="#007953" stroke-width="0.5" stroke-miterlimit="10" stroke-linecap="round" stroke-linejoin="round"/>
<path d="M19.9549 10.9865C17.4137 13.184 14.1001 14.5132 10.4775 14.5132C6.85482 14.5132 3.54117 13.184 1 10.9865" stroke="#007953" stroke-width="0.5" stroke-miterlimit="10" stroke-linecap="round" stroke-linejoin="round"/>
<path d="M10.6958 17.0117C12.6495 17.0117 14.2332 15.428 14.2332 13.4743C14.2332 11.5207 12.6495 9.93695 10.6958 9.93695C8.74219 9.93695 7.15845 11.5207 7.15845 13.4743C7.15845 15.428 8.74219 17.0117 10.6958 17.0117Z" fill="#E1EEEB" stroke="#007953" stroke-width="0.5" stroke-linecap="round" stroke-linejoin="round"/>
<path d="M10.6958 15.0086V15.3922" stroke="#007953" stroke-width="0.5" stroke-linecap="round" stroke-linejoin="round"/>
<path d="M10.6958 11.5565V11.9401" stroke="#007953" stroke-width="0.5" stroke-linecap="round" stroke-linejoin="round"/>
<path d="M9.92603 14.2415C9.92603 14.6651 10.2696 15.0087 10.6932 15.0087C11.1167 15.0087 11.4603 14.6651 11.4603 14.2415C11.4603 13.818 11.1167 13.4744 10.6932 13.4744C10.2696 13.4744 9.92603 13.1308 9.92603 12.7072C9.92603 12.2837 10.2696 11.9401 10.6932 11.9401C11.1167 11.9401 11.4603 12.2837 11.4603 12.7072" fill="#E1EEEB"/>
<path d="M9.92603 14.2415C9.92603 14.6651 10.2696 15.0087 10.6932 15.0087C11.1167 15.0087 11.4603 14.6651 11.4603 14.2415C11.4603 13.818 11.1167 13.4744 10.6932 13.4744C10.2696 13.4744 9.92603 13.1308 9.92603 12.7072C9.92603 12.2837 10.2696 11.9401 10.6932 11.9401C11.1167 11.9401 11.4603 12.2837 11.4603 12.7072" stroke="#007953" stroke-width="0.5" stroke-linecap="round" stroke-linejoin="round"/>
</svg>
