<svg width="22" height="20" viewBox="0 0 22 20" fill="none" xmlns="http://www.w3.org/2000/svg">
<path d="M9.7359 19.491C14.6398 19.491 18.6151 15.5157 18.6151 10.6118C18.6151 5.70796 14.6398 1.7326 9.7359 1.7326C4.83205 1.7326 0.856689 5.70796 0.856689 10.6118C0.856689 15.5157 4.83205 19.491 9.7359 19.491Z" fill="#EEECED"/>
<path d="M2.03412 4.07095H18.3699C18.8768 4.07095 19.302 4.49611 19.302 5.00303V16.1225C19.302 16.6294 18.8768 17.0546 18.3699 17.0546H2.03412C1.52721 17.0546 1.10205 16.6294 1.10205 16.1225V5.00303C1.1184 4.47976 1.52721 4.07095 2.03412 4.07095Z" fill="white"/>
<path fill-rule="evenodd" clip-rule="evenodd" d="M1.34725 5.00713V16.1225C1.34725 16.4939 1.66259 16.8093 2.03404 16.8093H18.3698C18.7413 16.8093 19.0566 16.4939 19.0566 16.1225V5.00304C19.0566 4.63159 18.7413 4.31625 18.3698 4.31625H2.03404C1.66777 4.31625 1.36141 4.61091 1.34725 5.00713ZM0.856809 4.99538C0.877075 4.34686 1.38759 3.82568 2.03404 3.82568H18.3698C19.0122 3.82568 19.5472 4.36066 19.5472 5.00304V16.1225C19.5472 16.7649 19.0122 17.2998 18.3698 17.2998H2.03404C1.39166 17.2998 0.856689 16.7649 0.856689 16.1225V4.99921L0.856809 4.99538Z" fill="#077750"/>
<path d="M21.1005 8.6496C20.9533 8.6496 20.8225 8.51878 20.8225 8.37161V7.12885C20.8225 6.98168 20.9533 6.85086 21.1005 6.85086C21.2477 6.85086 21.3785 6.98168 21.3785 7.12885V8.37161C21.3785 8.53513 21.2477 8.6496 21.1005 8.6496Z" fill="#BDC0C4"/>
<path d="M20.2012 7.75021C20.2012 7.60305 20.332 7.47223 20.4792 7.47223H21.7219C21.8691 7.47223 21.9999 7.60305 21.9999 7.75021C21.9999 7.89738 21.8691 8.0282 21.7219 8.0282H20.4792C20.3156 8.0282 20.2012 7.91374 20.2012 7.75021Z" fill="#BDC0C4"/>
<path d="M1.49429 2.32129C1.34713 2.32129 1.21631 2.19047 1.21631 2.0433V0.800538C1.21631 0.653369 1.34713 0.522552 1.49429 0.522552C1.64146 0.522552 1.77228 0.653369 1.77228 0.800538V2.0433C1.77228 2.19047 1.65782 2.32129 1.49429 2.32129Z" fill="#BDC0C4"/>
<path d="M0.594971 1.42194C0.594971 1.27477 0.72579 1.14395 0.872959 1.14395H2.11572C2.26289 1.14395 2.39371 1.27477 2.39371 1.42194C2.39371 1.56911 2.26289 1.69992 2.11572 1.69992H0.872959C0.72579 1.69992 0.594971 1.56911 0.594971 1.42194Z" fill="#BDC0C4"/>
<path fill-rule="evenodd" clip-rule="evenodd" d="M18.1083 5.60808H2.63916V5.28104H18.1083V5.60808Z" fill="#077750"/>
<path fill-rule="evenodd" clip-rule="evenodd" d="M17.6667 14.6999V6.47473H17.9938V14.6999H17.6667Z" fill="#077750"/>
<path fill-rule="evenodd" clip-rule="evenodd" d="M2.63916 15.73H17.8303V16.0571H2.63916V15.73Z" fill="#077750"/>
<path fill-rule="evenodd" clip-rule="evenodd" d="M4.04539 12.9502V14.2584H2.80263V14.8307H2.47559V13.9313H3.71835V12.9502H4.04539Z" fill="#077750"/>
<path fill-rule="evenodd" clip-rule="evenodd" d="M2.47559 10.7426H2.80263V11.7237H3.88187V12.0508H2.47559V10.7426Z" fill="#077750"/>
<path fill-rule="evenodd" clip-rule="evenodd" d="M4.04539 8.25711V9.56528H2.80263V10.1376H2.47559V9.23824H3.71835V8.25711H4.04539Z" fill="#077750"/>
<path fill-rule="evenodd" clip-rule="evenodd" d="M2.47559 6.04959H2.80263V7.03072H3.88187V7.35776H2.47559V6.04959Z" fill="#077750"/>
<path fill-rule="evenodd" clip-rule="evenodd" d="M1.70973 7.03885C2.08552 7.03478 2.46035 7.03073 2.83531 7.03073V7.35777C2.46212 7.35777 2.08878 7.36181 1.7124 7.36588L1.70673 7.36594C1.32872 7.37003 0.94766 7.37412 0.56236 7.37412H0.542229L0.523987 7.36956C0.523912 7.36955 0.523826 7.36953 0.52373 7.36951C0.522609 7.36928 0.520162 7.36879 0.516606 7.36821C0.509383 7.36704 0.498266 7.36561 0.484868 7.36503C0.456353 7.36382 0.426719 7.36689 0.402839 7.37654C0.382893 7.38459 0.364913 7.39757 0.350851 7.42665C0.334922 7.4596 0.318207 7.52594 0.332373 7.6499L0.333431 7.65915V8.868L0.333098 8.87266C0.333093 8.87279 0.333087 8.87295 0.33308 8.87314C0.333034 8.87444 0.332962 8.87716 0.332982 8.88111C0.333022 8.88907 0.333434 8.90165 0.335087 8.91736C0.338466 8.94945 0.34662 8.99068 0.364514 9.03129C0.395911 9.10254 0.462224 9.1882 0.644041 9.20638L0.645346 9.20651C0.936523 9.23799 1.27086 9.23829 1.61731 9.23014C1.73399 9.22739 1.85266 9.22366 1.97113 9.21993C2.19973 9.21274 2.42762 9.20557 2.63908 9.20557C2.73398 9.20557 2.81552 9.20989 2.88403 9.21404C2.89481 9.21469 2.90511 9.21533 2.91497 9.21594C2.97009 9.21935 3.0117 9.22192 3.04788 9.22192V9.54896C3.00066 9.54896 2.94706 9.54562 2.89271 9.54224C2.88324 9.54165 2.87374 9.54106 2.86425 9.54048C2.79786 9.53646 2.72406 9.53261 2.63908 9.53261C2.43241 9.53261 2.21399 9.5395 1.98902 9.54659C1.86928 9.55037 1.74768 9.55421 1.62501 9.55709C1.27672 9.56529 0.924509 9.56559 0.610812 9.53173C0.30251 9.50067 0.140079 9.333 0.0652418 9.16317C0.0299919 9.08318 0.0156614 9.00688 0.00984156 8.9516C0.00689613 8.92361 0.00603046 8.90004 0.00594296 8.88277C0.00589907 8.8741 0.00605061 8.86694 0.0062439 8.86151C0.00629016 8.86021 0.00633887 8.85901 0.00638797 8.8579V7.67746C-0.0104473 7.51954 0.0059141 7.38875 0.0564197 7.28429C0.10981 7.17387 0.194031 7.10816 0.280373 7.07329C0.362783 7.04001 0.443525 7.03593 0.498814 7.03829C0.527319 7.0395 0.551461 7.04254 0.569022 7.0454C0.57253 7.04596 0.5758 7.04653 0.578816 7.04708C0.956469 7.04697 1.33034 7.04295 1.7032 7.03892L1.70973 7.03885Z" fill="#077750"/>
<path fill-rule="evenodd" clip-rule="evenodd" d="M0.57883 11.7238C0.57581 11.7232 0.572535 11.7226 0.569022 11.7221C0.551461 11.7192 0.527319 11.7162 0.498814 11.715C0.443525 11.7126 0.362783 11.7167 0.280373 11.75C0.194031 11.7848 0.10981 11.8505 0.0564197 11.961C0.0059141 12.0654 -0.0104473 12.1962 0.00638797 12.3541V13.5344C0.00625355 13.5373 0.00612577 13.5408 0.00604017 13.5449C0.00584377 13.5543 0.00586768 13.5669 0.00655646 13.582C0.00792759 13.6122 0.0119707 13.6535 0.0225454 13.7011C0.0436286 13.7959 0.0919434 13.9211 0.201451 14.0306C0.338662 14.1678 0.533406 14.2067 0.612023 14.2225L0.615322 14.2231L0.618617 14.2236C0.947124 14.2755 1.9283 14.2909 3.19925 14.2583L3.19086 13.9314C1.91557 13.9641 0.969454 13.947 0.67287 13.9011C0.588685 13.8841 0.490935 13.8576 0.432705 13.7993C0.37869 13.7453 0.353421 13.6824 0.341801 13.6301C0.336023 13.6041 0.333935 13.582 0.333262 13.5672C0.332929 13.5599 0.332953 13.5545 0.333012 13.5517L0.333072 13.5498L0.333431 13.5451V12.3358L0.332373 12.3266C0.318207 12.2026 0.334922 12.1363 0.350851 12.1033C0.364913 12.0743 0.382893 12.0613 0.402839 12.0532C0.426719 12.0436 0.456353 12.0405 0.484868 12.0417C0.498266 12.0423 0.509383 12.0437 0.516606 12.0449C0.520162 12.0455 0.522609 12.046 0.52373 12.0462C0.523826 12.0462 0.523912 12.0462 0.523987 12.0462L0.542229 12.0508H2.63908V11.7238H0.57883Z" fill="#077750"/>
<path d="M10.3737 7.21057C8.52588 7.21057 7.02148 8.71497 7.02148 10.5628C7.02148 12.4106 8.52588 13.9149 10.3737 13.9149C10.8315 13.9149 11.1913 13.8168 11.3712 13.7678C11.9435 13.5879 12.4504 13.2445 12.8592 12.803C13.1862 12.4433 13.4315 12.0181 13.5787 11.5602C13.6277 11.3804 13.7259 11.0206 13.7259 10.5628C13.7259 8.69862 12.2215 7.21057 10.3737 7.21057ZM10.3737 12.0508C9.53971 12.0508 8.88563 11.3804 8.88563 10.5628C8.88563 9.7288 9.55607 9.07472 10.3737 9.07472C11.2076 9.07472 11.8617 9.74515 11.8617 10.5628C11.8617 11.3804 11.1913 12.0508 10.3737 12.0508Z" fill="#E1EEEB"/>
<path fill-rule="evenodd" clip-rule="evenodd" d="M6.85791 10.5627C6.85791 8.62464 8.43552 7.04703 10.3736 7.04703C12.3112 7.04703 13.8893 8.60776 13.8893 10.5627C13.8893 11.0425 13.7866 11.4192 13.7367 11.6022L13.7354 11.6068L13.7343 11.6103C13.58 12.0904 13.3229 12.536 12.9801 12.913L12.9791 12.9141C12.5536 13.3737 12.023 13.7343 11.4201 13.9238L11.4171 13.9247L11.413 13.9258C11.2301 13.9757 10.8534 14.0784 10.3736 14.0784C8.43552 14.0784 6.85791 12.5008 6.85791 10.5627ZM10.3736 7.37407C8.61614 7.37407 7.18495 8.80526 7.18495 10.5627C7.18495 12.3202 8.61614 13.7514 10.3736 13.7514C10.8061 13.7514 11.147 13.6594 11.325 13.6108C11.8654 13.4404 12.3474 13.1148 12.7387 12.6924C13.0489 12.351 13.2818 11.9477 13.4219 11.5136C13.4704 11.3354 13.5623 10.9948 13.5623 10.5627C13.5623 8.78942 12.1316 7.37407 10.3736 7.37407ZM10.3736 9.23822C9.64515 9.23822 9.0491 9.82026 9.0491 10.5627C9.0491 11.2912 9.63114 11.8873 10.3736 11.8873C11.1009 11.8873 11.6981 11.29 11.6981 10.5627C11.6981 9.83427 11.1161 9.23822 10.3736 9.23822ZM8.72206 10.5627C8.72206 9.6373 9.46688 8.91117 10.3736 8.91117C11.2991 8.91117 12.0252 9.65599 12.0252 10.5627C12.0252 11.4707 11.2815 12.2143 10.3736 12.2143C9.44818 12.2143 8.72206 11.4695 8.72206 10.5627Z" fill="#077750"/>
<path fill-rule="evenodd" clip-rule="evenodd" d="M10.2102 8.30617V7.21057H10.5372V8.30617H10.2102Z" fill="#077750"/>
<path fill-rule="evenodd" clip-rule="evenodd" d="M12.0156 8.67748L12.7678 8.17056L12.9506 8.44177L12.1984 8.94868L12.0156 8.67748Z" fill="#077750"/>
<path fill-rule="evenodd" clip-rule="evenodd" d="M12.8591 10.3992H13.7258V10.7263H12.8591V10.3992Z" fill="#077750"/>
<path fill-rule="evenodd" clip-rule="evenodd" d="M7.00789 10.3993L7.98902 10.4156L7.98357 10.7426L7.00244 10.7263L7.00789 10.3993Z" fill="#077750"/>
<path fill-rule="evenodd" clip-rule="evenodd" d="M8.53247 8.94868L7.78027 8.44177L7.96304 8.17056L8.71524 8.67748L8.53247 8.94868Z" fill="#077750"/>
<path fill-rule="evenodd" clip-rule="evenodd" d="M10.5372 12.9829V13.915H10.2102V12.9829H10.5372Z" fill="#077750"/>
<path fill-rule="evenodd" clip-rule="evenodd" d="M8.73803 12.4132L8.1003 13.0346L7.87207 12.8003L8.5098 12.179L8.73803 12.4132Z" fill="#077750"/>
<path fill-rule="evenodd" clip-rule="evenodd" d="M12.7698 12.9236L12.0176 12.4331L12.1962 12.1591L12.9484 12.6497L12.7698 12.9236Z" fill="#077750"/>
<path fill-rule="evenodd" clip-rule="evenodd" d="M2.85156 18.0684V17.9866H3.17861V18.0684C3.17861 18.1743 3.25256 18.2483 3.35848 18.2483H5.58237C5.68829 18.2483 5.76224 18.1743 5.76224 18.0684V17.9866H6.08929V18.0684C6.08929 18.3549 5.8689 18.5753 5.58237 18.5753H3.35848C3.07195 18.5753 2.85156 18.3549 2.85156 18.0684Z" fill="#077750"/>
<path fill-rule="evenodd" clip-rule="evenodd" d="M14.2654 18.0684V17.9866H14.5924V18.0684C14.5924 18.1743 14.6664 18.2483 14.7723 18.2483H16.9962C17.1021 18.2483 17.1761 18.1743 17.1761 18.0684V17.9866H17.5031V18.0684C17.5031 18.3549 17.2827 18.5753 16.9962 18.5753H14.7723C14.4858 18.5753 14.2654 18.3549 14.2654 18.0684Z" fill="#077750"/>
</svg>
