<svg width="22" height="25" viewBox="0 0 22 25" fill="none" xmlns="http://www.w3.org/2000/svg">
<path d="M11.4274 24.0068C16.9997 24.0068 21.5169 19.4896 21.5169 13.9173C21.5169 8.34499 16.9997 3.82776 11.4274 3.82776C5.85513 3.82776 1.33789 8.34499 1.33789 13.9173C1.33789 19.4896 5.85513 24.0068 11.4274 24.0068Z" fill="#EEECED"/>
<path d="M17.2247 13.6943H4.99836C4.10647 13.6943 3.40039 12.9696 3.40039 12.0963V5.22132C3.40039 4.32943 4.12505 3.62335 4.99836 3.62335H17.2247C18.1166 3.62335 18.8227 4.34801 18.8227 5.22132V12.0963C18.8227 12.9696 18.1166 13.6943 17.2247 13.6943Z" fill="white"/>
<path fill-rule="evenodd" clip-rule="evenodd" d="M4.99827 3.90204C4.27678 3.90204 3.67901 4.48544 3.67901 5.22129V12.0963C3.67901 12.8178 4.26242 13.4155 4.99827 13.4155H17.2246C17.9605 13.4155 18.5439 12.8178 18.5439 12.0963V5.22129C18.5439 4.4998 17.9605 3.90204 17.2246 3.90204H4.99827ZM3.12158 5.22129C3.12158 4.17336 3.97315 3.3446 4.99827 3.3446H17.2246C18.2725 3.3446 19.1013 4.19617 19.1013 5.22129V12.0963C19.1013 13.1214 18.2725 13.973 17.2246 13.973H4.99827C3.95034 13.973 3.12158 13.1214 3.12158 12.0963V5.22129Z" fill="#14744E"/>
<path d="M18.6369 5.70441H3.58618V5.98312H18.6369V5.70441Z" fill="#14744E"/>
<path fill-rule="evenodd" clip-rule="evenodd" d="M3.49316 5.61145H18.7296V6.07598H3.49316V5.61145ZM3.67897 5.79726V5.89017H18.5438V5.79726H3.67897Z" fill="#00613E"/>
<path d="M18.6368 7.33954H3.60474V7.61825H18.6368V7.33954Z" fill="#14744E"/>
<path fill-rule="evenodd" clip-rule="evenodd" d="M3.51196 7.24664H18.7299V7.71117H3.51196V7.24664ZM3.69777 7.43245V7.52536H18.5441V7.43245H3.69777Z" fill="#00613E"/>
<path d="M7.6164 8.92851L4.66284 8.94757L4.66608 9.44912L7.61964 9.43005L7.6164 8.92851Z" fill="#14744E"/>
<path d="M11.4999 8.90989L8.54639 8.92896L8.54962 9.4305L11.5032 9.41144L11.4999 8.90989Z" fill="#14744E"/>
<path d="M20.1234 21.3495H8.26863C7.37673 21.3495 6.67065 20.6249 6.67065 19.7516V12.505C6.67065 11.6131 7.39531 10.907 8.26863 10.907H20.1234C21.0152 10.907 21.7213 11.6316 21.7213 12.505V19.7516C21.7213 20.6435 21.0152 21.3495 20.1234 21.3495Z" fill="#DFECE8"/>
<path fill-rule="evenodd" clip-rule="evenodd" d="M8.26853 11.1858C7.54704 11.1858 6.94928 11.7692 6.94928 12.505V19.7517C6.94928 20.4732 7.53268 21.0709 8.26853 21.0709H20.1233C20.8612 21.0709 21.4425 20.4896 21.4425 19.7517V12.505C21.4425 11.7835 20.8591 11.1858 20.1233 11.1858H8.26853ZM6.39185 12.505C6.39185 11.4571 7.24341 10.6284 8.26853 10.6284H20.1233C21.1712 10.6284 21.9999 11.4799 21.9999 12.505V19.7517C21.9999 20.7975 21.1691 21.6284 20.1233 21.6284H8.26853C7.2206 21.6284 6.39185 20.7768 6.39185 19.7517V12.505Z" fill="#14744E"/>
<path d="M10.7952 18.5997H8.82617V19.1012H10.7952V18.5997Z" fill="#14744E"/>
<path d="M13.7869 18.5997H11.8179V19.1012H13.7869V18.5997Z" fill="#14744E"/>
<path d="M16.7784 18.5997H14.8093V19.1012H16.7784V18.5997Z" fill="#14744E"/>
<path d="M19.7884 18.5997H17.8193V19.1012H19.7884V18.5997Z" fill="#14744E"/>
<path d="M19.6018 14.6559C19.6922 14.099 19.314 13.5742 18.757 13.4838C18.2 13.3934 17.6752 13.7716 17.5848 14.3286C17.4944 14.8856 17.8727 15.4104 18.4296 15.5008C18.9866 15.5912 19.5114 15.2129 19.6018 14.6559Z" fill="white"/>
<path fill-rule="evenodd" clip-rule="evenodd" d="M17.8597 14.3733C17.794 14.7784 18.0691 15.16 18.4741 15.2258C18.8792 15.2915 19.2609 15.0164 19.3266 14.6114C19.3924 14.2063 19.1173 13.8246 18.7122 13.7589C18.3071 13.6932 17.9255 13.9682 17.8597 14.3733ZM18.3849 15.7759C17.676 15.6608 17.1946 14.9929 17.3096 14.284C17.4247 13.5752 18.0926 13.0938 18.8015 13.2088C19.5103 13.3239 19.9917 13.9918 19.8767 14.7007C19.7617 15.4095 19.0937 15.8909 18.3849 15.7759Z" fill="#077750"/>
<path d="M4.66393 2.04334C4.49675 2.04334 4.34814 1.89473 4.34814 1.72755V0.315789C4.34814 0.148606 4.49675 0 4.66393 0C4.83112 0 4.97972 0.148606 4.97972 0.315789V1.72755C4.97972 1.89473 4.83112 2.04334 4.66393 2.04334Z" fill="#BDC0C4"/>
<path d="M3.64185 1.02166C3.64185 0.854479 3.79045 0.705872 3.95763 0.705872H5.3694C5.53658 0.705872 5.68519 0.854479 5.68519 1.02166C5.68519 1.18884 5.53658 1.33745 5.3694 1.33745H3.95763C3.77188 1.33745 3.64185 1.18884 3.64185 1.02166Z" fill="#BDC0C4"/>
<path d="M1.0216 20.42C0.854417 20.42 0.705811 20.2714 0.705811 20.1042V18.6924C0.705811 18.5253 0.854417 18.3766 1.0216 18.3766C1.18878 18.3766 1.33739 18.5253 1.33739 18.6924V20.1042C1.33739 20.2714 1.20736 20.42 1.0216 20.42Z" fill="#BDC0C4"/>
<path d="M0 19.3983C0 19.2311 0.148606 19.0825 0.315789 19.0825H1.72755C1.89474 19.0825 2.04334 19.2311 2.04334 19.3983C2.04334 19.5655 1.89474 19.7141 1.72755 19.7141H0.315789C0.148606 19.7141 0 19.5655 0 19.3983Z" fill="#BDC0C4"/>
<path d="M10.4049 14.3628C10.4049 14.53 10.2378 14.6601 10.0334 14.6601H8.91888C8.71455 14.6601 8.54736 14.53 8.54736 14.3628V13.4898C8.54736 13.3226 8.71455 13.1926 8.91888 13.1926H10.0334C10.2378 13.1926 10.4049 13.3226 10.4049 13.4898V14.3628Z" fill="#E6E7E8"/>
<path d="M9.79224 13.7314H10.3867V14.1029H9.79224V13.7314Z" fill="#918D8C"/>
<path d="M17.3732 0.501648H16.9832V2.32208H17.3732V0.501648Z" fill="#14744E"/>
<path d="M19.7073 1.21434L19.4026 1.00183L18.3613 2.49513L18.6661 2.70764L19.7073 1.21434Z" fill="#14744E"/>
<path d="M21.276 2.84319L21.0522 2.52362L19.5609 3.56764L19.7847 3.8872L21.276 2.84319Z" fill="#14744E"/>
<path d="M21.8478 5.39093L21.8472 5.01941L20.0267 5.0227L20.0274 5.39422L21.8478 5.39093Z" fill="#14744E"/>
</svg>
