<svg width="22" height="22" viewBox="0 0 22 22" fill="none" xmlns="http://www.w3.org/2000/svg">
<path d="M10.0682 18.535C14.5791 18.535 18.236 14.8782 18.236 10.3672C18.236 5.8563 14.5791 2.19946 10.0682 2.19946C5.55723 2.19946 1.90039 5.8563 1.90039 10.3672C1.90039 14.8782 5.55723 18.535 10.0682 18.535Z" fill="#EEECED"/>
<path d="M6.88876 8.90545C6.7243 8.90545 6.57812 8.75927 6.57812 8.59482V7.20611C6.57812 7.04166 6.7243 6.89548 6.88876 6.89548C7.05321 6.89548 7.19939 7.04166 7.19939 7.20611V8.59482C7.19939 8.77754 7.05321 8.90545 6.88876 8.90545Z" fill="#BDC0C4"/>
<path d="M5.88379 7.90047C5.88379 7.73602 6.02997 7.58984 6.19442 7.58984H7.58313C7.74758 7.58984 7.89376 7.73602 7.89376 7.90047C7.89376 8.06493 7.74758 8.21111 7.58313 8.21111H6.19442C6.0117 8.21111 5.88379 8.0832 5.88379 7.90047Z" fill="#BDC0C4"/>
<path d="M20.995 11.9022C20.8305 11.9022 20.6843 11.756 20.6843 11.5915V10.2028C20.6843 10.0384 20.8305 9.89218 20.995 9.89218C21.1594 9.89218 21.3056 10.0384 21.3056 10.2028V11.5915C21.3056 11.756 21.1594 11.9022 20.995 11.9022Z" fill="#BDC0C4"/>
<path d="M19.99 10.8972C19.99 10.7327 20.1362 10.5865 20.3006 10.5865H21.6893C21.8538 10.5865 22 10.7327 22 10.8972C22 11.0616 21.8538 11.2078 21.6893 11.2078H20.3006C20.1179 11.2078 19.99 11.0616 19.99 10.8972Z" fill="#BDC0C4"/>
<path d="M4.23926 15.9404H5.13461C5.13461 15.9404 6.30404 14.844 6.50504 14.2959C6.50504 14.2959 7.40039 13.6015 8.00338 13.5467C8.00338 13.5467 10.9635 12.9254 11.4021 12.5234C11.4021 12.5234 12.6994 11.7377 12.8456 13.0899C12.8456 13.0899 13.0466 14.1497 11.4934 14.7527C11.4934 14.7527 10.1595 14.8623 9.9768 15.4288C9.9768 15.4288 10.123 17.0185 11.9868 16.9271C11.9868 16.9271 13.1745 17.0916 13.9419 16.8357C13.9419 16.8357 14.9652 16.7809 15.5134 16.5068C15.5134 16.5068 16.6828 15.1912 17.2675 14.9171C17.2675 14.9171 18.6379 14.369 19.1313 15.3557C19.1313 15.3557 18.1263 17.1281 16.1894 18.7909C16.1894 18.7909 14.0698 20.1796 11.8771 20.2344H4.25753V15.9404H4.23926Z" fill="white"/>
<path d="M4.23933 16.1414C4.62305 16.1414 5.00677 16.2144 5.33567 16.0134C5.92039 15.648 6.23102 14.8988 6.66956 14.4237C7.1081 13.9487 7.839 13.7842 8.44199 13.6563C9.20943 13.4918 9.97687 13.3091 10.7078 13.0533C11.0915 12.9254 11.6031 12.5051 12.0051 12.5051C12.4254 12.4869 12.6995 12.8706 12.6629 13.2543C12.6264 13.8025 12.1513 14.241 11.6762 14.4603C10.9453 14.7709 9.44697 14.7344 9.90379 15.9038C10.4337 17.2377 12.0965 17.2377 13.3025 17.1281C13.942 17.0732 15.0566 17.0184 15.6048 16.653C16.1712 16.2693 16.5184 15.5932 17.0849 15.2277C17.2859 15.0998 17.4686 15.0085 17.7244 14.9719C18.035 14.9171 18.5284 14.9171 18.7659 15.1546C19.0217 15.4105 18.8938 15.1546 18.839 15.4105C18.7842 15.6845 18.4187 16.0317 18.2543 16.251C17.8706 16.7809 17.432 17.2742 16.9935 17.7311C15.6413 19.1198 13.741 19.9786 11.7858 20.0334C9.26425 20.0882 6.74265 20.0334 4.23933 20.0334C4.31242 20.1065 4.36724 20.1613 4.44033 20.2344C4.44033 18.8091 4.44033 17.3839 4.44033 15.9586C4.44033 15.7028 4.03833 15.7028 4.03833 15.9586C4.03833 17.3839 4.03833 18.8091 4.03833 20.2344C4.03833 20.344 4.12969 20.4354 4.23933 20.4354C6.68784 20.4354 9.11807 20.4536 11.5666 20.4354C14.9835 20.3988 17.633 18.3158 19.2958 15.447C19.3324 15.3922 19.3324 15.3008 19.2958 15.246C18.8573 14.5334 18.0168 14.3872 17.2493 14.6978C16.4453 15.0267 16.0616 15.9038 15.3855 16.3423C14.9835 16.5982 14.3805 16.5616 13.942 16.6347C13.2842 16.7261 12.6995 16.7809 12.0234 16.7261C11.3656 16.6713 10.7626 16.6164 10.3971 15.9952C10.0865 15.4835 10.1779 15.2825 10.7809 15.0998C11.6214 14.8257 12.535 14.7526 12.937 13.8025C13.138 13.3457 13.1197 12.6513 12.6995 12.3041C12.2609 11.9387 11.7128 12.1762 11.2925 12.3772C10.3789 12.8158 9.39216 13.0533 8.38717 13.2726C7.67455 13.437 6.83401 13.638 6.32239 14.2045C5.90212 14.6613 5.64631 15.2825 5.11641 15.6663C4.89714 15.8307 5.1895 15.7211 4.89714 15.7394C4.67787 15.7576 4.44032 15.7394 4.22105 15.7394C3.98351 15.7576 3.98351 16.1414 4.23933 16.1414Z" fill="#077750"/>
<path d="M3.74574 21.6413H0.675973C0.401886 21.6413 0.182617 21.422 0.182617 21.148V14.241C0.182617 13.9669 0.401886 13.7476 0.675973 13.7476H3.74574C4.01983 13.7476 4.2391 13.9669 4.2391 14.241V21.148C4.2391 21.422 4.01983 21.6413 3.74574 21.6413Z" fill="#E1EEEB"/>
<path fill-rule="evenodd" clip-rule="evenodd" d="M0.67608 13.9304C0.502909 13.9304 0.365449 14.0678 0.365449 14.241V21.148C0.365449 21.3211 0.502909 21.4586 0.67608 21.4586H3.74585C3.91902 21.4586 4.05648 21.3211 4.05648 21.148V14.241C4.05648 14.0678 3.91902 13.9304 3.74585 13.9304H0.67608ZM0 14.241C0 13.866 0.301077 13.5649 0.67608 13.5649H3.74585C4.12085 13.5649 4.42193 13.866 4.42193 14.241V21.148C4.42193 21.523 4.12085 21.8241 3.74585 21.8241H0.67608C0.301077 21.8241 0 21.523 0 21.148V14.241Z" fill="#077750"/>
<path d="M16.5731 6.5118C17.5923 6.5118 18.4186 5.68554 18.4186 4.66629C18.4186 3.64704 17.5923 2.82077 16.5731 2.82077C15.5538 2.82077 14.7275 3.64704 14.7275 4.66629C14.7275 5.68554 15.5538 6.5118 16.5731 6.5118Z" fill="#E1EEEB"/>
<path fill-rule="evenodd" clip-rule="evenodd" d="M16.5732 3.00348C15.6548 3.00348 14.9104 3.74794 14.9104 4.66627C14.9104 5.58461 15.6548 6.32907 16.5732 6.32907C17.4915 6.32907 18.236 5.58461 18.236 4.66627C18.236 3.74794 17.4915 3.00348 16.5732 3.00348ZM14.5449 4.66627C14.5449 3.54611 15.453 2.63803 16.5732 2.63803C17.6933 2.63803 18.6014 3.54611 18.6014 4.66627C18.6014 5.78644 17.6933 6.69451 16.5732 6.69451C15.453 6.69451 14.5449 5.78644 14.5449 4.66627Z" fill="#077750"/>
<path d="M11.4022 10.1298C12.4214 10.1298 13.2477 9.30349 13.2477 8.28424C13.2477 7.26499 12.4214 6.43872 11.4022 6.43872C10.3829 6.43872 9.55664 7.26499 9.55664 8.28424C9.55664 9.30349 10.3829 10.1298 11.4022 10.1298Z" fill="#E1EEEB"/>
<path fill-rule="evenodd" clip-rule="evenodd" d="M11.402 6.62143C10.4837 6.62143 9.73923 7.36589 9.73923 8.28422C9.73923 9.20256 10.4837 9.94701 11.402 9.94701C12.3204 9.94701 13.0648 9.20256 13.0648 8.28422C13.0648 7.36589 12.3204 6.62143 11.402 6.62143ZM9.37378 8.28422C9.37378 7.16406 10.2819 6.25598 11.402 6.25598C12.5222 6.25598 13.4303 7.16406 13.4303 8.28422C13.4303 9.40439 12.5222 10.3125 11.402 10.3125C10.2819 10.3125 9.37378 9.40439 9.37378 8.28422Z" fill="#077750"/>
<path d="M15.897 13.3639C16.9163 13.3639 17.7425 12.5377 17.7425 11.5184C17.7425 10.4992 16.9163 9.67291 15.897 9.67291C14.8778 9.67291 14.0515 10.4992 14.0515 11.5184C14.0515 12.5377 14.8778 13.3639 15.897 13.3639Z" fill="#E1EEEB"/>
<path fill-rule="evenodd" clip-rule="evenodd" d="M15.8971 9.85562C14.9788 9.85562 14.2343 10.6001 14.2343 11.5184C14.2343 12.4367 14.9788 13.1812 15.8971 13.1812C16.8155 13.1812 17.5599 12.4368 17.5599 11.5184C17.5599 10.6001 16.8155 9.85562 15.8971 9.85562ZM13.8689 11.5184C13.8689 10.3982 14.777 9.49017 15.8971 9.49017C17.0173 9.49017 17.9254 10.3982 17.9254 11.5184C17.9254 12.6386 17.0173 13.5467 15.8971 13.5467C14.777 13.5467 13.8689 12.6386 13.8689 11.5184Z" fill="#077750"/>
<path d="M16.6279 3.88056C16.902 3.89883 17.1578 4.04501 17.1578 4.37392H16.7741C16.7741 4.26428 16.7193 4.20947 16.6279 4.19119V4.46528C16.6828 4.48355 16.7376 4.48355 16.7741 4.50183C16.9934 4.55664 17.2127 4.66628 17.2127 4.92209C17.2127 5.26927 16.9386 5.39718 16.6279 5.41545V5.59817H16.5366V5.41545C16.2077 5.39718 15.9336 5.251 15.9336 4.88555H16.3173C16.3173 5.03173 16.4087 5.10482 16.5366 5.10482V4.77591C16.5 4.75764 16.4452 4.75764 16.4087 4.73937C16.1894 4.68455 15.9701 4.57492 15.9701 4.3191C15.9701 3.9902 16.2625 3.86229 16.5366 3.86229V3.67957H16.6279V3.88056ZM16.5366 4.19119C16.4635 4.19119 16.3539 4.22774 16.3539 4.3191C16.3539 4.39219 16.427 4.42874 16.5366 4.44701V4.19119ZM16.6279 5.14136C16.7193 5.14136 16.8289 5.10482 16.8289 4.99518C16.8289 4.92209 16.7559 4.86727 16.6279 4.849V5.14136Z" fill="#14744E"/>
<path d="M11.4751 7.51679C11.7492 7.53506 12.005 7.68125 12.005 8.01015H11.6213C11.6213 7.90051 11.5665 7.8457 11.4751 7.82742V8.10151C11.5299 8.11978 11.5847 8.11978 11.6213 8.13806C11.8406 8.19287 12.0598 8.30251 12.0598 8.55832C12.0598 8.9055 11.7857 9.03341 11.4751 9.05168V9.2344H11.3838V9.05168C11.0548 9.03341 10.7808 8.88722 10.7808 8.52178H11.1645C11.1645 8.66796 11.2558 8.74105 11.3838 8.74105V8.41214C11.3472 8.39387 11.2924 8.39387 11.2558 8.3756C11.0366 8.32078 10.8173 8.21115 10.8173 7.95533C10.8173 7.62643 11.1097 7.49852 11.3838 7.49852V7.3158H11.4751V7.51679ZM11.3655 7.80915C11.2924 7.80915 11.1828 7.8457 11.1828 7.93706C11.1828 8.01015 11.2558 8.04669 11.3655 8.06496V7.80915ZM11.4751 8.75932C11.5665 8.75932 11.6761 8.72277 11.6761 8.61314C11.6761 8.54005 11.603 8.48523 11.4751 8.46696V8.75932Z" fill="#14744E"/>
<path d="M15.9519 10.751C16.226 10.7693 16.4818 10.9155 16.4818 11.2444H16.0981C16.0981 11.1347 16.0433 11.0799 15.9519 11.0616V11.3357C16.0067 11.354 16.0616 11.354 16.0981 11.3723C16.3174 11.4271 16.5366 11.5367 16.5366 11.7925C16.5366 12.1397 16.2626 12.2676 15.9519 12.2859V12.4686H15.8606V12.2859C15.5317 12.2676 15.2576 12.1214 15.2576 11.756H15.6413C15.6413 11.9022 15.7327 11.9753 15.8606 11.9753V11.6464C15.824 11.6281 15.7692 11.6281 15.7327 11.6098C15.5134 11.555 15.2941 11.4454 15.2941 11.1896C15.2941 10.8606 15.5865 10.7327 15.8606 10.7327V10.55H15.9519V10.751ZM15.8606 11.0434C15.7875 11.0434 15.6778 11.0799 15.6778 11.1713C15.6778 11.2444 15.7509 11.2809 15.8606 11.2992V11.0434ZM15.9519 11.9935C16.0433 11.9935 16.1529 11.957 16.1529 11.8474C16.1529 11.7743 16.0798 11.7195 15.9519 11.7012V11.9935Z" fill="#14744E"/>
<path d="M20.264 3.35062H19.4966V8.6679H20.264V3.35062Z" fill="#14744E"/>
<path d="M11.7858 1.45026H11.0183V3.93531H11.7858V1.45026Z" fill="#14744E"/>
<path d="M11.7858 0.189484H11.0183V0.956926H11.7858V0.189484Z" fill="#14744E"/>
<path d="M2.43028 16.6347H2.211C2.10137 16.6347 2.01001 16.5433 2.01001 16.4337V15.5201C2.01001 15.4104 2.10137 15.3191 2.211 15.3191H2.43028C2.53991 15.3191 2.63127 15.4104 2.63127 15.5201V16.4337C2.64954 16.5433 2.53991 16.6347 2.43028 16.6347Z" fill="#14744E"/>
</svg>
