<svg width="24" height="24" viewBox="0 0 24 24" fill="none" xmlns="http://www.w3.org/2000/svg">
<path d="M12.4274 23.5034C17.9997 23.5034 22.5169 18.9862 22.5169 13.4139C22.5169 7.84158 17.9997 3.32434 12.4274 3.32434C6.85513 3.32434 2.33789 7.84158 2.33789 13.4139C2.33789 18.9862 6.85513 23.5034 12.4274 23.5034Z" fill="#EEECED"/>
<path d="M5.02209 2.53992C4.8549 2.53992 4.7063 2.39132 4.7063 2.22413V0.812371C4.7063 0.645188 4.8549 0.496582 5.02209 0.496582C5.18927 0.496582 5.33788 0.645188 5.33788 0.812371V2.22413C5.33788 2.39132 5.18927 2.53992 5.02209 2.53992Z" fill="#BDC0C4"/>
<path d="M4 1.51824C4 1.35106 4.14861 1.20245 4.31579 1.20245H5.72755C5.89474 1.20245 6.04334 1.35106 6.04334 1.51824C6.04334 1.68543 5.89474 1.83403 5.72755 1.83403H4.31579C4.13003 1.83403 4 1.68543 4 1.51824Z" fill="#BDC0C4"/>
<path d="M21.0216 5.53992C20.8544 5.53992 20.7058 5.39132 20.7058 5.22414V3.81237C20.7058 3.64519 20.8544 3.49658 21.0216 3.49658C21.1888 3.49658 21.3374 3.64519 21.3374 3.81237V5.22414C21.3374 5.39132 21.2074 5.53992 21.0216 5.53992Z" fill="#BDC0C4"/>
<path d="M20 4.51824C20 4.35106 20.1486 4.20245 20.3158 4.20245H21.7276C21.8947 4.20245 22.0433 4.35106 22.0433 4.51824C22.0433 4.68542 21.8947 4.83403 21.7276 4.83403H20.3158C20.1486 4.83403 20 4.68542 20 4.51824Z" fill="#BDC0C4"/>
<path d="M5.1735 21.4966H10.2744H18.969L20.1283 20.865L20.8239 19.2861V8.54921L12.0133 3.49658L3.43457 8.54921V10.7597V18.6545L4.01421 20.3913L5.1735 21.4966Z" fill="white"/>
<path d="M1 9.94816L12.055 3.49658L23.1053 9.94816" stroke="#007953" stroke-width="0.6" stroke-miterlimit="10" stroke-linecap="round" stroke-linejoin="round"/>
<path d="M20.7056 10.5892V18.9261C20.7056 20.2177 19.9359 21.2661 18.9876 21.2661H5.25932C4.31103 21.2661 3.54126 20.2177 3.54126 18.9261V10.5892" stroke="#007953" stroke-width="0.6" stroke-miterlimit="10" stroke-linecap="round" stroke-linejoin="round"/>
<path d="M14.3384 21.1808H10.0828C9.77565 21.1808 9.52637 20.7539 9.52637 20.2279V13.9232C9.52637 13.3972 9.77565 12.9703 10.0828 12.9703H14.3384C14.6455 12.9703 14.8948 13.3972 14.8948 13.9232V20.2279C14.8948 20.7539 14.6455 21.1808 14.3384 21.1808Z" fill="#DFECE8" stroke="#007953" stroke-width="0.6" stroke-miterlimit="10" stroke-linecap="round" stroke-linejoin="round"/>
</svg>
