<svg width="22" height="22" viewBox="0 0 22 22" fill="none" xmlns="http://www.w3.org/2000/svg">
<path d="M10.1063 19.6982C14.6539 19.6982 18.3404 16.0117 18.3404 11.4642C18.3404 6.91666 14.6539 3.23016 10.1063 3.23016C5.55881 3.23016 1.87231 6.91666 1.87231 11.4642C1.87231 16.0117 5.55881 19.6982 10.1063 19.6982Z" fill="#EEECED"/>
<path d="M16.411 2.69789C16.2612 2.69789 16.1282 2.56481 16.1282 2.4151V1.15089C16.1282 1.00118 16.2612 0.868103 16.411 0.868103C16.5607 0.868103 16.6937 1.00118 16.6937 1.15089V2.4151C16.6937 2.56481 16.5773 2.69789 16.411 2.69789Z" fill="#BDC0C4"/>
<path d="M15.4961 1.78303C15.4961 1.63332 15.6292 1.50024 15.7789 1.50024H17.0431C17.1928 1.50024 17.3259 1.63332 17.3259 1.78303C17.3259 1.93274 17.1928 2.06581 17.0431 2.06581H15.7789C15.6292 2.06581 15.4961 1.93274 15.4961 1.78303Z" fill="#BDC0C4"/>
<path d="M21.085 8.37025C20.9353 8.37025 20.8022 8.23717 20.8022 8.08746V6.82325C20.8022 6.67354 20.9353 6.54047 21.085 6.54047C21.2347 6.54047 21.3678 6.67354 21.3678 6.82325V8.08746C21.3678 8.23717 21.2347 8.37025 21.085 8.37025Z" fill="#BDC0C4"/>
<path d="M20.1702 7.45539C20.1702 7.30568 20.3032 7.17261 20.453 7.17261H21.7172C21.8669 7.17261 21.9999 7.30568 21.9999 7.45539C21.9999 7.6051 21.8669 7.73818 21.7172 7.73818H20.453C20.3032 7.73818 20.1702 7.6051 20.1702 7.45539Z" fill="#BDC0C4"/>
<path d="M15.2632 7.93778C15.546 6.95635 16.4442 6.27434 17.4756 6.29098H17.5587L16.8435 9.35171L15.2632 7.93778Z" fill="white"/>
<path fill-rule="evenodd" clip-rule="evenodd" d="M15.551 7.86053L16.6962 8.88515L17.2419 6.54977C16.4745 6.62499 15.8198 7.136 15.551 7.86053ZM17.4775 6.04144H17.8732L16.9906 9.81821L14.98 8.01923L15.0234 7.86867C15.3365 6.78187 16.332 6.02389 17.4775 6.04144Z" fill="#077750"/>
<path d="M19.3219 11.5974L18.1741 11.4476C17.359 9.20201 15.1966 7.58847 12.6515 7.58847H8.30993C5.06622 7.58847 2.43799 10.2167 2.43799 13.4604C2.43799 15.6894 3.68557 17.619 5.51535 18.6171V20.1474C5.51535 20.5633 5.84804 20.896 6.2639 20.896H8.54281C8.95867 20.896 9.29136 20.5633 9.29136 20.1474V19.3157H12.6182V20.1474C12.6182 20.5633 12.9509 20.896 13.3668 20.896H15.6457C16.0616 20.896 16.3942 20.5633 16.3942 20.1474V17.9683C17.2592 17.253 17.908 16.3049 18.2573 15.207L19.3219 15.0739C19.7045 15.024 19.9873 14.708 19.9873 14.3254V12.3459C19.9706 11.9633 19.6878 11.6306 19.3219 11.5974Z" fill="white"/>
<path fill-rule="evenodd" clip-rule="evenodd" d="M2.18848 13.4604C2.18848 10.0789 4.92842 7.33893 8.30993 7.33893H12.6515C15.2503 7.33893 17.4664 8.95289 18.3547 11.2195L19.3497 11.3493C19.8553 11.3982 20.2154 11.8483 20.2365 12.335L20.2368 12.3405V14.3254C20.2368 14.8364 19.8579 15.2556 19.3542 15.3213L19.3528 15.3215L18.4444 15.4351C18.0834 16.4763 17.4605 17.3822 16.6438 18.0843V20.1474C16.6438 20.7011 16.1994 21.1455 15.6457 21.1455H13.3668C12.8131 21.1455 12.3687 20.7011 12.3687 20.1474V19.5652H9.54087V20.1474C9.54087 20.7011 9.09648 21.1455 8.54281 21.1455H6.2639C5.71024 21.1455 5.26584 20.7011 5.26584 20.1474V18.7631C3.43117 17.7043 2.18848 15.7321 2.18848 13.4604ZM8.30993 7.83796C5.20403 7.83796 2.68751 10.3545 2.68751 13.4604C2.68751 15.5934 3.88101 17.4414 5.63484 18.398L5.76487 18.4689V20.1474C5.76487 20.4255 5.98585 20.6464 6.2639 20.6464H8.54281C8.82087 20.6464 9.04184 20.4255 9.04184 20.1474V19.0662H12.8678V20.1474C12.8678 20.4255 13.0887 20.6464 13.3668 20.6464H15.6457C15.9237 20.6464 16.1447 20.4255 16.1447 20.1474V17.8509L16.2352 17.776C17.0637 17.091 17.6849 16.1832 18.0195 15.1313L18.0679 14.9792L19.2896 14.8265C19.2898 14.8265 19.2901 14.8264 19.2903 14.8264C19.5514 14.792 19.7378 14.5793 19.7378 14.3254V12.3518C19.7235 12.0774 19.5215 11.866 19.2993 11.8458L19.2945 11.8454L17.9914 11.6754L17.9396 11.5328C17.1593 9.38291 15.0886 7.83796 12.6515 7.83796H8.30993Z" fill="#077750"/>
<path d="M7.86072 5.32618C8.85291 5.32618 9.65723 4.52186 9.65723 3.52967C9.65723 2.53748 8.85291 1.73315 7.86072 1.73315C6.86853 1.73315 6.06421 2.53748 6.06421 3.52967C6.06421 4.52186 6.86853 5.32618 7.86072 5.32618Z" fill="#E1EEEB"/>
<path fill-rule="evenodd" clip-rule="evenodd" d="M7.86072 1.98261C7.00634 1.98261 6.31373 2.67523 6.31373 3.52961C6.31373 4.384 7.00634 5.07661 7.86072 5.07661C8.71511 5.07661 9.40772 4.38399 9.40772 3.52961C9.40772 2.67523 8.71511 1.98261 7.86072 1.98261ZM5.8147 3.52961C5.8147 2.39962 6.73073 1.48358 7.86072 1.48358C8.99072 1.48358 9.90675 2.39962 9.90675 3.52961C9.90675 4.6596 8.99072 5.57564 7.86072 5.57564C6.73073 5.57564 5.8147 4.6596 5.8147 3.52961Z" fill="#077750"/>
<path d="M11.2208 9.71763C12.213 9.71763 13.0173 8.9133 13.0173 7.92112C13.0173 6.92893 12.213 6.1246 11.2208 6.1246C10.2286 6.1246 9.42432 6.92893 9.42432 7.92112C9.42432 8.9133 10.2286 9.71763 11.2208 9.71763Z" fill="#E1EEEB"/>
<path fill-rule="evenodd" clip-rule="evenodd" d="M11.2208 6.37412C10.3665 6.37412 9.67384 7.06674 9.67384 7.92112C9.67384 8.7755 10.3665 9.46812 11.2208 9.46812C12.0752 9.46812 12.7678 8.7755 12.7678 7.92112C12.7678 7.06674 12.0752 6.37412 11.2208 6.37412ZM9.1748 7.92112C9.1748 6.79113 10.0908 5.87509 11.2208 5.87509C12.3508 5.87509 13.2669 6.79113 13.2669 7.92112C13.2669 9.05111 12.3508 9.96715 11.2208 9.96715C10.0908 9.96715 9.1748 9.05111 9.1748 7.92112Z" fill="#077750"/>
<path d="M7.91067 2.71456C8.16019 2.7312 8.39307 2.86427 8.39307 3.16369H8.04375C8.04375 3.06389 7.99384 3.01398 7.91067 2.99735V3.24686C7.96057 3.2635 8.01048 3.2635 8.04375 3.28013C8.24336 3.33004 8.44297 3.42984 8.44297 3.66272C8.44297 3.97878 8.19346 4.09522 7.91067 4.11185V4.2782H7.8275V4.11185C7.52808 4.09522 7.27856 3.96214 7.27856 3.62945H7.62789C7.62789 3.76253 7.71106 3.82907 7.8275 3.82907V3.52965C7.79423 3.51301 7.74433 3.51301 7.71106 3.49638C7.51145 3.44648 7.31184 3.34667 7.31184 3.11379C7.31184 2.81437 7.57798 2.69793 7.8275 2.69793V2.53159H7.91067V2.71456ZM7.8275 2.98071C7.76096 2.98071 7.66116 3.01398 7.66116 3.09715C7.66116 3.16369 7.72769 3.19696 7.8275 3.2136V2.98071ZM7.91067 3.8457C7.99384 3.8457 8.09365 3.81243 8.09365 3.71263C8.09365 3.64609 8.02711 3.59619 7.91067 3.57955V3.8457Z" fill="#14744E"/>
<path d="M11.2708 7.20586C11.5203 7.2225 11.7532 7.35557 11.7532 7.65499H11.4039C11.4039 7.55518 11.3539 7.50528 11.2708 7.48865V7.73816C11.3207 7.7548 11.3706 7.7548 11.4039 7.77143C11.6035 7.82133 11.8031 7.92114 11.8031 8.15402C11.8031 8.47008 11.5536 8.58652 11.2708 8.60315V8.76949H11.1876V8.60315C10.8882 8.58652 10.6387 8.45344 10.6387 8.12075H10.988C10.988 8.25383 11.0712 8.32037 11.1876 8.32037V8.05422C11.1543 8.03758 11.1044 8.03758 11.0712 8.02095C10.8716 7.97104 10.6719 7.87124 10.6719 7.63836C10.6719 7.33894 10.9381 7.2225 11.1876 7.2225V7.05615H11.2708V7.20586ZM11.1876 7.48865C11.1211 7.48865 11.0213 7.52192 11.0213 7.60509C11.0213 7.67163 11.0878 7.70489 11.1876 7.72153V7.48865ZM11.2708 8.35364C11.3539 8.35364 11.4538 8.32037 11.4538 8.22056C11.4538 8.15402 11.3872 8.10412 11.2708 8.08748V8.35364Z" fill="#14744E"/>
<path d="M15.8785 11.6805C15.9451 11.6139 15.995 11.4975 15.995 11.3977C15.995 11.2979 15.9451 11.1981 15.8785 11.1149C15.812 11.0483 15.6956 10.9984 15.5958 10.9984C15.496 10.9984 15.3961 11.0483 15.313 11.1149C15.2298 11.1814 15.1965 11.2979 15.1965 11.3977C15.1965 11.4975 15.2464 11.5973 15.313 11.6805C15.3795 11.747 15.496 11.7969 15.5958 11.7969C15.7122 11.7969 15.812 11.747 15.8785 11.6805Z" fill="#14744E"/>
<path d="M4.26789 13.976C4.4176 13.976 4.55068 13.843 4.55068 13.6932V13.6766C4.55068 13.5269 4.43424 13.3938 4.26789 13.3938C4.11818 13.3938 3.98511 13.5103 3.98511 13.6766V13.6932C3.98511 13.8596 4.10155 13.976 4.26789 13.976Z" fill="#14744E"/>
<path d="M5.48211 16.3381C5.53202 16.3714 5.58192 16.3714 5.63182 16.3714C5.73163 16.3714 5.8148 16.3215 5.8647 16.2383C5.94787 16.1052 5.89797 15.9389 5.7649 15.8557C5.2825 15.5563 4.89991 15.1071 4.70029 14.5915C4.65039 14.4418 4.48405 14.3752 4.33434 14.4251C4.18463 14.475 4.11809 14.6414 4.168 14.7911C4.43415 15.4398 4.88328 15.9888 5.48211 16.3381Z" fill="#14744E"/>
<path d="M13.3834 10.4329H8.11032C7.97725 10.4329 7.87744 10.3331 7.87744 10.2C7.87744 10.0669 7.97725 9.96713 8.11032 9.96713H13.3834C13.5165 9.96713 13.6163 10.0669 13.6163 10.2C13.6163 10.3331 13.5165 10.4329 13.3834 10.4329Z" fill="#14744E"/>
<path fill-rule="evenodd" clip-rule="evenodd" d="M1.63716 10.6656C1.51034 10.6643 1.10011 10.6598 0.801285 10.9587C0.542533 11.2174 0.458139 11.6102 0.516831 11.8332L0.517232 11.8348L0.517227 11.8348C0.584561 12.0974 0.732698 12.3101 1.00816 12.4405C1.29488 12.5763 1.74814 12.6361 2.44551 12.5158C2.58131 12.4924 2.71038 12.5835 2.73379 12.7193C2.75721 12.8551 2.6661 12.9842 2.5303 13.0076C1.78048 13.1369 1.21072 13.0886 0.794643 12.8916C0.367566 12.6894 0.133138 12.3453 0.03402 11.9594C-0.0732289 11.5504 0.0753055 10.9789 0.448417 10.6058C0.904899 10.1493 1.51792 10.1636 1.64022 10.1665C1.64716 10.1666 1.65252 10.1667 1.65618 10.1667C1.79399 10.1667 1.9057 10.2785 1.9057 10.4163C1.9057 10.5541 1.79399 10.6658 1.65618 10.6658C1.65083 10.6658 1.64447 10.6657 1.63716 10.6656Z" fill="#077750"/>
</svg>
