<svg width="22" height="24" viewBox="0 0 22 24" fill="none" xmlns="http://www.w3.org/2000/svg">
<path opacity="0.58" d="M9.38237 21.8744C14.5641 21.8744 18.7647 17.6738 18.7647 12.4921C18.7647 7.31034 14.5641 3.10971 9.38237 3.10971C4.20063 3.10971 0 7.31034 0 12.4921C0 17.6738 4.20063 21.8744 9.38237 21.8744Z" fill="#EEECED"/>
<path d="M16.0821 2.78242C15.9236 2.78242 15.7827 2.64151 15.7827 2.483V1.14442C15.7827 0.985904 15.9236 0.845001 16.0821 0.845001C16.2406 0.845001 16.3816 0.985904 16.3816 1.14442V2.483C16.3816 2.64151 16.2583 2.78242 16.0821 2.78242Z" fill="#BDC0C4"/>
<path d="M15.1133 1.81367C15.1133 1.65516 15.2542 1.51425 15.4127 1.51425H16.7513C16.9098 1.51425 17.0507 1.65516 17.0507 1.81367C17.0507 1.97219 16.9098 2.11309 16.7513 2.11309H15.4127C15.2542 2.11309 15.1133 1.97219 15.1133 1.81367Z" fill="#BDC0C4"/>
<path d="M21.0311 8.78846C20.8726 8.78846 20.7317 8.64756 20.7317 8.48904V7.15046C20.7317 6.99195 20.8726 6.85104 21.0311 6.85104C21.1896 6.85104 21.3305 6.99195 21.3305 7.15046V8.48904C21.3305 8.64756 21.1896 8.78846 21.0311 8.78846Z" fill="#BDC0C4"/>
<path d="M20.0625 7.81971C20.0625 7.6612 20.2034 7.52029 20.3619 7.52029H21.7005C21.859 7.52029 21.9999 7.6612 21.9999 7.81971C21.9999 7.97823 21.859 8.11913 21.7005 8.11913H20.3619C20.2034 8.11913 20.0625 7.97823 20.0625 7.81971Z" fill="#BDC0C4"/>
<path d="M15.7681 8.0712C11.6946 8.0712 10.6387 5.94269 10.6006 5.88072C10.3885 5.37302 9.95703 5.05363 9.4827 5.05124C9.01314 5.03933 8.57696 5.34203 8.35052 5.83543C8.35052 5.83543 7.52104 7.49676 4.67986 7.94964C4.18885 8.02829 3.69307 8.06881 3.19729 8.0712C2.50368 8.0712 1.94116 8.74812 1.94116 9.57998V12.5094C1.94116 16.8307 4.13164 20.7183 7.47337 22.3224L9.02029 23.0613C9.31824 23.2043 9.65193 23.2043 9.94988 23.0613L11.4968 22.3224C14.8385 20.7159 17.029 16.8307 17.029 12.5094V9.57998C17.0242 8.74812 16.4617 8.0712 15.7681 8.0712Z" fill="white" stroke="#007953" stroke-width="0.5" stroke-miterlimit="10" stroke-linecap="round" stroke-linejoin="round"/>
<path fill-rule="evenodd" clip-rule="evenodd" d="M9.44699 5.95511C9.581 5.95511 9.68964 6.06375 9.68964 6.19776V22.0936C9.68964 22.2276 9.581 22.3363 9.44699 22.3363C9.31298 22.3363 9.20435 22.2276 9.20435 22.0936V6.19776C9.20435 6.06375 9.31298 5.95511 9.44699 5.95511Z" fill="#007953"/>
<path d="M9.48265 18.9091C6.83691 18.9091 4.68457 16.7568 4.68457 14.111C4.68457 11.4653 6.83691 9.31296 9.48265 9.31296C12.1284 9.31296 14.2807 11.4653 14.2807 14.111C14.2807 16.7568 12.1284 18.9091 9.48265 18.9091Z" fill="white"/>
<path fill-rule="evenodd" clip-rule="evenodd" d="M9.48262 9.55564C6.9709 9.55564 4.92719 11.5993 4.92719 14.1111C4.92719 16.6228 6.9709 18.6665 9.48262 18.6665C11.9943 18.6665 14.0381 16.6228 14.0381 14.1111C14.0381 11.5993 11.9943 9.55564 9.48262 9.55564ZM4.44189 14.1111C4.44189 11.3313 6.70287 9.07034 9.48262 9.07034C12.2624 9.07034 14.5233 11.3313 14.5233 14.1111C14.5233 16.8908 12.2624 19.1518 9.48262 19.1518C6.70287 19.1518 4.44189 16.8908 4.44189 14.1111Z" fill="#007953"/>
<path d="M9.48265 17.5814C11.3993 17.5814 12.9531 16.0276 12.9531 14.1109C12.9531 12.1943 11.3993 10.6405 9.48265 10.6405C7.56598 10.6405 6.01221 12.1943 6.01221 14.1109C6.01221 16.0276 7.56598 17.5814 9.48265 17.5814Z" fill="#E1EEEB"/>
<path fill-rule="evenodd" clip-rule="evenodd" d="M9.48262 10.8832C7.69996 10.8832 6.25483 12.3283 6.25483 14.111C6.25483 15.8937 7.69996 17.3388 9.48262 17.3388C11.2653 17.3388 12.7104 15.8937 12.7104 14.111C12.7104 12.3283 11.2653 10.8832 9.48262 10.8832ZM5.76953 14.111C5.76953 12.0603 7.43194 10.3979 9.48262 10.3979C11.5333 10.3979 13.1957 12.0603 13.1957 14.111C13.1957 16.1617 11.5333 17.8241 9.48262 17.8241C7.43194 17.8241 5.76953 16.1617 5.76953 14.111Z" fill="#007953"/>
<path fill-rule="evenodd" clip-rule="evenodd" d="M9.48257 15.4557C9.57191 15.4557 9.64433 15.5281 9.64433 15.6175V15.9941C9.64433 16.0834 9.57191 16.1558 9.48257 16.1558C9.39323 16.1558 9.3208 16.0834 9.3208 15.9941V15.6175C9.3208 15.5281 9.39323 15.4557 9.48257 15.4557Z" fill="#007953"/>
<path fill-rule="evenodd" clip-rule="evenodd" d="M9.48257 12.0663C9.57191 12.0663 9.64433 12.1387 9.64433 12.2281V12.6047C9.64433 12.694 9.57191 12.7664 9.48257 12.7664C9.39323 12.7664 9.3208 12.694 9.3208 12.6047V12.2281C9.3208 12.1387 9.39323 12.0663 9.48257 12.0663Z" fill="#007953"/>
<path fill-rule="evenodd" clip-rule="evenodd" d="M9.48284 12.7665C9.15539 12.7665 8.8914 13.0322 8.8914 13.3579C8.8914 13.6854 9.15711 13.9494 9.48284 13.9494C9.98963 13.9494 10.3978 14.3606 10.3978 14.8643C10.3978 15.3708 9.9893 15.7793 9.48284 15.7793C8.97604 15.7793 8.56787 15.3681 8.56787 14.8643C8.56787 14.775 8.6403 14.7026 8.72964 14.7026C8.81898 14.7026 8.8914 14.775 8.8914 14.8643C8.8914 15.1901 9.15539 15.4558 9.48284 15.4558C9.81062 15.4558 10.0743 15.1921 10.0743 14.8643C10.0743 14.5386 9.81028 14.2729 9.48284 14.2729C8.97909 14.2729 8.56787 13.8647 8.56787 13.3579C8.56787 12.8542 8.97604 12.443 9.48284 12.443C9.98658 12.443 10.3978 12.8511 10.3978 13.3579C10.3978 13.4473 10.3254 13.5197 10.236 13.5197C10.1467 13.5197 10.0743 13.4473 10.0743 13.3579C10.0743 13.0305 9.80857 12.7665 9.48284 12.7665Z" fill="#007953"/>
<path fill-rule="evenodd" clip-rule="evenodd" d="M8.18006 9.86134C8.24842 9.84218 8.31936 9.88206 8.33852 9.95042L8.42671 10.265C8.44587 10.3334 8.40599 10.4043 8.33764 10.4235C8.26928 10.4427 8.19834 10.4028 8.17918 10.3344L8.09098 10.0198C8.07182 9.95145 8.1117 9.8805 8.18006 9.86134Z" fill="#007953"/>
<path fill-rule="evenodd" clip-rule="evenodd" d="M9.35168 9.69452C9.42267 9.69452 9.48022 9.75207 9.48022 9.82306V10.1496C9.48022 10.2206 9.42267 10.2781 9.35168 10.2781C9.28069 10.2781 9.22314 10.2206 9.22314 10.1496V9.82306C9.22314 9.75207 9.28069 9.69452 9.35168 9.69452Z" fill="#007953"/>
<path fill-rule="evenodd" clip-rule="evenodd" d="M10.4848 9.82261C10.5536 9.84031 10.595 9.9104 10.5772 9.97914L10.4962 10.2938C10.4785 10.3625 10.4084 10.4039 10.3397 10.3862C10.2709 10.3685 10.2296 10.2984 10.2473 10.2296L10.3283 9.91502C10.346 9.84627 10.4161 9.8049 10.4848 9.82261Z" fill="#007953"/>
<path fill-rule="evenodd" clip-rule="evenodd" d="M11.5791 10.264C11.641 10.2988 11.6629 10.3772 11.628 10.439L11.4684 10.7227C11.4335 10.7845 11.3551 10.8064 11.2933 10.7716C11.2314 10.7368 11.2095 10.6584 11.2443 10.5965L11.404 10.3129C11.4389 10.251 11.5172 10.2291 11.5791 10.264Z" fill="#007953"/>
<path fill-rule="evenodd" clip-rule="evenodd" d="M12.5521 10.9516C12.6028 11.0013 12.6037 11.0826 12.554 11.1334L12.3275 11.3646C12.2779 11.4153 12.1965 11.4161 12.1458 11.3665C12.0951 11.3168 12.0942 11.2354 12.1439 11.1847L12.3703 10.9535C12.42 10.9028 12.5014 10.9019 12.5521 10.9516Z" fill="#007953"/>
<path fill-rule="evenodd" clip-rule="evenodd" d="M13.2786 11.8819C13.3144 11.9432 13.2938 12.0219 13.2325 12.0578L12.9513 12.2222C12.89 12.2581 12.8112 12.2374 12.7754 12.1761C12.7396 12.1149 12.7602 12.0361 12.8215 12.0003L13.1027 11.8358C13.164 11.8 13.2428 11.8206 13.2786 11.8819Z" fill="#007953"/>
<path fill-rule="evenodd" clip-rule="evenodd" d="M13.7325 12.9332C13.7512 13.0016 13.7108 13.0723 13.6423 13.091L13.3277 13.1768C13.2592 13.1955 13.1885 13.1551 13.1698 13.0866C13.1512 13.0181 13.1915 12.9475 13.26 12.9288L13.5747 12.843C13.6431 12.8243 13.7138 12.8647 13.7325 12.9332Z" fill="#007953"/>
<path fill-rule="evenodd" clip-rule="evenodd" d="M13.3108 14.1016C13.3108 14.0306 13.3683 13.9731 13.4393 13.9731H13.7635C13.8345 13.9731 13.892 14.0306 13.892 14.1016C13.892 14.1726 13.8345 14.2301 13.7635 14.2301H13.4393C13.3683 14.2301 13.3108 14.1726 13.3108 14.1016Z" fill="#007953"/>
<path fill-rule="evenodd" clip-rule="evenodd" d="M5.68548 14.2125C5.68601 14.2835 5.62888 14.3415 5.55789 14.342L5.23373 14.3444C5.16274 14.3449 5.10477 14.2878 5.10425 14.2168C5.10373 14.1458 5.16085 14.0878 5.23184 14.0873L5.556 14.0849C5.62699 14.0844 5.68496 14.1415 5.68548 14.2125Z" fill="#007953"/>
<path fill-rule="evenodd" clip-rule="evenodd" d="M5.21111 13.0294C5.22931 12.9608 5.29968 12.9199 5.3683 12.9381L5.68293 13.0215C5.75155 13.0397 5.79242 13.1101 5.77423 13.1787C5.75604 13.2473 5.68566 13.2882 5.61704 13.27L5.30241 13.1866C5.23379 13.1684 5.19292 13.098 5.21111 13.0294Z" fill="#007953"/>
<path fill-rule="evenodd" clip-rule="evenodd" d="M5.65514 11.9355C5.69036 11.8738 5.76888 11.8524 5.83052 11.8877L6.11416 12.0497C6.1758 12.085 6.19721 12.1635 6.16199 12.2251C6.12677 12.2867 6.04825 12.3082 5.98661 12.2729L5.70297 12.1109C5.64133 12.0756 5.61992 11.9971 5.65514 11.9355Z" fill="#007953"/>
<path fill-rule="evenodd" clip-rule="evenodd" d="M6.33796 11.0198C6.3879 10.9694 6.46928 10.9689 6.51974 11.0189L6.75094 11.2477C6.8014 11.2976 6.80182 11.379 6.75188 11.4295C6.70195 11.4799 6.62056 11.4803 6.57011 11.4304L6.3389 11.2016C6.28844 11.1517 6.28802 11.0703 6.33796 11.0198Z" fill="#007953"/>
<path fill-rule="evenodd" clip-rule="evenodd" d="M7.27092 10.2957C7.33243 10.2602 7.41103 10.2814 7.44647 10.3429L7.60855 10.6241C7.644 10.6857 7.62287 10.7642 7.56136 10.7997C7.49986 10.8351 7.42126 10.814 7.38581 10.7525L7.22373 10.4712C7.18829 10.4097 7.20942 10.3311 7.27092 10.2957Z" fill="#007953"/>
</svg>
