<svg width="48" height="48" viewBox="0 0 48 48" fill="none" xmlns="http://www.w3.org/2000/svg">
<path fill-rule="evenodd" clip-rule="evenodd" d="M46.6286 24C46.6286 36.4974 36.4974 46.6286 24 46.6286C11.5026 46.6286 1.37143 36.4974 1.37143 24C1.37143 11.5026 11.5026 1.37143 24 1.37143C28.1588 1.37143 32.0556 2.49335 35.4042 4.45103C35.6807 4.07649 35.9847 3.72354 36.3132 3.39516C32.7133 1.23924 28.5014 0 24 0C10.7452 0 0 10.7452 0 24C0 37.2548 10.7452 48 24 48C37.2548 48 48 37.2548 48 24C48 21.9588 47.7452 19.977 47.2656 18.0849C46.859 18.3055 46.4341 18.4965 45.9937 18.6551C46.4087 20.3688 46.6286 22.1587 46.6286 24Z" fill="#219963"/>
<path d="M47.3139 11.3129H43.2296V15.7714H41.7781V11.3129H37.7139V9.91314H41.7781V5.48572H43.2296V9.91314H47.3139V11.3129Z" fill="#219963"/>
<path d="M17.1581 15.0867C18.0812 15.0867 18.9133 15.2148 19.6525 15.4701C20.3927 15.7253 21.0224 16.0799 21.5445 16.5348C22.0657 16.9897 22.4646 17.5318 22.7433 18.1593C23.021 18.7887 23.1599 19.4811 23.1599 20.2358C23.1599 20.8847 23.064 21.4853 22.8714 22.0367C22.6788 22.5881 22.4158 23.1144 22.0823 23.6138C21.7479 24.1123 21.3627 24.596 20.9217 25.0619C20.4807 25.5279 20.0123 26.0014 19.5176 26.4794L15.8635 30.0338C16.3338 29.9038 16.7973 29.8008 17.2559 29.7238C17.7125 29.6467 18.1418 29.6077 18.5437 29.6077H22.0325C22.4588 29.6077 22.7971 29.72 23.0455 29.9428C23.2928 30.1665 23.417 30.4608 23.417 30.8256V33.0173H10.2861V31.7994C10.2861 31.5645 10.337 31.313 10.4396 31.0447C10.5433 30.7774 10.7222 30.5332 10.9794 30.3141L16.3651 25.165C16.8266 24.7268 17.2285 24.3091 17.5708 23.9118C17.912 23.5136 18.1936 23.1218 18.4175 22.7366C18.6395 22.3514 18.8057 21.9661 18.9172 21.5791C19.0277 21.1938 19.0844 20.7863 19.0844 20.3556C19.0844 19.6501 18.9064 19.108 18.5525 18.7311C18.1975 18.3533 17.6558 18.1658 16.9293 18.1658C16.6301 18.1658 16.3563 18.2066 16.1089 18.2874C15.8606 18.3691 15.6386 18.4777 15.4421 18.6151C15.2446 18.7534 15.0764 18.9149 14.9346 19.1024C14.7938 19.289 14.6813 19.4914 14.5953 19.7104C14.4584 20.0762 14.2853 20.3398 14.0761 20.5023C13.8668 20.6647 13.5823 20.7464 13.2234 20.7464C13.1374 20.7464 13.0465 20.7427 12.9477 20.7334C12.8489 20.725 12.7482 20.7139 12.6465 20.6981L10.5443 20.3444C10.6812 19.4598 10.9442 18.6893 11.3324 18.0312C11.7215 17.374 12.2046 16.8263 12.7815 16.3891C13.3584 15.95 14.0194 15.6242 14.7635 15.4079C15.5066 15.1925 16.3055 15.0858 17.1601 15.0858L17.1581 15.0867Z" fill="#219963"/>
<path d="M27.5459 30.2909H31.1354V21.3442C31.1354 20.9051 31.1491 20.4475 31.1735 19.9685L29.0586 21.6366C28.9207 21.7415 28.7838 21.8167 28.6479 21.8612C28.512 21.9058 28.379 21.929 28.2499 21.929C28.028 21.929 27.8295 21.8826 27.6544 21.7879C27.4794 21.6951 27.3484 21.5957 27.2633 21.4899L26.0068 19.9081L31.8287 15.2695H35.1102V30.2909H38.1883V33.0182H27.5449V30.2909H27.5459Z" fill="#219963"/>
</svg>
