<svg width="48" height="48" viewBox="0 0 48 48" fill="none" xmlns="http://www.w3.org/2000/svg">
<g clip-path="url(#clip0_1052_6302)">
<path d="M29.8201 48H2.65502C1.18777 48 0 46.7546 0 45.2161V2.78388C0 1.24542 1.18777 0 2.65502 0H20.7511C21.31 0 21.7572 0.468865 21.7572 1.05495C21.7572 1.64103 21.31 2.10989 20.7511 2.10989H2.65502C2.30568 2.10989 2.01223 2.41758 2.01223 2.78388V45.2308C2.01223 45.5824 2.30568 45.9048 2.65502 45.9048H29.8201C30.1555 45.9048 30.4629 45.5824 30.4629 45.2308V12.293C30.4629 11.707 30.91 11.2381 31.469 11.2381C32.0279 11.2381 32.4751 11.707 32.4751 12.293V45.2308C32.4751 46.7399 31.2594 48.0147 29.8201 48.0147V48Z" fill="#219963"/>
<path d="M31.4701 13.3482H22.4011C20.9339 13.3482 19.7461 12.1028 19.7461 10.5643V1.05519C19.7461 0.630277 19.9976 0.249325 20.3609 0.0735004C20.7382 -0.0876718 21.1714 0.000240343 21.4509 0.307933L32.1688 11.546C32.4623 11.8537 32.5461 12.3079 32.3924 12.6889C32.2387 13.0845 31.8754 13.3336 31.4561 13.3336L31.4701 13.3482ZM21.7583 3.60464V10.5643C21.7583 10.9306 22.0518 11.2383 22.4011 11.2383H29.0387L21.7583 3.60464Z" fill="#219963"/>
<path d="M40.218 44.5715C38.3175 44.5715 36.2773 42.74 36.2773 38.74V6.81325C36.2773 6.22717 36.7245 5.7583 37.2835 5.7583H43.1525C43.7114 5.7583 44.1586 6.22717 44.1586 6.81325V38.74C44.1586 42.74 42.1184 44.5715 40.218 44.5715ZM38.2896 7.86819V38.74C38.2896 43.6191 42.1463 43.6191 42.1463 38.74V7.86819H38.2896Z" fill="#219963"/>
<path d="M46.9663 24.8206C46.4073 24.8206 45.9601 24.3517 45.9601 23.7656V12.8938H37.2405C36.6815 12.8938 36.2344 12.425 36.2344 11.8389C36.2344 11.2528 36.6815 10.7839 37.2405 10.7839H46.9802C47.2457 10.7839 47.4973 10.9012 47.6929 11.0916C47.8746 11.2968 47.9863 11.5605 47.9863 11.8389L47.9584 23.7656C47.9584 24.3517 47.5112 24.8206 46.9523 24.8206H46.9663Z" fill="#219963"/>
<path d="M40.1194 48C39.5604 48 39.1133 47.5312 39.1133 46.9451V43.5018C39.1133 42.9158 39.5604 42.4469 40.1194 42.4469C40.6783 42.4469 41.1255 42.9158 41.1255 43.5018V46.9451C41.1255 47.5312 40.6783 48 40.1194 48Z" fill="#219963"/>
<path d="M16.2363 11.3406H7.57252C7.01357 11.3406 6.56641 10.8717 6.56641 10.2857C6.56641 9.69958 7.01357 9.23071 7.57252 9.23071H16.2363C16.7952 9.23071 17.2424 9.69958 17.2424 10.2857C17.2424 10.8717 16.7952 11.3406 16.2363 11.3406Z" fill="#219963"/>
<path d="M24.8861 19.9414H7.57252C7.01357 19.9414 6.56641 19.4726 6.56641 18.8865C6.56641 18.3004 7.01357 17.8315 7.57252 17.8315H24.8861C25.445 17.8315 25.8922 18.3004 25.8922 18.8865C25.8922 19.4726 25.445 19.9414 24.8861 19.9414Z" fill="#219963"/>
<path d="M24.8861 24.9524H7.57252C7.01357 24.9524 6.56641 24.4836 6.56641 23.8975C6.56641 23.3114 7.01357 22.8425 7.57252 22.8425H24.8861C25.445 22.8425 25.8922 23.3114 25.8922 23.8975C25.8922 24.4836 25.445 24.9524 24.8861 24.9524Z" fill="#219963"/>
<path d="M24.8861 29.9634H7.57252C7.01357 29.9634 6.56641 29.4945 6.56641 28.9085C6.56641 28.3224 7.01357 27.8535 7.57252 27.8535H24.8861C25.445 27.8535 25.8922 28.3224 25.8922 28.9085C25.8922 29.4945 25.445 29.9634 24.8861 29.9634Z" fill="#219963"/>
<path d="M16.2363 34.9744H7.57252C7.01357 34.9744 6.56641 34.5055 6.56641 33.9194C6.56641 33.3334 7.01357 32.8645 7.57252 32.8645H16.2363C16.7952 32.8645 17.2424 33.3334 17.2424 33.9194C17.2424 34.5055 16.7952 34.9744 16.2363 34.9744Z" fill="#219963"/>
</g>
<defs>
<clipPath id="clip0_1052_6302">
<rect width="48" height="48" fill="white"/>
</clipPath>
</defs>
</svg>
