<svg width="43" height="48" viewBox="0 0 43 48" fill="none" xmlns="http://www.w3.org/2000/svg">
<g clip-path="url(#clip0_1052_6285)">
<path d="M29.9614 47.9999C23.1748 47.9999 17.6523 42.4768 17.6523 35.6895C17.6523 28.9021 23.1748 23.3269 29.9614 23.3269C36.748 23.3269 42.2704 28.8723 42.2704 35.6895C42.2704 42.5066 36.748 47.9999 29.9614 47.9999ZM29.9614 25.5951C24.4241 25.5951 19.9203 30.1217 19.9203 35.6895C19.9203 41.2572 24.4241 45.7317 29.9614 45.7317C35.4987 45.7317 40.0025 41.2274 40.0025 35.6895C40.0025 30.1515 35.4987 25.5951 29.9614 25.5951Z" fill="#219963" stroke="white" stroke-width="0.5"/>
<path fill-rule="evenodd" clip-rule="evenodd" d="M1.13275 48H19.5418C20.1664 48 20.6745 47.4918 20.6745 46.8646C20.6745 46.2375 20.1664 45.7293 19.5418 45.7293H2.26798V2.26824H25.6963V10.6893C25.6963 11.3164 26.2044 11.8246 26.829 11.8246H35.2516V21.8098C35.2516 22.437 35.7597 22.9452 36.3843 22.9452C37.0089 22.9452 37.5171 22.437 37.5171 21.8098V10.6893C37.5171 10.3893 37.3981 10.1017 37.1849 9.88855L27.6297 0.33218C27.6207 0.323277 27.6115 0.314532 27.6023 0.30595C27.3997 0.116165 27.1277 4.46193e-06 26.8291 0C26.8291 0 26.829 0 26.829 0H1.13275C0.508126 0 0 0.508186 0 1.13536V46.8646C0 47.4918 0.508126 48 1.13275 48ZM27.9618 3.86963V9.55637H33.6479L27.9618 3.86963Z" fill="#219963"/>
<path d="M2.26798 45.7293H2.01798V45.9793H2.26798V45.7293ZM2.26798 2.26824V2.01824H2.01798V2.26824H2.26798ZM25.6963 2.26824H25.9463V2.01824H25.6963V2.26824ZM35.2516 11.8246H35.5016V11.5746H35.2516V11.8246ZM37.1849 9.88855L37.0081 10.0653L37.1849 9.88855ZM27.6297 0.33218L27.8065 0.155411L27.8054 0.154389L27.6297 0.33218ZM27.6023 0.30595L27.4313 0.488394L27.4324 0.48938L27.6023 0.30595ZM26.8291 0L26.8291 -0.25H26.8291V0ZM27.9618 3.86963L28.1386 3.69286L27.7118 3.26603V3.86963H27.9618ZM27.9618 9.55637H27.7118V9.80637H27.9618V9.55637ZM33.6479 9.55637V9.80637H34.2514L33.8246 9.3796L33.6479 9.55637ZM19.5418 47.75H1.13275V48.25H19.5418V47.75ZM20.4245 46.8646C20.4245 47.3541 20.028 47.75 19.5418 47.75V48.25C20.3049 48.25 20.9245 47.6295 20.9245 46.8646H20.4245ZM19.5418 45.9793C20.028 45.9793 20.4245 46.3751 20.4245 46.8646H20.9245C20.9245 46.0998 20.3049 45.4793 19.5418 45.4793V45.9793ZM2.26798 45.9793H19.5418V45.4793H2.26798V45.9793ZM2.01798 2.26824V45.7293H2.51798V2.26824H2.01798ZM25.6963 2.01824H2.26798V2.51824H25.6963V2.01824ZM25.9463 10.6893V2.26824H25.4463V10.6893H25.9463ZM26.829 11.5746C26.3429 11.5746 25.9463 11.1787 25.9463 10.6893H25.4463C25.4463 11.4541 26.066 12.0746 26.829 12.0746V11.5746ZM35.2516 11.5746H26.829V12.0746H35.2516V11.5746ZM35.5016 21.8098V11.8246H35.0016V21.8098H35.5016ZM36.3843 22.6952C35.8981 22.6952 35.5016 22.2993 35.5016 21.8098H35.0016C35.0016 22.5747 35.6212 23.1952 36.3843 23.1952V22.6952ZM37.2671 21.8098C37.2671 22.2993 36.8705 22.6952 36.3843 22.6952V23.1952C37.1474 23.1952 37.7671 22.5747 37.7671 21.8098H37.2671ZM37.2671 10.6893V21.8098H37.7671V10.6893H37.2671ZM37.0081 10.0653C37.1745 10.2317 37.2671 10.4557 37.2671 10.6893H37.7671C37.7671 10.3229 37.6217 9.97178 37.3617 9.71178L37.0081 10.0653ZM27.4529 0.508946L37.0081 10.0653L37.3617 9.71178L27.8065 0.155414L27.4529 0.508946ZM27.4324 0.48938C27.4397 0.49612 27.4468 0.502985 27.4539 0.509971L27.8054 0.154389C27.7945 0.143568 27.7834 0.132945 27.7721 0.12252L27.4324 0.48938ZM26.8291 0.25C27.0616 0.250003 27.2731 0.340177 27.4313 0.488391L27.7732 0.123509C27.5262 -0.107848 27.1938 -0.249995 26.8291 -0.25L26.8291 0.25ZM26.829 0.25H26.829H26.829C26.829 0.25 26.829 0.25 26.829 0.25C26.829 0.25 26.829 0.25 26.829 0.25C26.829 0.25 26.829 0.25 26.829 0.25C26.829 0.25 26.829 0.25 26.8291 0.25C26.8291 0.25 26.8291 0.25 26.8291 0.25C26.8291 0.25 26.8291 0.25 26.8291 0.25H26.8291V-0.25H26.8291C26.8291 -0.25 26.8291 -0.25 26.8291 -0.25C26.8291 -0.25 26.8291 -0.25 26.8291 -0.25C26.829 -0.25 26.829 -0.25 26.829 -0.25C26.829 -0.25 26.829 -0.25 26.829 -0.25C26.829 -0.25 26.829 -0.25 26.829 -0.25C26.829 -0.25 26.829 -0.25 26.829 -0.25H26.829H26.829V0.25ZM1.13275 0.25H26.829V-0.25H1.13275V0.25ZM0.25 1.13536C0.25 0.645873 0.646581 0.25 1.13275 0.25V-0.25C0.369672 -0.25 -0.25 0.370498 -0.25 1.13536H0.25ZM0.25 46.8646V1.13536H-0.25V46.8646H0.25ZM1.13275 47.75C0.646581 47.75 0.25 47.3541 0.25 46.8646H-0.25C-0.25 47.6295 0.369672 48.25 1.13275 48.25V47.75ZM27.7118 3.86963V9.55637H28.2118V3.86963H27.7118ZM27.9618 9.80637H33.6479V9.30637H27.9618V9.80637ZM33.8246 9.3796L28.1386 3.69286L27.785 4.0464L33.4711 9.73314L33.8246 9.3796Z" fill="white"/>
<path d="M25.21 17.8733H12.3085C11.6839 17.8733 11.1758 17.3651 11.1758 16.7379C11.1758 16.1107 11.6839 15.6025 12.3085 15.6025H25.21C25.8346 15.6025 26.3427 16.1107 26.3427 16.7379C26.3427 17.3651 25.8346 17.8733 25.21 17.8733Z" fill="#219963" stroke="white" stroke-width="0.5"/>
<path d="M21.5914 23.974H8.09759C7.47297 23.974 6.96484 23.4658 6.96484 22.8386C6.96484 22.2114 7.47297 21.7032 8.09759 21.7032H21.5939C22.2185 21.7032 22.7267 22.2114 22.7267 22.8386C22.7267 23.4658 22.2185 23.974 21.5939 23.974H21.5914Z" fill="#219963" stroke="white" stroke-width="0.5"/>
<path d="M16.1954 30.0747H8.09759C7.47297 30.0747 6.96484 29.5665 6.96484 28.9393C6.96484 28.3121 7.47297 27.804 8.09759 27.804H16.1954C16.82 27.804 17.3281 28.3121 17.3281 28.9393C17.3281 29.5665 16.82 30.0747 16.1954 30.0747Z" fill="#219963" stroke="white" stroke-width="0.5"/>
<path d="M14.6834 36.2299H8.09759C7.47297 36.2299 6.96484 35.7218 6.96484 35.0946C6.96484 34.4674 7.47297 33.9592 8.09759 33.9592H14.6834C15.308 33.9592 15.8162 34.4674 15.8162 35.0946C15.8162 35.7218 15.308 36.2299 14.6834 36.2299Z" fill="#219963" stroke="white" stroke-width="0.5"/>
<path fill-rule="evenodd" clip-rule="evenodd" d="M29.9605 32.4495C29.9353 32.4495 29.9102 32.4487 29.8854 32.447H28.1784C27.6132 32.447 27.1522 32.9056 27.1522 33.4708C27.1522 34.0757 27.6033 34.5492 28.1784 34.5492H31.6857C31.7297 34.5492 31.7732 34.5517 31.8159 34.5566C33.5726 34.6253 34.9799 36.0775 34.9799 37.8486C34.9799 39.6632 33.5026 41.1431 31.6857 41.1431V41.1407H31.0932V42.3281C31.0932 42.9553 30.5851 43.4635 29.9605 43.4635C29.3359 43.4635 28.8277 42.9553 28.8277 42.3281V41.1407H28.1784C26.8474 41.1407 25.6204 40.3102 25.1272 39.0782C24.8942 38.4981 25.1767 37.8387 25.7592 37.6057C26.3392 37.3702 26.9986 37.6552 27.234 38.2378C27.3827 38.6121 27.7719 38.8724 28.1784 38.8724H29.886C29.9106 38.8708 29.9355 38.87 29.9605 38.87C29.9855 38.87 30.0103 38.8708 30.0349 38.8724H31.6857C32.2508 38.8724 32.7119 38.4138 32.7119 37.8486C32.7119 37.2834 32.2508 36.8248 31.6857 36.8248C31.6607 36.8248 31.6359 36.824 31.6113 36.8224H28.1784C26.3615 36.8224 24.8867 35.3201 24.8867 33.4733C24.8867 31.6265 26.364 30.1788 28.1784 30.1788H28.8277V29.0459C28.8277 28.4187 29.3359 27.9105 29.9605 27.9105C30.5851 27.9105 31.0932 28.4187 31.0932 29.0459V30.1788H31.6857C33.0143 30.1788 34.2585 30.9993 34.7791 32.2165C35.0245 32.7941 34.7568 33.4584 34.1817 33.7039C33.6042 33.9567 32.9399 33.684 32.6945 33.1089C32.5532 32.7792 32.1616 32.447 31.6857 32.447H30.0355C30.0107 32.4487 29.9857 32.4495 29.9605 32.4495Z" fill="#219963"/>
<path d="M29.8854 32.447L29.9018 32.1976L29.8936 32.197H29.8854V32.447ZM31.8159 34.5566L31.7873 34.805L31.7967 34.8061L31.8061 34.8064L31.8159 34.5566ZM31.6857 41.1431H31.4357V41.3931H31.6857V41.1431ZM31.6857 41.1407H31.9357V40.8907H31.6857V41.1407ZM31.0932 41.1407V40.8907H30.8432V41.1407H31.0932ZM28.8277 41.1407H29.0777V40.8907H28.8277V41.1407ZM25.1272 39.0782L25.3593 38.9853L25.3591 38.985L25.1272 39.0782ZM25.7592 37.6057L25.8521 37.8378L25.8533 37.8373L25.7592 37.6057ZM27.234 38.2378L27.4664 38.1455L27.4658 38.1441L27.234 38.2378ZM29.886 38.8724V39.1224H29.8942L29.9023 39.1219L29.886 38.8724ZM30.0349 38.8724L30.0187 39.1219L30.0268 39.1224H30.0349V38.8724ZM31.6113 36.8224L31.6275 36.5729L31.6194 36.5724H31.6113V36.8224ZM28.8277 30.1788V30.4288H29.0777V30.1788H28.8277ZM31.0932 30.1788H30.8432V30.4288H31.0932V30.1788ZM34.7791 32.2165L35.0092 32.1187L35.0089 32.1182L34.7791 32.2165ZM34.1817 33.7039L34.0836 33.4739L34.0814 33.4748L34.1817 33.7039ZM32.6945 33.1089L32.9245 33.0108L32.9243 33.0104L32.6945 33.1089ZM30.0355 32.447V32.197H30.0273L30.0191 32.1976L30.0355 32.447ZM29.869 32.6965C29.8993 32.6985 29.9298 32.6995 29.9605 32.6995V32.1995C29.9407 32.1995 29.9212 32.1988 29.9018 32.1976L29.869 32.6965ZM28.1784 32.697H29.8854V32.197H28.1784V32.697ZM27.4022 33.4708C27.4022 33.0445 27.7506 32.697 28.1784 32.697V32.197C27.4759 32.197 26.9022 32.7668 26.9022 33.4708H27.4022ZM28.1784 34.2992C27.7529 34.2992 27.4022 33.9494 27.4022 33.4708H26.9022C26.9022 34.202 27.4538 34.7992 28.1784 34.7992V34.2992ZM31.6857 34.2992H28.1784V34.7992H31.6857V34.2992ZM31.8444 34.3083C31.7923 34.3023 31.7393 34.2992 31.6857 34.2992V34.7992C31.7201 34.7992 31.7541 34.8012 31.7873 34.805L31.8444 34.3083ZM35.2299 37.8486C35.2299 35.9428 33.7161 34.3807 31.8256 34.3068L31.8061 34.8064C33.4291 34.8699 34.7299 36.2123 34.7299 37.8486H35.2299ZM31.6857 41.3931C33.6408 41.3931 35.2299 39.8011 35.2299 37.8486H34.7299C34.7299 39.5253 33.3643 40.8931 31.6857 40.8931V41.3931ZM31.4357 41.1407V41.1431H31.9357V41.1407H31.4357ZM31.0932 41.3907H31.6857V40.8907H31.0932V41.3907ZM30.8432 41.1407V42.3281H31.3432V41.1407H30.8432ZM30.8432 42.3281C30.8432 42.8176 30.4467 43.2135 29.9605 43.2135V43.7135C30.7236 43.7135 31.3432 43.093 31.3432 42.3281H30.8432ZM29.9605 43.2135C29.4743 43.2135 29.0777 42.8176 29.0777 42.3281H28.5777C28.5777 43.093 29.1974 43.7135 29.9605 43.7135V43.2135ZM29.0777 42.3281V41.1407H28.5777V42.3281H29.0777ZM28.1784 41.3907H28.8277V40.8907H28.1784V41.3907ZM24.8951 39.1711C25.4264 40.4982 26.7453 41.3907 28.1784 41.3907V40.8907C26.9494 40.8907 25.8145 40.1223 25.3593 38.9853L24.8951 39.1711ZM25.6664 37.3736C24.956 37.6577 24.6105 38.4625 24.8952 39.1713L25.3591 38.985C25.1779 38.5336 25.3974 38.0197 25.8521 37.8378L25.6664 37.3736ZM27.4658 38.1441C27.1795 37.4358 26.3756 37.0856 25.6652 37.374L25.8533 37.8373C26.3028 37.6548 26.8176 37.8747 27.0022 38.3315L27.4658 38.1441ZM28.1784 38.6224C27.8722 38.6224 27.5765 38.4227 27.4664 38.1455L27.0017 38.3301C27.189 38.8016 27.6716 39.1224 28.1784 39.1224V38.6224ZM29.886 38.6224H28.1784V39.1224H29.886V38.6224ZM29.9023 39.1219C29.9215 39.1206 29.9409 39.12 29.9605 39.12V38.62C29.93 38.62 29.8998 38.621 29.8698 38.6229L29.9023 39.1219ZM29.9605 39.12C29.9801 39.12 29.9995 39.1206 30.0187 39.1219L30.0512 38.6229C30.0212 38.621 29.9909 38.62 29.9605 38.62V39.12ZM31.6857 38.6224H30.0349V39.1224H31.6857V38.6224ZM32.4619 37.8486C32.4619 38.275 32.1135 38.6224 31.6857 38.6224V39.1224C32.3882 39.1224 32.9619 38.5526 32.9619 37.8486H32.4619ZM31.6857 37.0748C32.1135 37.0748 32.4619 37.4222 32.4619 37.8486H32.9619C32.9619 37.1446 32.3882 36.5748 31.6857 36.5748V37.0748ZM31.595 37.0719C31.625 37.0738 31.6553 37.0748 31.6857 37.0748V36.5748C31.6661 36.5748 31.6467 36.5742 31.6275 36.5729L31.595 37.0719ZM28.1784 37.0724H31.6113V36.5724H28.1784V37.0724ZM24.6367 33.4733C24.6367 35.454 26.2193 37.0724 28.1784 37.0724V36.5724C26.5037 36.5724 25.1367 35.1862 25.1367 33.4733H24.6367ZM28.1784 29.9288C26.2273 29.9288 24.6367 31.4871 24.6367 33.4733H25.1367C25.1367 31.7659 26.5007 30.4288 28.1784 30.4288V29.9288ZM28.8277 29.9288H28.1784V30.4288H28.8277V29.9288ZM28.5777 29.0459V30.1788H29.0777V29.0459H28.5777ZM29.9605 27.6605C29.1974 27.6605 28.5777 28.281 28.5777 29.0459H29.0777C29.0777 28.5564 29.4743 28.1605 29.9605 28.1605V27.6605ZM31.3432 29.0459C31.3432 28.281 30.7236 27.6605 29.9605 27.6605V28.1605C30.4467 28.1605 30.8432 28.5564 30.8432 29.0459H31.3432ZM31.3432 30.1788V29.0459H30.8432V30.1788H31.3432ZM31.6857 29.9288H31.0932V30.4288H31.6857V29.9288ZM35.0089 32.1182C34.4489 30.8087 33.114 29.9288 31.6857 29.9288V30.4288C32.9145 30.4288 34.0681 31.1899 34.5492 32.3148L35.0089 32.1182ZM34.2798 33.9338C34.982 33.6341 35.3084 32.823 35.0092 32.1187L34.549 32.3142C34.7405 32.7652 34.5315 33.2828 34.0836 33.4739L34.2798 33.9338ZM32.4646 33.207C32.7634 33.9074 33.5746 34.2426 34.282 33.9329L34.0814 33.4748C33.6338 33.6708 33.1164 33.4607 32.9245 33.0108L32.4646 33.207ZM31.6857 32.697C32.0482 32.697 32.3573 32.9567 32.4647 33.2074L32.9243 33.0104C32.7492 32.6017 32.2749 32.197 31.6857 32.197V32.697ZM30.0355 32.697H31.6857V32.197H30.0355V32.697ZM29.9605 32.6995C29.9912 32.6995 30.0217 32.6985 30.0519 32.6965L30.0191 32.1976C29.9998 32.1988 29.9802 32.1995 29.9605 32.1995V32.6995Z" fill="white"/>
</g>
<defs>
<clipPath id="clip0_1052_6285">
<rect width="42.2687" height="48" fill="white"/>
</clipPath>
</defs>
</svg>
