<svg width="47" height="60" viewBox="0 0 47 60" fill="none" xmlns="http://www.w3.org/2000/svg">
<path fill-rule="evenodd" clip-rule="evenodd" d="M17.3696 2.06897C17.3696 0.92625 18.2844 0 19.413 0H26.5652C27.6939 0 28.6087 0.92625 28.6087 2.06897V4.13793H34.7391C35.8678 4.13793 36.7826 5.06418 36.7826 6.2069V7.24138H44.9565C46.0852 7.24138 47 8.16763 47 9.31034V57.931C47 59.0737 46.0852 60 44.9565 60H2.04348C0.91484 60 0 59.0737 0 57.931V9.31034C0 8.16763 0.91484 7.24138 2.04348 7.24138H10.2174V6.2069C10.2174 5.06418 11.1322 4.13793 12.2609 4.13793H17.3696V2.06897ZM10.2174 9.31034H2.04348V57.931H44.9565V9.31034H36.7826V10.3448C36.7826 11.4875 35.8678 12.4138 34.7391 12.4138H12.2609C11.1322 12.4138 10.2174 11.4875 10.2174 10.3448V9.31034ZM26.5652 2.06897V4.13793H19.413V2.06897H26.5652ZM34.7391 6.2069H12.2609V10.3448H34.7391V6.2069ZM21.0208 17.7733C21.2427 17.9307 21.3939 18.1708 21.441 18.441C21.4881 18.7112 21.4272 18.9892 21.2718 19.214L14.1197 29.5588C14.0341 29.6825 13.9228 29.7858 13.7936 29.8613C13.6644 29.9369 13.5204 29.9828 13.3717 29.996C13.2231 30.0092 13.0734 29.9893 12.9332 29.9377C12.793 29.886 12.6656 29.8039 12.5601 29.6972L8.47316 25.5592C8.28154 25.3652 8.17389 25.1021 8.17389 24.8277C8.17389 24.5533 8.28154 24.2902 8.47316 24.0962C8.66477 23.9022 8.92466 23.7932 9.19565 23.7932C9.46664 23.7932 9.72653 23.9022 9.91815 24.0962L13.1439 27.3622L19.5977 18.0275C19.6747 17.9162 19.7725 17.8214 19.8857 17.7484C19.9988 17.6754 20.1251 17.6256 20.2572 17.602C20.3894 17.5784 20.5248 17.5814 20.6558 17.6108C20.7868 17.6402 20.9108 17.6954 21.0208 17.7733ZM27.587 20.6897C27.316 20.6897 27.0561 20.7986 26.8645 20.9926C26.6729 21.1866 26.5652 21.4498 26.5652 21.7241C26.5652 21.9985 26.6729 22.2616 26.8645 22.4556C27.0561 22.6496 27.316 22.7586 27.587 22.7586H37.8043C38.0753 22.7586 38.3352 22.6496 38.5268 22.4556C38.7184 22.2616 38.8261 21.9985 38.8261 21.7241C38.8261 21.4498 38.7184 21.1866 38.5268 20.9926C38.3352 20.7986 38.0753 20.6897 37.8043 20.6897H27.587ZM26.5652 42.4138C26.5652 42.1394 26.6729 41.8763 26.8645 41.6823C27.0561 41.4883 27.316 41.3793 27.587 41.3793H37.8043C38.0753 41.3793 38.3352 41.4883 38.5268 41.6823C38.7184 41.8763 38.8261 42.1394 38.8261 42.4138C38.8261 42.6882 38.7184 42.9513 38.5268 43.1453C38.3352 43.3393 38.0753 43.4483 37.8043 43.4483H27.587C27.316 43.4483 27.0561 43.3393 26.8645 43.1453C26.6729 42.9513 26.5652 42.6882 26.5652 42.4138ZM27.587 24.8276C27.316 24.8276 27.0561 24.9366 26.8645 25.1306C26.6729 25.3246 26.5652 25.5877 26.5652 25.8621C26.5652 26.1364 26.6729 26.3996 26.8645 26.5936C27.0561 26.7876 27.316 26.8966 27.587 26.8966H37.8043C38.0753 26.8966 38.3352 26.7876 38.5268 26.5936C38.7184 26.3996 38.8261 26.1364 38.8261 25.8621C38.8261 25.5877 38.7184 25.3246 38.5268 25.1306C38.3352 24.9366 38.0753 24.8276 37.8043 24.8276H27.587ZM26.5652 46.5517C26.5652 46.2774 26.6729 46.0142 26.8645 45.8202C27.0561 45.6262 27.316 45.5172 27.587 45.5172H37.8043C38.0753 45.5172 38.3352 45.6262 38.5268 45.8202C38.7184 46.0142 38.8261 46.2774 38.8261 46.5517C38.8261 46.8261 38.7184 47.0892 38.5268 47.2832C38.3352 47.4772 38.0753 47.5862 37.8043 47.5862H27.587C27.316 47.5862 27.0561 47.4772 26.8645 47.2832C26.6729 47.0892 26.5652 46.8261 26.5652 46.5517ZM10.2174 38.2759C9.08875 38.2759 8.17391 39.2021 8.17391 40.3448V48.6207C8.17391 49.7634 9.08875 50.6897 10.2174 50.6897H19.413C20.5417 50.6897 21.4565 49.7634 21.4565 48.6207V40.3448C21.4565 39.2021 20.5417 38.2759 19.413 38.2759H10.2174ZM10.2174 40.3448H19.413V48.6207H10.2174V40.3448Z" fill="#219963"/>
</svg>
