<svg width="38" height="38" viewBox="0 0 38 38" fill="none" xmlns="http://www.w3.org/2000/svg">
<g clip-path="url(#clip0_2515_17085)">
<path d="M20.5827 11.0833H17.416V17.4166H11.0827V20.5833H17.416V26.9166H20.5827V20.5833H26.916V17.4166H20.5827V11.0833ZM18.9993 3.16663C10.2593 3.16663 3.16602 10.26 3.16602 19C3.16602 27.74 10.2593 34.8333 18.9993 34.8333C27.7393 34.8333 34.8327 27.74 34.8327 19C34.8327 10.26 27.7393 3.16663 18.9993 3.16663ZM18.9993 31.6666C12.0168 31.6666 6.33268 25.9825 6.33268 19C6.33268 12.0175 12.0168 6.33329 18.9993 6.33329C25.9818 6.33329 31.666 12.0175 31.666 19C31.666 25.9825 25.9818 31.6666 18.9993 31.6666Z" fill="#007953"/>
</g>
<defs>
<clipPath id="clip0_2515_17085">
<rect width="38" height="38" fill="white"/>
</clipPath>
</defs>
</svg>
