<svg width="38" height="38" viewBox="0 0 38 38" fill="none" xmlns="http://www.w3.org/2000/svg">
<g clip-path="url(#clip0_2515_17094)">
<path d="M32.4583 4.75L32.205 4.7975L23.75 8.075L14.25 4.75L5.32 7.75833C4.9875 7.86917 4.75 8.15417 4.75 8.51833V32.4583C4.75 32.9017 5.09833 33.25 5.54167 33.25L5.795 33.2025L14.25 29.925L23.75 33.25L32.68 30.2417C33.0125 30.1308 33.25 29.8458 33.25 29.4817V5.54167C33.25 5.09833 32.9017 4.75 32.4583 4.75ZM15.8333 8.66083L22.1667 10.8775V29.3392L15.8333 27.1225V8.66083ZM7.91667 10.2283L12.6667 8.62917V27.1542L7.91667 28.9908V10.2283ZM30.0833 27.7717L25.3333 29.3708V10.8617L30.0833 9.025V27.7717Z" fill="#007953"/>
</g>
<defs>
<clipPath id="clip0_2515_17094">
<rect width="38" height="38" fill="white"/>
</clipPath>
</defs>
</svg>
