<svg width="38" height="38" viewBox="0 0 38 38" fill="none" xmlns="http://www.w3.org/2000/svg">
<g clip-path="url(#clip0_2515_17091)">
<path d="M19.0013 4C10.2613 4 3.16797 11.0933 3.16797 19.8333C3.16797 28.5733 10.2613 35.6667 19.0013 35.6667C27.7413 35.6667 34.8346 28.5733 34.8346 19.8333C34.8346 11.0933 27.7413 4 19.0013 4ZM19.0013 32.5C12.0188 32.5 6.33464 26.8158 6.33464 19.8333C6.33464 12.8508 12.0188 7.16667 19.0013 7.16667C25.9838 7.16667 31.668 12.8508 31.668 19.8333C31.668 26.8158 25.9838 32.5 19.0013 32.5ZM19.4921 18.4717C16.6896 17.7592 15.7871 16.9833 15.7871 15.8275C15.7871 14.4975 17.038 13.5633 19.1121 13.5633C21.2971 13.5633 22.1205 14.6083 22.1838 16.16H24.8913C24.8121 14.0383 23.5138 12.0908 20.9488 11.4575V8.75H17.2596V11.4258C14.8688 11.9325 12.953 13.4842 12.953 15.875C12.953 18.7092 15.3121 20.1342 18.748 20.9575C21.8355 21.6858 22.453 22.7783 22.453 23.9183C22.453 24.7575 21.8355 26.1192 19.128 26.1192C16.5946 26.1192 15.5971 24.9792 15.4546 23.5225H12.7313C12.8896 26.2142 14.8846 27.7342 17.2596 28.225V30.9167H20.9646V28.2725C23.3713 27.8133 25.2713 26.4358 25.2871 23.8867C25.2713 20.4033 22.2788 19.2 19.4921 18.4717Z" fill="#007953"/>
</g>
<defs>
<clipPath id="clip0_2515_17091">
<rect width="38" height="38" fill="white"/>
</clipPath>
</defs>
</svg>
