<svg width="38" height="38" viewBox="0 0 38 38" fill="none" xmlns="http://www.w3.org/2000/svg">
<g clip-path="url(#clip0_2515_17088)">
<path d="M31.666 3.16663H6.33268C4.59102 3.16663 3.16602 4.59163 3.16602 6.33329V31.6666C3.16602 33.4083 4.59102 34.8333 6.33268 34.8333H31.666C33.4077 34.8333 34.8327 33.4083 34.8327 31.6666V6.33329C34.8327 4.59163 33.4077 3.16663 31.666 3.16663ZM31.666 31.6666H6.33268V6.33329H31.666V31.6666ZM28.4993 9.49996H20.5827C18.841 9.49996 17.416 10.925 17.416 12.6666V16.2766C16.466 16.8308 15.8327 17.8283 15.8327 19C15.8327 20.7416 17.2577 22.1666 18.9993 22.1666C20.741 22.1666 22.166 20.7416 22.166 19C22.166 17.8283 21.5327 16.815 20.5827 16.2766V12.6666H25.3327V25.3333H12.666V12.6666H15.8327V9.49996H9.49935V28.5H28.4993V9.49996Z" fill="#007953"/>
</g>
<defs>
<clipPath id="clip0_2515_17088">
<rect width="38" height="38" fill="white"/>
</clipPath>
</defs>
</svg>
