<svg width="38" height="38" viewBox="0 0 38 38" fill="none" xmlns="http://www.w3.org/2000/svg">
<g clip-path="url(#clip0_2515_17067)">
<path d="M26.9159 26.315C27.8953 26.315 28.6892 25.521 28.6892 24.5416C28.6892 23.5623 27.8953 22.7683 26.9159 22.7683C25.9365 22.7683 25.1426 23.5623 25.1426 24.5416C25.1426 25.521 25.9365 26.315 26.9159 26.315Z" fill="#007953"/>
<path fill-rule="evenodd" clip-rule="evenodd" d="M26.9158 27.7084C25.76 27.7084 23.4483 28.2784 23.3691 29.4184C24.1608 30.5425 25.4591 31.2709 26.9158 31.2709C28.3725 31.2709 29.6708 30.5425 30.4625 29.4184C30.3833 28.2784 28.0716 27.7084 26.9158 27.7084Z" fill="#007953"/>
<path fill-rule="evenodd" clip-rule="evenodd" d="M28.5 17.5592V9.9275L16.625 4.75L4.75 9.9275V17.7017C4.75 24.89 9.81667 31.6192 16.625 33.25C17.4958 33.0442 18.335 32.7433 19.1583 32.3792C20.8683 34.8175 23.7025 36.4167 26.9167 36.4167C32.1575 36.4167 36.4167 32.1575 36.4167 26.9167C36.4167 22.2142 32.9967 18.3192 28.5 17.5592ZM17.4167 26.9167C17.4167 27.8033 17.5433 28.6742 17.7808 29.4817C17.4008 29.6558 17.0208 29.83 16.625 29.9567C11.6058 28.3733 7.91667 23.2433 7.91667 17.7017V12.0017L16.625 8.20167L25.3333 12.0017V17.5592C20.8367 18.3192 17.4167 22.2142 17.4167 26.9167ZM26.9167 33.25C23.4175 33.25 20.5833 30.4158 20.5833 26.9167C20.5833 23.4175 23.4175 20.5833 26.9167 20.5833C30.4158 20.5833 33.25 23.4175 33.25 26.9167C33.25 30.4158 30.4158 33.25 26.9167 33.25Z" fill="#007953"/>
</g>
<defs>
<clipPath id="clip0_2515_17067">
<rect width="38" height="38" fill="white"/>
</clipPath>
</defs>
</svg>
