<svg width="38" height="38" viewBox="0 0 38 38" fill="none" xmlns="http://www.w3.org/2000/svg">
<g clip-path="url(#clip0_2515_17080)">
<path d="M24.541 17.4166C25.8527 17.4166 26.916 16.3533 26.916 15.0416C26.916 13.7299 25.8527 12.6666 24.541 12.6666C23.2293 12.6666 22.166 13.7299 22.166 15.0416C22.166 16.3533 23.2293 17.4166 24.541 17.4166Z" fill="#007953"/>
<path d="M13.459 17.4166C14.7707 17.4166 15.834 16.3533 15.834 15.0416C15.834 13.7299 14.7707 12.6666 13.459 12.6666C12.1473 12.6666 11.084 13.7299 11.084 15.0416C11.084 16.3533 12.1473 17.4166 13.459 17.4166Z" fill="#007953"/>
<path d="M18.9993 25.3333C16.656 25.3333 14.6452 24.0508 13.5368 22.1666H10.8927C12.1593 25.4125 15.3102 27.7083 18.9993 27.7083C22.6885 27.7083 25.8393 25.4125 27.106 22.1666H24.4618C23.3693 24.0508 21.3427 25.3333 18.9993 25.3333ZM18.9835 3.16663C10.2435 3.16663 3.16602 10.26 3.16602 19C3.16602 27.74 10.2435 34.8333 18.9835 34.8333C27.7393 34.8333 34.8327 27.74 34.8327 19C34.8327 10.26 27.7393 3.16663 18.9835 3.16663ZM18.9993 31.6666C12.001 31.6666 6.33268 25.9983 6.33268 19C6.33268 12.0016 12.001 6.33329 18.9993 6.33329C25.9977 6.33329 31.666 12.0016 31.666 19C31.666 25.9983 25.9977 31.6666 18.9993 31.6666Z" fill="#007953"/>
</g>
<defs>
<clipPath id="clip0_2515_17080">
<rect width="38" height="38" fill="white"/>
</clipPath>
</defs>
</svg>
