<svg width="38" height="38" viewBox="0 0 38 38" fill="none" xmlns="http://www.w3.org/2000/svg">
<g clip-path="url(#clip0_2515_17075)">
<path d="M18.9993 3.16663C10.2593 3.16663 3.16602 10.26 3.16602 19C3.16602 27.74 10.2593 34.8333 18.9993 34.8333C27.7393 34.8333 34.8327 27.74 34.8327 19C34.8327 10.26 27.7393 3.16663 18.9993 3.16663ZM30.811 14.44L26.4093 16.2608C25.6018 14.1075 23.9077 12.3975 21.7385 11.6058L23.5593 7.20413C26.8843 8.47079 29.5285 11.115 30.811 14.44ZM18.9993 23.75C16.371 23.75 14.2493 21.6283 14.2493 19C14.2493 16.3716 16.371 14.25 18.9993 14.25C21.6277 14.25 23.7493 16.3716 23.7493 19C23.7493 21.6283 21.6277 23.75 18.9993 23.75ZM14.4552 7.18829L16.3077 11.59C14.1227 12.3816 12.3968 14.1075 11.5893 16.2925L7.18768 14.4558C8.47018 11.115 11.1143 8.47079 14.4552 7.18829ZM7.18768 23.5441L11.5893 21.7233C12.3968 23.9083 14.1068 25.6183 16.2918 26.41L14.4393 30.8116C11.1143 29.5291 8.47018 26.885 7.18768 23.5441ZM23.5593 30.8116L21.7385 26.41C23.9077 25.6025 25.6177 23.8925 26.4093 21.7075L30.811 23.56C29.5285 26.885 26.8843 29.5291 23.5593 30.8116Z" fill="#007953"/>
</g>
<defs>
<clipPath id="clip0_2515_17075">
<rect width="38" height="38" fill="white"/>
</clipPath>
</defs>
</svg>
