<svg width="104" height="116" viewBox="0 0 104 116" fill="none" xmlns="http://www.w3.org/2000/svg">
<g opacity="0.35">
<path d="M48.1038 54.6299L46.4379 46.7921C45.924 44.3746 47.0508 41.9047 49.2168 40.709L54.9394 37.5552L60.1963 41.6958L63.3145 35.775L69.8262 36.3283C72.289 36.5391 74.325 38.3368 74.8391 40.7553L76.5051 48.593M55.393 53.0805L54.6696 49.6771M69.2149 50.1426L68.4914 46.7391M33.717 104.324L32.7986 100.003C32.4436 98.3328 33.2222 96.6263 34.7178 95.8012L38.6698 93.6226L42.301 96.4826L44.4551 92.3929L48.9525 92.7755C50.6534 92.9212 52.0596 94.1622 52.4148 95.8333L53.3333 100.154M61.9796 98.3166L61.0611 93.9955C60.7061 92.3254 61.4848 90.6189 62.9803 89.7938L66.9324 87.6152L70.5648 90.476L72.7189 86.3863L77.2163 86.7689C78.9172 86.9146 80.3234 88.1556 80.6786 89.8267L81.5971 94.1479M90.2432 92.309L89.3247 87.9879C88.9697 86.3178 89.7483 84.6113 91.2439 83.7861L95.196 81.6076L98.8272 84.4676L100.981 80.3779L105.479 80.7615C107.18 80.9072 108.586 82.1482 108.941 83.8194L109.86 88.1405M37.4026 73.4374L35.8153 65.9698L92.3425 53.9545L93.9298 61.4222M65.6662 67.4298L62.6904 53.4295M62.9031 22.3784L63.2416 26.4275C63.3934 28.2495 62.7396 29.972 61.557 31.2166C60.6947 32.1259 59.5763 32.7517 58.3502 33.0108C57.1247 33.2723 55.8487 33.1555 54.6909 32.676C53.1053 32.0199 51.8065 30.7124 51.2041 28.9861L49.8664 25.1495C48.5344 21.3298 50.8563 17.2076 54.8124 16.3667C56.6487 15.9764 58.4502 16.3746 59.8888 17.3167C61.548 18.4048 62.7232 20.2182 62.9031 22.3784V22.3784ZM43.8811 81.7761L44.1153 84.5727C44.1658 85.1751 44.0881 85.7812 43.8875 86.3514C43.6869 86.9215 43.3679 87.4427 42.9514 87.8808C42.3735 88.4906 41.6119 88.9338 40.7361 89.12C39.8602 89.3062 38.9843 89.211 38.2082 88.889C37.1122 88.4356 36.2159 87.5328 35.7994 86.3404L34.8759 83.6902C34.7843 83.4285 34.7163 83.159 34.6728 82.8851C34.2914 80.4992 35.8352 78.1462 38.2915 77.6241C39.5599 77.3545 40.8044 77.6292 41.7974 78.2803C42.6604 78.846 43.3335 79.6962 43.6666 80.7166C43.7775 81.0532 43.8497 81.4077 43.8811 81.7761ZM72.1447 75.7685L72.3779 78.5654C72.4834 79.8239 72.0308 81.0135 71.215 81.8732C70.6191 82.501 69.8465 82.9331 68.9997 83.1124C68.1248 83.2983 67.2487 83.2022 66.4718 82.8814C65.3758 82.428 64.4795 81.5252 64.064 80.3325L63.1395 77.6826C62.2196 75.0445 63.8235 72.1971 66.5561 71.6163C67.8245 71.3467 69.069 71.6214 70.062 72.2725C71.2086 73.0241 72.0192 74.2755 72.1447 75.7685V75.7685ZM100.408 69.7609L100.641 72.5577C100.747 73.8163 100.294 75.0059 99.4786 75.8656C98.8826 76.4934 98.1101 76.9255 97.2632 77.1048C96.3874 77.291 95.5122 77.1946 94.7354 76.8738C93.6394 76.4204 92.7431 75.5175 92.3276 74.3249L91.4031 71.675C90.4832 69.0369 92.0871 66.1895 94.8197 65.6087C96.0881 65.3391 97.3325 65.6138 98.3256 66.2648C99.4722 67.0165 100.283 68.2679 100.408 69.7609V69.7609Z" stroke="white" stroke-width="3" stroke-miterlimit="10" stroke-linejoin="round"/>
</g>
</svg>
