<svg width="74" height="96" viewBox="0 0 74 96" fill="none" xmlns="http://www.w3.org/2000/svg">
<path d="M92.1637 58.6652C92.1421 58.5687 92.1102 58.4748 92.0686 58.3852C92.0307 58.2891 91.9824 58.1976 91.9246 58.1121C91.9029 58.0829 91.8976 58.0455 91.8734 58.0195L74.5201 37.3685L72.3543 21.9579L79.5492 20.9467C79.9308 20.8931 80.2755 20.6901 80.5075 20.3824C80.7394 20.0748 80.8396 19.6876 80.786 19.3061L80.7238 18.8631C80.4608 17.0593 79.5325 15.4191 78.1213 14.2647C76.71 13.1104 74.9179 12.5254 73.0969 12.6246L43.4118 14.4028L42.7127 9.42897C43.3287 8.49557 43.6622 7.40436 43.6731 6.28629C43.6841 5.16821 43.372 4.07077 42.7744 3.12565C42.1768 2.18052 41.3191 1.42787 40.3041 0.958003C39.2892 0.488135 38.1601 0.321013 37.0523 0.476693C35.9446 0.632372 34.9054 1.10424 34.0592 1.83567C33.2131 2.5671 32.596 3.52702 32.2821 4.60025C31.9682 5.67348 31.9707 6.81442 32.2894 7.88616C32.6081 8.95791 33.2294 9.91493 34.0788 10.6424L34.7605 15.4925L5.72458 22.0785C3.95281 22.4904 2.39837 23.548 1.36524 25.0446C0.332108 26.5413 -0.105404 28.3692 0.13826 30.1711L0.202947 30.6313C0.25656 31.0128 0.459584 31.3574 0.767356 31.5892C1.07513 31.821 1.46244 31.9211 1.84408 31.8675L9.039 30.8563L11.2048 46.2669L0.218752 70.9213C0.203053 70.9557 0.207905 70.9903 0.195084 71.0243C0.163035 71.1225 0.14185 71.2238 0.131907 71.3266C0.116631 71.4242 0.111853 71.5233 0.117655 71.6219C0.122911 71.6593 0.104739 71.6971 0.109995 71.7345C0.699738 75.9307 2.933 79.7207 6.31849 82.2707C9.70398 84.8207 13.9644 85.9218 18.1624 85.3318C22.3605 84.7418 26.1524 82.5091 28.7038 79.1247C31.2553 75.7403 32.3574 71.4815 31.7676 67.2853C31.762 67.245 31.7374 67.2162 31.7292 67.1792C31.7076 67.0828 31.6757 66.9889 31.6341 66.8992C31.5963 66.8032 31.548 66.7116 31.4901 66.6261C31.4684 66.5969 31.4631 66.5595 31.4389 66.5336L14.0828 45.8624L11.917 30.4518L36.3797 27.0138L40.5803 56.9029C40.1856 57.3674 39.8934 57.9099 39.7227 58.495C39.5521 59.0801 39.5069 59.6946 39.5901 60.2983L42.6587 82.1326L35.2797 84.7156C33.4189 85.3731 31.8422 86.6526 30.816 88.3378C29.7898 90.0229 29.3771 92.0105 29.6475 93.9646C29.7011 94.346 29.9042 94.6906 30.2119 94.9224C30.5197 95.1542 30.907 95.2543 31.2887 95.2007L68.7022 89.9426C69.0839 89.8889 69.4286 89.686 69.6605 89.3783C69.8925 89.0706 69.9927 88.6834 69.9391 88.302C69.6602 86.3487 68.7152 84.5516 67.2637 83.2146C65.8121 81.8776 63.9432 81.0826 61.9728 80.9642L54.1746 80.5435L51.102 58.6804C51.0155 58.0772 50.8027 57.4989 50.4774 56.9836C50.1521 56.4682 49.7217 56.0272 49.2142 55.6895L45.0136 25.8004L69.4763 22.3624L71.6421 37.773L60.6565 62.4302C60.6408 62.4647 60.6456 62.4992 60.6328 62.5333C60.6007 62.6314 60.5796 62.7328 60.5696 62.8355C60.5543 62.9332 60.5496 63.0322 60.5554 63.1309C60.5606 63.1683 60.5424 63.2061 60.5477 63.2435C61.1374 67.4397 63.3707 71.2297 66.7562 73.7797C70.1417 76.3297 74.4021 77.4308 78.6001 76.8408C82.7982 76.2508 86.5901 74.018 89.1415 70.6336C91.693 67.2493 92.7951 62.9905 92.2053 58.7943C92.1964 58.731 92.1719 58.7022 92.1637 58.6652ZM37.4623 3.39333C38.0315 3.31333 38.6116 3.40385 39.1293 3.65343C39.647 3.90301 40.079 4.30045 40.3707 4.79549C40.6624 5.29053 40.8007 5.86093 40.7681 6.43457C40.7355 7.0082 40.5334 7.55931 40.1875 8.01819C39.8415 8.47707 39.3672 8.82312 38.8245 9.01258C38.2819 9.20204 37.6952 9.2264 37.1387 9.08258C36.5822 8.93875 36.0809 8.6332 35.6982 8.20457C35.3155 7.77594 35.0685 7.24348 34.9886 6.67452C34.8814 5.91157 35.0817 5.13725 35.5456 4.5219C36.0095 3.90656 36.699 3.5006 37.4623 3.39333ZM40.0854 11.617L46.1786 54.972L43.3006 55.3765L37.2075 12.0215C38.1857 12.1619 39.1838 12.0216 40.0854 11.617ZM42.4681 59.8938C42.4145 59.5124 42.5146 59.1252 42.7466 58.8175C42.9786 58.5099 43.3233 58.3069 43.7049 58.2532L46.5829 57.8488C46.9645 57.7951 47.3518 57.8952 47.6596 58.127C47.9674 58.3589 48.1704 58.7034 48.224 59.0849L51.2562 80.6603L45.5003 81.4692L42.4681 59.8938ZM17.7553 82.435C14.57 82.8788 11.3328 82.1357 8.66055 80.3473C5.98831 78.5589 4.06781 75.8502 3.26498 72.7373L29.0113 69.1189C29.0976 72.3325 27.9981 75.4656 25.9223 77.9213C23.8465 80.377 20.9396 81.9836 17.7553 82.435ZM27.5335 66.3931L3.93417 69.7097L13.0829 49.1887L27.5335 66.3931ZM2.99101 28.7727C3.0781 27.8562 3.45106 26.9903 4.0572 26.2971C4.66335 25.6039 5.47203 25.1186 6.36901 24.9097L35.1668 18.3836L35.9754 24.1371L2.99101 28.7727ZM61.8004 83.8721C62.8503 83.9342 63.8621 84.2872 64.7224 84.8917C65.5828 85.4961 66.2578 86.3281 66.6719 87.2944L32.5104 92.0955C32.6419 91.0538 33.0604 90.0691 33.7191 89.2513C34.3779 88.4335 35.2511 87.8148 36.2412 87.4642L44.4656 84.5482L52.9585 83.3546L61.8004 83.8721ZM44.6093 22.9237L43.8177 17.291L73.2673 15.5283C74.1861 15.4775 75.0977 15.7167 75.873 16.2121C76.6484 16.7074 77.2483 17.4339 77.5879 18.2888L44.6093 22.9237ZM73.5202 40.6948L87.9708 57.8991L64.3715 61.2158L73.5202 40.6948ZM78.1926 73.9411C75.0073 74.3849 71.7701 73.6418 69.0979 71.8534C66.4256 70.065 64.5051 67.3563 63.7023 64.2434L89.4457 60.6254C89.532 63.8385 88.4328 66.9711 86.3577 69.4267C84.2825 71.8822 81.3763 73.489 78.1926 73.9411Z" fill="white" fill-opacity="0.35"/>
</svg>
