<svg width="80" height="98" viewBox="0 0 80 98" fill="none" xmlns="http://www.w3.org/2000/svg">
<g opacity="0.35">
<path d="M80.1597 15.2136C57.1385 18.4491 49.7569 9.2749 49.5073 9.0167C47.9684 6.7934 45.3125 5.6336 42.6307 5.99717C39.9678 6.30477 37.6973 8.07694 36.7581 10.5952C36.7581 10.5952 33.1636 19.0723 17.4097 23.4593C14.6766 24.2167 11.9066 24.806 9.10902 25.1992C5.18718 25.7503 2.44386 29.3753 2.99688 33.3102L4.93519 47.1021C7.79398 67.4434 22.7443 83.9923 42.6964 88.8936L51.9308 91.1418C53.7109 91.5715 55.5934 91.307 57.1861 90.4032L65.4431 85.6967C83.2714 75.4858 93.081 55.457 90.2222 35.1157L88.2839 21.3239C87.7197 17.4039 84.0816 14.6625 80.1597 15.2136Z" stroke="white" stroke-width="4" stroke-miterlimit="10" stroke-linecap="round" stroke-linejoin="round"/>
<path d="M51.9399 72.2369C64.9718 70.4054 74.0516 58.3562 72.2201 45.3243C70.3885 32.2923 58.3393 23.2126 45.3074 25.0441C32.2754 26.8756 23.1957 38.9248 25.0272 51.9568C26.8587 64.9887 38.9079 74.0685 51.9399 72.2369Z" stroke="white" stroke-width="4" stroke-miterlimit="10" stroke-linecap="round" stroke-linejoin="round"/>
<path d="M38.3322 51.9662L44.7229 56.8404L58.1181 39.6538" stroke="white" stroke-width="4" stroke-miterlimit="10" stroke-linecap="round" stroke-linejoin="round"/>
</g>
</svg>
