<svg width="69" height="98" viewBox="0 0 69 98" fill="none" xmlns="http://www.w3.org/2000/svg">
<g opacity="0.35">
<path d="M77.6456 22.8744C77.6493 22.8008 77.639 22.7271 77.6151 22.6573C77.5135 22.4831 77.3793 22.3302 77.2197 22.2069L52.4596 3.5488C52.2971 3.42941 52.1131 3.34251 51.9176 3.29291C51.844 3.28917 51.7703 3.29952 51.7006 3.32342C51.5313 3.26223 51.3494 3.24431 51.1714 3.27128L7.75325 9.37331C7.34199 9.4311 6.97054 9.64991 6.72061 9.98158C6.47067 10.3133 6.36273 10.7306 6.42053 11.1419L12.3046 53.0094L7.65268 53.6632C7.24142 53.721 6.86997 53.9398 6.62004 54.2715C6.3701 54.6031 6.26216 55.0205 6.31996 55.4318L10.2427 83.3434C10.3005 83.7547 10.5193 84.1261 10.851 84.3761C11.1826 84.626 11.6 84.734 12.0113 84.6762L16.6632 84.0224L18.1887 94.8769C18.2465 95.2882 18.4653 95.6596 18.797 95.9096C19.1287 96.1595 19.546 96.2674 19.9573 96.2096L85.0845 87.0566C85.4958 86.9988 85.8673 86.78 86.1172 86.4483C86.3671 86.1166 86.4751 85.6993 86.4173 85.288L77.7001 23.2621C77.7057 23.1306 77.6872 22.9992 77.6456 22.8744ZM53.4652 8.34106L72.1944 22.4546L55.7731 24.7624L53.4652 8.34106ZM9.63919 56.5465L56.1586 50.0087L59.6455 74.819L13.1261 81.3569L9.63919 56.5465ZM21.0721 92.8904L19.7645 83.5865L61.632 77.7024C62.0433 77.6446 62.4147 77.4258 62.6647 77.0941C62.9146 76.7625 63.0225 76.3451 62.9647 75.9338L59.042 48.0222C58.9842 47.6109 58.7654 47.2394 58.4337 46.9895C58.1021 46.7396 57.6847 46.6316 57.2734 46.6894L15.4059 52.5735L9.73976 12.2567L50.0566 6.59051L52.8897 26.7489C52.9475 27.1602 53.1663 27.5317 53.498 27.7816C53.8296 28.0315 54.247 28.1395 54.6583 28.0817L74.8167 25.2486L83.098 84.1732L21.0721 92.8904Z" fill="white"/>
<path d="M20.0085 74.0661L18.265 61.6609L22.3897 61.0812C23.4388 60.862 24.5319 61.0347 25.4624 61.5665C25.9377 61.8754 26.3377 62.287 26.6328 62.771C26.928 63.2549 27.1108 63.7989 27.1678 64.3629C27.2604 65.0892 27.1506 65.8269 26.8507 66.4948C26.5731 67.1506 26.0982 67.7037 25.4919 68.0773C24.9663 68.4056 24.3743 68.6131 23.7588 68.6845L21.898 68.946L22.567 73.7065L20.0085 74.0661ZM21.644 66.6889L23.1016 66.484C23.5642 66.4436 23.9929 66.2246 24.2966 65.8733C24.4283 65.6978 24.5217 65.4966 24.5706 65.2827C24.6195 65.0688 24.623 64.847 24.5807 64.6316C24.447 63.6806 23.8116 63.2849 22.6745 63.4448L21.2169 63.6496L21.644 66.6889ZM30.7855 72.5515L29.042 60.1463L33.694 59.4925C34.8542 59.2875 36.0495 59.5005 37.0675 60.0937C37.9134 60.6045 38.6264 61.3081 39.1483 62.1472C39.6703 62.9863 39.9862 63.9369 40.0705 64.9215C40.2438 66.0573 40.1354 67.2182 39.755 68.3023C39.3988 69.3161 38.7541 70.2037 37.9001 70.8559C36.9009 71.5208 35.7496 71.922 34.5535 72.0219L30.7855 72.5515ZM33.0748 69.8262L34.7495 69.5909C35.3482 69.5289 35.9147 69.2896 36.3765 68.9036C36.8565 68.4254 37.2058 67.8321 37.391 67.1804C37.5763 66.5287 37.5913 65.8404 37.4346 65.1812C37.3992 64.546 37.2031 63.9301 36.8646 63.3913C36.5262 62.8526 36.0564 62.4085 35.4995 62.1009C34.9556 61.8539 34.3492 61.7791 33.7616 61.8866L31.9939 62.135L33.0748 69.8262ZM43.6403 70.7449L41.8969 58.3397L48.9989 57.3416L49.3301 59.6986L44.8487 60.3284L45.204 62.8559L49.3132 62.2784L49.6444 64.6354L45.5352 65.2129L46.2609 70.3766L43.6403 70.7449Z" fill="white"/>
</g>
</svg>
