<svg width="73" height="95" viewBox="0 0 73 95" fill="none" xmlns="http://www.w3.org/2000/svg">
<g opacity="0.35">
<path d="M66.8847 75.2215L68.0022 83.1728C68.2099 84.6505 67.1734 86.0399 65.684 86.2493L14.4461 93.4503C12.9684 93.6579 11.579 92.6214 11.3697 91.132L1.70624 22.3731C1.49856 20.8955 2.53509 19.506 4.02449 19.2967L17.3705 17.421" stroke="white" stroke-width="3" stroke-miterlimit="10" stroke-linecap="round" stroke-linejoin="round"/>
<path d="M13.2324 35.8818L19.9758 34.9341" stroke="white" stroke-width="3" stroke-miterlimit="10" stroke-linecap="round" stroke-linejoin="round"/>
<path d="M14.9355 48.0088L21.6789 47.0611" stroke="white" stroke-width="3" stroke-miterlimit="10" stroke-linecap="round" stroke-linejoin="round"/>
<path d="M16.2627 57.4492L23.0061 56.5015" stroke="white" stroke-width="3" stroke-miterlimit="10" stroke-linecap="round" stroke-linejoin="round"/>
<path d="M17.9688 69.5869L24.7121 68.6392" stroke="white" stroke-width="3" stroke-miterlimit="10" stroke-linecap="round" stroke-linejoin="round"/>
<path d="M19.1064 77.6787L25.8498 76.731" stroke="white" stroke-width="3" stroke-miterlimit="10" stroke-linecap="round" stroke-linejoin="round"/>
<path d="M75.4908 19.0112L82.6737 70.1201C82.8814 71.5977 81.8448 72.9872 80.3554 73.1965L29.1176 80.3975C27.6399 80.6052 26.2505 79.5686 26.0411 78.0792L16.5656 10.6573C16.3579 9.17963 17.3945 7.7902 18.8839 7.58087L51.1113 3.0516L75.4908 19.0112Z" stroke="white" stroke-width="3" stroke-miterlimit="10" stroke-linecap="round" stroke-linejoin="round"/>
<path d="M75.6423 20.0898L56.7609 22.7434C55.2832 22.9511 53.8938 21.9146 53.6844 20.4252L51.4297 4.38184" stroke="white" stroke-width="3" stroke-miterlimit="10" stroke-linecap="round" stroke-linejoin="round"/>
<path d="M28.0918 24.166L45.6246 21.7019" stroke="white" stroke-width="3" stroke-miterlimit="10" stroke-linecap="round" stroke-linejoin="round"/>
<path d="M29.7979 36.3047L67.549 30.9991" stroke="white" stroke-width="3" stroke-miterlimit="10" stroke-linecap="round" stroke-linejoin="round"/>
<path d="M31.1221 45.7334L68.8732 40.4278" stroke="white" stroke-width="3" stroke-miterlimit="10" stroke-linecap="round" stroke-linejoin="round"/>
<path d="M32.8281 57.8711L70.5792 52.5655" stroke="white" stroke-width="3" stroke-miterlimit="10" stroke-linecap="round" stroke-linejoin="round"/>
<path d="M33.9658 65.9629L71.7169 60.6573" stroke="white" stroke-width="3" stroke-miterlimit="10" stroke-linecap="round" stroke-linejoin="round"/>
</g>
</svg>
