<svg width="90" height="90" viewBox="0 0 90 90" fill="none" xmlns="http://www.w3.org/2000/svg">
<g opacity="0.35">
<path d="M11.147 66.669L31.9212 33.0671L48.4475 43.279L73.9654 2.00019" stroke="white" stroke-width="3" stroke-miterlimit="10" stroke-linecap="round" stroke-linejoin="round"/>
<path d="M51.9697 7.19434L73.9658 1.99978L79.0867 23.684" stroke="white" stroke-width="3" stroke-miterlimit="10" stroke-linecap="round" stroke-linejoin="round"/>
<path d="M70.5532 35.4108L61.7314 37.4941L70.9117 76.3672L79.7335 74.2839L70.5532 35.4108Z" stroke="white" stroke-width="3" stroke-miterlimit="10" stroke-linecap="round" stroke-linejoin="round"/>
<path d="M88.8218 38.9997L80 41.083L87.3621 72.2574L96.1839 70.1741L88.8218 38.9997Z" stroke="white" stroke-width="3" stroke-miterlimit="10" stroke-linecap="round" stroke-linejoin="round"/>
<path d="M58.7222 55.8864L49.9004 57.9697L55.1226 80.0827L63.9444 77.9994L58.7222 55.8864Z" stroke="white" stroke-width="3" stroke-miterlimit="10" stroke-linecap="round" stroke-linejoin="round"/>
<path d="M41.6411 54.1872L32.8193 56.2705L39.324 83.8143L48.1458 81.7309L41.6411 54.1872Z" stroke="white" stroke-width="3" stroke-miterlimit="10" stroke-linecap="round" stroke-linejoin="round"/>
<path d="M28.9136 70.9235L20.0918 73.0068L23.5282 87.5583L32.35 85.4749L28.9136 70.9235Z" stroke="white" stroke-width="3" stroke-miterlimit="10" stroke-linecap="round" stroke-linejoin="round"/>
</g>
</svg>
