<svg width="56" height="56" viewBox="0 0 56 56" fill="none" xmlns="http://www.w3.org/2000/svg">
<path d="M1.12012 12.8011V45.2816V45.9194C1.12012 47.024 2.01555 47.9194 3.12012 47.9194H52.8801C53.9847 47.9194 54.8801 47.024 54.8801 45.9194V45.2816V12.8011V9.80078C54.8801 8.69621 53.9847 7.80078 52.8801 7.80078H3.12012C2.01555 7.80078 1.12012 8.69621 1.12012 9.80078V12.8011ZM3.36012 14.5463L20.8321 28.1521L3.36012 43.3348V14.5463ZM4.05452 45.6906L22.6286 29.5507L28.0001 33.733L33.3716 29.5507L51.9457 45.6906H4.05452ZM52.6401 43.3348L35.1681 28.151L52.6401 14.5452V43.3348ZM3.36012 10.0296H52.6401V11.7157L28.0001 30.9024L3.36012 11.7157V10.0296Z" fill="#219963"/>
</svg>
