<svg width="56" height="55" viewBox="0 0 56 55" fill="none" xmlns="http://www.w3.org/2000/svg">
<path d="M35.1167 11.4582C37.3957 11.8949 39.4902 12.9896 41.1322 14.6022C42.7741 16.2148 43.8887 18.2719 44.3333 20.5103M35.1167 2.2915C39.8516 2.80813 44.2671 4.89065 47.6379 8.19715C51.0088 11.5036 53.1347 15.8376 53.6667 20.4873M51.3333 38.7748V45.6498C51.336 46.2881 51.2029 46.9198 50.9425 47.5046C50.6822 48.0894 50.3004 48.6143 49.8215 49.0458C49.3427 49.4772 48.7773 49.8057 48.1618 50.0102C47.5462 50.2147 46.8939 50.2906 46.2467 50.2332C39.0666 49.4669 32.1697 47.0573 26.11 43.1978C20.4723 39.6793 15.6925 34.9848 12.11 29.4478C8.16662 23.4693 5.71257 16.6625 4.94667 9.579C4.88836 8.94528 4.96505 8.30658 5.17184 7.70356C5.37863 7.10054 5.71101 6.54642 6.14779 6.07647C6.58458 5.60652 7.11622 5.23105 7.70885 4.97395C8.30149 4.71685 8.94213 4.58377 9.59001 4.58317H16.59C17.7224 4.57222 18.8202 4.96606 19.6788 5.69127C20.5374 6.41647 21.0982 7.42357 21.2567 8.52484C21.5521 10.725 22.1001 12.8853 22.89 14.9644C23.2039 15.7847 23.2719 16.6761 23.0858 17.5331C22.8997 18.3901 22.4674 19.1768 21.84 19.7998L18.8767 22.7103C22.1983 28.4475 27.0351 33.1979 32.8767 36.4603L35.84 33.5498C36.4744 32.9337 37.2754 32.5091 38.148 32.3263C39.0205 32.1435 39.9282 32.2103 40.7633 32.5186C42.8803 33.2944 45.0799 33.8326 47.32 34.1228C48.4535 34.2798 49.4886 34.8405 50.2286 35.6983C50.9686 36.556 51.3617 37.6509 51.3333 38.7748Z" stroke="#219963" stroke-width="2.5" stroke-linecap="round" stroke-linejoin="round"/>
</svg>
