<svg width="525" height="355" viewBox="0 0 525 355" fill="none" xmlns="http://www.w3.org/2000/svg">
<path d="M187.671 251.937C259.223 251.937 317.227 246.693 317.227 240.224C317.227 233.755 259.223 228.51 187.671 228.51C116.119 228.51 58.1152 233.755 58.1152 240.224C58.1152 246.693 116.119 251.937 187.671 251.937Z" fill="#EEECED"/>
<path d="M232.293 205.846C232.293 205.846 230.822 228.837 235.998 232.324C239.157 234.449 247.057 228.891 250.871 228.891C254.739 228.891 262.857 234.503 266.017 232.324C271.138 228.783 273.753 182.583 273.753 182.583L232.293 205.846Z" fill="#DFECE8"/>
<path fill-rule="evenodd" clip-rule="evenodd" d="M274.841 182.644L273.753 182.583C274.841 182.644 274.841 182.644 274.841 182.645L274.833 182.779C274.828 182.867 274.82 182.997 274.81 183.168C274.789 183.508 274.759 184.008 274.718 184.644C274.636 185.918 274.514 187.74 274.351 189.937C274.025 194.331 273.537 200.23 272.888 206.242C272.24 212.249 271.429 218.394 270.454 223.271C269.967 225.707 269.433 227.858 268.847 229.53C268.555 230.366 268.239 231.108 267.896 231.717C267.563 232.308 267.154 232.862 266.636 233.22L266.635 233.221C265.485 234.014 264.023 234.015 262.674 233.78C261.294 233.541 259.776 233.009 258.314 232.44C257.713 232.207 257.129 231.97 256.56 231.74C255.696 231.39 254.865 231.054 254.053 230.758C252.701 230.267 251.628 229.981 250.871 229.981C250.129 229.981 249.081 230.263 247.758 230.749C246.957 231.044 246.137 231.381 245.285 231.73C244.735 231.957 244.17 232.188 243.589 232.418C242.158 232.983 240.669 233.514 239.31 233.757C237.98 233.994 236.537 234 235.389 233.228L235.389 233.227C234.512 232.637 233.863 231.7 233.367 230.651C232.865 229.589 232.476 228.32 232.171 226.953C231.561 224.217 231.256 220.944 231.116 217.826C230.974 214.701 230.997 211.69 231.054 209.465C231.083 208.351 231.121 207.431 231.151 206.789C231.166 206.468 231.18 206.216 231.189 206.044C231.194 205.958 231.198 205.892 231.201 205.847L231.204 205.795L231.205 205.777C231.205 205.777 231.205 205.776 232.293 205.846L231.205 205.777L231.243 205.185L274.953 180.66L274.841 182.644ZM233.347 206.504C233.341 206.618 233.335 206.748 233.328 206.892C233.298 207.521 233.261 208.425 233.233 209.521C233.176 211.715 233.155 214.67 233.293 217.728C233.431 220.795 233.729 223.923 234.298 226.479C234.583 227.757 234.929 228.856 235.337 229.719C235.751 230.595 236.188 231.138 236.606 231.42C237.038 231.71 237.768 231.818 238.927 231.611C240.056 231.41 241.373 230.95 242.789 230.391C243.307 230.186 243.847 229.965 244.391 229.742C245.28 229.377 246.179 229.008 247.006 228.704C248.336 228.215 249.706 227.802 250.871 227.802C252.047 227.802 253.44 228.217 254.797 228.71C255.633 229.014 256.543 229.382 257.444 229.746C258.007 229.974 258.567 230.201 259.104 230.409C260.551 230.972 261.896 231.434 263.047 231.633C264.23 231.839 264.968 231.723 265.398 231.427L266.016 232.324L265.397 231.428C265.519 231.343 265.731 231.121 265.998 230.646C266.256 230.189 266.522 229.576 266.791 228.809C267.328 227.277 267.839 225.238 268.317 222.844C269.273 218.063 270.076 211.994 270.722 206.008C271.367 200.028 271.853 194.155 272.177 189.776C272.339 187.59 272.461 185.778 272.543 184.511L233.347 206.504Z" fill="#14744E"/>
<path d="M134.281 205.846C134.281 205.846 132.81 228.837 137.986 232.324C141.146 234.449 149.045 228.891 152.859 228.891C156.727 228.891 164.845 234.503 168.005 232.324C173.126 228.783 175.741 182.583 175.741 182.583L134.281 205.846Z" fill="#DFECE8"/>
<path fill-rule="evenodd" clip-rule="evenodd" d="M176.829 182.644L175.741 182.583C176.829 182.644 176.829 182.644 176.829 182.645L176.821 182.779C176.816 182.867 176.808 182.997 176.798 183.168C176.778 183.508 176.747 184.008 176.706 184.644C176.624 185.918 176.502 187.74 176.339 189.937C176.013 194.331 175.525 200.23 174.877 206.242C174.229 212.249 173.417 218.394 172.443 223.271C171.956 225.707 171.422 227.858 170.836 229.53C170.543 230.366 170.228 231.108 169.885 231.717C169.551 232.308 169.142 232.862 168.624 233.22L168.623 233.221C167.473 234.014 166.012 234.015 164.663 233.78C163.282 233.541 161.764 233.009 160.303 232.44C159.701 232.207 159.118 231.97 158.548 231.74C157.685 231.39 156.854 231.054 156.041 230.758C154.689 230.267 153.616 229.981 152.859 229.981C152.117 229.981 151.069 230.263 149.747 230.749C148.945 231.044 148.126 231.381 147.274 231.73C146.723 231.957 146.159 232.188 145.577 232.418C144.146 232.983 142.657 233.514 141.298 233.757C139.968 233.994 138.526 234 137.378 233.228L137.377 233.227C136.501 232.637 135.851 231.7 135.355 230.651C134.853 229.589 134.465 228.32 134.16 226.953C133.55 224.217 133.245 220.944 133.104 217.826C132.963 214.701 132.985 211.69 133.043 209.465C133.071 208.351 133.109 207.431 133.139 206.789C133.155 206.468 133.168 206.216 133.178 206.044C133.183 205.958 133.186 205.892 133.189 205.847L133.192 205.795L133.193 205.777C133.193 205.777 133.193 205.776 134.281 205.846L133.193 205.777L133.231 205.185L176.941 180.66L176.829 182.644ZM135.335 206.504C135.329 206.618 135.323 206.748 135.316 206.892C135.286 207.521 135.249 208.425 135.221 209.521C135.165 211.715 135.143 214.67 135.281 217.728C135.419 220.795 135.717 223.923 136.287 226.479C136.572 227.757 136.917 228.856 137.325 229.719C137.739 230.595 138.176 231.138 138.594 231.42C139.026 231.71 139.756 231.818 140.915 231.611C142.045 231.41 143.361 230.95 144.777 230.391C145.295 230.186 145.835 229.965 146.379 229.742C147.268 229.377 148.167 229.008 148.994 228.704C150.324 228.215 151.694 227.802 152.859 227.802C154.036 227.802 155.428 228.217 156.785 228.71C157.622 229.014 158.531 229.382 159.432 229.746C159.996 229.974 160.556 230.201 161.092 230.409C162.539 230.972 163.884 231.434 165.035 231.633C166.218 231.839 166.956 231.723 167.386 231.427L168.005 232.324L167.385 231.428C167.507 231.343 167.719 231.121 167.986 230.646C168.244 230.189 168.51 229.576 168.779 228.809C169.316 227.277 169.827 225.238 170.306 222.844C171.261 218.063 172.064 211.994 172.71 206.008C173.355 200.028 173.841 194.155 174.166 189.776C174.328 187.59 174.45 185.778 174.531 184.511L135.335 206.504Z" fill="#14744E"/>
<path d="M1.23701 93.8326C-0.342942 84.135 11.0981 75.418 21.1771 75.2545C24.6094 67.5727 31.2561 61.9611 38.72 60.7081C45.6391 59.564 56.3719 61.4163 68.3578 76.8345L60.8394 82.664C53.6479 73.4022 46.5108 69.0437 40.3 70.0788C36.9222 70.6781 34.1981 72.7484 32.2368 75.2C36.2139 76.3986 39.9186 79.1227 42.0979 84.0805C44.2771 88.9838 42.5882 94.5953 37.9573 97.6463C33.054 100.915 26.6797 100.098 22.5391 95.6305C20.2509 93.1788 18.7799 88.6569 18.671 84.8977C10.8802 83.4812 4.34244 90.1279 1.23701 93.8326ZM28.4776 84.026C28.2052 86.2597 28.5865 88.1666 29.4582 89.0927C30.8203 90.5637 32.0733 90.0734 32.6726 89.6375C33.2174 89.3107 33.7622 88.7114 33.3809 87.8397C32.2913 85.3335 30.2755 84.2984 28.4776 84.026Z" fill="#DFECE8"/>
<path fill-rule="evenodd" clip-rule="evenodd" d="M66.8223 76.6463C55.3135 62.2765 45.2273 60.7366 38.8996 61.7825C31.8531 62.9661 25.4809 68.294 22.1725 75.6987L21.8893 76.3324L21.1953 76.3436C16.4373 76.4208 11.2991 78.5296 7.55058 81.79C4.54078 84.4079 2.53497 87.6626 2.22325 91.0906C3.6703 89.5715 5.49193 87.9034 7.60368 86.5307C10.7344 84.4958 14.6002 83.0496 18.8664 83.8253L19.7351 83.9832L19.7607 84.8658C19.8645 88.4485 21.2814 92.685 23.3362 94.8866L23.3388 94.8894C27.1309 98.9808 32.9136 99.6992 37.3534 96.7393L37.3584 96.736C41.5603 93.9676 43.0577 88.9214 41.1027 84.5226L41.1009 84.5186C39.0607 79.8771 35.6214 77.3576 31.9229 76.2429L30.3794 75.7778L31.3865 74.519C33.459 71.9284 36.3977 69.6643 40.1102 69.0056L40.1158 69.0046L40.1214 69.0037C46.7638 67.8966 54.0076 72.3927 61.026 81.1405L66.8223 76.6463ZM38.5428 59.6327C45.9299 58.4112 57.0369 60.4953 69.2186 76.1653L69.8882 77.0267L60.6471 84.1919L59.9793 83.3318C52.8264 74.1197 46.0504 70.2281 40.4852 71.1523C37.9771 71.5988 35.8318 72.9531 34.1195 74.7109C37.7664 76.2013 41.0641 79.0208 43.095 83.6395C45.4968 89.046 43.6171 95.2208 38.5596 98.5543C33.1937 102.13 26.2302 101.214 21.7418 96.3722C19.4146 93.8778 17.9365 89.5897 17.6334 85.8496C14.426 85.5204 11.4241 86.6466 8.79134 88.3579C5.92728 90.2195 3.59765 92.7128 2.0726 94.5322L0.544586 96.3551L0.162103 94.0074C-0.709686 88.6564 2.02878 83.7046 6.12039 80.1457C10.0403 76.7362 15.3563 74.4546 20.4692 74.1883C24.1021 66.5453 30.8659 60.9215 38.5402 59.6331L38.5428 59.6327ZM27.5323 82.7802L28.6413 82.9483C30.7344 83.2654 33.1134 84.4902 34.3807 87.4048C34.7012 88.1391 34.6512 88.8524 34.3403 89.4473C34.0668 89.9704 33.6342 90.3244 33.2747 90.5466C32.8528 90.8445 32.1799 91.1796 31.3387 91.1694C30.4327 91.1583 29.509 90.749 28.6622 89.8358C28.0377 89.1705 27.6626 88.2445 27.47 87.2582C27.2741 86.255 27.249 85.1028 27.3965 83.8937L27.5323 82.7802ZM29.4811 85.409C29.4811 85.9354 29.5261 86.417 29.6088 86.8404C29.7564 87.5959 30.007 88.0849 30.2522 88.3456L30.2553 88.3488L30.2583 88.352C30.7727 88.9076 31.1555 88.9877 31.3653 88.9903C31.6143 88.9933 31.8518 88.8872 32.0323 88.7559L32.0712 88.7276L32.1126 88.7028C32.2903 88.5962 32.3796 88.4939 32.409 88.4378C32.4188 88.4189 32.419 88.4114 32.4192 88.4068C32.4194 88.402 32.4206 88.3617 32.3831 88.276L32.3822 88.2737C31.7031 86.712 30.6136 85.8444 29.4811 85.409Z" fill="#14744E"/>
<path d="M85.7388 73.7296C84.5947 73.7296 83.4506 73.2937 82.5244 72.4221C80.7265 70.6787 80.672 67.7367 82.4699 65.9388C97.0164 51.011 117.174 39.6244 140.765 33.0867C143.216 32.4329 145.723 33.8494 146.376 36.2466C147.03 38.6982 145.614 41.2044 143.216 41.8582C121.206 47.96 102.464 58.5294 89.0621 72.3131C88.136 73.2937 86.9374 73.7296 85.7388 73.7296Z" fill="white"/>
<path d="M68.0307 101.025C67.4859 101.025 66.9411 100.916 66.4508 100.752C64.1081 99.8807 62.855 97.2112 63.7812 94.8685C65.7425 89.6383 68.3576 84.4626 71.572 79.5593C72.934 77.4345 75.7671 76.8352 77.8918 78.2517C80.0166 79.6138 80.6159 82.4468 79.1994 84.5715C76.3664 88.93 74.0237 93.4519 72.3347 98.0828C71.6265 99.8807 69.8831 101.025 68.0307 101.025Z" fill="white"/>
<path d="M329.213 118.948C329.213 60.1633 248.962 18.9211 186.691 17.5046C131.828 16.2515 62.6915 45.3989 47.0009 99.3897C33.9254 144.446 66.941 176.263 88.3521 232.651C88.9514 234.231 90.3679 238.044 93.6367 239.188C97.9407 240.659 100.774 235.811 107.42 235.048C115.429 234.067 119.57 240.55 122.566 238.48C125.726 236.301 123.819 220.883 121.912 209.333C139.128 215.598 158.36 219.412 178.791 220.229C180.371 229.164 182.332 237.064 184.402 238.48C187.562 240.659 195.462 235.048 199.276 235.048C203.144 235.048 211.261 240.659 214.421 238.48C216.655 236.9 218.725 227.584 220.36 217.559C282.85 206.718 329.213 166.674 329.213 118.948Z" fill="#DFECE8"/>
<path fill-rule="evenodd" clip-rule="evenodd" d="M101.645 36.7689C127.915 22.8009 159.1 15.7848 186.715 16.4155C218.052 17.1284 253.878 27.8532 281.891 45.796C309.883 63.7247 330.303 89.0219 330.303 118.949C330.303 167.253 283.652 207.423 221.31 218.499C220.521 223.252 219.632 227.83 218.669 231.466C218.162 233.379 217.627 235.061 217.064 236.382C216.527 237.642 215.881 238.782 215.051 239.37L215.045 239.374L215.04 239.377C213.89 240.17 212.428 240.171 211.079 239.937C209.699 239.697 208.181 239.165 206.719 238.597C206.118 238.363 205.534 238.127 204.965 237.896C204.101 237.547 203.27 237.21 202.458 236.915C201.106 236.424 200.033 236.138 199.276 236.138C198.536 236.138 197.489 236.422 196.166 236.912C195.371 237.207 194.56 237.543 193.716 237.892C193.159 238.123 192.587 238.36 191.996 238.594C190.565 239.162 189.074 239.696 187.712 239.936C186.379 240.172 184.932 240.169 183.784 239.377C183.006 238.844 182.394 237.844 181.885 236.745C181.353 235.595 180.847 234.137 180.366 232.477C179.465 229.367 178.625 225.444 177.872 221.281C158.345 220.417 139.912 216.828 123.283 210.981C124.135 216.332 124.937 222.311 125.227 227.358C125.389 230.168 125.394 232.735 125.147 234.763C125.023 235.776 124.832 236.696 124.543 237.461C124.26 238.211 123.84 238.926 123.185 239.377L122.566 238.48L123.186 239.377C123.185 239.377 123.185 239.377 123.185 239.377C122.047 240.163 120.83 240.072 119.727 239.717C118.859 239.437 117.907 238.94 116.956 238.444C116.762 238.342 116.568 238.241 116.375 238.142C114.007 236.925 111.218 235.681 107.553 236.13L107.549 236.13L107.545 236.131C104.679 236.459 102.587 237.598 100.607 238.676C100.461 238.756 100.314 238.835 100.169 238.914C98.1195 240.023 95.9347 241.125 93.2843 240.22L93.2805 240.218L93.2767 240.217C91.3258 239.534 89.9856 238.076 89.0786 236.675C88.1942 235.309 87.6595 233.898 87.3574 233.101L87.3334 233.038L88.352 232.651L87.3332 233.037C82.001 218.994 75.9434 206.474 70.0479 194.87C68.5358 191.893 67.0327 188.974 65.5547 186.104C61.2796 177.802 57.2148 169.908 53.7505 162.218C44.408 141.48 39.3123 121.974 45.9544 99.0863L45.9545 99.0859C53.9082 71.7176 75.3784 50.7346 101.645 36.7689ZM48.0473 99.6937C41.6139 121.862 46.4883 140.792 55.7374 161.323C59.1763 168.957 63.2032 176.777 67.4699 185.063C68.9528 187.943 70.4646 190.879 71.9908 193.883C77.8989 205.511 83.9974 218.113 89.3707 232.264L89.3708 232.264L89.3827 232.296C89.6849 233.093 90.1511 234.322 90.908 235.491C91.6756 236.677 92.6771 237.697 93.9935 238.159C95.6451 238.722 97.0283 238.135 99.1316 236.998C99.2834 236.915 99.438 236.831 99.5957 236.745C101.558 235.674 103.992 234.345 107.293 233.966C111.634 233.436 114.918 234.943 117.371 236.204C117.6 236.321 117.817 236.434 118.025 236.543C118.973 237.036 119.72 237.425 120.396 237.642C121.162 237.89 121.587 237.832 121.947 237.584L121.948 237.583C122.082 237.49 122.294 237.246 122.504 236.691C122.708 236.15 122.871 235.419 122.984 234.499C123.208 232.662 123.21 230.244 123.051 227.483C122.735 221.972 121.789 215.275 120.837 209.51L120.534 207.672L122.285 208.309C139.39 214.534 158.511 218.327 178.834 219.14L179.711 219.175L179.864 220.039C180.651 224.493 181.529 228.657 182.459 231.871C182.925 233.48 183.396 234.821 183.863 235.83C184.353 236.888 184.762 237.406 185.018 237.581L185.021 237.583C185.452 237.881 186.178 237.994 187.334 237.79C188.461 237.591 189.776 237.131 191.192 236.569C191.716 236.36 192.264 236.134 192.815 235.906C193.697 235.542 194.589 235.173 195.408 234.869C196.738 234.376 198.109 233.958 199.276 233.958C200.452 233.958 201.845 234.374 203.202 234.867C204.038 235.171 204.948 235.538 205.849 235.903C206.412 236.131 206.972 236.357 207.509 236.566C208.955 237.128 210.301 237.59 211.452 237.79C212.629 237.994 213.366 237.881 213.797 237.587C214.083 237.382 214.532 236.765 215.059 235.527C215.564 234.344 216.068 232.774 216.562 230.908C217.55 227.179 218.469 222.385 219.284 217.384L219.409 216.619L220.174 216.486C282.429 205.685 328.123 165.898 328.123 118.949C328.123 90.0904 308.418 65.3739 280.716 47.6311C253.037 29.9025 217.6 19.2979 186.666 18.5942L186.69 17.5049L186.666 18.5942C159.419 17.9719 128.604 24.9029 102.668 38.6931C76.7275 52.4854 55.7843 73.0714 48.0473 99.6937Z" fill="#14744E"/>
<path d="M326.436 40.9864C326.436 40.9864 329.759 22.1359 335.97 17.1781C345.994 9.1694 378.737 6.82672 389.906 1.54205C400.748 -3.63366 399.44 36.9548 381.353 55.0425C373.998 62.3975 351.007 69.8069 351.007 69.8069L326.436 40.9864Z" fill="#DFECE8"/>
<path fill-rule="evenodd" clip-rule="evenodd" d="M392.785 2.5169C392.197 2.12108 391.451 2.01166 390.376 2.52501L390.372 2.52662C387.46 3.90438 383.214 5.06294 378.418 6.15071C375.224 6.87488 371.732 7.57923 368.167 8.29816C366.364 8.66193 364.542 9.02943 362.73 9.40512C357.317 10.5278 351.978 11.7282 347.376 13.1408C342.746 14.5618 338.987 16.162 336.65 18.0291C335.292 19.1132 334.006 21.0413 332.842 23.4615C331.691 25.8559 330.712 28.6184 329.917 31.2555C329.123 33.8884 328.52 36.372 328.116 38.1988C327.914 39.1115 327.761 39.8585 327.66 40.3761C327.638 40.4862 327.619 40.5859 327.602 40.6745L351.361 68.5422C351.452 68.5115 351.552 68.4779 351.661 68.4414C352.298 68.2262 353.219 67.91 354.348 67.5076C356.606 66.7024 359.692 65.5531 363.003 64.1763C366.317 62.7985 369.844 61.1988 372.989 59.494C376.151 57.78 378.856 55.9976 380.582 54.2717C389.384 45.4694 394.176 31.0775 395.394 19.4545C396.004 13.6397 395.702 8.66501 394.653 5.51846C394.125 3.93374 393.46 2.97074 392.785 2.5169ZM351.007 69.8066L351.341 70.8437L350.649 71.0666L325.273 41.3023L325.363 40.7968L326.436 40.986C325.363 40.7968 325.363 40.7971 325.363 40.7968L325.363 40.7922L325.365 40.7808L325.373 40.7379C325.38 40.7005 325.39 40.6456 325.403 40.5742C325.43 40.4315 325.469 40.223 325.521 39.9566C325.626 39.424 325.782 38.6595 325.988 37.7275C326.401 35.865 327.017 33.3261 327.83 30.6266C328.643 27.9314 329.659 25.0516 330.878 22.5172C332.084 20.0086 333.543 17.721 335.29 16.3262C337.965 14.1891 342.058 12.4932 346.736 11.0574C351.442 9.61314 356.866 8.39591 362.288 7.27129C364.127 6.88983 365.963 6.51952 367.773 6.15452C371.321 5.43909 374.767 4.74405 377.936 4.02543C382.732 2.93756 386.766 1.82174 389.439 0.557445C391.073 -0.222181 392.657 -0.19506 394.001 0.708425C395.259 1.55426 396.129 3.0544 396.721 4.82964C397.911 8.403 398.185 13.7354 397.562 19.6817C396.314 31.581 391.409 46.5271 382.123 55.8126C380.172 57.7642 377.245 59.6661 374.027 61.4099C370.793 63.163 367.193 64.7946 363.84 66.1886C360.484 67.5836 357.362 68.7463 355.08 69.5602C353.938 69.9673 353.005 70.2875 352.357 70.5063C352.033 70.6156 351.78 70.6996 351.608 70.7565C351.571 70.7686 351.537 70.7796 351.508 70.7892C351.468 70.8021 351.436 70.8128 351.41 70.8211L351.359 70.8377L351.342 70.8432L351.341 70.8437C351.341 70.8437 351.341 70.8437 351.007 69.8066Z" fill="#14744E"/>
<path d="M337.168 44.0905C338.802 37.3348 340.982 32.3225 342.017 31.1784C345.994 28.1275 360.05 25.24 369.421 23.3876C375.414 22.189 381.134 21.0449 386.038 19.6284C385.874 28.3999 382.496 44.6898 373.561 53.6247C371.11 56.0218 363.101 60.0534 353.839 63.5947L337.168 44.0905Z" fill="white"/>
<path fill-rule="evenodd" clip-rule="evenodd" d="M387.155 18.1719L387.127 19.649C387.044 24.1416 386.141 30.5104 384.128 36.8932C382.119 43.2663 378.972 49.7561 374.332 54.3955L374.328 54.3998L374.324 54.4041C372.964 55.7334 370.208 57.4053 366.746 59.1536C363.24 60.9235 358.888 62.8314 354.229 64.6128L353.511 64.8873L335.979 44.3756L336.109 43.8345C336.938 40.4115 337.906 37.422 338.803 35.1327C339.252 33.9886 339.687 33.0098 340.082 32.234C340.465 31.4829 340.849 30.8464 341.209 30.4477L341.276 30.3744L341.354 30.3142C342.49 29.4432 344.248 28.6448 346.29 27.9096C348.358 27.1648 350.817 26.4503 353.425 25.7787C358.641 24.4354 364.525 23.2452 369.209 22.3192C375.214 21.1183 380.885 19.9831 385.736 18.5819L387.155 18.1719ZM369.666 24.4502L369.635 24.4564L369.633 24.4569C364.946 25.3832 359.117 26.5629 353.968 27.8891C351.394 28.5522 349.007 29.2474 347.028 29.96C345.09 30.6581 343.633 31.3418 342.768 31.9778C342.605 32.1814 342.35 32.5834 342.024 33.2238C341.668 33.9207 341.262 34.8317 340.832 35.9282C340.019 38.0009 339.136 40.702 338.36 43.8078L354.167 62.3013C358.497 60.622 362.515 58.8487 365.763 57.2083C369.229 55.4586 371.701 53.9179 372.796 52.8502C377.089 48.5548 380.096 42.4343 382.05 36.2379C383.787 30.7271 384.666 25.2375 384.894 21.0798C380.286 22.3263 375.062 23.3709 369.666 24.4502Z" fill="#14744E"/>
<path d="M238.177 40.9864C238.177 40.9864 234.853 22.1359 228.643 17.1781C218.618 9.1694 185.875 6.82672 174.706 1.54205C163.864 -3.63366 165.172 36.9548 183.26 55.0425C190.615 62.3975 213.606 69.8069 213.606 69.8069L238.177 40.9864Z" fill="#DFECE8"/>
<path fill-rule="evenodd" clip-rule="evenodd" d="M170.611 0.708425C171.955 -0.195083 173.539 -0.222183 175.174 0.557504C177.846 1.82177 181.88 2.93758 186.677 4.02543C189.845 4.74405 193.292 5.43909 196.839 6.15451C198.649 6.51952 200.485 6.88983 202.325 7.27129C207.747 8.39591 213.17 9.61314 217.876 11.0574C222.554 12.4932 226.647 14.1891 229.322 16.3262C231.069 17.721 232.528 20.0086 233.734 22.5172C234.953 25.0516 235.969 27.9314 236.782 30.6266C237.595 33.3261 238.212 35.865 238.624 37.7275C238.831 38.6595 238.986 39.424 239.091 39.9566C239.143 40.223 239.183 40.4315 239.209 40.5742C239.217 40.6153 239.223 40.6509 239.229 40.6808C239.233 40.7029 239.236 40.722 239.239 40.7379L239.247 40.7808L239.249 40.7922L239.249 40.7954L239.25 40.7963C239.25 40.7966 239.25 40.7968 238.177 40.986L239.25 40.7963L239.339 41.3023L213.963 71.0666L213.271 70.8437L213.606 69.8066C213.271 70.8437 213.272 70.8437 213.271 70.8437L213.27 70.8432L213.253 70.8377L213.202 70.8211C213.157 70.8065 213.091 70.7849 213.005 70.7565C212.832 70.6996 212.579 70.6156 212.255 70.5063C211.607 70.2875 210.674 69.9673 209.532 69.5602C207.25 68.7463 204.128 67.5836 200.772 66.1886C197.419 64.7946 193.819 63.163 190.585 61.4099C187.368 59.6661 184.441 57.7642 182.489 55.8126C173.204 46.5271 168.298 31.581 167.051 19.6817C166.427 13.7354 166.701 8.403 167.891 4.82964C168.483 3.0544 169.353 1.55426 170.611 0.708425ZM213.252 68.5422L237.01 40.6745C236.993 40.5859 236.974 40.4862 236.952 40.3761C236.851 39.8585 236.699 39.1115 236.496 38.1988C236.092 36.372 235.489 33.8884 234.695 31.2555C233.9 28.6184 232.922 25.8559 231.77 23.4615C230.607 21.0413 229.321 19.1134 227.963 18.0293C225.626 16.1622 221.866 14.5618 217.237 13.1408C212.634 11.7282 207.295 10.5278 201.882 9.40512C200.071 9.02943 198.248 8.66193 196.445 8.29817C192.88 7.57923 189.388 6.87488 186.195 6.15071C181.398 5.06294 177.152 3.90438 174.24 2.52662L174.237 2.52502C173.161 2.01166 172.416 2.12107 171.827 2.5169C171.152 2.97074 170.487 3.93374 169.959 5.51846C168.911 8.66501 168.609 13.6397 169.218 19.4545C170.436 31.0775 175.228 45.4694 184.03 54.2717C185.756 55.9976 188.461 57.78 191.623 59.494C194.768 61.1988 198.295 62.7985 201.609 64.1763C204.921 65.5531 208.006 66.7024 210.264 67.5076C211.393 67.91 212.314 68.2262 212.952 68.4414C213.06 68.4779 213.16 68.5115 213.252 68.5422Z" fill="#14744E"/>
<path d="M210.827 63.5962C201.511 60.0549 193.502 56.0778 191.105 53.6261C182.17 44.6912 178.792 28.4013 178.629 19.6299C183.532 20.9919 189.253 22.136 195.246 23.3891C204.616 25.2959 218.673 28.1289 222.65 31.1799C223.685 32.2695 225.864 37.2818 227.498 44.0919L210.827 63.5962Z" fill="white"/>
<path fill-rule="evenodd" clip-rule="evenodd" d="M177.512 18.1885L178.92 18.5797C183.204 19.7696 188.121 20.7927 193.344 21.8796C194.046 22.0256 194.753 22.1727 195.465 22.3216C195.578 22.3446 195.692 22.3677 195.806 22.3909C200.427 23.3311 206.153 24.496 211.24 25.7996C213.847 26.4676 216.306 27.1769 218.374 27.9174C220.416 28.6483 222.176 29.4432 223.312 30.315L223.38 30.3671L223.439 30.4291C223.812 30.8213 224.2 31.4579 224.582 32.2005C224.979 32.9712 225.414 33.9481 225.863 35.0926C226.761 37.3831 227.729 40.3869 228.557 43.8373L228.687 44.3774L211.157 64.8869L210.44 64.6143C205.755 62.8336 201.388 60.9394 197.881 59.1756C194.426 57.4375 191.672 55.7623 190.33 54.3921C185.693 49.753 182.547 43.2652 180.538 36.894C178.526 30.5112 177.623 24.1424 177.539 19.6498L177.512 18.1885ZM179.772 21.0663C179.999 25.2257 180.877 30.7216 182.616 36.2387C184.571 42.4371 187.579 48.5597 191.875 52.8553L191.879 52.8596L191.884 52.864C192.94 53.9446 195.387 55.482 198.861 57.2288C202.109 58.8627 206.14 60.6242 210.498 62.3033L226.307 43.8077C225.531 40.6754 224.647 37.9609 223.834 35.8881C223.405 34.7921 222.999 33.8859 222.645 33.1976C222.315 32.5561 222.062 32.1694 221.909 31.986C221.045 31.3488 219.586 30.6659 217.64 29.9691C215.661 29.2607 213.275 28.5706 210.699 27.9106C205.666 26.6209 199.986 25.4652 195.351 24.5223C195.243 24.5002 195.135 24.4783 195.028 24.4565L195.022 24.4553C194.312 24.3068 193.605 24.1596 192.901 24.0133C188.253 23.0463 183.777 22.1152 179.772 21.0663Z" fill="#14744E"/>
<path d="M283.723 180.948C336.98 180.948 380.154 143.091 380.154 96.3931C380.154 49.6948 336.98 11.8384 283.723 11.8384C230.465 11.8384 187.291 49.6948 187.291 96.3931C187.291 143.091 230.465 180.948 283.723 180.948Z" fill="#DFECE8"/>
<path fill-rule="evenodd" clip-rule="evenodd" d="M283.722 12.9283C230.928 12.9283 188.38 50.427 188.38 96.3934C188.38 142.36 230.928 179.858 283.722 179.858C336.517 179.858 379.064 142.36 379.064 96.3934C379.064 50.427 336.517 12.9283 283.722 12.9283ZM186.201 96.3934C186.201 48.9632 230.002 10.749 283.722 10.749C337.443 10.749 381.244 48.9632 381.244 96.3934C381.244 143.824 337.443 182.038 283.722 182.038C230.002 182.038 186.201 143.824 186.201 96.3934Z" fill="#14744E"/>
<path d="M330.848 117.314C330.848 146.625 311.017 142.266 286.555 142.266C262.093 142.266 242.262 142.484 242.262 117.314C242.262 98.5722 262.093 83.4264 286.555 83.4264C310.962 83.3719 330.848 98.5722 330.848 117.314Z" fill="white"/>
<path fill-rule="evenodd" clip-rule="evenodd" d="M317.192 94.1873C309.376 88.2092 298.541 84.4896 286.557 84.5163L286.555 84.5163C274.541 84.5163 263.706 88.2366 255.897 94.2078C248.089 100.178 243.351 108.354 243.351 117.314C243.351 123.469 244.564 127.952 246.661 131.246C248.752 134.528 251.786 136.731 255.627 138.212C259.487 139.701 264.135 140.45 269.39 140.82C274.47 141.178 280.045 141.177 285.948 141.177C286.15 141.177 286.352 141.177 286.555 141.177C289.459 141.177 292.298 141.238 295.034 141.297L295.505 141.307C298.39 141.369 301.155 141.424 303.785 141.4C309.061 141.351 313.697 140.979 317.541 139.744C321.349 138.521 324.354 136.461 326.434 133.015C328.534 129.536 329.758 124.535 329.758 117.314C329.758 108.354 325.007 100.165 317.192 94.1873ZM318.516 92.4563C326.746 98.7507 331.937 107.532 331.937 117.314C331.937 124.749 330.683 130.194 328.3 134.141C325.897 138.122 322.415 140.468 318.208 141.819C314.037 143.159 309.128 143.529 303.806 143.579C301.137 143.604 298.339 143.548 295.458 143.486C295.303 143.482 295.149 143.479 294.994 143.476C292.253 143.417 289.435 143.356 286.555 143.356C286.34 143.356 286.126 143.356 285.912 143.356C280.04 143.356 274.395 143.357 269.237 142.994C263.894 142.618 258.998 141.848 254.843 140.246C250.668 138.635 247.216 136.173 244.823 132.417C242.438 128.672 241.172 123.744 241.172 117.314C241.172 107.533 246.35 98.7647 254.573 92.4767C262.795 86.1898 274.105 82.3373 286.553 82.3371C298.976 82.3096 310.288 86.1628 318.516 92.4563Z" fill="#14744E"/>
<path d="M308.62 127.448C305.95 127.448 303.117 125.541 301.428 122.599C299.14 118.622 299.685 113.882 302.572 112.193C303.28 111.812 304.098 111.594 304.969 111.594C307.639 111.594 310.472 113.501 312.161 116.443C313.359 118.513 313.795 120.747 313.523 122.817C313.25 124.669 312.379 126.086 311.017 126.848C310.254 127.23 309.437 127.448 308.62 127.448Z" fill="#DFECE8"/>
<path fill-rule="evenodd" clip-rule="evenodd" d="M303.106 113.143C302.048 113.77 301.326 115.011 301.142 116.658C300.958 118.306 301.336 120.254 302.372 122.055L302.373 122.056C303.928 124.765 306.448 126.358 308.619 126.358C309.235 126.358 309.878 126.195 310.506 125.885C311.495 125.322 312.209 124.249 312.443 122.666C312.681 120.85 312.301 118.86 311.218 116.988L311.216 116.985C309.661 114.276 307.141 112.683 304.969 112.683C304.288 112.683 303.654 112.851 303.106 113.143ZM302.055 111.233C302.92 110.768 303.914 110.504 304.969 110.504C308.136 110.504 311.282 112.724 313.105 115.898C314.416 118.164 314.908 120.638 314.603 122.959L314.602 122.967L314.601 122.975C314.291 125.081 313.271 126.835 311.549 127.799L311.527 127.811L311.504 127.823C310.614 128.268 309.63 128.537 308.619 128.537C305.452 128.537 302.306 126.317 300.483 123.142C299.231 120.966 298.738 118.556 298.976 116.417C299.214 114.286 300.201 112.317 302.022 111.252L302.038 111.243L302.055 111.233Z" fill="#14744E"/>
<path d="M266.887 125.977C266.016 125.977 265.198 125.759 264.545 125.377C263.237 124.615 262.311 123.198 262.038 121.346C261.712 119.275 262.202 117.042 263.4 114.971C265.089 112.029 267.922 110.123 270.592 110.123C271.464 110.123 272.281 110.34 272.989 110.722C275.877 112.411 276.421 117.151 274.133 121.128C272.39 124.07 269.557 125.977 266.887 125.977Z" fill="#DFECE8"/>
<path fill-rule="evenodd" clip-rule="evenodd" d="M270.592 111.212C268.42 111.212 265.9 112.806 264.345 115.514L264.343 115.518L264.343 115.518C263.248 117.41 262.833 119.393 263.115 121.176L263.115 121.182L263.116 121.187C263.348 122.765 264.115 123.866 265.093 124.436C265.567 124.712 266.192 124.887 266.887 124.887C269.057 124.887 271.579 123.297 273.192 120.579C274.226 118.779 274.603 116.834 274.419 115.188C274.235 113.541 273.513 112.299 272.455 111.672C271.907 111.381 271.273 111.212 270.592 111.212ZM262.456 114.427C264.279 111.253 267.425 109.033 270.592 109.033C271.647 109.033 272.641 109.297 273.506 109.763L273.523 109.772L273.539 109.782C275.36 110.847 276.347 112.815 276.585 114.946C276.823 117.085 276.33 119.495 275.078 121.671L275.074 121.677L275.071 121.684C273.197 124.846 270.055 127.066 266.887 127.066C265.839 127.066 264.83 126.805 263.995 126.319C262.36 125.365 261.275 123.635 260.961 121.51C260.591 119.155 261.157 116.673 262.456 114.427Z" fill="#14744E"/>
<path fill-rule="evenodd" clip-rule="evenodd" d="M290.469 155.995C281.323 155.943 273.741 158.746 268.994 160.986C268.314 161.307 267.502 161.016 267.181 160.336C266.86 159.655 267.152 158.844 267.832 158.523C272.783 156.186 280.782 153.215 290.486 153.271L290.487 153.271C299.243 153.327 306.035 155.798 310.403 157.87C311.082 158.193 311.372 159.005 311.049 159.684C310.727 160.364 309.915 160.654 309.235 160.331C305.104 158.372 298.711 156.048 290.47 155.995" fill="#14744E"/>
<path fill-rule="evenodd" clip-rule="evenodd" d="M319.897 51.0534C320.294 50.6016 320.983 50.5577 321.434 50.9552C322.725 52.0909 324.858 53.6531 327.775 54.8514L327.783 54.8545C331.014 56.2097 333.874 56.5711 335.674 56.6225C336.275 56.6397 336.749 57.1413 336.732 57.7428C336.714 58.3443 336.213 58.8181 335.611 58.8009C333.598 58.7433 330.466 58.3423 326.944 56.8657C323.761 55.5581 321.428 53.8522 319.995 52.5912C319.543 52.1937 319.499 51.5052 319.897 51.0534Z" fill="#14744E"/>
<path fill-rule="evenodd" clip-rule="evenodd" d="M261.316 50.4458C261.687 50.919 261.605 51.604 261.132 51.9758C259.531 53.2341 256.98 54.8754 253.588 56.1191L253.585 56.1201C249.843 57.4809 246.558 57.7633 244.526 57.8197C243.925 57.8364 243.423 57.3623 243.407 56.7608C243.39 56.1592 243.864 55.658 244.466 55.6413C246.357 55.5888 249.39 55.3264 252.839 54.0726C255.984 52.9191 258.336 51.4009 259.786 50.2622C260.259 49.8904 260.944 49.9726 261.316 50.4458Z" fill="#14744E"/>
<path d="M256.374 73.729C259.684 73.729 262.367 71.0459 262.367 67.7361C262.367 64.4263 259.684 61.7432 256.374 61.7432C253.064 61.7432 250.381 64.4263 250.381 67.7361C250.381 71.0459 253.064 73.729 256.374 73.729Z" fill="#14744E"/>
<path d="M323.221 73.729C326.531 73.729 329.214 71.0459 329.214 67.7361C329.214 64.4263 326.531 61.7432 323.221 61.7432C319.912 61.7432 317.229 64.4263 317.229 67.7361C317.229 71.0459 319.912 73.729 323.221 73.729Z" fill="#14744E"/>
<path opacity="0.3" d="M241.063 117.423C241.063 115.298 241.336 109.033 245.04 102.386C250.761 92.035 260.731 88.1123 266.452 85.8241C276.803 81.738 285.738 82.0649 289.933 82.2828C296.525 82.6097 301.919 83.9718 305.678 85.1704C300.938 82.7187 292.439 79.6133 281.815 79.6133C257.462 79.6133 237.686 95.3038 237.686 114.699C237.686 125.159 240.845 131.37 246.185 135.075C244.605 132.514 241.009 126.195 241.063 117.423Z" fill="white"/>
<path d="M123.821 232.651C120.279 234.994 109.056 229.056 104.752 229.056C100.557 229.056 91.8401 234.885 88.3533 232.651L88.2988 232.597C90.2057 235.757 91.6767 237.827 92.5483 238.426C95.7083 240.606 103.608 234.994 107.422 234.994C111.29 234.994 119.408 240.606 122.567 238.426C123.657 237.664 124.147 235.375 124.256 232.27C124.147 232.434 123.984 232.597 123.821 232.651Z" fill="white"/>
<path fill-rule="evenodd" clip-rule="evenodd" d="M100.55 228.903C102.016 228.39 103.501 227.966 104.752 227.966C106.011 227.966 107.665 228.388 109.366 228.904C110.313 229.192 111.362 229.538 112.421 229.887C113.255 230.162 114.096 230.44 114.899 230.692C116.784 231.286 118.581 231.785 120.104 231.999C121.688 232.221 122.693 232.09 123.219 231.742C123.26 231.715 123.302 231.691 123.346 231.67C123.348 231.668 123.349 231.667 123.35 231.665C123.62 231.26 124.126 231.083 124.59 231.233C125.054 231.382 125.362 231.821 125.345 232.308C125.289 233.897 125.135 235.334 124.835 236.499C124.546 237.618 124.068 238.706 123.192 239.319L123.186 239.323C122.036 240.116 120.574 240.117 119.225 239.883C117.845 239.643 116.327 239.111 114.865 238.543C114.264 238.309 113.68 238.073 113.111 237.842C112.247 237.493 111.416 237.156 110.604 236.861C109.252 236.37 108.179 236.084 107.422 236.084C106.682 236.084 105.635 236.367 104.312 236.858C103.517 237.153 102.706 237.489 101.862 237.838C101.304 238.069 100.733 238.305 100.142 238.54C98.7109 239.108 97.22 239.642 95.8583 239.882C94.5245 240.118 93.0782 240.115 91.9296 239.323L92.5482 238.426L91.9309 239.324C91.3228 238.906 90.641 238.094 89.9291 237.111C89.1887 236.088 88.3265 234.752 87.3658 233.16C87.0812 232.688 87.1933 232.078 87.627 231.739C88.0441 231.412 88.6326 231.434 89.0235 231.783C89.5519 232.078 90.3868 232.165 91.6147 231.957C92.8776 231.744 94.3421 231.257 95.9041 230.671C96.4825 230.454 97.0831 230.219 97.6865 229.984C98.6614 229.604 99.6435 229.22 100.55 228.903ZM90.6133 234.248C91.0036 234.848 91.3645 235.377 91.6941 235.833C92.4123 236.824 92.9019 237.347 93.1655 237.528L93.1668 237.529C93.5981 237.827 94.3243 237.94 95.4796 237.736C96.607 237.537 97.9219 237.077 99.3375 236.515C99.8619 236.306 100.41 236.08 100.961 235.852C101.843 235.487 102.735 235.119 103.554 234.815C104.884 234.322 106.255 233.904 107.422 233.904C108.598 233.904 109.991 234.319 111.348 234.813C112.184 235.116 113.094 235.484 113.995 235.849C114.558 236.077 115.118 236.303 115.655 236.512C117.101 237.074 118.447 237.536 119.598 237.736C120.778 237.94 121.515 237.826 121.945 237.532C122.159 237.38 122.47 236.942 122.724 235.954C122.858 235.437 122.962 234.827 123.037 234.132C122.035 234.361 120.901 234.311 119.801 234.157C118.088 233.916 116.146 233.37 114.245 232.771C113.363 232.494 112.511 232.212 111.684 231.939C110.667 231.603 109.687 231.279 108.733 230.989C107.008 230.466 105.645 230.145 104.752 230.145C103.905 230.145 102.728 230.45 101.27 230.96C100.388 231.269 99.4828 231.622 98.5443 231.989C97.9344 232.227 97.3105 232.471 96.6698 232.711C95.0924 233.303 93.4617 233.855 91.9784 234.106C91.5277 234.182 91.0687 234.235 90.6133 234.248Z" fill="#14744E"/>
<path d="M217.635 230.853C216.109 231.234 213.767 231.725 210.879 231.616C204.614 231.398 203.034 228.674 197.913 229.055C194.48 229.328 194.371 230.581 189.305 231.398C186.09 231.943 183.421 231.888 181.568 231.725C181.95 233.196 182.386 234.394 182.767 235.32C183.148 236.247 183.421 236.737 183.857 237.227C183.857 237.227 184.565 237.99 185.654 238.371C188.596 239.515 194.589 234.067 200.528 234.939C200.909 234.994 203.034 235.865 207.392 237.554C210.716 238.862 212.078 239.461 213.494 238.862C214.911 238.262 215.674 236.791 216.382 235.266C217.308 233.523 217.526 231.888 217.635 230.853Z" fill="white"/>
<path fill-rule="evenodd" clip-rule="evenodd" d="M204.446 229.125C206.214 229.768 208.025 230.426 210.918 230.527L210.921 230.527C213.663 230.63 215.893 230.166 217.371 229.796L218.882 229.418L218.719 230.967C218.607 232.038 218.373 233.83 217.359 235.751C216.681 237.209 215.77 239.083 213.92 239.865C212.921 240.288 211.965 240.254 210.89 239.979C209.98 239.747 208.88 239.312 207.5 238.767C207.336 238.703 207.168 238.637 206.997 238.569C205.717 238.073 204.596 237.635 203.67 237.272C203.046 237.028 202.51 236.818 202.075 236.65C201.514 236.432 201.087 236.269 200.779 236.158C200.564 236.08 200.446 236.043 200.396 236.027C200.363 236.017 200.359 236.016 200.375 236.018L200.37 236.017C197.742 235.632 195.026 236.64 192.395 237.76C192.177 237.853 191.958 237.947 191.74 238.041C190.692 238.491 189.651 238.939 188.712 239.235C187.611 239.581 186.379 239.814 185.279 239.394C184.603 239.155 184.058 238.805 183.688 238.524C183.499 238.38 183.349 238.249 183.244 238.151C183.191 238.102 183.148 238.061 183.118 238.03C183.102 238.014 183.089 238.001 183.08 237.991L183.067 237.978L183.062 237.973L183.061 237.971L183.059 237.969C183.059 237.969 183.059 237.969 183.857 237.227L183.059 237.969L183.051 237.96L183.043 237.951C182.49 237.329 182.162 236.711 181.76 235.735C181.364 234.772 180.911 233.526 180.514 231.998L180.127 230.504L181.665 230.639C183.446 230.797 186.02 230.85 189.123 230.324L189.128 230.323L189.132 230.322C191.556 229.931 192.765 229.445 193.807 229.015C193.837 229.003 193.867 228.99 193.897 228.978C194.976 228.532 195.986 228.115 197.827 227.969L197.833 227.969C200.636 227.76 202.494 228.416 204.34 229.087C204.375 229.1 204.411 229.112 204.446 229.125ZM184.658 236.488C184.66 236.49 184.661 236.491 184.662 236.492C184.674 236.505 184.696 236.526 184.727 236.554C184.788 236.611 184.883 236.695 185.008 236.789C185.261 236.982 185.609 237.201 186.015 237.343L186.033 237.349L186.05 237.356C186.417 237.498 187.029 237.48 188.058 237.156C188.881 236.897 189.796 236.504 190.841 236.055C191.068 235.957 191.302 235.857 191.542 235.755C194.127 234.655 197.376 233.375 200.687 233.861C200.917 233.895 201.236 234.006 201.519 234.108C201.853 234.229 202.301 234.4 202.864 234.618C203.34 234.803 203.88 235.014 204.502 235.257C205.402 235.61 206.477 236.031 207.787 236.538L207.792 236.54C207.955 236.604 208.112 236.666 208.264 236.726C209.701 237.292 210.662 237.671 211.429 237.867C212.219 238.069 212.653 238.035 213.071 237.858C214.043 237.447 214.657 236.396 215.394 234.807L215.407 234.781L215.42 234.755C215.889 233.873 216.156 233.019 216.319 232.264C214.857 232.549 212.995 232.786 210.841 232.705C207.603 232.592 205.526 231.837 203.721 231.181C203.679 231.165 203.637 231.15 203.596 231.135C201.805 230.485 200.314 229.97 197.997 230.142C196.5 230.261 195.744 230.573 194.723 230.994C194.695 231.006 194.666 231.018 194.638 231.03C193.501 231.499 192.124 232.047 189.483 232.473C186.98 232.897 184.793 232.97 183.045 232.907C183.292 233.678 183.544 234.344 183.775 234.906C184.131 235.771 184.347 236.135 184.658 236.488Z" fill="#14744E"/>
<path d="M497.214 209.443L494.926 209.457L494.987 220.08L497.275 220.067L497.214 209.443Z" fill="#BDC0C4"/>
<path d="M510.886 213.567L509.047 212.3L503.021 221.049L504.861 222.315L510.886 213.567Z" fill="#BDC0C4"/>
<path d="M520.165 223.118L518.811 221.207L510.143 227.35L511.497 229.261L520.165 223.118Z" fill="#BDC0C4"/>
<path d="M523.515 237.914L523.498 235.734L512.874 235.815L512.891 237.994L523.515 237.914Z" fill="#BDC0C4"/>
<path d="M407.776 263.214C418.999 263.16 430.168 263.051 441.391 262.996C441.555 265.611 442.154 269.098 444.224 272.367C453.486 287.349 486.665 290.346 495.981 275.636C502.083 265.938 498.16 248.014 487.319 242.239C476.749 236.573 462.693 243.982 459.642 245.889C456.918 247.578 454.358 249.376 452.069 251.228L416.221 253.353C412.68 253.135 409.52 254.824 408.158 257.602C406.85 260.054 407.558 262.506 407.776 263.214Z" fill="#EEECED"/>
<path d="M437.033 260L436.433 248.341L410.392 248.559C410.392 248.559 410.391 248.559 410.337 248.559C408.812 248.559 407.722 251.174 407.885 254.388C408.049 257.603 409.411 260.218 410.936 260.218C410.936 260.218 410.936 260.218 410.991 260.218L437.033 260Z" fill="white"/>
<path d="M408.049 250.193C408.594 248.831 409.411 248.069 410.337 248.069L436.379 247.851C436.488 247.851 436.597 247.905 436.652 248.014C436.706 248.123 436.76 248.232 436.815 248.395L437.414 260.054C437.414 260.327 437.251 260.545 437.033 260.545L410.991 260.763C409.193 260.763 407.668 257.984 407.45 254.443C407.395 252.808 407.613 251.337 408.049 250.193ZM410.392 249.049C409.139 249.049 408.158 251.61 408.267 254.388C408.43 257.276 409.629 259.727 410.882 259.727L436.543 259.51L435.998 248.831L410.392 249.049Z" fill="#BDC0C4"/>
<path d="M436.977 260C435.452 260 434.09 257.385 433.926 254.17C433.763 250.956 434.853 248.341 436.378 248.341C437.904 248.341 439.266 250.956 439.429 254.17C439.592 257.385 438.503 260 436.977 260Z" fill="#BDC0C4"/>
<path d="M434.09 249.975C434.635 248.613 435.452 247.851 436.378 247.851C438.176 247.851 439.702 250.629 439.865 254.17C439.92 255.75 439.756 257.221 439.32 258.365C438.776 259.727 437.958 260.49 437.032 260.49C435.234 260.49 433.709 257.712 433.545 254.17C433.436 252.645 433.654 251.119 434.09 249.975ZM438.558 257.875C438.939 256.84 439.102 255.532 439.048 254.17C438.884 251.283 437.686 248.831 436.433 248.831C435.234 248.831 434.199 251.392 434.363 254.17C434.526 257.058 435.725 259.51 436.978 259.51C437.577 259.51 438.122 258.91 438.558 257.875Z" fill="#BDC0C4"/>
<path d="M444.823 257.603L444.496 250.629L437.086 250.683C436.16 250.683 435.506 252.263 435.615 254.17C435.724 256.077 436.542 257.657 437.413 257.657L444.823 257.603Z" fill="#EEECED"/>
<path d="M435.506 251.555C435.833 250.683 436.378 250.138 437.032 250.138L444.441 250.084C444.55 250.084 444.659 250.138 444.714 250.247C444.823 250.356 444.823 250.465 444.877 250.629L445.204 257.548C445.204 257.82 445.041 258.038 444.823 258.038L437.413 258.093C436.269 258.093 435.234 256.349 435.125 254.116C435.125 253.189 435.234 252.263 435.506 251.555ZM444.06 251.174L437.032 251.228C436.705 251.228 436.433 251.555 436.215 252.1C435.997 252.645 435.888 253.407 435.942 254.225C436.051 255.968 436.759 257.167 437.304 257.167L444.332 257.112L444.06 251.174Z" fill="#EEECED"/>
<path d="M498.432 272.913C504.261 268.282 506.985 262.398 506.658 256.678C506.658 256.514 506.114 248.233 505.95 247.852C507.04 254.226 504.425 260.873 497.941 266.103C486.119 275.528 465.907 276.454 452.831 268.064C446.184 263.815 442.643 257.931 442.316 251.992C442.262 252.373 442.262 252.864 442.316 253.463C442.316 253.627 442.861 259.402 442.861 259.565C443.406 265.286 446.893 270.788 453.321 274.874C466.397 283.264 486.609 282.338 498.432 272.913Z" fill="#EEECED"/>
<path d="M441.99 251.719C442.044 251.556 442.208 251.447 442.371 251.447C442.589 251.502 442.752 251.665 442.752 251.937C443.025 257.985 446.675 263.542 452.995 267.573C465.907 275.855 485.956 274.983 497.669 265.612C500.993 262.943 503.335 259.892 504.643 256.514C505.515 254.335 505.842 252.046 505.733 249.758C505.678 249.268 505.678 248.886 505.624 248.56C505.569 248.342 505.569 248.124 505.515 247.906C505.46 247.688 505.569 247.415 505.733 247.361C505.896 247.306 506.114 247.361 506.223 247.579C506.277 247.688 506.332 247.797 506.386 248.505C506.441 248.941 506.495 249.322 506.495 249.758C506.713 252.319 506.986 256.514 506.986 256.677C507.095 259.129 506.713 261.526 505.842 263.869C504.48 267.41 502.028 270.624 498.596 273.348C486.664 282.883 466.288 283.754 453.104 275.31C446.784 271.278 443.025 265.667 442.426 259.565C442.426 259.51 441.881 253.626 441.881 253.408C441.826 252.755 441.826 252.21 441.881 251.774C441.935 251.774 441.935 251.774 441.99 251.719ZM505.406 257.004C504.044 260.545 501.592 263.76 498.16 266.484C486.228 276.018 465.852 276.89 452.668 268.445C447.983 265.449 444.714 261.635 443.079 257.385C443.188 258.475 443.243 259.401 443.297 259.456C443.842 265.231 447.492 270.515 453.485 274.384C466.397 282.665 486.446 281.793 498.16 272.422C501.483 269.753 503.826 266.702 505.133 263.324C505.951 261.145 506.332 258.856 506.223 256.623C506.223 256.568 506.168 255.751 506.114 254.716C505.951 255.533 505.678 256.296 505.406 257.004Z" fill="#BDC0C4"/>
<path d="M474.612 273.901C492.242 273.627 506.376 263.185 506.179 250.579C505.983 237.973 491.532 227.976 473.901 228.251C456.271 228.525 442.138 238.967 442.334 251.573C442.53 264.179 456.982 274.176 474.612 273.901Z" fill="white"/>
<path d="M443.135 244.963C444.497 241.422 446.948 238.207 450.381 235.483C462.312 225.949 482.688 225.077 495.873 233.522C505.08 239.406 508.785 248.504 505.407 257.167C504.045 260.708 501.593 263.922 498.161 266.646C486.229 276.181 465.853 277.052 452.669 268.608C443.462 262.669 439.757 253.625 443.135 244.963ZM504.644 256.676C507.749 248.559 504.263 240.005 495.491 234.394C482.579 226.112 462.53 226.984 450.817 236.355C447.493 239.025 445.151 242.075 443.843 245.453C440.738 253.571 444.224 262.125 452.996 267.736C465.908 276.017 485.957 275.146 497.67 265.775C501.048 263.105 503.391 260.054 504.644 256.676Z" fill="#BDC0C4"/>
<path d="M457.462 244.582C465.962 237.772 480.454 237.173 489.879 243.165C493.692 245.617 496.035 248.777 496.961 252.1C497.125 247.469 494.619 242.839 489.443 239.515C480.018 233.522 465.526 234.122 457.027 240.932C451.96 244.963 450.217 250.248 451.579 255.151C451.688 251.392 453.649 247.633 457.462 244.582Z" fill="#EEECED"/>
<path d="M449.291 246.107C450.381 243.274 452.342 240.714 455.121 238.48C464.655 230.853 481.054 230.144 491.623 236.9C498.924 241.585 501.975 249.049 499.305 255.968C498.215 258.801 496.254 261.362 493.475 263.596C483.941 271.223 467.542 271.931 456.973 265.176C449.618 260.49 446.622 253.026 449.291 246.107ZM498.542 255.478C501.048 249.049 498.215 242.239 491.242 237.772C480.89 231.179 464.927 231.833 455.557 239.297C452.887 241.422 451.035 243.819 450 246.543C447.493 252.972 450.326 259.782 457.3 264.249C467.651 270.842 483.614 270.133 492.985 262.724C495.6 260.599 497.507 258.202 498.542 255.478Z" fill="#BDC0C4"/>
<path d="M307.149 352.782L388.599 307.944C392.14 305.982 392.194 305.002 387.945 302.822L329.65 272.694C325.4 270.515 324.474 270.733 320.879 272.64L239.811 317.206C236.269 319.167 236.76 321.019 240.955 323.198L297.724 352.673C301.974 354.852 303.554 354.743 307.149 352.782Z" fill="#EEECED"/>
<path d="M306.985 351.146L341.526 330.062L343.433 330.171C344.305 330.226 345.177 330.008 345.939 329.626L348.337 328.319C348.881 327.992 349.372 327.611 349.699 327.12L351.551 324.56L387.672 306.69C391.213 304.783 391.213 303.748 387.018 301.569L329.214 271.713C325.019 269.534 324.092 269.752 320.551 271.658L240.191 315.843C236.65 317.75 237.141 319.602 241.336 321.781L297.615 350.983C301.919 353.217 303.499 353.108 306.985 351.146Z" fill="#EEECED"/>
<path d="M302.682 352.999C301.265 352.999 299.849 352.563 297.56 351.364L241.281 322.162C238.775 320.855 237.631 319.711 237.577 318.512C237.522 317.477 238.394 316.551 240.083 315.625L320.442 271.44C322.186 270.514 323.384 269.86 324.746 269.86C326.108 269.86 327.525 270.46 329.486 271.44L387.291 301.296C389.742 302.549 390.669 303.421 390.723 304.292C390.723 305.273 389.633 306.09 387.945 307.016L351.878 324.832L350.08 327.283C349.699 327.828 349.154 328.264 348.555 328.591L346.158 329.899C345.34 330.334 344.414 330.552 343.433 330.498L341.69 330.389L307.204 351.364C305.515 352.399 304.153 352.944 302.682 352.999ZM324.746 270.514C323.657 270.514 322.676 270.95 320.824 271.985L240.464 316.169C238.993 316.987 238.285 317.749 238.285 318.457C238.285 319.329 239.429 320.364 241.608 321.454L297.887 350.656C300.066 351.8 301.374 352.236 302.627 352.236C303.935 352.236 305.188 351.691 306.768 350.819L341.309 329.79C341.363 329.735 341.472 329.735 341.527 329.735L343.433 329.844C344.251 329.899 345.068 329.681 345.722 329.299L348.119 327.992C348.609 327.719 349.045 327.338 349.372 326.902L351.224 324.341C351.279 324.287 351.279 324.232 351.333 324.232L387.454 306.363C389.089 305.437 389.851 304.837 389.851 304.292C389.851 303.693 388.925 302.985 386.855 301.895L329.05 272.04C326.926 270.895 325.782 270.514 324.746 270.514Z" fill="#BDC0C4"/>
<path d="M345.775 326.358L346.974 325.541C351.605 322.381 356.399 319.494 361.466 316.879L388.87 302.659L325.399 269.752L282.359 293.452L345.775 326.358Z" fill="white"/>
<path d="M345.776 326.74C345.721 326.74 345.667 326.74 345.558 326.685L282.087 293.779C281.978 293.724 281.869 293.615 281.869 293.452C281.869 293.343 281.924 293.179 282.033 293.125L325.073 269.426C325.182 269.371 325.345 269.371 325.454 269.426L388.925 302.332C389.034 302.387 389.142 302.496 389.142 302.659C389.142 302.768 389.088 302.932 388.925 302.986L361.521 317.206C356.508 319.766 351.659 322.708 347.083 325.868L345.884 326.685C345.939 326.685 345.884 326.74 345.776 326.74ZM283.068 293.452L345.721 325.923L346.702 325.214C351.333 322.054 356.181 319.112 361.194 316.497L387.998 302.605L325.345 270.134L283.068 293.452Z" fill="#BDC0C4"/>
<path d="M302.627 350.058L345.722 326.358L282.251 293.452L239.211 316.661V317.151L302.627 350.058Z" fill="white"/>
<path d="M302.627 350.439C302.573 350.439 302.518 350.439 302.409 350.384L238.993 317.478C238.884 317.423 238.775 317.314 238.775 317.151V316.661C238.775 316.552 238.83 316.388 238.939 316.334L281.979 293.125C282.088 293.07 282.251 293.07 282.36 293.125L345.831 326.031C345.94 326.086 346.049 326.195 346.049 326.358C346.049 326.467 345.994 326.631 345.885 326.685L302.791 350.384C302.791 350.384 302.682 350.439 302.627 350.439ZM239.593 316.988L302.627 349.676L344.959 326.413L282.251 293.888L239.593 316.879V316.988Z" fill="#BDC0C4"/>
<path d="M302.517 346.898L317.5 337.908C325.345 333.223 333.844 329.627 342.833 327.176L345.721 326.413L282.25 293.506L239.047 314.046L302.517 346.898Z" fill="white"/>
<path d="M302.572 347.225C302.518 347.225 302.463 347.225 302.354 347.17L238.884 314.318C238.775 314.264 238.666 314.155 238.666 313.991C238.666 313.882 238.721 313.719 238.884 313.664L282.087 293.125C282.196 293.07 282.36 293.07 282.469 293.125L345.939 326.031C346.048 326.086 346.157 326.249 346.157 326.358C346.157 326.522 346.048 326.631 345.885 326.685L342.997 327.448C334.062 329.9 325.563 333.495 317.773 338.126L302.79 347.116C302.681 347.225 302.627 347.225 302.572 347.225ZM239.865 313.991L302.518 346.462L317.282 337.581C325.128 332.896 333.681 329.246 342.671 326.794L344.686 326.249L282.196 293.833L239.865 313.991Z" fill="#BDC0C4"/>
<path d="M303.607 344.61L319.516 333.168C325.836 328.483 333.79 326.031 341.962 326.249L345.721 326.358L282.251 293.452C273.261 292.417 264.217 294.705 257.189 299.826L240.137 311.703L303.607 344.61Z" fill="white"/>
<path d="M303.608 344.936C303.553 344.936 303.499 344.936 303.39 344.881L239.974 312.029C239.865 311.975 239.81 311.866 239.756 311.757C239.756 311.648 239.81 311.539 239.919 311.43L256.972 299.553C264.054 294.432 273.316 292.089 282.306 293.124C282.36 293.124 282.415 293.124 282.469 293.179L345.94 326.085C346.103 326.14 346.158 326.358 346.103 326.467C346.049 326.63 345.94 326.739 345.722 326.739L341.962 326.63C333.899 326.358 325.945 328.81 319.789 333.44L303.88 344.881C303.771 344.936 303.717 344.936 303.608 344.936ZM240.845 311.648L303.553 344.173L319.244 332.896C325.564 328.156 333.681 325.65 341.962 325.922L344.196 325.977L282.142 293.833C273.371 292.852 264.327 295.14 257.408 300.152L240.845 311.648Z" fill="#BDC0C4"/>
<path d="M249.618 312.683C249.509 312.683 249.4 312.629 249.291 312.52C249.182 312.357 249.182 312.139 249.345 312.03L262.039 303.204C268.087 298.845 275.987 296.72 283.723 297.483C283.941 297.483 284.104 297.701 284.05 297.865C284.05 298.083 283.832 298.191 283.614 298.191C276.095 297.483 268.414 299.499 262.475 303.803L249.781 312.629C249.781 312.683 249.672 312.683 249.618 312.683Z" fill="#BDC0C4"/>
<path d="M253.213 314.536C253.104 314.536 252.995 314.481 252.886 314.373C252.778 314.209 252.778 313.991 252.941 313.882L265.635 305.056C271.682 300.698 279.582 298.573 287.319 299.336C287.536 299.336 287.7 299.554 287.645 299.717C287.645 299.935 287.428 300.044 287.21 300.044C279.691 299.445 272.009 301.352 266.071 305.656L253.377 314.482C253.377 314.536 253.322 314.536 253.213 314.536Z" fill="#BDC0C4"/>
<path d="M256.864 316.443C256.755 316.443 256.646 316.389 256.537 316.28C256.428 316.116 256.428 315.898 256.591 315.789L269.285 306.963C275.333 302.605 283.233 300.48 290.969 301.243C291.187 301.243 291.35 301.461 291.296 301.624C291.296 301.842 291.078 301.951 290.86 301.951C283.342 301.352 275.66 303.259 269.721 307.563L257.027 316.389C257.027 316.389 256.918 316.443 256.864 316.443Z" fill="#BDC0C4"/>
<path d="M260.459 318.295C260.35 318.295 260.242 318.241 260.133 318.132C260.024 317.968 260.024 317.75 260.187 317.641L272.881 308.816C278.929 304.457 286.828 302.332 294.565 303.095C294.783 303.095 294.946 303.313 294.892 303.476C294.892 303.694 294.674 303.803 294.456 303.803C286.937 303.149 279.255 305.111 273.317 309.415L260.623 318.241C260.623 318.241 260.568 318.295 260.459 318.295Z" fill="#BDC0C4"/>
<path d="M264.11 320.148C264.001 320.148 263.892 320.093 263.783 319.984C263.674 319.821 263.674 319.603 263.837 319.494L276.532 310.668C282.579 306.31 290.479 304.185 298.215 304.948C298.433 304.948 298.596 305.165 298.542 305.329C298.542 305.547 298.324 305.656 298.106 305.656C290.588 305.002 282.906 306.963 276.967 311.267L264.273 320.093C264.273 320.093 264.164 320.148 264.11 320.148Z" fill="#BDC0C4"/>
<path d="M267.706 322C267.597 322 267.488 321.945 267.379 321.836C267.27 321.673 267.27 321.455 267.433 321.346L280.127 312.52C286.175 308.162 294.074 306.037 301.811 306.8C302.029 306.8 302.192 307.018 302.138 307.181C302.138 307.399 301.92 307.508 301.702 307.508C294.183 306.854 286.502 308.815 280.563 313.119L267.869 321.945C267.869 322 267.815 322 267.706 322Z" fill="#BDC0C4"/>
<path d="M271.356 323.852C271.247 323.852 271.138 323.798 271.029 323.689C270.92 323.525 270.92 323.308 271.084 323.199L283.778 314.373C289.825 310.014 297.725 307.889 305.461 308.652C305.679 308.652 305.843 308.87 305.788 309.034C305.788 309.251 305.57 309.36 305.352 309.36C297.834 308.707 290.152 310.668 284.214 314.972L271.519 323.798C271.519 323.852 271.41 323.852 271.356 323.852Z" fill="#BDC0C4"/>
<path d="M275.006 325.705C274.897 325.705 274.788 325.65 274.679 325.541C274.57 325.378 274.57 325.16 274.734 325.051L287.428 316.225C293.475 311.867 301.375 309.742 309.112 310.505C309.329 310.505 309.493 310.723 309.438 310.886C309.438 311.104 309.22 311.213 309.003 311.213C301.484 310.559 293.802 312.52 287.864 316.824L275.17 325.65C275.115 325.705 275.061 325.705 275.006 325.705Z" fill="#BDC0C4"/>
<path d="M278.602 327.557C278.493 327.557 278.384 327.502 278.275 327.394C278.166 327.23 278.166 327.012 278.33 326.903L291.024 318.077C297.071 313.719 304.971 311.594 312.707 312.357C312.925 312.357 313.089 312.575 313.034 312.738C313.034 312.956 312.816 313.065 312.598 313.065C305.08 312.411 297.398 314.373 291.46 318.677L278.765 327.502C278.765 327.557 278.711 327.557 278.602 327.557Z" fill="#BDC0C4"/>
<path d="M282.252 329.464C282.143 329.464 282.035 329.409 281.926 329.3C281.817 329.137 281.817 328.919 281.98 328.81L294.674 319.984C300.722 315.626 308.621 313.501 316.358 314.263C316.576 314.263 316.739 314.481 316.685 314.645C316.685 314.863 316.467 314.972 316.249 314.972C308.73 314.318 301.048 316.279 295.11 320.583L282.416 329.409C282.416 329.409 282.307 329.464 282.252 329.464Z" fill="#BDC0C4"/>
<path d="M285.848 331.316C285.739 331.316 285.63 331.262 285.521 331.153C285.412 330.989 285.412 330.771 285.576 330.662L298.27 321.837C304.317 317.478 312.217 315.353 319.953 316.116C320.171 316.116 320.335 316.334 320.28 316.497C320.28 316.715 320.062 316.824 319.844 316.824C312.326 316.17 304.644 318.132 298.706 322.436L286.012 331.262C286.012 331.262 285.957 331.316 285.848 331.316Z" fill="#BDC0C4"/>
<path d="M289.499 333.168C289.39 333.168 289.281 333.114 289.172 333.005C289.063 332.841 289.063 332.624 289.226 332.515L301.92 323.689C307.968 319.33 315.867 317.205 323.604 317.968C323.822 317.968 323.985 318.186 323.931 318.349C323.931 318.567 323.713 318.676 323.495 318.676C315.976 318.023 308.295 319.984 302.356 324.288L289.662 333.114C289.662 333.114 289.553 333.168 289.499 333.168Z" fill="#BDC0C4"/>
<path d="M293.094 335.021C292.985 335.021 292.876 334.966 292.767 334.857C292.658 334.694 292.658 334.476 292.822 334.367L305.516 325.541C311.563 321.183 319.463 319.058 327.199 319.821C327.417 319.821 327.581 320.039 327.526 320.202C327.526 320.42 327.308 320.529 327.09 320.529C319.572 319.875 311.89 321.836 305.952 326.14L293.258 334.966C293.258 335.021 293.203 335.021 293.094 335.021Z" fill="#BDC0C4"/>
<path d="M296.745 336.873C296.636 336.873 296.527 336.818 296.418 336.709C296.309 336.546 296.309 336.328 296.472 336.219L309.166 327.393C315.214 323.035 323.113 320.91 330.85 321.673C331.068 321.673 331.231 321.891 331.177 322.054C331.177 322.272 330.959 322.381 330.741 322.381C323.222 321.673 315.541 323.688 309.602 327.992L296.908 336.818C296.908 336.873 296.799 336.873 296.745 336.873Z" fill="#BDC0C4"/>
<path d="M323.221 268.118L317.501 269.644C303.009 273.512 290.533 281.956 282.143 293.452L345.613 326.304L346.158 325.596C354.657 314.318 367.079 306.092 381.462 302.332L386.746 300.97L323.221 268.118Z" fill="white"/>
<path d="M345.614 326.685C345.559 326.685 345.505 326.685 345.396 326.631L281.925 293.779C281.816 293.724 281.762 293.67 281.762 293.561C281.762 293.452 281.762 293.343 281.816 293.289C290.261 281.739 302.9 273.239 317.392 269.371L323.113 267.846C323.222 267.791 323.331 267.846 323.385 267.9L386.856 300.752C387.019 300.807 387.074 300.97 387.074 301.079C387.074 301.243 386.965 301.352 386.801 301.352L381.517 302.714C367.297 306.418 354.821 314.645 346.431 325.814L345.886 326.522C345.832 326.631 345.723 326.685 345.614 326.685ZM282.688 293.343L345.505 325.868L345.832 325.378C354.331 314.046 366.97 305.765 381.353 302.005L385.712 300.861L323.167 268.5L317.61 270.025C303.391 273.839 291.024 282.12 282.688 293.343Z" fill="#BDC0C4"/>
<path d="M290.695 293.888C290.586 293.888 290.532 293.888 290.477 293.833C290.314 293.724 290.259 293.506 290.423 293.343C298.05 284.081 308.892 277.216 320.987 274.002L325.236 272.858C325.454 272.803 325.672 272.912 325.727 273.076C325.781 273.239 325.672 273.457 325.454 273.512L321.205 274.656C309.273 277.87 298.541 284.68 291.022 293.779C290.968 293.833 290.804 293.888 290.695 293.888Z" fill="#BDC0C4"/>
<path d="M294.346 295.794C294.237 295.794 294.182 295.794 294.128 295.74C293.964 295.631 293.91 295.413 294.073 295.25C301.701 285.988 312.542 279.123 324.637 275.909L328.887 274.765C329.105 274.71 329.323 274.819 329.377 274.983C329.432 275.146 329.323 275.364 329.105 275.418L324.855 276.563C312.924 279.777 302.191 286.587 294.673 295.685C294.564 295.74 294.455 295.794 294.346 295.794Z" fill="#BDC0C4"/>
<path d="M297.941 297.647C297.832 297.647 297.778 297.647 297.723 297.592C297.56 297.484 297.506 297.266 297.669 297.102C305.296 287.84 316.138 280.976 328.233 277.761L332.482 276.617C332.7 276.563 332.918 276.672 332.973 276.835C333.027 276.999 332.918 277.216 332.7 277.271L328.451 278.415C316.519 281.629 305.787 288.44 298.268 297.538C298.159 297.592 298.05 297.647 297.941 297.647Z" fill="#BDC0C4"/>
<path d="M301.537 299.499C301.428 299.499 301.374 299.499 301.319 299.444C301.156 299.335 301.101 299.118 301.265 298.954C308.892 289.692 319.734 282.828 331.829 279.613L336.078 278.469C336.296 278.415 336.514 278.524 336.568 278.687C336.623 278.851 336.514 279.069 336.296 279.123L332.047 280.267C320.115 283.482 309.382 290.292 301.864 299.39C301.755 299.444 301.646 299.499 301.537 299.499Z" fill="#BDC0C4"/>
<path d="M305.133 301.351C305.024 301.351 304.969 301.352 304.915 301.297C304.751 301.188 304.697 300.97 304.86 300.807C312.488 291.545 323.33 284.68 335.424 281.466L339.674 280.322C339.892 280.267 340.11 280.376 340.164 280.54C340.219 280.703 340.11 280.921 339.892 280.976L335.642 282.12C323.711 285.334 312.978 292.144 305.46 301.243C305.351 301.297 305.242 301.351 305.133 301.351Z" fill="#BDC0C4"/>
<path d="M308.729 303.204C308.62 303.204 308.565 303.204 308.511 303.149C308.347 303.04 308.293 302.822 308.456 302.659C316.083 293.397 326.925 286.532 339.02 283.318L343.27 282.174C343.487 282.119 343.705 282.228 343.76 282.392C343.814 282.555 343.705 282.773 343.487 282.828L339.238 283.972C327.307 287.186 316.574 293.996 309.055 303.095C309.001 303.149 308.892 303.204 308.729 303.204Z" fill="#BDC0C4"/>
<path d="M312.379 305.11C312.27 305.11 312.215 305.11 312.161 305.056C311.998 304.947 311.943 304.729 312.107 304.565C319.734 295.304 330.576 288.439 342.67 285.225L346.92 284.081C347.138 284.026 347.356 284.135 347.41 284.299C347.465 284.462 347.356 284.68 347.138 284.734L342.888 285.878C330.957 289.093 320.224 295.903 312.706 305.001C312.597 305.056 312.488 305.11 312.379 305.11Z" fill="#BDC0C4"/>
<path d="M315.975 306.963C315.866 306.963 315.811 306.963 315.757 306.908C315.593 306.799 315.539 306.581 315.702 306.418C323.33 297.156 334.171 290.292 346.266 287.077L350.516 285.933C350.734 285.879 350.951 285.988 351.006 286.151C351.06 286.314 350.951 286.532 350.734 286.587L346.484 287.731C334.553 290.945 323.82 297.756 316.301 306.854C316.193 306.908 316.084 306.963 315.975 306.963Z" fill="#BDC0C4"/>
<path d="M319.57 308.815C319.461 308.815 319.407 308.815 319.352 308.761C319.189 308.652 319.134 308.434 319.298 308.271C326.925 299.009 337.767 292.144 349.862 288.93L354.111 287.786C354.329 287.731 354.547 287.84 354.602 288.004C354.656 288.167 354.547 288.385 354.329 288.439L350.08 289.583C338.148 292.798 327.416 299.608 319.897 308.706C319.788 308.761 319.679 308.815 319.57 308.815Z" fill="#BDC0C4"/>
<path d="M323.166 310.667C323.057 310.667 323.003 310.667 322.948 310.613C322.785 310.504 322.73 310.286 322.894 310.123C330.521 300.861 341.363 293.996 353.458 290.782L357.707 289.638C357.925 289.583 358.143 289.692 358.197 289.856C358.252 290.019 358.143 290.237 357.925 290.292L353.675 291.436C341.744 294.65 331.011 301.46 323.493 310.558C323.384 310.613 323.275 310.667 323.166 310.667Z" fill="#BDC0C4"/>
<path d="M326.762 312.52C326.653 312.52 326.598 312.52 326.544 312.465C326.38 312.357 326.326 312.139 326.489 311.975C334.117 302.713 344.958 295.849 357.053 292.634L361.303 291.49C361.521 291.436 361.739 291.545 361.793 291.708C361.848 291.872 361.739 292.09 361.521 292.144L357.271 293.288C345.34 296.503 334.607 303.313 327.089 312.411C327.034 312.465 326.925 312.52 326.762 312.52Z" fill="#BDC0C4"/>
<path d="M330.412 314.427C330.303 314.427 330.249 314.427 330.194 314.372C330.031 314.263 329.976 314.045 330.14 313.882C337.767 304.62 348.609 297.755 360.704 294.541L364.953 293.397C365.171 293.343 365.389 293.451 365.443 293.615C365.498 293.778 365.389 293.996 365.171 294.051L360.922 295.195C348.99 298.409 338.257 305.219 330.739 314.318C330.63 314.372 330.521 314.427 330.412 314.427Z" fill="#BDC0C4"/>
<path d="M334.008 316.279C333.899 316.279 333.844 316.279 333.79 316.224C333.626 316.115 333.572 315.897 333.735 315.734C341.363 306.472 352.205 299.608 364.299 296.393L368.549 295.249C368.767 295.195 368.985 295.304 369.039 295.467C369.094 295.63 368.985 295.848 368.767 295.903L364.517 297.047C352.586 300.261 341.853 307.071 334.335 316.17C334.226 316.224 334.117 316.279 334.008 316.279Z" fill="#BDC0C4"/>
<path d="M337.604 318.131C337.495 318.131 337.44 318.131 337.386 318.077C337.222 317.968 337.168 317.75 337.331 317.586C344.958 308.325 355.8 301.46 367.895 298.246L372.145 297.102C372.362 297.047 372.58 297.156 372.635 297.32C372.689 297.483 372.58 297.701 372.362 297.755L368.113 298.899C356.182 302.114 345.449 308.87 337.93 318.022C337.821 318.077 337.712 318.131 337.604 318.131Z" fill="#BDC0C4"/>
<path fill-rule="evenodd" clip-rule="evenodd" d="M174.458 43.4887C172.354 43.3269 170.105 43.2203 167.811 43.2737L167.807 43.2738C157.025 43.4883 147.846 46.1708 140.969 49.0723C140.414 49.3062 139.775 49.0463 139.541 48.4918C139.307 47.9374 139.567 47.2983 140.121 47.0644C147.191 44.082 156.644 41.3165 167.762 41.095C170.153 41.0395 172.479 41.1508 174.625 41.3159C175.225 41.362 175.674 41.8859 175.628 42.4859C175.581 43.0859 175.058 43.5349 174.458 43.4887Z" fill="#14744E"/>
<path d="M427.716 193.152C427.39 193.098 427.117 192.825 427.117 192.498L427.335 189.72C427.39 189.393 427.662 189.121 427.989 189.121C428.316 189.175 428.588 189.447 428.588 189.774L428.37 192.553C428.37 192.934 428.043 193.152 427.716 193.152Z" fill="#BDC0C4"/>
<path d="M425.864 190.973C425.919 190.646 426.191 190.374 426.518 190.374L429.297 190.591C429.624 190.646 429.896 190.918 429.896 191.245C429.841 191.572 429.569 191.845 429.242 191.845L426.464 191.627C426.082 191.627 425.81 191.3 425.864 190.973Z" fill="#BDC0C4"/>
<path d="M362.174 212.22C361.684 212.166 361.303 211.73 361.303 211.24L361.63 207.099C361.684 206.609 362.12 206.228 362.61 206.228C363.101 206.282 363.482 206.718 363.482 207.208L363.155 211.349C363.155 211.894 362.719 212.275 362.174 212.22Z" fill="#BDC0C4"/>
<path d="M359.45 209.006C359.505 208.516 359.941 208.134 360.431 208.134L364.572 208.461C365.062 208.516 365.443 208.952 365.443 209.442C365.389 209.932 364.953 210.314 364.463 210.314L360.322 209.987C359.777 209.932 359.396 209.496 359.45 209.006Z" fill="#BDC0C4"/>
<path d="M280.889 282.665C280.508 282.61 280.236 282.283 280.29 281.902L280.617 278.851C280.671 278.47 280.998 278.197 281.38 278.252C281.761 278.306 282.034 278.633 281.979 279.014L281.652 282.065C281.598 282.392 281.271 282.665 280.889 282.665Z" fill="#BDC0C4"/>
<path d="M278.929 280.213C278.983 279.831 279.31 279.559 279.692 279.613L282.742 279.94C283.124 279.995 283.396 280.322 283.342 280.703C283.287 281.084 282.96 281.357 282.579 281.302L279.528 280.975C279.147 280.921 278.874 280.594 278.929 280.213Z" fill="#BDC0C4"/>
<path d="M395.008 169.091L396.572 169.861L400.155 162.577L398.591 161.807L395.008 169.091Z" fill="#BDC0C4"/>
<path d="M387.099 161.552L387.916 163.03L395.021 159.105L394.205 157.627L387.099 161.552Z" fill="#BDC0C4"/>
<path d="M383.934 151.897L384.209 153.674L392.231 152.432L391.956 150.655L383.934 151.897Z" fill="#BDC0C4"/>
<path d="M386.688 140.685L385.969 142.153L393.259 145.723L393.978 144.255L386.688 140.685Z" fill="#BDC0C4"/>
<path d="M432.401 171.36L437.468 167.492L401.728 151.093C400.475 150.494 400.639 148.478 402.001 147.388L452.45 108.925L520.878 140.034C522.458 140.742 523.33 142.54 523.112 144.61L522.894 146.517C522.731 148.315 521.696 150.058 520.17 151.202L470.429 189.176C468.686 190.538 466.615 190.864 465.035 190.156L432.074 175.01C430.876 174.466 430.985 172.45 432.401 171.36Z" fill="#EEECED"/>
<path fill-rule="evenodd" clip-rule="evenodd" d="M451.789 108.058C452.108 107.815 452.535 107.767 452.9 107.933L521.323 139.039C521.324 139.039 521.325 139.04 521.326 139.04C523.441 139.99 524.449 142.315 524.195 144.724L524.194 144.733L523.978 146.628C523.78 148.758 522.568 150.764 520.827 152.071C520.826 152.072 520.825 152.073 520.823 152.074L471.099 190.034C471.097 190.035 471.096 190.036 471.094 190.038C469.107 191.588 466.613 192.058 464.589 191.15L464.58 191.146L431.623 176.002C431.622 176.002 431.621 176.001 431.62 176.001C430.478 175.481 430.093 174.311 430.17 173.306C430.248 172.286 430.785 171.228 431.736 170.496L431.739 170.494L435.365 167.726L401.273 152.083L401.257 152.076C400.111 151.528 399.719 150.364 399.797 149.342C399.874 148.32 400.407 147.268 401.319 146.537C401.326 146.532 401.333 146.527 401.339 146.522L451.789 108.058ZM452.592 110.186L402.672 148.246C402.228 148.605 402.001 149.101 401.97 149.507C401.939 149.908 402.086 150.054 402.193 150.108L437.922 166.501C438.269 166.661 438.508 166.991 438.55 167.371C438.592 167.751 438.432 168.126 438.128 168.358L433.065 172.224C433.064 172.224 433.064 172.224 433.064 172.225C432.598 172.583 432.373 173.076 432.343 173.473C432.311 173.883 432.47 173.994 432.524 174.018L432.528 174.02L465.48 189.162C465.482 189.162 465.483 189.163 465.485 189.164C466.618 189.669 468.261 189.486 469.757 188.317L469.767 188.309L519.508 150.336L519.516 150.33C520.821 149.352 521.676 147.877 521.808 146.418C521.809 146.41 521.81 146.401 521.811 146.393L522.028 144.496C522.028 144.494 522.028 144.493 522.028 144.491C522.209 142.763 521.474 141.495 520.432 141.028L520.427 141.025L452.592 110.186Z" fill="#BDC0C4"/>
<path d="M523.167 141.341C523.657 142.267 523.821 143.357 523.712 144.501L523.494 146.408C523.276 148.424 522.132 150.385 520.443 151.693L470.702 189.666C468.74 191.137 466.452 191.573 464.709 190.756L431.748 175.61C431.366 175.446 431.094 175.174 430.876 174.793C430.277 173.594 430.821 171.851 432.129 170.815L436.27 167.656L401.402 151.638C401.02 151.475 400.748 151.202 400.53 150.821C399.931 149.622 400.475 147.879 401.783 146.844L452.232 108.326C452.45 108.162 452.668 108.162 452.832 108.217L521.26 139.325C522.023 139.816 522.731 140.469 523.167 141.341ZM431.966 174.03C432.074 174.248 432.238 174.357 432.456 174.466L465.417 189.611C466.833 190.265 468.686 189.938 470.211 188.74L519.953 150.766C521.26 149.731 522.186 148.206 522.35 146.626L522.568 144.719C522.731 142.921 521.968 141.287 520.552 140.687L452.396 109.688L402.273 147.933C401.238 148.751 401.293 150.167 402.055 150.494L437.795 166.893C437.958 166.947 438.067 167.165 438.067 167.383C438.067 167.601 437.904 167.819 437.741 167.982L432.674 171.851C431.857 172.45 431.693 173.431 431.966 174.03Z" fill="#BDC0C4"/>
<path d="M445.257 110.068L522.185 145.427L478.763 178.606L401.836 143.247L445.257 110.068Z" fill="white"/>
<path d="M522.729 144.991C522.784 145.1 522.784 145.154 522.784 145.318C522.784 145.536 522.62 145.754 522.457 145.917L479.035 179.096C478.817 179.259 478.6 179.259 478.436 179.205L401.509 143.847C401.345 143.792 401.236 143.574 401.236 143.356C401.236 143.138 401.4 142.921 401.563 142.757L444.985 109.578C445.203 109.415 445.421 109.415 445.584 109.469L522.511 144.827C522.62 144.882 522.729 144.936 522.729 144.991ZM478.817 177.843L521.04 145.645L445.257 110.831L403.034 143.029L478.817 177.843Z" fill="#BDC0C4"/>
<path d="M449.672 107.508L520.879 140.197C522.35 140.905 523.221 142.485 523.112 144.392L523.058 144.991L523.003 144.446C522.894 143.084 521.532 142.648 520.334 143.52L485.902 169.78C484.158 171.142 482.088 171.469 480.508 170.761L408.974 137.908C407.721 137.309 407.885 135.293 409.247 134.204L442.589 108.761C444.932 107.018 447.601 106.527 449.672 107.508Z" fill="#EEECED"/>
<path fill-rule="evenodd" clip-rule="evenodd" d="M443.244 109.631L409.918 135.061C409.474 135.42 409.247 135.917 409.216 136.322C409.185 136.724 409.332 136.87 409.439 136.923L480.953 169.766C480.954 169.767 480.956 169.767 480.957 169.768C482.091 170.274 483.734 170.09 485.23 168.921L485.24 168.913L519.672 142.653C519.679 142.648 519.686 142.643 519.692 142.639C520.207 142.264 520.795 142.031 521.387 141.986C521.123 141.637 520.791 141.365 520.413 141.182L449.217 108.498L449.205 108.492C447.612 107.738 445.375 108.047 443.244 109.631ZM450.131 106.52C447.586 105.318 444.489 105.988 441.938 107.887L441.928 107.895L408.585 133.337C408.578 133.342 408.572 133.347 408.565 133.353C407.653 134.083 407.121 135.135 407.043 136.157C406.965 137.18 407.357 138.343 408.504 138.891L408.519 138.898L480.053 171.751L480.062 171.755C482.086 172.662 484.579 172.193 486.567 170.642C486.569 170.641 486.57 170.64 486.572 170.638L520.983 144.395C521.359 144.124 521.631 144.145 521.728 144.177C521.775 144.193 521.807 144.217 521.832 144.252C521.858 144.288 521.904 144.37 521.917 144.533C521.917 144.54 521.918 144.547 521.918 144.554L521.973 145.099C522.029 145.658 522.5 146.083 523.062 146.08C523.624 146.078 524.091 145.649 524.142 145.089L524.197 144.49C524.198 144.478 524.199 144.466 524.199 144.454C524.33 142.177 523.279 140.143 521.351 139.215C521.345 139.212 521.339 139.209 521.333 139.206L450.138 106.523C450.135 106.522 450.133 106.521 450.131 106.52Z" fill="#BDC0C4"/>
<path d="M523.167 141.45C523.603 142.267 523.766 143.193 523.712 144.228L523.657 144.827C523.657 145.154 523.385 145.481 523.058 145.59C522.731 145.699 522.459 145.481 522.459 145.154L522.404 144.609C522.35 143.738 521.369 143.411 520.606 144.01L486.174 170.27C484.213 171.741 481.925 172.177 480.181 171.36L408.648 138.508C408.266 138.344 407.994 138.072 407.776 137.69C407.177 136.492 407.722 134.748 409.029 133.768L442.371 108.325C444.823 106.473 447.711 105.928 449.944 106.963L521.151 139.652C522.023 139.979 522.731 140.632 523.167 141.45ZM522.132 142.43C521.805 141.722 521.206 141.123 520.552 140.796L449.345 108.107C447.493 107.235 445.041 107.671 442.971 109.251L409.628 134.694C408.593 135.511 408.648 136.928 409.41 137.254L480.944 170.107C482.361 170.76 484.213 170.434 485.738 169.235L520.171 142.975C520.77 142.485 521.478 142.321 522.132 142.43Z" fill="#BDC0C4"/>
<path d="M509.981 173.866C509.655 173.866 509.382 173.648 509.382 173.376L509.219 170.924C509.219 170.597 509.437 170.325 509.709 170.325C510.036 170.325 510.308 170.543 510.308 170.815L510.472 173.267C510.472 173.594 510.254 173.866 509.981 173.866Z" fill="#BDC0C4"/>
<path d="M508.02 172.231C508.02 171.905 508.237 171.632 508.51 171.632L510.962 171.469C511.288 171.469 511.561 171.687 511.561 171.959C511.561 172.286 511.343 172.558 511.07 172.558L508.619 172.722C508.346 172.722 508.074 172.504 508.02 172.231Z" fill="#BDC0C4"/>
<path d="M410.827 124.942C410.336 124.997 409.9 124.615 409.846 124.125L409.574 120.148C409.519 119.658 409.9 119.222 410.391 119.167C410.881 119.113 411.317 119.494 411.371 119.985L411.644 123.962C411.698 124.452 411.317 124.888 410.827 124.942Z" fill="#BDC0C4"/>
<path d="M407.775 122.273C407.72 121.783 408.102 121.347 408.592 121.292L412.569 121.02C413.059 120.965 413.495 121.347 413.55 121.837C413.604 122.327 413.223 122.763 412.732 122.818L408.755 123.09C408.211 123.09 407.775 122.763 407.775 122.273Z" fill="#BDC0C4"/>
<path fill-rule="evenodd" clip-rule="evenodd" d="M326.217 38.1525C311.534 38.1525 299.631 50.0558 299.631 64.7393C299.631 79.4228 311.534 91.3261 326.217 91.3261C340.901 91.3261 352.804 79.4228 352.804 64.7393C352.804 50.0558 340.901 38.1525 326.217 38.1525ZM297.996 64.7393C297.996 49.1532 310.631 36.5181 326.217 36.5181C341.803 36.5181 354.439 49.1532 354.439 64.7393C354.439 80.3255 341.803 92.9605 326.217 92.9605C310.631 92.9605 297.996 80.3255 297.996 64.7393Z" fill="#14744E"/>
<path fill-rule="evenodd" clip-rule="evenodd" d="M248.092 38.1525C233.409 38.1525 221.506 50.0558 221.506 64.7393C221.506 79.4228 233.409 91.3261 248.092 91.3261C262.776 91.3261 274.679 79.4228 274.679 64.7393C274.679 50.0558 262.776 38.1525 248.092 38.1525ZM219.871 64.7393C219.871 49.1532 232.506 36.5181 248.092 36.5181C263.679 36.5181 276.314 49.1532 276.314 64.7393C276.314 80.3255 263.679 92.9605 248.092 92.9605C232.506 92.9605 219.871 80.3255 219.871 64.7393Z" fill="#14744E"/>
<path fill-rule="evenodd" clip-rule="evenodd" d="M286.882 68.444C281.831 68.444 277.793 69.6141 275.357 70.5671L274.762 69.045C277.339 68.0366 281.581 66.8096 286.882 66.8096C292.35 66.8096 296.644 68.0932 299.255 69.0375L298.699 70.5745C296.188 69.6665 292.092 68.444 286.882 68.444Z" fill="#14744E"/>
<path fill-rule="evenodd" clip-rule="evenodd" d="M366.968 52.2607C367.24 52.6209 367.169 53.1334 366.809 53.4054L354.115 62.9941C353.754 63.2661 353.242 63.1947 352.97 62.8345C352.698 62.4744 352.769 61.9619 353.129 61.6899L365.824 52.1012C366.184 51.8292 366.696 51.9006 366.968 52.2607Z" fill="#14744E"/>
<path fill-rule="evenodd" clip-rule="evenodd" d="M202.338 49.6589C202.572 49.2732 203.075 49.1507 203.461 49.3852L221.113 60.118C221.498 60.3524 221.621 60.8552 221.386 61.2408C221.152 61.6265 220.649 61.749 220.263 61.5145L202.612 50.7817C202.226 50.5472 202.103 50.0445 202.338 49.6589Z" fill="#14744E"/>
</svg>
