<svg width="48" height="49" viewBox="0 0 48 49" fill="none" xmlns="http://www.w3.org/2000/svg">
<path d="M0.960938 11.2206V39.061V39.322C0.960938 40.4266 1.85637 41.322 2.96094 41.322H45.0409C46.1455 41.322 47.0409 40.4266 47.0409 39.322V39.061V11.2206V8.93457C47.0409 7.83 46.1455 6.93457 45.0409 6.93457H2.96094C1.85637 6.93457 0.960938 7.83 0.960938 8.93457V11.2206ZM2.88094 12.7164L17.8569 24.3785L2.88094 37.3923V12.7164ZM3.47614 39.4116L19.3968 25.5773L24.0009 29.1622L28.6051 25.5773L44.5257 39.4116H3.47614ZM45.1209 37.3923L30.1449 24.3776L45.1209 12.7155V37.3923ZM2.88094 8.84498H45.1209V10.2902L24.0009 26.736L2.88094 10.2902V8.84498Z" fill="#219963"/>
</svg>
