<svg width="34" height="49" viewBox="0 0 34 49" fill="none" xmlns="http://www.w3.org/2000/svg">
<path d="M2.56133 25.9339L15.6269 47.6917C15.8321 48.0339 16.2021 48.245 16.6027 48.248C16.6057 48.248 16.6096 48.248 16.6126 48.248C17.0094 48.248 17.3786 48.0438 17.5884 47.7085L31.1886 25.9506C31.2223 25.8965 31.2514 25.8401 31.2744 25.783C32.9005 23.1407 33.7584 20.1227 33.7584 17.0414C33.7584 7.78163 26.1854 0.248047 16.8769 0.248047C7.57139 0.248047 0 7.78163 0 17.0414C0 20.1234 0.858626 23.1422 2.4855 25.7852C2.50694 25.8363 2.53222 25.8858 2.56133 25.9339ZM16.8776 2.53518C24.9193 2.53518 31.4613 9.04294 31.4613 17.0422C31.4613 19.7591 30.6869 22.4212 29.2224 24.7396C29.1872 24.7945 29.1581 24.8516 29.1343 24.9111L16.6325 44.9092L4.63321 24.9271C4.60717 24.8623 4.57577 24.7991 4.53747 24.7389C3.07298 22.4205 2.29861 19.7591 2.29861 17.0414C2.29861 9.04294 8.83903 2.53518 16.8776 2.53518Z" fill="#219963"/>
<path d="M16.8801 23.2864C20.3399 23.2864 23.1547 20.4856 23.1547 17.0431C23.1547 13.6006 20.3399 10.7998 16.8801 10.7998C13.4203 10.7998 10.6055 13.6006 10.6055 17.0431C10.6055 20.4856 13.4203 23.2864 16.8801 23.2864ZM16.8801 13.0862C19.073 13.0862 20.8569 14.8612 20.8569 17.0431C20.8569 19.2251 19.073 21.0001 16.8801 21.0001C14.6872 21.0001 12.9033 19.2251 12.9033 17.0431C12.9025 14.8612 14.6872 13.0862 16.8801 13.0862Z" fill="#219963"/>
</svg>
