<svg width="44" height="44" viewBox="0 0 44 44" fill="none" xmlns="http://www.w3.org/2000/svg">
<g clip-path="url(#clip0_4363_10750)">
<path d="M27.591 9.20671C29.3817 9.54814 31.0273 10.404 32.3174 11.6648C33.6075 12.9255 34.4833 14.5338 34.8326 16.2838M27.591 2.04004C31.3113 2.44395 34.7806 4.0721 37.4291 6.65718C40.0776 9.24225 41.748 12.6306 42.166 16.2659M40.3326 30.5634V35.9384C40.3347 36.4374 40.2301 36.9313 40.0256 37.3885C39.821 37.8456 39.521 38.2561 39.1448 38.5934C38.7685 38.9307 38.3244 39.1875 37.8407 39.3474C37.357 39.5072 36.8445 39.5666 36.336 39.5217C30.6945 38.9226 25.2755 37.0387 20.5143 34.0213C16.0847 31.2705 12.3291 27.6003 9.51431 23.2713C6.41593 18.5972 4.48775 13.2756 3.88597 7.73754C3.84016 7.24208 3.90041 6.74273 4.06289 6.27128C4.22537 5.79983 4.48652 5.36661 4.82971 4.99919C5.1729 4.63178 5.59062 4.33823 6.05626 4.13722C6.5219 3.93622 7.02527 3.83217 7.53431 3.83171H13.0343C13.924 3.82315 14.7866 4.13105 15.4612 4.69804C16.1358 5.26502 16.5764 6.05238 16.701 6.91337C16.9331 8.63349 17.3636 10.3224 17.9843 11.948C18.231 12.5892 18.2844 13.2862 18.1381 13.9562C17.9919 14.6262 17.6522 15.2412 17.1593 15.7284L14.831 18.0038C17.4408 22.4893 21.2411 26.2033 25.831 28.7538L28.1593 26.4784C28.6578 25.9967 29.2871 25.6647 29.9727 25.5218C30.6583 25.3789 31.3714 25.4311 32.0276 25.6721C33.691 26.2787 35.4192 26.6994 37.1793 26.9263C38.0699 27.0491 38.8832 27.4875 39.4646 28.1581C40.046 28.8287 40.3549 29.6847 40.3326 30.5634Z" stroke="#219963" stroke-width="2.5" stroke-linecap="round" stroke-linejoin="round"/>
</g>
<defs>
<clipPath id="clip0_4363_10750">
<rect width="44" height="43" fill="white" transform="translate(0 0.248047)"/>
</clipPath>
</defs>
</svg>
