<?xml version="1.0" encoding="utf-8"?>
<svg width="15" height="15" viewBox="0 0 15 15" fill="none" xmlns="http://www.w3.org/2000/svg">
    <path d="M7.5 0C3.35799 0 0 3.35799 0 7.5C0 11.642 3.35799 15 7.5 15C11.642 15 15 11.642 15 7.5C15 3.35799 11.642 0 7.5 0ZM7.5 14.2899C3.7574 14.2899 0.710059 11.2426 0.710059 7.5C0.710059 3.7574 3.7574 0.710059 7.5 0.710059C11.2426 0.710059 14.2899 3.7574 14.2899 7.5C14.2899 11.2426 11.2426 14.2899 7.5 14.2899Z" fill="#219963" />
    <path d="M7.85459 7.35251V3.2105C7.85459 3.01819 7.69187 2.85547 7.49956 2.85547C7.30725 2.85547 7.14453 3.01819 7.14453 3.2105V7.50044C7.14453 7.5892 7.18891 7.69275 7.24808 7.75192L10.1031 10.6069C10.1771 10.6809 10.2658 10.7105 10.3546 10.7105C10.4433 10.7105 10.5321 10.6809 10.6061 10.6069C10.7392 10.4738 10.7392 10.2371 10.6061 10.104L7.85459 7.35251Z" fill="#219963" />
</svg>