<svg width="32" height="32" viewBox="0 0 32 32" fill="none" xmlns="http://www.w3.org/2000/svg">
<circle cx="16" cy="16" r="16" fill="#007953"/>
<path d="M25.9954 13.9529C26.0403 12.6525 25.7559 11.3619 25.1686 10.2008C24.7702 9.72434 24.2172 9.40283 23.606 9.29225C21.0781 9.06288 18.5397 8.96886 16.0017 9.01061C13.473 8.96697 10.9437 9.05795 8.42467 9.28317C7.92663 9.37376 7.46574 9.60737 7.09823 9.95547C6.28056 10.7095 6.18971 11.9996 6.09886 13.0899C5.96705 15.05 5.96705 17.0169 6.09886 18.977C6.12514 19.5907 6.21651 20.1998 6.37142 20.7941C6.48096 21.2529 6.70259 21.6775 7.01646 22.0297C7.38647 22.3962 7.8581 22.6431 8.37015 22.7383C10.3288 22.9801 12.3024 23.0803 14.2755 23.0381C17.4553 23.0835 20.2445 23.0381 23.5424 22.7837C24.067 22.6944 24.5519 22.4472 24.9324 22.0751C25.1868 21.8206 25.3768 21.5092 25.4866 21.1666C25.8115 20.1696 25.9711 19.1261 25.9591 18.0776C25.9954 17.5688 25.9954 14.4981 25.9954 13.9529ZM13.9485 18.6227V12.999L19.3269 15.8245C17.8187 16.6603 15.8291 17.6052 13.9485 18.6227Z" fill="white"/>
</svg>
