<svg width="62" height="61" viewBox="0 0 62 61" fill="none" xmlns="http://www.w3.org/2000/svg">
<path d="M49.0203 6.53928V32.3945C49.0203 35.4551 46.5416 37.9338 43.4811 37.9338H6.53928C3.47873 37.9338 1 35.4471 1 32.3945V6.53928C1 3.47873 3.47873 1 6.53928 1H43.4811C46.5416 1 49.0203 3.47873 49.0203 6.53928Z" stroke="#219963" stroke-width="1.5" stroke-linecap="round" stroke-linejoin="round"/>
<path d="M6.53935 30.3946C5.3757 30.3946 4.42725 29.4461 4.42725 28.2825V6.53983C4.42725 5.37619 5.3757 4.42773 6.53935 4.42773H43.4811C44.6448 4.42773 45.5932 5.37619 45.5932 6.53983V28.2825C45.5932 29.4461 44.6448 30.3946 43.4811 30.3946H6.53935V30.3946Z" stroke="#219963" stroke-width="1.5" stroke-linecap="round" stroke-linejoin="round"/>
<path d="M37.9419 47.1705C37.9419 48.1907 37.1209 49.0196 36.0928 49.0196H13.9277C12.9075 49.0196 12.0786 48.1987 12.0786 47.1705C12.0786 46.1504 12.8995 45.3215 13.9277 45.3215H16.0318L17.2592 37.9331H32.7533L33.9727 45.3215H36.0928C37.113 45.3294 37.9419 46.1583 37.9419 47.1705Z" stroke="#219963" stroke-width="1.5" stroke-linecap="round" stroke-linejoin="round"/>
<path d="M25.2539 26.2963C29.9286 26.2963 33.7182 22.5067 33.7182 17.832C33.7182 13.1573 29.9286 9.36768 25.2539 9.36768C20.5792 9.36768 16.7896 13.1573 16.7896 17.832C16.7896 22.5067 20.5792 26.2963 25.2539 26.2963Z" fill="white" stroke="#219963" stroke-width="1.5" stroke-linecap="round" stroke-linejoin="round"/>
<path d="M25.2539 21.4976V22.4221" stroke="#219963" stroke-width="1.5" stroke-linecap="round" stroke-linejoin="round"/>
<path d="M25.2539 13.2397V14.1563" stroke="#219963" stroke-width="1.5" stroke-linecap="round" stroke-linejoin="round"/>
<path d="M23.4048 19.6625C23.4048 20.6747 24.2257 21.4957 25.2379 21.4957C26.2501 21.4957 27.0711 20.6747 27.0711 19.6625C27.0711 18.6503 26.2501 17.8294 25.2379 17.8294C24.2257 17.8294 23.4048 17.0084 23.4048 15.9962C23.4048 14.984 24.2257 14.1631 25.2379 14.1631C26.2501 14.1631 27.0711 14.984 27.0711 15.9962" fill="white"/>
<path d="M23.4048 19.6625C23.4048 20.6747 24.2257 21.4957 25.2379 21.4957C26.2501 21.4957 27.0711 20.6747 27.0711 19.6625C27.0711 18.6503 26.2501 17.8294 25.2379 17.8294C24.2257 17.8294 23.4048 17.0084 23.4048 15.9962C23.4048 14.984 24.2257 14.1631 25.2379 14.1631C26.2501 14.1631 27.0711 14.984 27.0711 15.9962" stroke="#219963" stroke-linecap="round" stroke-linejoin="round"/>
<path d="M61.0003 30.0413V56.9087C61.0003 58.6781 59.5657 60.1048 57.8043 60.1048H45.0281C43.2587 60.1048 41.832 58.6702 41.832 56.9087V30.0413C41.832 28.2719 43.2667 26.8452 45.0281 26.8452H57.8122C59.5737 26.8452 61.0003 28.2798 61.0003 30.0413Z" fill="white" stroke="#219963" stroke-width="1.5" stroke-miterlimit="10" stroke-linecap="round" stroke-linejoin="round"/>
<path d="M48.9658 30.1304H53.8675" stroke="#219963" stroke-width="1.5" stroke-miterlimit="10" stroke-linecap="round" stroke-linejoin="round"/>
<path d="M51.4131 58.8457C52.1218 58.8457 52.6963 58.2712 52.6963 57.5625C52.6963 56.8538 52.1218 56.2793 51.4131 56.2793C50.7044 56.2793 50.1299 56.8538 50.1299 57.5625C50.1299 58.2712 50.7044 58.8457 51.4131 58.8457Z" fill="#219963"/>
<path d="M41.8242 54.5815H61.0005" stroke="#219963" stroke-width="1.5" stroke-miterlimit="10" stroke-linecap="round" stroke-linejoin="round"/>
</svg>
