<svg width="34" height="49" viewBox="0 0 34 49" fill="none" xmlns="http://www.w3.org/2000/svg">
<path d="M2.56133 25.9343L15.6269 47.6921C15.8321 48.0343 16.2021 48.2454 16.6027 48.2484C16.6057 48.2484 16.6096 48.2484 16.6126 48.2484C17.0094 48.2484 17.3786 48.0442 17.5884 47.7089L31.1886 25.951C31.2223 25.8969 31.2514 25.8405 31.2744 25.7834C32.9005 23.1411 33.7584 20.1231 33.7584 17.0418C33.7584 7.78202 26.1854 0.248444 16.8769 0.248444C7.57139 0.248444 0 7.78202 0 17.0418C0 20.1238 0.858626 23.1426 2.4855 25.7856C2.50694 25.8367 2.53222 25.8862 2.56133 25.9343ZM16.8776 2.53557C24.9193 2.53557 31.4613 9.04334 31.4613 17.0426C31.4613 19.7595 30.6869 22.4216 29.2224 24.74C29.1872 24.7949 29.1581 24.852 29.1343 24.9115L16.6325 44.9096L4.63321 24.9275C4.60717 24.8627 4.57577 24.7995 4.53747 24.7393C3.07298 22.4209 2.29861 19.7595 2.29861 17.0418C2.29861 9.04334 8.83903 2.53557 16.8776 2.53557Z" fill="#219963"/>
<path d="M16.8801 23.2866C20.3399 23.2866 23.1547 20.4858 23.1547 17.0433C23.1547 13.6008 20.3399 10.8 16.8801 10.8C13.4203 10.8 10.6055 13.6008 10.6055 17.0433C10.6055 20.4858 13.4203 23.2866 16.8801 23.2866ZM16.8801 13.0864C19.073 13.0864 20.8569 14.8614 20.8569 17.0433C20.8569 19.2253 19.073 21.0003 16.8801 21.0003C14.6872 21.0003 12.9033 19.2253 12.9033 17.0433C12.9025 14.8614 14.6872 13.0864 16.8801 13.0864Z" fill="#219963"/>
</svg>
