<svg width="70" height="49" viewBox="0 0 70 49" fill="none" xmlns="http://www.w3.org/2000/svg">
<g clip-path="url(#clip0_1167_12294)">
<path d="M46.0825 49H4.76892C2.13855 49 0 46.8782 0 44.271V40.8217C0 40.0678 0.604767 39.4611 1.35162 39.4611H25.3456C25.7135 39.4611 26.0633 39.6119 26.3183 39.8766L28.0634 41.7042H41.2335C41.9803 41.7042 42.5851 42.311 42.5851 43.0648C42.5851 43.8187 41.9803 44.4254 41.2335 44.4254H27.4878C27.1198 44.4254 26.7701 44.2747 26.515 44.0099L24.77 42.1823H2.70324V44.271C2.70324 45.3779 3.6286 46.2751 4.76892 46.2751H46.0825C46.8294 46.2751 47.4342 46.8819 47.4342 47.6357C47.4342 48.3896 46.8294 48.9963 46.0825 48.9963V49ZM45.6854 42.1823H44.6544C43.9076 42.1823 43.3028 41.5755 43.3028 40.8217C43.3028 40.0678 43.9076 39.4611 44.6544 39.4611H45.6854C46.4323 39.4611 47.0371 40.0678 47.0371 40.8217C47.0371 41.5755 46.4323 42.1823 45.6854 42.1823Z" fill="#219963"/>
<path d="M4.5274 38.2513C3.78055 38.2513 3.17578 37.6445 3.17578 36.8907V4.89081C3.17578 2.19535 5.35076 0 8.02485 0H61.973C64.6471 0 66.8221 2.19535 66.8221 4.89081V10.1824C66.8221 10.9363 66.2173 11.5467 65.4705 11.5467C64.7236 11.5467 64.1188 10.9363 64.1188 10.1824V4.89081C64.1188 3.71775 63.1352 2.72488 61.973 2.72488H8.02485C6.86268 2.72488 5.87902 3.71775 5.87902 4.89081V36.8907C5.87902 37.6445 5.27425 38.2513 4.5274 38.2513Z" fill="#219963"/>
<path d="M61.2589 7.77751H4.5274C3.78055 7.77751 3.17578 7.16707 3.17578 6.41323C3.17578 5.65938 3.78055 5.04895 4.5274 5.04895H61.2589C62.0058 5.04895 62.6106 5.65938 62.6106 6.41323C62.6106 7.16707 62.0058 7.77751 61.2589 7.77751Z" fill="#219963"/>
<path d="M66.5826 49H51.8059C49.9333 49 48.4688 47.5217 48.4688 45.6316V16.3603C48.4688 14.4592 49.9661 12.911 51.8059 12.911H66.5826C68.4334 12.911 69.9999 14.4922 69.9999 16.3603V27.1054C69.9999 27.8592 69.3952 28.466 68.6483 28.466C67.9015 28.466 67.2967 27.8592 67.2967 27.1054V16.3603C67.2967 15.9889 66.9506 15.6396 66.5826 15.6396H51.8059C51.4598 15.6396 51.172 15.9705 51.172 16.3603V45.6316C51.172 45.9993 51.4452 46.2751 51.8059 46.2751H66.5826C66.9724 46.2751 67.2967 45.9809 67.2967 45.6316V31.6763C67.2967 30.9224 67.9015 30.3157 68.6483 30.3157C69.3952 30.3157 69.9999 30.9224 69.9999 31.6763V45.6316C69.9999 47.4886 68.4661 49 66.5826 49Z" fill="#219963"/>
<path d="M59.6694 45.069H58.7149C57.9681 45.069 57.3633 44.4622 57.3633 43.7084C57.3633 42.9545 57.9681 42.3478 58.7149 42.3478H59.6694C60.4163 42.3478 61.021 42.9545 61.021 43.7084C61.021 44.4622 60.4163 45.069 59.6694 45.069Z" fill="#219963"/>
</g>
<defs>
<clipPath id="clip0_1167_12294">
<rect width="70" height="49" fill="white"/>
</clipPath>
</defs>
</svg>
