<svg width="48" height="49" viewBox="0 0 48 49" fill="none" xmlns="http://www.w3.org/2000/svg">
<path d="M0.960938 11.2209V39.0613V39.3223C0.960938 40.4269 1.85637 41.3223 2.96094 41.3223H45.0409C46.1455 41.3223 47.0409 40.4269 47.0409 39.3223V39.0613V11.2209V8.93489C47.0409 7.83032 46.1455 6.93489 45.0409 6.93489H2.96094C1.85637 6.93489 0.960938 7.83032 0.960938 8.93489V11.2209ZM2.88094 12.7168L17.8569 24.3789L2.88094 37.3926V12.7168ZM3.47614 39.4119L19.3968 25.5776L24.0009 29.1625L28.6051 25.5776L44.5257 39.4119H3.47614ZM45.1209 37.3926L30.1449 24.3779L45.1209 12.7158V37.3926ZM2.88094 8.8453H45.1209V10.2905L24.0009 26.7363L2.88094 10.2905V8.8453Z" fill="#219963"/>
</svg>
