<svg width="44" height="44" viewBox="0 0 44 44" fill="none" xmlns="http://www.w3.org/2000/svg">
<g clip-path="url(#clip0_1167_12304)">
<path d="M27.591 9.20678C29.3817 9.54821 31.0273 10.4041 32.3174 11.6648C33.6075 12.9256 34.4833 14.5339 34.8326 16.2839M27.591 2.04012C31.3113 2.44402 34.7806 4.07218 37.4291 6.65725C40.0776 9.24233 41.748 12.6307 42.166 16.2659M40.3326 30.5635V35.9385C40.3347 36.4374 40.2301 36.9313 40.0256 37.3885C39.821 37.8457 39.521 38.2561 39.1448 38.5935C38.7685 38.9308 38.3244 39.1876 37.8407 39.3475C37.357 39.5073 36.8445 39.5667 36.336 39.5218C30.6945 38.9227 25.2755 37.0388 20.5143 34.0214C16.0847 31.2706 12.3291 27.6003 9.51431 23.2714C6.41593 18.5973 4.48775 13.2756 3.88597 7.73762C3.84016 7.24216 3.90041 6.74281 4.06289 6.27136C4.22537 5.79991 4.48652 5.36668 4.82971 4.99927C5.1729 4.63186 5.59062 4.3383 6.05626 4.1373C6.5219 3.9363 7.02527 3.83225 7.53431 3.83178H13.0343C13.924 3.82322 14.7866 4.13113 15.4612 4.69811C16.1358 5.26509 16.5764 6.05246 16.701 6.91345C16.9331 8.63357 17.3636 10.3225 17.9843 11.948C18.231 12.5893 18.2844 13.2863 18.1381 13.9563C17.9919 14.6263 17.6522 15.2413 17.1593 15.7284L14.831 18.0039C17.4408 22.4894 21.2411 26.2033 25.831 28.7539L28.1593 26.4785C28.6578 25.9967 29.2871 25.6648 29.9727 25.5219C30.6583 25.379 31.3714 25.4311 32.0276 25.6722C33.691 26.2788 35.4192 26.6995 37.1793 26.9264C38.0699 27.0491 38.8832 27.4875 39.4646 28.1581C40.046 28.8287 40.3549 29.6848 40.3326 30.5635Z" stroke="#219963" stroke-width="2.5" stroke-linecap="round" stroke-linejoin="round"/>
</g>
<defs>
<clipPath id="clip0_1167_12304">
<rect width="44" height="43" fill="white" transform="translate(0 0.248444)"/>
</clipPath>
</defs>
</svg>
