<svg width="72" height="67" viewBox="0 0 72 67" fill="none" xmlns="http://www.w3.org/2000/svg">
<path d="M33.0756 62.1031C47.9584 62.1031 60.0233 50.1393 60.0233 35.3812C60.0233 20.623 47.9584 8.65918 33.0756 8.65918C18.1928 8.65918 6.12793 20.623 6.12793 35.3812C6.12793 50.1393 18.1928 62.1031 33.0756 62.1031Z" fill="#EEECED"/>
<path d="M53.7077 6.93187C53.2177 6.93187 52.7822 6.5 52.7822 6.01414V1.91138C52.7822 1.42552 53.2177 0.993652 53.7077 0.993652C54.1977 0.993652 54.6332 1.42552 54.6332 1.91138V6.01414C54.6332 6.5 54.2521 6.93187 53.7077 6.93187Z" fill="#BDC0C4"/>
<path d="M50.7139 3.96265C50.7139 3.47679 51.1494 3.04492 51.6393 3.04492H55.7768C56.2667 3.04492 56.7022 3.47679 56.7022 3.96265C56.7022 4.4485 56.2667 4.88037 55.7768 4.88037H51.6393C51.1494 4.88037 50.7139 4.4485 50.7139 3.96265Z" fill="#BDC0C4"/>
<path d="M69.0055 25.3406C68.5156 25.3406 68.0801 24.9087 68.0801 24.4228V20.3201C68.0801 19.8342 68.5156 19.4023 69.0055 19.4023C69.4955 19.4023 69.931 19.8342 69.931 20.3201V24.4228C69.931 24.9087 69.4955 25.3406 69.0055 25.3406Z" fill="#BDC0C4"/>
<path d="M66.0117 22.3713C66.0117 21.8855 66.4472 21.4536 66.9372 21.4536H71.0746C71.5646 21.4536 72.0001 21.8855 72.0001 22.3713C72.0001 22.8572 71.5646 23.2891 71.0746 23.2891H66.9372C66.4472 23.2891 66.0117 22.8572 66.0117 22.3713Z" fill="#BDC0C4"/>
<path d="M49.9521 23.9367C50.8776 20.7516 53.8174 18.5383 57.1926 18.5923H57.4648L55.1239 28.5253L49.9521 23.9367Z" fill="white"/>
<path fill-rule="evenodd" clip-rule="evenodd" d="M50.8942 23.6863L54.642 27.0114L56.4282 19.4324C53.9167 19.6765 51.7739 21.3349 50.8942 23.6863ZM57.1989 17.7827H58.4942L55.6056 30.0395L49.0254 24.2013L49.1674 23.7127C50.1922 20.1856 53.4501 17.7258 57.1989 17.7827Z" fill="#077750"/>
<path d="M63.2348 35.8133L59.4785 35.3275C56.8109 28.0396 49.7338 22.8032 41.4045 22.8032H27.1957C16.58 22.8032 7.97852 31.3327 7.97852 41.8595C7.97852 49.0933 12.0615 55.3554 18.0499 58.5945V63.561C18.0499 64.9106 19.1387 65.9903 20.4997 65.9903H27.9579C29.3189 65.9903 30.4077 64.9106 30.4077 63.561V60.8618H41.2956V63.561C41.2956 64.9106 42.3844 65.9903 43.7454 65.9903H51.2036C52.5646 65.9903 53.6534 64.9106 53.6534 63.561V56.4891C56.4843 54.1678 58.6074 51.0907 59.7507 47.5278L63.2348 47.0959C64.4869 46.934 65.4124 45.9083 65.4124 44.6667V38.2426C65.358 37.001 64.4325 35.9213 63.2348 35.8133Z" fill="white"/>
<path fill-rule="evenodd" clip-rule="evenodd" d="M7.16211 41.8597C7.16211 30.8856 16.1292 21.9937 27.1959 21.9937H41.4047C49.9097 21.9937 57.1624 27.2315 60.0697 34.5875L63.326 35.0087C64.9807 35.1671 66.1592 36.6278 66.2284 38.2076L66.2292 38.2252V44.6668C66.2292 46.3253 64.9893 47.6858 63.3406 47.8991L63.3363 47.8996L60.3632 48.2681C59.1818 51.6473 57.1432 54.5873 54.4702 56.8657V63.5612C54.4702 65.358 53.0158 66.8002 51.2038 66.8002H43.7456C41.9336 66.8002 40.4792 65.358 40.4792 63.5612V61.6717H31.2245V63.5612C31.2245 65.358 29.7701 66.8002 27.9581 66.8002H20.4998C18.6879 66.8002 17.2335 65.358 17.2335 63.5612V59.0687C11.2291 55.6324 7.16211 49.2322 7.16211 41.8597ZM27.1959 23.6132C17.0312 23.6132 8.7953 31.7801 8.7953 41.8597C8.7953 48.782 12.7013 54.7792 18.4411 57.8838L18.8666 58.114V63.5612C18.8666 64.4635 19.5898 65.1807 20.4998 65.1807H27.9581C28.8681 65.1807 29.5913 64.4635 29.5913 63.5612V60.0522H42.1124V63.5612C42.1124 64.4635 42.8356 65.1807 43.7456 65.1807H51.2038C52.1138 65.1807 52.837 64.4635 52.837 63.5612V56.1082L53.1332 55.8653C55.8444 53.6421 57.8774 50.696 58.9727 47.2825L59.1311 46.7887L63.1294 46.2932C63.1301 46.2931 63.1308 46.293 63.1315 46.2929C63.986 46.1813 64.596 45.4909 64.596 44.6668V38.2619C64.5495 37.3716 63.8884 36.6855 63.1611 36.6199L63.1452 36.6185L58.8805 36.0669L58.7111 35.6039C56.1573 28.627 49.3805 23.6132 41.4047 23.6132H27.1959Z" fill="#077750"/>
<path d="M25.7262 15.4618C28.9733 15.4618 31.6057 12.8515 31.6057 9.63152C31.6057 6.41156 28.9733 3.80127 25.7262 3.80127C22.479 3.80127 19.8467 6.41156 19.8467 9.63152C19.8467 12.8515 22.479 15.4618 25.7262 15.4618Z" fill="#E1EEEB"/>
<path fill-rule="evenodd" clip-rule="evenodd" d="M25.7264 4.61072C22.9302 4.61072 20.6635 6.85848 20.6635 9.63122C20.6635 12.404 22.9302 14.6517 25.7264 14.6517C28.5225 14.6517 30.7892 12.404 30.7892 9.63122C30.7892 6.85848 28.5225 4.61072 25.7264 4.61072ZM19.0303 9.63122C19.0303 5.96405 22.0282 2.99121 25.7264 2.99121C29.4245 2.99121 32.4224 5.96404 32.4224 9.63122C32.4224 13.2984 29.4245 16.2712 25.7264 16.2712C22.0282 16.2712 19.0303 13.2984 19.0303 9.63122Z" fill="#077750"/>
<path d="M36.7232 29.7132C39.9704 29.7132 42.6027 27.1029 42.6027 23.883C42.6027 20.663 39.9704 18.0527 36.7232 18.0527C33.4761 18.0527 30.8438 20.663 30.8438 23.883C30.8438 27.1029 33.4761 29.7132 36.7232 29.7132Z" fill="#E1EEEB"/>
<path fill-rule="evenodd" clip-rule="evenodd" d="M36.7234 18.8627C33.9273 18.8627 31.6605 21.1104 31.6605 23.8832C31.6605 26.6559 33.9273 28.9037 36.7234 28.9037C39.5196 28.9037 41.7863 26.6559 41.7863 23.8832C41.7863 21.1104 39.5196 18.8627 36.7234 18.8627ZM30.0273 23.8832C30.0273 20.216 33.0253 17.2432 36.7234 17.2432C40.4216 17.2432 43.4195 20.216 43.4195 23.8832C43.4195 27.5503 40.4216 30.5232 36.7234 30.5232C33.0253 30.5232 30.0273 27.5503 30.0273 23.8832Z" fill="#077750"/>
<path d="M25.89 6.98591C26.7066 7.03989 27.4688 7.47176 27.4688 8.44347H26.3255C26.3255 8.11957 26.1622 7.95762 25.89 7.90363V8.71339C26.0533 8.76737 26.2166 8.76738 26.3255 8.82136C26.9788 8.98331 27.6321 9.30721 27.6321 10.063C27.6321 11.0887 26.8155 11.4666 25.89 11.5205V12.0604H25.6178V11.5205C24.6379 11.4666 23.8213 11.0347 23.8213 9.95502H24.9645C24.9645 10.3869 25.2367 10.6028 25.6178 10.6028V9.63112C25.5089 9.57713 25.3456 9.57713 25.2367 9.52315C24.5834 9.3612 23.9302 9.0373 23.9302 8.28152C23.9302 7.30981 24.8012 6.93193 25.6178 6.93193V6.39209H25.89V6.98591ZM25.6178 7.84965C25.4 7.84965 25.0734 7.95762 25.0734 8.22754C25.0734 8.44347 25.2912 8.55144 25.6178 8.60542V7.84965ZM25.89 10.6568C26.1622 10.6568 26.4888 10.5488 26.4888 10.2249C26.4888 10.009 26.2711 9.84705 25.89 9.79307V10.6568Z" fill="#14744E"/>
<path d="M36.8871 21.5615C37.7037 21.6155 38.4658 22.0474 38.4658 23.0191H37.3226C37.3226 22.6952 37.1593 22.5332 36.8871 22.4793V23.289C37.0504 23.343 37.2137 23.343 37.3226 23.397C37.9759 23.5589 38.6291 23.8828 38.6291 24.6386C38.6291 25.6643 37.8125 26.0422 36.8871 26.0962V26.636H36.6149V26.0962C35.6349 26.0422 34.8184 25.6103 34.8184 24.5306H35.9616C35.9616 24.9625 36.2338 25.1785 36.6149 25.1785V24.3147C36.506 24.2607 36.3427 24.2607 36.2338 24.2067C35.5805 24.0448 34.9272 23.7209 34.9272 22.9651C34.9272 21.9934 35.7983 21.6155 36.6149 21.6155V21.0757H36.8871V21.5615ZM36.6149 22.4793C36.3971 22.4793 36.0705 22.5872 36.0705 22.8572C36.0705 23.0731 36.2882 23.1811 36.6149 23.235V22.4793ZM36.8871 25.2864C37.1593 25.2864 37.4859 25.1785 37.4859 24.8545C37.4859 24.6386 37.2681 24.4767 36.8871 24.4227V25.2864Z" fill="#14744E"/>
<path d="M51.9664 36.0835C52.1842 35.8675 52.3475 35.4896 52.3475 35.1657C52.3475 34.8418 52.1842 34.5179 51.9664 34.248C51.7486 34.0321 51.3676 33.8701 51.0409 33.8701C50.7143 33.8701 50.3876 34.0321 50.1155 34.248C49.8433 34.4639 49.7344 34.8418 49.7344 35.1657C49.7344 35.4896 49.8977 35.8135 50.1155 36.0835C50.3332 36.2994 50.7143 36.4613 51.0409 36.4613C51.422 36.4613 51.7486 36.2994 51.9664 36.0835Z" fill="#14744E"/>
<path d="M13.9675 43.533C14.4574 43.533 14.8929 43.1011 14.8929 42.6153V42.5613C14.8929 42.0754 14.5119 41.6436 13.9675 41.6436C13.4775 41.6436 13.042 42.0214 13.042 42.5613V42.6153C13.042 43.1551 13.4231 43.533 13.9675 43.533Z" fill="#14744E"/>
<path d="M17.9413 51.1988C18.1046 51.3068 18.2679 51.3068 18.4312 51.3068C18.7579 51.3068 19.0301 51.1448 19.1934 50.8749C19.4656 50.443 19.3023 49.9032 18.8667 49.6333C17.288 48.6616 16.0359 47.204 15.3826 45.5305C15.2193 45.0447 14.6749 44.8287 14.1849 44.9907C13.695 45.1526 13.4772 45.6925 13.6405 46.1783C14.5116 48.2837 15.9814 50.0651 17.9413 51.1988Z" fill="#14744E"/>
<path d="M43.7998 32.0345H26.5424C26.1069 32.0345 25.7803 31.7106 25.7803 31.2787C25.7803 30.8468 26.1069 30.5229 26.5424 30.5229H43.7998C44.2353 30.5229 44.562 30.8468 44.562 31.2787C44.562 31.7106 44.2353 32.0345 43.7998 32.0345Z" fill="#14744E"/>
<path fill-rule="evenodd" clip-rule="evenodd" d="M5.35796 32.7898C4.94294 32.7853 3.60037 32.7709 2.62238 33.7407C1.77556 34.5805 1.49936 35.8552 1.69144 36.579L1.69276 36.5839L1.69274 36.5839C1.91311 37.4362 2.39792 38.1267 3.29941 38.5499C4.23778 38.9904 5.72116 39.1844 8.00347 38.7942C8.44791 38.7183 8.87031 39.0139 8.94694 39.4546C9.02357 39.8954 8.7254 40.3142 8.28096 40.3902C5.82702 40.8098 3.96236 40.6529 2.60064 40.0137C1.20294 39.3576 0.435723 38.2407 0.111338 36.9885C-0.239658 35.6611 0.246454 33.8064 1.46754 32.5956C2.96148 31.1141 4.96771 31.1606 5.36798 31.1698C5.3907 31.1703 5.40825 31.1707 5.42023 31.1707C5.87123 31.1707 6.23683 31.5333 6.23683 31.9805C6.23683 32.4277 5.87123 32.7903 5.42023 32.7903C5.40272 32.7903 5.38188 32.79 5.35796 32.7898Z" fill="#077750"/>
</svg>
