<svg width="72" height="63" viewBox="0 0 72 63" fill="none" xmlns="http://www.w3.org/2000/svg">
<path d="M31.8629 62.4852C47.9119 62.4852 60.9222 49.5839 60.9222 33.6694C60.9222 17.7548 47.9119 4.85352 31.8629 4.85352C15.814 4.85352 2.80371 17.7548 2.80371 33.6694C2.80371 49.5839 15.814 62.4852 31.8629 62.4852Z" fill="#EEECED"/>
<path d="M6.65686 12.4421H60.1194C61.7784 12.4421 63.1698 13.8219 63.1698 15.467V51.5532C63.1698 53.1983 61.7784 54.578 60.1194 54.578H6.65686C4.99786 54.578 3.60645 53.1983 3.60645 51.5532V15.467C3.65996 13.7688 4.99786 12.4421 6.65686 12.4421Z" fill="white"/>
<path fill-rule="evenodd" clip-rule="evenodd" d="M4.40919 15.4804V51.5533C4.40919 52.7588 5.44121 53.7821 6.65687 53.7821H60.1194C61.3351 53.7821 62.3671 52.7588 62.3671 51.5533V15.4671C62.3671 14.2617 61.3351 13.2383 60.1194 13.2383H6.65687C5.45814 13.2383 4.45553 14.1945 4.40919 15.4804ZM2.8041 15.4423C2.87043 13.3376 4.54119 11.6462 6.65687 11.6462H60.1194C62.2218 11.6462 63.9726 13.3824 63.9726 15.4671V51.5533C63.9726 53.638 62.2218 55.3742 60.1194 55.3742H6.65687C4.55452 55.3742 2.80371 53.638 2.80371 51.5533V15.4547L2.8041 15.4423Z" fill="#077750"/>
<path d="M69.0562 27.3013C68.5746 27.3013 68.1465 26.8768 68.1465 26.3992V22.366C68.1465 21.8884 68.5746 21.4639 69.0562 21.4639C69.5379 21.4639 69.966 21.8884 69.966 22.366V26.3992C69.966 26.9299 69.5379 27.3013 69.0562 27.3013Z" fill="#BDC0C4"/>
<path d="M66.1133 24.3826C66.1133 23.905 66.5414 23.4805 67.0231 23.4805H71.0903C71.5719 23.4805 72 23.905 72 24.3826C72 24.8602 71.5719 25.2848 71.0903 25.2848H67.0231C66.4879 25.2848 66.1133 24.9133 66.1133 24.3826Z" fill="#BDC0C4"/>
<path d="M4.89024 6.76398C4.4086 6.76398 3.98047 6.33944 3.98047 5.86183V1.82867C3.98047 1.35106 4.4086 0.926514 4.89024 0.926514C5.37188 0.926514 5.80002 1.35106 5.80002 1.82867V5.86183C5.80002 6.33944 5.4254 6.76398 4.89024 6.76398Z" fill="#BDC0C4"/>
<path d="M1.94727 3.84527C1.94727 3.36766 2.3754 2.94312 2.85705 2.94312H6.92426C7.40591 2.94312 7.83403 3.36766 7.83403 3.84527C7.83403 4.32288 7.40591 4.74742 6.92426 4.74742H2.85705C2.3754 4.74742 1.94727 4.32288 1.94727 3.84527Z" fill="#BDC0C4"/>
<path fill-rule="evenodd" clip-rule="evenodd" d="M59.2629 17.4307H8.63672V16.3694H59.2629V17.4307Z" fill="#077750"/>
<path fill-rule="evenodd" clip-rule="evenodd" d="M57.8184 46.9361V20.2429H58.8887V46.9361H57.8184Z" fill="#077750"/>
<path fill-rule="evenodd" clip-rule="evenodd" d="M8.63672 50.2795H58.3531V51.3409H8.63672V50.2795Z" fill="#077750"/>
<path fill-rule="evenodd" clip-rule="evenodd" d="M13.2391 41.2581V45.5035H9.17188V47.3609H8.10156V44.4421H12.1688V41.2581H13.2391Z" fill="#077750"/>
<path fill-rule="evenodd" clip-rule="evenodd" d="M8.10156 34.094H9.17188V37.2781H12.7039V38.3394H8.10156V34.094Z" fill="#077750"/>
<path fill-rule="evenodd" clip-rule="evenodd" d="M13.2391 26.0276V30.273H9.17188V32.1304H8.10156V29.2117H12.1688V26.0276H13.2391Z" fill="#077750"/>
<path fill-rule="evenodd" clip-rule="evenodd" d="M8.10156 18.8635H9.17188V22.0476H12.7039V23.109H8.10156V18.8635Z" fill="#077750"/>
<path fill-rule="evenodd" clip-rule="evenodd" d="M5.59546 22.0739C6.82535 22.0608 8.05204 22.0476 9.27919 22.0476V23.109C8.05784 23.109 6.83602 23.1221 5.60422 23.1353L5.58567 23.1355C4.34854 23.1487 3.10143 23.162 1.84045 23.162H1.77457L1.71487 23.1472C1.71462 23.1472 1.71434 23.1471 1.71402 23.1471C1.71036 23.1463 1.70235 23.1447 1.69071 23.1428C1.66707 23.139 1.63069 23.1344 1.58684 23.1325C1.49352 23.1286 1.39653 23.1386 1.31838 23.1699C1.2531 23.196 1.19426 23.2381 1.14824 23.3325C1.09611 23.4394 1.0414 23.6547 1.08777 24.057L1.09123 24.087V28.0101L1.09014 28.0252C1.09012 28.0257 1.0901 28.0262 1.09008 28.0268C1.08993 28.031 1.08969 28.0399 1.08976 28.0527C1.08989 28.0785 1.09124 28.1193 1.09665 28.1703C1.10771 28.2745 1.13439 28.4083 1.19295 28.5401C1.29571 28.7713 1.51273 29.0493 2.10777 29.1083L2.11204 29.1087C3.06498 29.2109 4.15919 29.2118 5.29303 29.1854C5.67487 29.1765 6.06324 29.1644 6.45097 29.1523C7.19912 29.1289 7.94492 29.1056 8.63699 29.1056C8.94756 29.1056 9.21442 29.1197 9.43865 29.1331C9.47392 29.1353 9.50762 29.1373 9.5399 29.1393C9.72028 29.1504 9.85648 29.1587 9.97489 29.1587V30.2201C9.82034 30.2201 9.64491 30.2092 9.46706 30.1983C9.43605 30.1963 9.40497 30.1944 9.37391 30.1926C9.15663 30.1795 8.91509 30.167 8.63699 30.167C7.9606 30.167 7.24579 30.1893 6.50951 30.2124C6.11764 30.2246 5.71969 30.2371 5.3182 30.2464C4.17836 30.273 3.02567 30.274 1.99902 30.1641C0.990034 30.0634 0.458439 29.5192 0.213519 28.9681C0.0981552 28.7085 0.0512553 28.4608 0.0322087 28.2814C0.0225691 28.1906 0.019736 28.1141 0.0194497 28.0581C0.0193061 28.0299 0.019802 28.0067 0.0204346 27.9891C0.020586 27.9848 0.0207454 27.9809 0.0209061 27.9774V24.1464C-0.0341911 23.634 0.0193552 23.2095 0.184646 22.8705C0.359379 22.5121 0.635011 22.2989 0.917585 22.1857C1.18729 22.0777 1.45153 22.0645 1.63248 22.0721C1.72577 22.0761 1.80478 22.0859 1.86225 22.0952C1.87373 22.097 1.88444 22.0989 1.89431 22.1007C3.13026 22.1003 4.35384 22.0873 5.5741 22.0742L5.59546 22.0739Z" fill="#077750"/>
<path fill-rule="evenodd" clip-rule="evenodd" d="M1.89435 37.2781C1.88447 37.2763 1.87375 37.2745 1.86225 37.2727C1.80478 37.2634 1.72577 37.2535 1.63248 37.2496C1.45153 37.2419 1.18729 37.2552 0.917585 37.3632C0.635011 37.4763 0.359379 37.6896 0.184646 38.048C0.0193552 38.3869 -0.0341911 38.8114 0.0209061 39.3239V43.1541C0.0204662 43.1635 0.020048 43.175 0.0197678 43.1883C0.0191251 43.2189 0.0192033 43.2597 0.0214575 43.3088C0.0259448 43.4067 0.039177 43.5406 0.073785 43.6951C0.142785 44.003 0.300906 44.4091 0.659292 44.7645C1.10835 45.2098 1.74569 45.3362 2.00298 45.3872L2.01378 45.3893L2.02456 45.391C3.09968 45.5594 6.31078 45.6092 10.4703 45.5035L10.4428 44.4425C6.26914 44.5486 3.17276 44.4931 2.20212 44.3443C1.9266 44.2891 1.6067 44.203 1.41612 44.014C1.23935 43.8387 1.15665 43.6345 1.11862 43.4648C1.09971 43.3804 1.09288 43.3087 1.09067 43.2607C1.08958 43.2369 1.08966 43.2196 1.08986 43.2104L1.09005 43.2042L1.09123 43.189V39.2645L1.08777 39.2345C1.0414 38.8322 1.09611 38.6169 1.14824 38.51C1.19426 38.4156 1.2531 38.3735 1.31838 38.3473C1.39653 38.316 1.49352 38.306 1.58684 38.31C1.63069 38.3118 1.66707 38.3165 1.69071 38.3203C1.70235 38.3222 1.71036 38.3237 1.71402 38.3245C1.71434 38.3246 1.71462 38.3246 1.71487 38.3247L1.77457 38.3395H8.63699V37.2781H1.89435Z" fill="#077750"/>
<path d="M33.9503 22.6311C27.903 22.6311 22.9795 27.5133 22.9795 33.51C22.9795 39.5067 27.903 44.3889 33.9503 44.3889C35.4487 44.3889 36.6261 44.0705 37.2148 43.9113C39.0878 43.3276 40.7468 42.2132 42.0847 40.7803C43.155 39.6128 43.9578 38.2331 44.4394 36.7472C44.6 36.1634 44.9211 34.9959 44.9211 33.51C44.9211 27.4603 39.9976 22.6311 33.9503 22.6311ZM33.9503 38.3392C31.221 38.3392 29.0803 36.1634 29.0803 33.51C29.0803 30.8036 31.2745 28.6808 33.9503 28.6808C36.6796 28.6808 38.8202 30.8566 38.8202 33.51C38.8202 36.1634 36.6261 38.3392 33.9503 38.3392Z" fill="#E1EEEB"/>
<path fill-rule="evenodd" clip-rule="evenodd" d="M22.4443 33.5099C22.4443 27.2202 27.6074 22.1003 33.9503 22.1003C40.2915 22.1003 45.4562 27.1654 45.4562 33.5099C45.4562 35.0669 45.12 36.2894 44.9567 36.8832L44.9526 36.8982L44.9489 36.9095C44.4439 38.4675 43.6024 39.9136 42.4807 41.1372L42.4774 41.1408C41.0846 42.6324 39.3482 43.8026 37.3752 44.4175L37.3655 44.4205L37.352 44.4242C36.7532 44.5861 35.5204 44.9195 33.9503 44.9195C27.6074 44.9195 22.4443 39.7997 22.4443 33.5099ZM33.9503 23.1617C28.1985 23.1617 23.5147 27.8064 23.5147 33.5099C23.5147 39.2135 28.1985 43.8582 33.9503 43.8582C35.3657 43.8582 36.4812 43.5595 37.0639 43.402C38.8324 42.8488 40.41 41.7921 41.6904 40.4214C42.7058 39.3133 43.4679 38.0046 43.9263 36.5958C44.0854 36.0175 44.3859 34.9122 44.3859 33.5099C44.3859 27.755 39.7037 23.1617 33.9503 23.1617ZM33.9503 29.2114C31.5662 29.2114 29.6155 31.1004 29.6155 33.5099C29.6155 35.8741 31.5204 37.8084 33.9503 37.8084C36.3305 37.8084 38.2851 35.8702 38.2851 33.5099C38.2851 31.1458 36.3802 29.2114 33.9503 29.2114ZM28.5452 33.5099C28.5452 30.5066 30.9828 28.1501 33.9503 28.1501C36.979 28.1501 39.3554 30.5673 39.3554 33.5099C39.3554 36.4564 36.9217 38.8698 33.9503 38.8698C30.9216 38.8698 28.5452 36.4526 28.5452 33.5099Z" fill="#077750"/>
<path fill-rule="evenodd" clip-rule="evenodd" d="M33.415 26.1867V22.6311H34.4854V26.1867H33.415Z" fill="#077750"/>
<path fill-rule="evenodd" clip-rule="evenodd" d="M39.3232 27.3919L41.785 25.7468L42.3831 26.627L39.9214 28.2721L39.3232 27.3919Z" fill="#077750"/>
<path fill-rule="evenodd" clip-rule="evenodd" d="M42.085 32.9792H44.9213V34.0406H42.085V32.9792Z" fill="#077750"/>
<path fill-rule="evenodd" clip-rule="evenodd" d="M22.9348 32.9795L26.1458 33.0326L26.128 34.0938L22.917 34.0407L22.9348 32.9795Z" fill="#077750"/>
<path fill-rule="evenodd" clip-rule="evenodd" d="M27.9246 28.2721L25.4629 26.627L26.061 25.7468L28.5228 27.3919L27.9246 28.2721Z" fill="#077750"/>
<path fill-rule="evenodd" clip-rule="evenodd" d="M34.4854 41.3643V44.3891H33.415V41.3643H34.4854Z" fill="#077750"/>
<path fill-rule="evenodd" clip-rule="evenodd" d="M28.5977 39.5153L26.5106 41.5319L25.7637 40.7717L27.8508 38.7551L28.5977 39.5153Z" fill="#077750"/>
<path fill-rule="evenodd" clip-rule="evenodd" d="M41.7918 41.1717L39.3301 39.5797L39.9148 38.6907L42.3765 40.2827L41.7918 41.1717Z" fill="#077750"/>
<path fill-rule="evenodd" clip-rule="evenodd" d="M9.33301 57.8686V57.6033H10.4033V57.8686C10.4033 58.2123 10.6454 58.4524 10.992 58.4524H18.2702C18.6168 58.4524 18.8589 58.2123 18.8589 57.8686V57.6033H19.9292V57.8686C19.9292 58.7985 19.2079 59.5137 18.2702 59.5137H10.992C10.0543 59.5137 9.33301 58.7985 9.33301 57.8686Z" fill="#077750"/>
<path fill-rule="evenodd" clip-rule="evenodd" d="M46.6865 57.8686V57.6033H47.7568V57.8686C47.7568 58.2123 47.9989 58.4524 48.3455 58.4524H55.6237C55.9703 58.4524 56.2124 58.2123 56.2124 57.8686V57.6033H57.2827V57.8686C57.2827 58.7985 56.5615 59.5137 55.6237 59.5137H48.3455C47.4078 59.5137 46.6865 58.7985 46.6865 57.8686Z" fill="#077750"/>
</svg>
