<svg width="66" height="73" viewBox="0 0 66 73" fill="none" xmlns="http://www.w3.org/2000/svg">
<path d="M34.2723 72.3907C50.9844 72.3907 64.5323 58.9563 64.5323 42.3841C64.5323 25.8119 50.9844 12.3774 34.2723 12.3774C17.5601 12.3774 4.01221 25.8119 4.01221 42.3841C4.01221 58.9563 17.5601 72.3907 34.2723 72.3907Z" fill="#EEECED"/>
<path d="M51.6595 41.7209H14.9908C12.3159 41.7209 10.1982 39.5657 10.1982 36.9685V16.522C10.1982 13.8694 12.3716 11.7695 14.9908 11.7695H51.6595C54.3345 11.7695 56.4521 13.9247 56.4521 16.522V36.9685C56.4521 39.5657 54.3345 41.7209 51.6595 41.7209Z" fill="white"/>
<path fill-rule="evenodd" clip-rule="evenodd" d="M14.9908 12.5985C12.8269 12.5985 11.0341 14.3336 11.0341 16.522V36.9685C11.0341 39.1143 12.7838 40.892 14.9908 40.892H51.6595C53.8665 40.892 55.6162 39.1143 55.6162 36.9685V16.522C55.6162 14.3763 53.8665 12.5985 51.6595 12.5985H14.9908ZM9.3623 16.522C9.3623 13.4054 11.9163 10.9407 14.9908 10.9407H51.6595C54.8024 10.9407 57.288 13.4733 57.288 16.522V36.9685C57.288 40.0173 54.8024 42.5499 51.6595 42.5499H14.9908C11.8479 42.5499 9.3623 40.0173 9.3623 36.9685V16.522Z" fill="#1A61AB"/>
<path d="M55.8947 17.9587H10.7554V18.7877H55.8947V17.9587Z" fill="#1A61AB"/>
<path fill-rule="evenodd" clip-rule="evenodd" d="M10.4766 17.6824H56.1732V19.0639H10.4766V17.6824ZM11.0338 18.235V18.5113H55.6159V18.235H11.0338Z" fill="#1A61AB"/>
<path d="M55.8946 22.8218H10.811V23.6507H55.8946V22.8218Z" fill="#1A61AB"/>
<path fill-rule="evenodd" clip-rule="evenodd" d="M10.5322 22.5454H56.1731V23.9269H10.5322V22.5454ZM11.0895 23.098V23.3743H55.6158V23.098H11.0895Z" fill="#1A61AB"/>
<path d="M22.8455 27.5473L13.9849 27.604L13.9946 29.096L22.8553 29.0393L22.8455 27.5473Z" fill="#1A61AB"/>
<path d="M34.493 27.4921L25.6323 27.5488L25.642 29.0409L34.5027 28.9842L34.493 27.4921Z" fill="#1A61AB"/>
<path d="M60.3531 64.4882H24.7989C22.124 64.4882 20.0063 62.3331 20.0063 59.7358V38.1841C20.0063 35.5315 22.1797 33.4316 24.7989 33.4316H60.3531C63.028 33.4316 65.1457 35.5868 65.1457 38.1841V59.7358C65.1457 62.3883 63.028 64.4882 60.3531 64.4882Z" fill="#E1E3EE"/>
<path fill-rule="evenodd" clip-rule="evenodd" d="M24.7989 34.2606C22.635 34.2606 20.8422 35.9957 20.8422 38.1841V59.7358C20.8422 61.8816 22.5919 63.6594 24.7989 63.6594H60.3531C62.5663 63.6594 64.3097 61.9306 64.3097 59.7358V38.1841C64.3097 36.0384 62.56 34.2606 60.3531 34.2606H24.7989ZM19.1704 38.1841C19.1704 35.0675 21.7244 32.6028 24.7989 32.6028H60.3531C63.496 32.6028 65.9815 35.1354 65.9815 38.1841V59.7358C65.9815 62.8462 63.4896 65.3172 60.3531 65.3172H24.7989C21.656 65.3172 19.1704 62.7846 19.1704 59.7358V38.1841Z" fill="#1A61AB"/>
<path d="M32.3778 56.3098H26.4707V57.8019H32.3778V56.3098Z" fill="#1A61AB"/>
<path d="M41.35 56.3098H35.4429V57.8019H41.35V56.3098Z" fill="#1A61AB"/>
<path d="M50.3217 56.3098H44.4146V57.8019H50.3217V56.3098Z" fill="#1A61AB"/>
<path d="M59.3495 56.3098H53.4424V57.8019H59.3495V56.3098Z" fill="#1A61AB"/>
<path d="M58.7905 44.5804C59.0617 42.9234 57.927 41.3622 56.256 41.0933C54.5851 40.8244 53.0107 41.9496 52.7396 43.6066C52.4684 45.2635 53.6031 46.8247 55.274 47.0936C56.9449 47.3625 58.5193 46.2373 58.7905 44.5804Z" fill="white"/>
<path fill-rule="evenodd" clip-rule="evenodd" d="M53.5647 43.7395C53.3675 44.9445 54.1928 46.0799 55.408 46.2755C56.6232 46.4711 57.7682 45.6527 57.9654 44.4477C58.1627 43.2426 57.3374 42.1072 56.1222 41.9117C54.907 41.7161 53.762 42.5344 53.5647 43.7395ZM55.1402 47.9119C53.0135 47.5697 51.5693 45.5827 51.9145 43.4739C52.2596 41.3651 54.2634 39.933 56.39 40.2752C58.5166 40.6175 59.9608 42.6044 59.6157 44.7133C59.2706 46.8221 57.2668 48.2542 55.1402 47.9119Z" fill="#1A61AB"/>
<path d="M13.9879 7.07234C13.4863 7.07234 13.0405 6.63026 13.0405 6.13291V1.93308C13.0405 1.43574 13.4863 0.993652 13.9879 0.993652C14.4894 0.993652 14.9353 1.43574 14.9353 1.93308V6.13291C14.9353 6.63026 14.4894 7.07234 13.9879 7.07234Z" fill="#BDC0C4"/>
<path d="M10.9229 4.03294C10.9229 3.5356 11.3687 3.09351 11.8702 3.09351H16.1055C16.6071 3.09351 17.0529 3.5356 17.0529 4.03294C17.0529 4.53029 16.6071 4.97238 16.1055 4.97238H11.8702C11.3129 4.97238 10.9229 4.53029 10.9229 4.03294Z" fill="#BDC0C4"/>
<path d="M3.06504 61.7252C2.56349 61.7252 2.11768 61.2831 2.11768 60.7857V56.5859C2.11768 56.0886 2.56349 55.6465 3.06504 55.6465C3.56659 55.6465 4.01241 56.0886 4.01241 56.5859V60.7857C4.01241 61.2831 3.62232 61.7252 3.06504 61.7252Z" fill="#BDC0C4"/>
<path d="M0 58.6858C0 58.1884 0.445819 57.7463 0.947367 57.7463H5.18266C5.68421 57.7463 6.13003 58.1884 6.13003 58.6858C6.13003 59.1831 5.68421 59.6252 5.18266 59.6252H0.947367C0.445819 59.6252 0 59.1831 0 58.6858Z" fill="#BDC0C4"/>
<path d="M31.2075 43.7104C31.2075 44.2078 30.706 44.5946 30.093 44.5946H26.7493C26.1363 44.5946 25.6348 44.2078 25.6348 43.7104V41.1132C25.6348 40.6158 26.1363 40.229 26.7493 40.229H30.093C30.706 40.229 31.2075 40.6158 31.2075 41.1132V43.7104Z" fill="#E6E7E8"/>
<path d="M29.3687 41.8315H31.1519V42.9368H29.3687V41.8315Z" fill="#918D8C"/>
<path d="M52.1053 2.4856H50.9351V7.90116H52.1053V2.4856Z" fill="#1A61AB"/>
<path d="M59.1057 4.60533L58.1914 3.97314L55.0675 8.41553L55.9818 9.04772L59.1057 4.60533Z" fill="#1A61AB"/>
<path d="M63.8098 9.44945L63.1387 8.49878L58.6648 11.6046L59.3359 12.5553L63.8098 9.44945Z" fill="#1A61AB"/>
<path d="M65.525 17.0268L65.5229 15.9216L60.0616 15.9314L60.0637 17.0367L65.525 17.0268Z" fill="#1A61AB"/>
</svg>
