<svg width="66" height="73" viewBox="0 0 66 73" fill="none" xmlns="http://www.w3.org/2000/svg">
<path d="M34.2728 72.3907C50.9849 72.3907 64.5328 58.9563 64.5328 42.3841C64.5328 25.8119 50.9849 12.3774 34.2728 12.3774C17.5606 12.3774 4.0127 25.8119 4.0127 42.3841C4.0127 58.9563 17.5606 72.3907 34.2728 72.3907Z" fill="#EEECED"/>
<path d="M51.6595 41.7209H14.9908C12.3159 41.7209 10.1982 39.5657 10.1982 36.9685V16.522C10.1982 13.8694 12.3716 11.7695 14.9908 11.7695H51.6595C54.3345 11.7695 56.4521 13.9247 56.4521 16.522V36.9685C56.4521 39.5657 54.3345 41.7209 51.6595 41.7209Z" fill="white"/>
<path fill-rule="evenodd" clip-rule="evenodd" d="M14.9908 12.5985C12.8269 12.5985 11.0341 14.3336 11.0341 16.522V36.9685C11.0341 39.1143 12.7838 40.892 14.9908 40.892H51.6595C53.8665 40.892 55.6162 39.1143 55.6162 36.9685V16.522C55.6162 14.3763 53.8665 12.5985 51.6595 12.5985H14.9908ZM9.3623 16.522C9.3623 13.4054 11.9163 10.9407 14.9908 10.9407H51.6595C54.8024 10.9407 57.288 13.4733 57.288 16.522V36.9685C57.288 40.0173 54.8024 42.5499 51.6595 42.5499H14.9908C11.8479 42.5499 9.3623 40.0173 9.3623 36.9685V16.522Z" fill="#14744E"/>
<path d="M55.8952 17.959H10.7559V18.7879H55.8952V17.959Z" fill="#14744E"/>
<path fill-rule="evenodd" clip-rule="evenodd" d="M10.4766 17.6824H56.1732V19.0639H10.4766V17.6824ZM11.0338 18.235V18.5113H55.6159V18.235H11.0338Z" fill="#00613E"/>
<path d="M55.8941 22.8218H10.8105V23.6507H55.8941V22.8218Z" fill="#14744E"/>
<path fill-rule="evenodd" clip-rule="evenodd" d="M10.5322 22.5454H56.1731V23.9269H10.5322V22.5454ZM11.0895 23.098V23.3743H55.6158V23.098H11.0895Z" fill="#00613E"/>
<path d="M22.8451 27.5473L13.9844 27.604L13.9941 29.096L22.8548 29.0393L22.8451 27.5473Z" fill="#14744E"/>
<path d="M34.4925 27.4921L25.6318 27.5488L25.6415 29.0409L34.5022 28.9842L34.4925 27.4921Z" fill="#14744E"/>
<path d="M60.3526 64.4882H24.7984C22.1235 64.4882 20.0059 62.3331 20.0059 59.7358V38.1841C20.0059 35.5315 22.1792 33.4316 24.7984 33.4316H60.3526C63.0275 33.4316 65.1452 35.5868 65.1452 38.1841V59.7358C65.1452 62.3883 63.0275 64.4882 60.3526 64.4882Z" fill="#DFECE8"/>
<path fill-rule="evenodd" clip-rule="evenodd" d="M24.7984 34.2604C22.6345 34.2604 20.8417 35.9954 20.8417 38.1839V59.7356C20.8417 61.8814 22.5915 63.6591 24.7984 63.6591H60.3526C62.5658 63.6591 64.3092 61.9303 64.3092 59.7356V38.1839C64.3092 36.0381 62.5595 34.2604 60.3526 34.2604H24.7984ZM19.1699 38.1839C19.1699 35.0673 21.7239 32.6025 24.7984 32.6025H60.3526C63.4955 32.6025 65.9811 35.1351 65.9811 38.1839V59.7356C65.9811 62.8459 63.4892 65.317 60.3526 65.317H24.7984C21.6555 65.317 19.1699 62.7844 19.1699 59.7356V38.1839Z" fill="#14744E"/>
<path d="M32.3778 56.3098H26.4707V57.8019H32.3778V56.3098Z" fill="#14744E"/>
<path d="M41.3495 56.3098H35.4424V57.8019H41.3495V56.3098Z" fill="#14744E"/>
<path d="M50.3222 56.3098H44.415V57.8019H50.3222V56.3098Z" fill="#14744E"/>
<path d="M59.3495 56.3098H53.4424V57.8019H59.3495V56.3098Z" fill="#14744E"/>
<path d="M58.79 44.5806C59.0612 42.9237 57.9265 41.3625 56.2556 41.0936C54.5846 40.8247 53.0102 41.9499 52.7391 43.6068C52.4679 45.2637 53.6026 46.8249 55.2735 47.0938C56.9444 47.3627 58.5188 46.2375 58.79 44.5806Z" fill="white"/>
<path fill-rule="evenodd" clip-rule="evenodd" d="M53.5643 43.7397C53.367 44.9447 54.1923 46.0802 55.4075 46.2757C56.6227 46.4713 57.7677 45.653 57.9649 44.4479C58.1622 43.2429 57.3369 42.1075 56.1217 41.9119C54.9065 41.7163 53.7615 42.5347 53.5643 43.7397ZM55.1397 47.9122C53.013 47.5699 51.5689 45.5829 51.914 43.4741C52.2591 41.3653 54.2629 39.9332 56.3895 40.2755C58.5162 40.6177 59.9603 42.6047 59.6152 44.7135C59.2701 46.8223 57.2663 48.2544 55.1397 47.9122Z" fill="#077750"/>
<path d="M13.9874 7.07234C13.4859 7.07234 13.04 6.63026 13.04 6.13291V1.93308C13.04 1.43574 13.4859 0.993652 13.9874 0.993652C14.489 0.993652 14.9348 1.43574 14.9348 1.93308V6.13291C14.9348 6.63026 14.489 7.07234 13.9874 7.07234Z" fill="#BDC0C4"/>
<path d="M10.9229 4.03294C10.9229 3.5356 11.3687 3.09351 11.8702 3.09351H16.1055C16.6071 3.09351 17.0529 3.5356 17.0529 4.03294C17.0529 4.53029 16.6071 4.97238 16.1055 4.97238H11.8702C11.3129 4.97238 10.9229 4.53029 10.9229 4.03294Z" fill="#BDC0C4"/>
<path d="M3.06455 61.7252C2.56301 61.7252 2.11719 61.2831 2.11719 60.7857V56.5859C2.11719 56.0886 2.56301 55.6465 3.06455 55.6465C3.5661 55.6465 4.01192 56.0886 4.01192 56.5859V60.7857C4.01192 61.2831 3.62183 61.7252 3.06455 61.7252Z" fill="#BDC0C4"/>
<path d="M0 58.6858C0 58.1884 0.445819 57.7463 0.947367 57.7463H5.18266C5.68421 57.7463 6.13003 58.1884 6.13003 58.6858C6.13003 59.1831 5.68421 59.6252 5.18266 59.6252H0.947367C0.445819 59.6252 0 59.1831 0 58.6858Z" fill="#BDC0C4"/>
<path d="M31.2075 43.7104C31.2075 44.2078 30.706 44.5946 30.093 44.5946H26.7493C26.1363 44.5946 25.6348 44.2078 25.6348 43.7104V41.1132C25.6348 40.6158 26.1363 40.229 26.7493 40.229H30.093C30.706 40.229 31.2075 40.6158 31.2075 41.1132V43.7104Z" fill="#E6E7E8"/>
<path d="M29.3691 41.8315H31.1524V42.9368H29.3691V41.8315Z" fill="#918D8C"/>
<path d="M52.1048 2.48584H50.9346V7.9014H52.1048V2.48584Z" fill="#14744E"/>
<path d="M59.1047 4.60533L58.1904 3.97314L55.0666 8.41553L55.9808 9.04772L59.1047 4.60533Z" fill="#14744E"/>
<path d="M63.8098 9.44969L63.1387 8.49902L58.6648 11.6048L59.3359 12.5555L63.8098 9.44969Z" fill="#14744E"/>
<path d="M65.5245 17.0271L65.5225 15.9219L60.0612 15.9317L60.0632 17.0369L65.5245 17.0271Z" fill="#14744E"/>
</svg>
