<svg width="70" height="66" viewBox="0 0 70 66" fill="none" xmlns="http://www.w3.org/2000/svg">
<path opacity="0.58" d="M30.4325 66.0004C46.6876 66.0004 59.8649 52.8231 59.8649 36.568C59.8649 20.3129 46.6876 7.1355 30.4325 7.1355C14.1774 7.1355 1 20.3129 1 36.568C1 52.8231 14.1774 66.0004 30.4325 66.0004Z" fill="#EEECED"/>
<path d="M50.8548 6.08534C50.3569 6.08534 49.9143 5.64277 49.9143 5.14488V0.94046C49.9143 0.442569 50.3569 0 50.8548 0C51.3527 0 51.7952 0.442569 51.7952 0.94046V5.14488C51.7952 5.64277 51.408 6.08534 50.8548 6.08534Z" fill="#BDC0C4"/>
<path d="M47.812 3.043C47.812 2.54511 48.2546 2.10254 48.7525 2.10254H52.9569C53.4548 2.10254 53.8974 2.54511 53.8974 3.043C53.8974 3.5409 53.4548 3.98346 52.9569 3.98346H48.7525C48.2546 3.98346 47.812 3.5409 47.812 3.043Z" fill="#BDC0C4"/>
<path d="M66.3994 24.9506C65.9015 24.9506 65.459 24.508 65.459 24.0101V19.8057C65.459 19.3078 65.9015 18.8652 66.3994 18.8652C66.8973 18.8652 67.3399 19.3078 67.3399 19.8057V24.0101C67.3399 24.508 66.8973 24.9506 66.3994 24.9506Z" fill="#BDC0C4"/>
<path d="M63.3572 21.908C63.3572 21.4101 63.7998 20.9675 64.2976 20.9675H68.5021C69 20.9675 69.4425 21.4101 69.4425 21.908C69.4425 22.4059 69 22.8485 68.5021 22.8485H64.2976C63.7998 22.8485 63.3572 22.4059 63.3572 21.908Z" fill="#BDC0C4"/>
<path d="M59.9692 25.5203V52.6266C59.9692 55.7259 57.4666 58.2368 54.3673 58.2368H6.60191C3.50263 58.2368 1 55.7259 1 52.6266V25.5203C1 22.4211 3.50263 19.9102 6.60191 19.9102H54.3673C57.4666 19.9102 59.9692 22.4211 59.9692 25.5203Z" fill="white"/>
<path d="M59.9692 25.5203V52.6266C59.9692 55.7259 57.4666 58.2368 54.3673 58.2368H6.60191C3.50263 58.2368 1 55.7259 1 52.6266V25.5203C1 22.4211 3.50263 19.9102 6.60191 19.9102H54.3673C57.4666 19.9102 59.9692 22.4211 59.9692 25.5203Z" stroke="#1A61AB" stroke-width="1.5" stroke-miterlimit="10" stroke-linecap="round" stroke-linejoin="round"/>
<path d="M41.2326 11.9888V19.911H19.7366V11.9888C19.7366 10.8617 20.6481 9.9502 21.7834 9.9502H39.1858C40.3211 9.9502 41.2326 10.8617 41.2326 11.9888Z" stroke="#1A61AB" stroke-width="1.5" stroke-miterlimit="10" stroke-linecap="round" stroke-linejoin="round"/>
<path d="M59.9692 32.9375C52.0635 39.7741 41.7547 43.9093 30.4846 43.9093C19.2145 43.9093 8.90565 39.7741 1 32.9375" stroke="#1A61AB" stroke-width="1.5" stroke-miterlimit="10" stroke-linecap="round" stroke-linejoin="round"/>
<path d="M31.1641 51.6829C37.242 51.6829 42.169 46.7559 42.169 40.678C42.169 34.6002 37.242 29.6731 31.1641 29.6731C25.0863 29.6731 20.1592 34.6002 20.1592 40.678C20.1592 46.7559 25.0863 51.6829 31.1641 51.6829Z" fill="#E1E3EE" stroke="#1A61AB" stroke-width="1.5" stroke-linecap="round" stroke-linejoin="round"/>
<path d="M31.1641 45.4519V46.6452" stroke="#1A61AB" stroke-width="0.5" stroke-linecap="round" stroke-linejoin="round"/>
<path d="M31.1641 34.7117V35.905" stroke="#1A61AB" stroke-width="0.5" stroke-linecap="round" stroke-linejoin="round"/>
<path d="M28.7693 43.0644C28.7693 44.382 29.8383 45.451 31.1559 45.451C32.4735 45.451 33.5425 44.382 33.5425 43.0644C33.5425 41.7468 32.4735 40.6778 31.1559 40.6778C29.8383 40.6778 28.7693 39.6088 28.7693 38.2911C28.7693 36.9735 29.8383 35.9045 31.1559 35.9045C32.4735 35.9045 33.5425 36.9735 33.5425 38.2911" fill="#E1E3EE"/>
<path d="M28.7693 43.0644C28.7693 44.382 29.8383 45.451 31.1559 45.451C32.4735 45.451 33.5425 44.382 33.5425 43.0644C33.5425 41.7468 32.4735 40.6778 31.1559 40.6778C29.8383 40.6778 28.7693 39.6088 28.7693 38.2911C28.7693 36.9735 29.8383 35.9045 31.1559 35.9045C32.4735 35.9045 33.5425 36.9735 33.5425 38.2911" stroke="#1A61AB" stroke-linecap="round" stroke-linejoin="round"/>
</svg>
