<svg width="72" height="72" viewBox="0 0 72 72" fill="none" xmlns="http://www.w3.org/2000/svg">
<path d="M32.9496 60.5221C47.7127 60.5221 59.6805 48.6545 59.6805 34.0151C59.6805 19.3757 47.7127 7.50806 32.9496 7.50806C18.1866 7.50806 6.21875 19.3757 6.21875 34.0151C6.21875 48.6545 18.1866 60.5221 32.9496 60.5221Z" fill="#EEECED"/>
<path d="M22.5449 29.271C22.0067 29.271 21.5283 28.7966 21.5283 28.2629V23.7561C21.5283 23.2224 22.0067 22.748 22.5449 22.748C23.0831 22.748 23.5615 23.2224 23.5615 23.7561V28.2629C23.5615 28.8559 23.0831 29.271 22.5449 29.271Z" fill="#BDC0C4"/>
<path d="M19.2559 26.0096C19.2559 25.4759 19.7343 25.0015 20.2725 25.0015H24.8173C25.3555 25.0015 25.8339 25.4759 25.8339 26.0096C25.8339 26.5433 25.3555 27.0177 24.8173 27.0177H20.2725C19.6745 27.0177 19.2559 26.6026 19.2559 26.0096Z" fill="#BDC0C4"/>
<path d="M68.7109 38.9964C68.1727 38.9964 67.6943 38.522 67.6943 37.9883V33.4815C67.6943 32.9478 68.1727 32.4734 68.7109 32.4734C69.2492 32.4734 69.7276 32.9478 69.7276 33.4815V37.9883C69.7276 38.522 69.2492 38.9964 68.7109 38.9964Z" fill="#BDC0C4"/>
<path d="M65.4219 35.7349C65.4219 35.2012 65.9003 34.7268 66.4385 34.7268H70.9833C71.5215 34.7268 72 35.2012 72 35.7349C72 36.2686 71.5215 36.743 70.9833 36.743H66.4385C65.8405 36.743 65.4219 36.2686 65.4219 35.7349Z" fill="#BDC0C4"/>
<path d="M13.874 52.1016H16.8043C16.8043 52.1016 20.6315 48.5436 21.2893 46.7646C21.2893 46.7646 24.2195 44.5112 26.193 44.3333C26.193 44.3333 35.8807 42.3172 37.3159 41.0126C37.3159 41.0126 41.5617 38.4627 42.0401 42.8509C42.0401 42.8509 42.6979 46.2902 37.6149 48.2471C37.6149 48.2471 33.2494 48.6029 32.6514 50.4412C32.6514 50.4412 33.1298 55.6003 39.2295 55.3038C39.2295 55.3038 43.1166 55.8375 45.6282 55.0073C45.6282 55.0073 48.977 54.8294 50.771 53.9399C50.771 53.9399 54.5983 49.6703 56.5119 48.7808C56.5119 48.7808 60.9969 47.0018 62.6116 50.204C62.6116 50.204 59.3225 55.9561 52.9837 61.3524C52.9837 61.3524 46.0468 65.8592 38.8707 66.0371H13.9338V52.1016H13.874Z" fill="white"/>
<path d="M13.8736 52.7538C15.1294 52.7538 16.3853 52.991 17.4617 52.3387C19.3753 51.1527 20.3919 48.7214 21.8271 47.1796C23.2623 45.6378 25.6544 45.1041 27.6278 44.689C30.1394 44.1553 32.651 43.5623 35.0431 42.7321C36.2989 42.317 37.9733 40.9531 39.2889 40.9531C40.6643 40.8938 41.5613 42.1391 41.4417 43.3844C41.3221 45.1634 39.7673 46.5866 38.2125 47.2982C35.8205 48.3063 30.9168 48.1877 32.4118 51.9829C34.1461 56.3118 39.5879 56.3118 43.5348 55.956C45.6278 55.7781 49.2756 55.6002 51.0696 54.4142C52.9235 53.1689 54.0597 50.9748 55.9135 49.7888C56.5713 49.3737 57.1693 49.0772 58.0065 48.9586C59.0231 48.7807 60.6377 48.7807 61.4152 49.5516C62.2524 50.3818 61.8338 49.5516 61.6544 50.3818C61.475 51.2713 60.2789 52.398 59.7407 53.1096C58.4849 54.8293 57.0497 56.4304 55.6145 57.9129C51.1892 62.4197 44.97 65.2067 38.5713 65.3846C30.3188 65.5625 22.0663 65.3846 13.8736 65.3846C14.1128 65.6218 14.2922 65.7997 14.5314 66.0369C14.5314 61.4116 14.5314 56.7862 14.5314 52.1608C14.5314 51.3306 13.2158 51.3306 13.2158 52.1608C13.2158 56.7862 13.2158 61.4116 13.2158 66.0369C13.2158 66.3927 13.5148 66.6892 13.8736 66.6892C21.8869 66.6892 29.8404 66.7485 37.8537 66.6892C49.0364 66.5706 57.7075 59.8105 63.1494 50.5004C63.269 50.3225 63.269 50.026 63.1494 49.8481C61.7142 47.5354 58.9633 47.061 56.4517 48.0691C53.8205 49.1365 52.5647 51.9829 50.352 53.4061C49.0364 54.2363 47.063 54.1177 45.6278 54.3549C43.475 54.6514 41.5613 54.8293 39.3487 54.6514C37.1959 54.4735 35.2225 54.2956 34.0265 52.2794C33.0098 50.619 33.3088 49.9667 35.2823 49.3737C38.0331 48.4842 41.0231 48.247 42.3387 45.1634C42.9966 43.6809 42.9368 41.4275 41.5613 40.3008C40.1261 39.1148 38.3321 39.8857 36.9567 40.538C33.9667 41.9612 30.7374 42.7321 27.4484 43.4437C25.1162 43.9774 22.3653 44.6297 20.6909 46.468C19.3155 47.9505 18.4783 49.9667 16.7441 51.212C16.0265 51.7457 16.9833 51.3899 16.0265 51.4492C15.3089 51.5085 14.5314 51.4492 13.8138 51.4492C13.0364 51.5085 13.0364 52.7538 13.8736 52.7538Z" fill="#077750"/>
<path d="M12.2588 70.6031H2.21227C1.31526 70.6031 0.597656 69.8915 0.597656 69.002V46.5867C0.597656 45.6972 1.31526 44.9856 2.21227 44.9856H12.2588C13.1558 44.9856 13.8734 45.6972 13.8734 46.5867V69.002C13.8734 69.8915 13.1558 70.6031 12.2588 70.6031Z" fill="#E1EEEB"/>
<path fill-rule="evenodd" clip-rule="evenodd" d="M2.21262 45.5786C1.64588 45.5786 1.19601 46.0247 1.19601 46.5867V69.002C1.19601 69.564 1.64588 70.0101 2.21262 70.0101H12.2591C12.8259 70.0101 13.2757 69.564 13.2757 69.002V46.5867C13.2757 46.0247 12.8259 45.5786 12.2591 45.5786H2.21262ZM0 46.5867C0 45.3697 0.985343 44.3926 2.21262 44.3926H12.2591C13.4864 44.3926 14.4718 45.3697 14.4718 46.5867V69.002C14.4718 70.219 13.4864 71.1961 12.2591 71.1961H2.21262C0.985343 71.1961 0 70.219 0 69.002V46.5867Z" fill="#077750"/>
<path d="M54.2391 21.5027C57.5748 21.5027 60.279 18.8212 60.279 15.5135C60.279 12.2057 57.5748 9.52417 54.2391 9.52417C50.9034 9.52417 48.1992 12.2057 48.1992 15.5135C48.1992 18.8212 50.9034 21.5027 54.2391 21.5027Z" fill="#E1EEEB"/>
<path fill-rule="evenodd" clip-rule="evenodd" d="M54.2394 10.1171C51.234 10.1171 48.7976 12.5332 48.7976 15.5134C48.7976 18.4937 51.234 20.9097 54.2394 20.9097C57.2449 20.9097 59.6813 18.4937 59.6813 15.5134C59.6813 12.5332 57.2449 10.1171 54.2394 10.1171ZM47.6016 15.5134C47.6016 11.8781 50.5734 8.93115 54.2394 8.93115C57.9054 8.93115 60.8773 11.8781 60.8773 15.5134C60.8773 19.1487 57.9054 22.0957 54.2394 22.0957C50.5734 22.0957 47.6016 19.1487 47.6016 15.5134Z" fill="#077750"/>
<path d="M37.3153 33.2442C40.651 33.2442 43.3551 30.5627 43.3551 27.2549C43.3551 23.9471 40.651 21.2656 37.3153 21.2656C33.9795 21.2656 31.2754 23.9471 31.2754 27.2549C31.2754 30.5627 33.9795 33.2442 37.3153 33.2442Z" fill="#E1EEEB"/>
<path fill-rule="evenodd" clip-rule="evenodd" d="M37.3156 21.8586C34.3101 21.8586 31.8737 24.2746 31.8737 27.2549C31.8737 30.2352 34.3101 32.6512 37.3156 32.6512C40.3211 32.6512 42.7575 30.2352 42.7575 27.2549C42.7575 24.2746 40.3211 21.8586 37.3156 21.8586ZM30.6777 27.2549C30.6777 23.6196 33.6496 20.6726 37.3156 20.6726C40.9816 20.6726 43.9535 23.6196 43.9535 27.2549C43.9535 30.8902 40.9816 33.8372 37.3156 33.8372C33.6496 33.8372 30.6777 30.8902 30.6777 27.2549Z" fill="#077750"/>
<path d="M52.0262 43.7403C55.3619 43.7403 58.0661 41.0588 58.0661 37.751C58.0661 34.4432 55.3619 31.7617 52.0262 31.7617C48.6905 31.7617 45.9863 34.4432 45.9863 37.751C45.9863 41.0588 48.6905 43.7403 52.0262 43.7403Z" fill="#E1EEEB"/>
<path fill-rule="evenodd" clip-rule="evenodd" d="M52.0265 32.3547C49.0211 32.3547 46.5847 34.7707 46.5847 37.751C46.5847 40.7313 49.0211 43.1473 52.0265 43.1473C55.032 43.1473 57.4684 40.7313 57.4684 37.751C57.4684 34.7707 55.032 32.3547 52.0265 32.3547ZM45.3887 37.751C45.3887 34.1157 48.3606 31.1687 52.0265 31.1687C55.6925 31.1687 58.6644 34.1157 58.6644 37.751C58.6644 41.3863 55.6925 44.3333 52.0265 44.3333C48.3606 44.3333 45.3887 41.3863 45.3887 37.751Z" fill="#077750"/>
<path d="M54.4189 12.9633C55.3159 13.0226 56.1531 13.497 56.1531 14.5644H54.8973C54.8973 14.2086 54.7179 14.0307 54.4189 13.9714V14.8609C54.5983 14.9202 54.7777 14.9202 54.8973 14.9795C55.6149 15.1574 56.3325 15.5132 56.3325 16.3434C56.3325 17.4701 55.4355 17.8852 54.4189 17.9445V18.5375H54.1199V17.9445C53.0435 17.8852 52.1465 17.4108 52.1465 16.2248H53.4023C53.4023 16.6992 53.7013 16.9364 54.1199 16.9364V15.869C54.0003 15.8097 53.8209 15.8097 53.7013 15.7504C52.9837 15.5725 52.2661 15.2167 52.2661 14.3865C52.2661 13.3191 53.2229 12.904 54.1199 12.904V12.311H54.4189V12.9633ZM54.1199 13.9714C53.8807 13.9714 53.5219 14.09 53.5219 14.3865C53.5219 14.6237 53.7611 14.7423 54.1199 14.8016V13.9714ZM54.4189 17.055C54.7179 17.055 55.0767 16.9364 55.0767 16.5806C55.0767 16.3434 54.8375 16.1655 54.4189 16.1062V17.055Z" fill="#14744E"/>
<path d="M37.5547 24.7644C38.4517 24.8237 39.2889 25.2981 39.2889 26.3655H38.0331C38.0331 26.0097 37.8537 25.8318 37.5547 25.7725V26.662C37.7341 26.7213 37.9135 26.7213 38.0331 26.7806C38.7507 26.9585 39.4683 27.3143 39.4683 28.1445C39.4683 29.2711 38.5713 29.6862 37.5547 29.7455V30.3385H37.2557V29.7455C36.1792 29.6862 35.2822 29.2118 35.2822 28.0258H36.538C36.538 28.5002 36.837 28.7374 37.2557 28.7374V27.6701C37.136 27.6108 36.9566 27.6108 36.837 27.5515C36.1194 27.3736 35.4018 27.0178 35.4018 26.1876C35.4018 25.1202 36.3586 24.7051 37.2557 24.7051V24.1121H37.5547V24.7644ZM37.1958 25.7132C36.9566 25.7132 36.5978 25.8318 36.5978 26.1283C36.5978 26.3655 36.837 26.484 37.1958 26.5433V25.7132ZM37.5547 28.7967C37.8537 28.7967 38.2125 28.6781 38.2125 28.3223C38.2125 28.0851 37.9733 27.9073 37.5547 27.848V28.7967Z" fill="#14744E"/>
<path d="M52.206 35.2602C53.103 35.3195 53.9402 35.7939 53.9402 36.8613H52.6844C52.6844 36.5055 52.505 36.3276 52.206 36.2683V37.1578C52.3854 37.2171 52.5648 37.2171 52.6844 37.2764C53.402 37.4543 54.1196 37.8101 54.1196 38.6403C54.1196 39.767 53.2226 40.1821 52.206 40.2414V40.8344H51.907V40.2414C50.8306 40.1821 49.9336 39.7077 49.9336 38.5217H51.1894C51.1894 38.9961 51.4884 39.2333 51.907 39.2333V38.1659C51.7874 38.1066 51.608 38.1066 51.4884 38.0473C50.7708 37.8694 50.0532 37.5136 50.0532 36.6834C50.0532 35.616 51.01 35.2009 51.907 35.2009V34.6079H52.206V35.2602ZM51.907 36.209C51.6678 36.209 51.309 36.3276 51.309 36.6241C51.309 36.8613 51.5482 36.9799 51.907 37.0392V36.209ZM52.206 39.2926C52.505 39.2926 52.8638 39.174 52.8638 38.8182C52.8638 38.581 52.6246 38.4031 52.206 38.3438V39.2926Z" fill="#14744E"/>
<path d="M66.3192 11.2439H63.8076V28.5001H66.3192V11.2439Z" fill="#14744E"/>
<path d="M38.5712 5.0769H36.0596V13.1417H38.5712V5.0769Z" fill="#14744E"/>
<path d="M38.5712 0.985107H36.0596V3.4757H38.5712V0.985107Z" fill="#14744E"/>
<path d="M7.95354 54.355H7.23593C6.87712 54.355 6.57812 54.0585 6.57812 53.7027V50.7377C6.57812 50.3819 6.87712 50.0854 7.23593 50.0854H7.95354C8.31235 50.0854 8.61134 50.3819 8.61134 50.7377V53.7027C8.67114 54.0585 8.31235 54.355 7.95354 54.355Z" fill="#14744E"/>
</svg>
