<svg width="68" height="71" viewBox="0 0 68 71" fill="none" xmlns="http://www.w3.org/2000/svg">
<path opacity="0.58" d="M29 65.4493C45.0163 65.4493 58 52.5743 58 36.6922C58 20.8101 45.0163 7.93506 29 7.93506C12.9837 7.93506 0 20.8101 0 36.6922C0 52.5743 12.9837 65.4493 29 65.4493Z" fill="#EEECED"/>
<path d="M49.7077 6.93187C49.2177 6.93187 48.7822 6.5 48.7822 6.01414V1.91138C48.7822 1.42552 49.2177 0.993652 49.7077 0.993652C50.1977 0.993652 50.6332 1.42552 50.6332 1.91138V6.01414C50.6332 6.5 50.2521 6.93187 49.7077 6.93187Z" fill="#BDC0C4"/>
<path d="M46.7139 3.96289C46.7139 3.47704 47.1494 3.04517 47.6393 3.04517H51.7768C52.2667 3.04517 52.7022 3.47704 52.7022 3.96289C52.7022 4.44875 52.2667 4.88062 51.7768 4.88062H47.6393C47.1494 4.88062 46.7139 4.44875 46.7139 3.96289Z" fill="#BDC0C4"/>
<path d="M65.0055 25.3403C64.5156 25.3403 64.0801 24.9084 64.0801 24.4226V20.3198C64.0801 19.834 64.5156 19.4021 65.0055 19.4021C65.4955 19.4021 65.931 19.834 65.931 20.3198V24.4226C65.931 24.9084 65.4955 25.3403 65.0055 25.3403Z" fill="#BDC0C4"/>
<path d="M62.0117 22.3713C62.0117 21.8855 62.4472 21.4536 62.9372 21.4536H67.0746C67.5646 21.4536 68.0001 21.8855 68.0001 22.3713C68.0001 22.8572 67.5646 23.2891 67.0746 23.2891H62.9372C62.4472 23.2891 62.0117 22.8572 62.0117 22.3713Z" fill="#BDC0C4"/>
<path d="M48.7378 23.142C36.147 23.142 32.8833 16.6181 32.7654 16.4282C32.1098 14.8721 30.7763 13.8931 29.3102 13.8858C27.8588 13.8493 26.5106 14.7771 25.8107 16.2894C25.8107 16.2894 23.2469 21.3814 14.465 22.7694C12.9474 23.0105 11.415 23.1347 9.88257 23.142C7.73869 23.142 6 25.2168 6 27.7665V36.7451C6 49.9901 12.7706 61.9056 23.0995 66.8223L27.8809 69.087C28.8018 69.5253 29.8333 69.5253 30.7542 69.087L35.5356 66.8223C45.8645 61.8983 52.6351 49.9901 52.6351 36.7451V27.7665C52.6204 25.2168 50.8817 23.142 48.7378 23.142Z" fill="white" stroke="#007953" stroke-width="1.5" stroke-miterlimit="10" stroke-linecap="round" stroke-linejoin="round"/>
<path d="M29.1992 17.3999V66.121" stroke="#007953" stroke-width="1.5" stroke-miterlimit="10" stroke-linecap="round" stroke-linejoin="round"/>
<path d="M29.3099 56.3606C21.1322 56.3606 14.4795 49.7637 14.4795 41.6544C14.4795 33.5452 21.1322 26.9482 29.3099 26.9482C37.4876 26.9482 44.1403 33.5452 44.1403 41.6544C44.1403 49.7637 37.4876 56.3606 29.3099 56.3606Z" fill="white" stroke="#007953" stroke-width="1.5" stroke-linecap="round" stroke-linejoin="round"/>
<path d="M29.3098 52.291C35.2341 52.291 40.0366 47.5287 40.0366 41.6541C40.0366 35.7794 35.2341 31.0171 29.3098 31.0171C23.3856 31.0171 18.583 35.7794 18.583 41.6541C18.583 47.5287 23.3856 52.291 29.3098 52.291Z" fill="#E1EEEB" stroke="#007953" stroke-width="1.5" stroke-linecap="round" stroke-linejoin="round"/>
<path d="M29.3105 46.2715V47.4258" stroke="#007953" stroke-linecap="round" stroke-linejoin="round"/>
<path d="M29.3105 35.8828V37.0371" stroke="#007953" stroke-linecap="round" stroke-linejoin="round"/>
<path d="M26.9824 43.9633C26.9824 45.2345 28.0212 46.2719 29.3105 46.2719C30.5998 46.2719 31.6386 45.2418 31.6386 43.9633C31.6386 42.6921 30.5998 41.6547 29.3105 41.6547C28.0286 41.6547 26.9824 40.6247 26.9824 39.3462C26.9824 38.075 28.0212 37.0376 29.3105 37.0376C30.5924 37.0376 31.6386 38.0677 31.6386 39.3462" stroke="#007953" stroke-linecap="round" stroke-linejoin="round"/>
<path d="M25.3906 29.0083L25.6632 29.9726" stroke="#007953" stroke-width="0.7946" stroke-miterlimit="10" stroke-linecap="round" stroke-linejoin="round"/>
<path d="M28.9053 28.5115V29.5123" stroke="#007953" stroke-width="0.7946" stroke-miterlimit="10" stroke-linecap="round" stroke-linejoin="round"/>
<path d="M32.3091 28.8916L32.0586 29.8559" stroke="#007953" stroke-width="0.7946" stroke-miterlimit="10" stroke-linecap="round" stroke-linejoin="round"/>
<path d="M35.5942 30.2065L35.1006 31.0759" stroke="#007953" stroke-width="0.7946" stroke-miterlimit="10" stroke-linecap="round" stroke-linejoin="round"/>
<path d="M38.5192 32.2522L37.8193 32.9608" stroke="#007953" stroke-width="0.7946" stroke-miterlimit="10" stroke-linecap="round" stroke-linejoin="round"/>
<path d="M40.7004 35.021L39.8311 35.5251" stroke="#007953" stroke-width="0.7946" stroke-miterlimit="10" stroke-linecap="round" stroke-linejoin="round"/>
<path d="M42.0623 38.1479L41.0898 38.411" stroke="#007953" stroke-width="0.7946" stroke-miterlimit="10" stroke-linecap="round" stroke-linejoin="round"/>
<path d="M42.542 41.6252H41.54" stroke="#007953" stroke-width="0.7946" stroke-miterlimit="10" stroke-linecap="round" stroke-linejoin="round"/>
<path d="M16.1738 41.9756L17.1758 41.9683" stroke="#007953" stroke-width="0.7946" stroke-miterlimit="10" stroke-linecap="round" stroke-linejoin="round"/>
<path d="M16.4912 38.4399L17.4637 38.6956" stroke="#007953" stroke-width="0.7946" stroke-miterlimit="10" stroke-linecap="round" stroke-linejoin="round"/>
<path d="M17.8252 35.1816L18.7019 35.6784" stroke="#007953" stroke-width="0.7946" stroke-miterlimit="10" stroke-linecap="round" stroke-linejoin="round"/>
<path d="M19.873 32.4565L20.5877 33.1579" stroke="#007953" stroke-width="0.7946" stroke-miterlimit="10" stroke-linecap="round" stroke-linejoin="round"/>
<path d="M22.6719 30.3018L23.1729 31.1638" stroke="#007953" stroke-width="0.7946" stroke-miterlimit="10" stroke-linecap="round" stroke-linejoin="round"/>
</svg>
