<svg width="72" height="67" viewBox="0 0 72 67" fill="none" xmlns="http://www.w3.org/2000/svg">
<path d="M33.0756 62.1034C47.9584 62.1034 60.0233 50.1395 60.0233 35.3814C60.0233 20.6233 47.9584 8.65942 33.0756 8.65942C18.1928 8.65942 6.12793 20.6233 6.12793 35.3814C6.12793 50.1395 18.1928 62.1034 33.0756 62.1034Z" fill="#EEECED"/>
<path d="M53.7087 6.93187C53.2187 6.93187 52.7832 6.5 52.7832 6.01414V1.91138C52.7832 1.42552 53.2187 0.993652 53.7087 0.993652C54.1986 0.993652 54.6342 1.42552 54.6342 1.91138V6.01414C54.6342 6.5 54.2531 6.93187 53.7087 6.93187Z" fill="#BDC0C4"/>
<path d="M50.7144 3.96289C50.7144 3.47704 51.1499 3.04517 51.6398 3.04517H55.7773C56.2672 3.04517 56.7027 3.47704 56.7027 3.96289C56.7027 4.44875 56.2672 4.88062 55.7773 4.88062H51.6398C51.1499 4.88062 50.7144 4.44875 50.7144 3.96289Z" fill="#BDC0C4"/>
<path d="M69.006 25.3403C68.5161 25.3403 68.0806 24.9084 68.0806 24.4226V20.3198C68.0806 19.834 68.5161 19.4021 69.006 19.4021C69.496 19.4021 69.9315 19.834 69.9315 20.3198V24.4226C69.9315 24.9084 69.496 25.3403 69.006 25.3403Z" fill="#BDC0C4"/>
<path d="M66.0117 22.3713C66.0117 21.8855 66.4472 21.4536 66.9372 21.4536H71.0746C71.5646 21.4536 72.0001 21.8855 72.0001 22.3713C72.0001 22.8572 71.5646 23.2891 71.0746 23.2891H66.9372C66.4472 23.2891 66.0117 22.8572 66.0117 22.3713Z" fill="#BDC0C4"/>
<path d="M49.9521 23.9369C50.8776 20.7519 53.8174 18.5385 57.1926 18.5925H57.4648L55.1239 28.5255L49.9521 23.9369Z" fill="white"/>
<path fill-rule="evenodd" clip-rule="evenodd" d="M50.8942 23.6863L54.642 27.0114L56.4282 19.4324C53.9167 19.6765 51.7739 21.3349 50.8942 23.6863ZM57.1989 17.7827H58.4942L55.6056 30.0395L49.0254 24.2013L49.1674 23.7127C50.1922 20.1856 53.4501 17.7258 57.1989 17.7827Z" fill="#1A61AB"/>
<path d="M63.2353 35.8133L59.479 35.3275C56.8114 28.0396 49.7343 22.8032 41.405 22.8032H27.1962C16.5805 22.8032 7.979 31.3327 7.979 41.8595C7.979 49.0933 12.062 55.3554 18.0504 58.5945V63.561C18.0504 64.9106 19.1391 65.9903 20.5001 65.9903H27.9584C29.3194 65.9903 30.4082 64.9106 30.4082 63.561V60.8618H41.2961V63.561C41.2961 64.9106 42.3849 65.9903 43.7459 65.9903H51.2041C52.5651 65.9903 53.6539 64.9106 53.6539 63.561V56.4891C56.4848 54.1678 58.6079 51.0907 59.7512 47.5278L63.2353 47.0959C64.4874 46.934 65.4129 45.9083 65.4129 44.6667V38.2426C65.3585 37.001 64.433 35.9213 63.2353 35.8133Z" fill="white"/>
<path fill-rule="evenodd" clip-rule="evenodd" d="M7.1626 41.8594C7.1626 30.8854 16.1297 21.9934 27.1964 21.9934H41.4052C49.9102 21.9934 57.1629 27.2312 60.0702 34.5872L63.3265 35.0084C64.9812 35.1669 66.1597 36.6276 66.2289 38.2074L66.2297 38.2249V44.6666C66.2297 46.3251 64.9898 47.6856 63.3411 47.8988L63.3368 47.8994L60.3637 48.2679C59.1823 51.647 57.1437 54.587 54.4707 56.8654V63.5609C54.4707 65.3577 53.0163 66.8 51.2043 66.8H43.7461C41.9341 66.8 40.4797 65.3577 40.4797 63.5609V61.6715H31.225V63.5609C31.225 65.3577 29.7706 66.8 27.9586 66.8H20.5003C18.6883 66.8 17.2339 65.3577 17.2339 63.5609V59.0685C11.2296 55.6322 7.1626 49.2319 7.1626 41.8594ZM27.1964 23.6129C17.0317 23.6129 8.79579 31.7798 8.79579 41.8594C8.79579 48.7817 12.7018 54.779 18.4416 57.8835L18.8671 58.1137V63.5609C18.8671 64.4633 19.5903 65.1804 20.5003 65.1804H27.9586C28.8686 65.1804 29.5918 64.4633 29.5918 63.5609V60.052H42.1129V63.5609C42.1129 64.4633 42.8361 65.1804 43.7461 65.1804H51.2043C52.1143 65.1804 52.8375 64.4633 52.8375 63.5609V56.1079L53.1337 55.865C55.8449 53.6418 57.8779 50.6957 58.9732 47.2822L59.1316 46.7885L63.1299 46.2929C63.1306 46.2928 63.1313 46.2927 63.132 46.2926C63.9865 46.1811 64.5965 45.4907 64.5965 44.6666V38.2616C64.55 37.3714 63.8889 36.6853 63.1616 36.6197L63.1457 36.6183L58.881 36.0667L58.7116 35.6037C56.1578 28.6268 49.381 23.6129 41.4052 23.6129H27.1964Z" fill="#1A61AB"/>
<path d="M25.7267 15.4615C28.9738 15.4615 31.6061 12.8512 31.6061 9.63128C31.6061 6.41132 28.9738 3.80103 25.7267 3.80103C22.4795 3.80103 19.8472 6.41132 19.8472 9.63128C19.8472 12.8512 22.4795 15.4615 25.7267 15.4615Z" fill="#E1E3EE"/>
<path fill-rule="evenodd" clip-rule="evenodd" d="M25.7264 4.61072C22.9302 4.61072 20.6635 6.85848 20.6635 9.63122C20.6635 12.404 22.9302 14.6517 25.7264 14.6517C28.5225 14.6517 30.7892 12.404 30.7892 9.63122C30.7892 6.85848 28.5225 4.61072 25.7264 4.61072ZM19.0303 9.63122C19.0303 5.96405 22.0282 2.99121 25.7264 2.99121C29.4245 2.99121 32.4224 5.96404 32.4224 9.63122C32.4224 13.2984 29.4245 16.2712 25.7264 16.2712C22.0282 16.2712 19.0303 13.2984 19.0303 9.63122Z" fill="#1A61AB"/>
<path d="M36.7232 29.7132C39.9704 29.7132 42.6027 27.1029 42.6027 23.883C42.6027 20.663 39.9704 18.0527 36.7232 18.0527C33.4761 18.0527 30.8438 20.663 30.8438 23.883C30.8438 27.1029 33.4761 29.7132 36.7232 29.7132Z" fill="#E1E3EE"/>
<path fill-rule="evenodd" clip-rule="evenodd" d="M36.7234 18.8624C33.9273 18.8624 31.6605 21.1102 31.6605 23.8829C31.6605 26.6557 33.9273 28.9034 36.7234 28.9034C39.5196 28.9034 41.7863 26.6557 41.7863 23.8829C41.7863 21.1102 39.5196 18.8624 36.7234 18.8624ZM30.0273 23.8829C30.0273 20.2157 33.0253 17.2429 36.7234 17.2429C40.4216 17.2429 43.4195 20.2157 43.4195 23.8829C43.4195 27.5501 40.4216 30.5229 36.7234 30.5229C33.0253 30.5229 30.0273 27.5501 30.0273 23.8829Z" fill="#1A61AB"/>
<path d="M25.89 6.98615C26.7066 7.04014 27.4688 7.47201 27.4688 8.44372H26.3255C26.3255 8.11981 26.1622 7.95786 25.89 7.90388V8.71363C26.0533 8.76762 26.2166 8.76762 26.3255 8.8216C26.9788 8.98356 27.6321 9.30746 27.6321 10.0632C27.6321 11.0889 26.8155 11.4668 25.89 11.5208V12.0606H25.6178V11.5208C24.6379 11.4668 23.8213 11.0349 23.8213 9.95526H24.9645C24.9645 10.3871 25.2367 10.6031 25.6178 10.6031V9.63136C25.5089 9.57738 25.3456 9.57738 25.2367 9.52339C24.5834 9.36144 23.9302 9.03754 23.9302 8.28177C23.9302 7.31006 24.8012 6.93217 25.6178 6.93217V6.39233H25.89V6.98615ZM25.6178 7.84989C25.4 7.84989 25.0734 7.95786 25.0734 8.22778C25.0734 8.44371 25.2912 8.55168 25.6178 8.60567V7.84989ZM25.89 10.6571C26.1622 10.6571 26.4888 10.5491 26.4888 10.2252C26.4888 10.0092 26.2711 9.84729 25.89 9.79331V10.6571Z" fill="#1A61AB"/>
<path d="M36.8866 21.5618C37.7032 21.6158 38.4653 22.0476 38.4653 23.0193H37.3221C37.3221 22.6954 37.1588 22.5335 36.8866 22.4795V23.2893C37.0499 23.3433 37.2132 23.3432 37.3221 23.3972C37.9754 23.5592 38.6287 23.8831 38.6287 24.6389C38.6287 25.6646 37.812 26.0424 36.8866 26.0964V26.6363H36.6144V26.0964C35.6345 26.0424 34.8179 25.6106 34.8179 24.5309H35.9611C35.9611 24.9628 36.2333 25.1787 36.6144 25.1787V24.315C36.5055 24.261 36.3422 24.261 36.2333 24.207C35.58 24.045 34.9267 23.7211 34.9267 22.9654C34.9267 21.9937 35.7978 21.6158 36.6144 21.6158V21.0759H36.8866V21.5618ZM36.6144 22.4795C36.3966 22.4795 36.07 22.5875 36.07 22.8574C36.07 23.0733 36.2877 23.1813 36.6144 23.2353V22.4795ZM36.8866 25.2867C37.1588 25.2867 37.4854 25.1787 37.4854 24.8548C37.4854 24.6389 37.2677 24.4769 36.8866 24.4229V25.2867Z" fill="#1A61AB"/>
<path d="M51.9664 36.0832C52.1842 35.8673 52.3475 35.4894 52.3475 35.1655C52.3475 34.8416 52.1842 34.5177 51.9664 34.2478C51.7486 34.0318 51.3676 33.8699 51.0409 33.8699C50.7143 33.8699 50.3876 34.0318 50.1155 34.2478C49.8433 34.4637 49.7344 34.8416 49.7344 35.1655C49.7344 35.4894 49.8977 35.8133 50.1155 36.0832C50.3332 36.2991 50.7143 36.4611 51.0409 36.4611C51.422 36.4611 51.7486 36.2991 51.9664 36.0832Z" fill="#1A61AB"/>
<path d="M13.967 43.533C14.4569 43.533 14.8925 43.1011 14.8925 42.6153V42.5613C14.8925 42.0754 14.5114 41.6436 13.967 41.6436C13.477 41.6436 13.0415 42.0214 13.0415 42.5613V42.6153C13.0415 43.1551 13.4226 43.533 13.967 43.533Z" fill="#1A61AB"/>
<path d="M17.9413 51.1988C18.1046 51.3068 18.2679 51.3068 18.4312 51.3068C18.7579 51.3068 19.0301 51.1448 19.1934 50.8749C19.4656 50.443 19.3023 49.9032 18.8667 49.6333C17.288 48.6616 16.0359 47.204 15.3826 45.5305C15.2193 45.0447 14.6749 44.8287 14.1849 44.9907C13.695 45.1526 13.4772 45.6925 13.6405 46.1783C14.5116 48.2837 15.9814 50.0651 17.9413 51.1988Z" fill="#1A61AB"/>
<path d="M43.8003 32.0345H26.5429C26.1074 32.0345 25.7808 31.7106 25.7808 31.2787C25.7808 30.8468 26.1074 30.5229 26.5429 30.5229H43.8003C44.2358 30.5229 44.5625 30.8468 44.5625 31.2787C44.5625 31.7106 44.2358 32.0345 43.8003 32.0345Z" fill="#1A61AB"/>
<path fill-rule="evenodd" clip-rule="evenodd" d="M5.35796 32.7898C4.94294 32.7853 3.60037 32.7709 2.62238 33.7407C1.77556 34.5805 1.49936 35.8552 1.69144 36.579L1.69276 36.5839L1.69274 36.5839C1.91311 37.4362 2.39792 38.1267 3.29941 38.5499C4.23778 38.9904 5.72116 39.1844 8.00347 38.7942C8.44791 38.7183 8.87031 39.0139 8.94694 39.4546C9.02357 39.8954 8.7254 40.3142 8.28096 40.3902C5.82702 40.8098 3.96236 40.6529 2.60064 40.0137C1.20294 39.3576 0.435723 38.2407 0.111338 36.9885C-0.239658 35.6611 0.246454 33.8064 1.46754 32.5956C2.96148 31.1141 4.96771 31.1606 5.36798 31.1698C5.3907 31.1703 5.40825 31.1707 5.42023 31.1707C5.87123 31.1707 6.23683 31.5333 6.23683 31.9805C6.23683 32.4277 5.87123 32.7903 5.42023 32.7903C5.40272 32.7903 5.38188 32.79 5.35796 32.7898Z" fill="#1A61AB"/>
</svg>
