<svg width="72" height="72" viewBox="0 0 72 72" fill="none" xmlns="http://www.w3.org/2000/svg">
<path d="M32.9501 60.5221C47.7132 60.5221 59.681 48.6545 59.681 34.0151C59.681 19.3757 47.7132 7.50806 32.9501 7.50806C18.1871 7.50806 6.21924 19.3757 6.21924 34.0151C6.21924 48.6545 18.1871 60.5221 32.9501 60.5221Z" fill="#EEECED"/>
<path d="M22.5447 29.271C22.0065 29.271 21.5281 28.7966 21.5281 28.2629V23.7561C21.5281 23.2224 22.0065 22.748 22.5447 22.748C23.0829 22.748 23.5613 23.2224 23.5613 23.7561V28.2629C23.5613 28.8559 23.0829 29.271 22.5447 29.271Z" fill="#BDC0C4"/>
<path d="M19.2556 26.0096C19.2556 25.4759 19.734 25.0015 20.2722 25.0015H24.8171C25.3553 25.0015 25.8337 25.4759 25.8337 26.0096C25.8337 26.5433 25.3553 27.0177 24.8171 27.0177H20.2722C19.6742 27.0177 19.2556 26.6026 19.2556 26.0096Z" fill="#BDC0C4"/>
<path d="M68.7109 38.9964C68.1727 38.9964 67.6943 38.522 67.6943 37.9883V33.4815C67.6943 32.9478 68.1727 32.4734 68.7109 32.4734C69.2492 32.4734 69.7276 32.9478 69.7276 33.4815V37.9883C69.7276 38.522 69.2492 38.9964 68.7109 38.9964Z" fill="#BDC0C4"/>
<path d="M65.4219 35.7349C65.4219 35.2012 65.9003 34.7268 66.4385 34.7268H70.9833C71.5215 34.7268 72 35.2012 72 35.7349C72 36.2686 71.5215 36.743 70.9833 36.743H66.4385C65.8405 36.743 65.4219 36.2686 65.4219 35.7349Z" fill="#BDC0C4"/>
<path d="M13.8738 52.1016H16.804C16.804 52.1016 20.6313 48.5436 21.2891 46.7646C21.2891 46.7646 24.2193 44.5112 26.1927 44.3333C26.1927 44.3333 35.8804 42.3172 37.3156 41.0126C37.3156 41.0126 41.5615 38.4627 42.0399 42.8509C42.0399 42.8509 42.6977 46.2902 37.6146 48.2471C37.6146 48.2471 33.2492 48.6029 32.6512 50.4412C32.6512 50.4412 33.1296 55.6003 39.2293 55.3038C39.2293 55.3038 43.1163 55.8375 45.6279 55.0073C45.6279 55.0073 48.9768 54.8294 50.7708 53.9399C50.7708 53.9399 54.598 49.6703 56.5117 48.7808C56.5117 48.7808 60.9967 47.0018 62.6113 50.204C62.6113 50.204 59.3223 55.9561 52.9834 61.3524C52.9834 61.3524 46.0465 65.8592 38.8705 66.0371H13.9336V52.1016H13.8738Z" fill="white"/>
<path d="M13.8739 52.7538C15.1297 52.7538 16.3855 52.991 17.4619 52.3387C19.3755 51.1527 20.3921 48.7214 21.8274 47.1796C23.2626 45.6378 25.6546 45.1041 27.628 44.689C30.1397 44.1553 32.6513 43.5623 35.0433 42.7321C36.2991 42.317 37.9735 40.9531 39.2892 40.9531C40.6646 40.8938 41.5616 42.1391 41.442 43.3844C41.3224 45.1634 39.7676 46.5866 38.2127 47.2982C35.8207 48.3063 30.9171 48.1877 32.4121 51.9829C34.1463 56.3118 39.5882 56.3118 43.535 55.956C45.628 55.7781 49.2759 55.6002 51.0699 54.4142C52.9237 53.1689 54.0599 50.9748 55.9137 49.7888C56.5715 49.3737 57.1696 49.0772 58.0068 48.9586C59.0234 48.7807 60.638 48.7807 61.4154 49.5516C62.2526 50.3818 61.834 49.5516 61.6546 50.3818C61.4752 51.2713 60.2792 52.398 59.741 53.1096C58.4852 54.8293 57.05 56.4304 55.6147 57.9129C51.1895 62.4197 44.9702 65.2067 38.5716 65.3846C30.3191 65.5625 22.0666 65.3846 13.8739 65.3846C14.1131 65.6218 14.2925 65.7997 14.5317 66.0369C14.5317 61.4116 14.5317 56.7862 14.5317 52.1608C14.5317 51.3306 13.2161 51.3306 13.2161 52.1608C13.2161 56.7862 13.2161 61.4116 13.2161 66.0369C13.2161 66.3927 13.5151 66.6892 13.8739 66.6892C21.8872 66.6892 29.8407 66.7485 37.8539 66.6892C49.0367 66.5706 57.7078 59.8105 63.1496 50.5004C63.2692 50.3225 63.2692 50.026 63.1496 49.8481C61.7144 47.5354 58.9636 47.061 56.4519 48.0691C53.8207 49.1365 52.5649 51.9829 50.3523 53.4061C49.0367 54.2363 47.0632 54.1177 45.628 54.3549C43.4752 54.6514 41.5616 54.8293 39.349 54.6514C37.1961 54.4735 35.2227 54.2956 34.0267 52.2794C33.0101 50.619 33.3091 49.9667 35.2825 49.3737C38.0333 48.4842 41.0234 48.247 42.339 45.1634C42.9968 43.6809 42.937 41.4275 41.5616 40.3008C40.1264 39.1148 38.3323 39.8857 36.9569 40.538C33.9669 41.9612 30.7377 42.7321 27.4486 43.4437C25.1164 43.9774 22.3656 44.6297 20.6911 46.468C19.3157 47.9505 18.4785 49.9667 16.7443 51.212C16.0267 51.7457 16.9835 51.3899 16.0267 51.4492C15.3091 51.5085 14.5317 51.4492 13.8141 51.4492C13.0367 51.5085 13.0367 52.7538 13.8739 52.7538Z" fill="#1A61AB"/>
<path d="M12.259 70.6031H2.21252C1.31551 70.6031 0.5979 69.8915 0.5979 69.002V46.5867C0.5979 45.6972 1.31551 44.9856 2.21252 44.9856H12.259C13.156 44.9856 13.8736 45.6972 13.8736 46.5867V69.002C13.8736 69.8915 13.156 70.6031 12.259 70.6031Z" fill="#E1E3EE"/>
<path fill-rule="evenodd" clip-rule="evenodd" d="M2.21262 45.5786C1.64588 45.5786 1.19601 46.0247 1.19601 46.5867V69.002C1.19601 69.564 1.64588 70.0101 2.21262 70.0101H12.2591C12.8259 70.0101 13.2757 69.564 13.2757 69.002V46.5867C13.2757 46.0247 12.8259 45.5786 12.2591 45.5786H2.21262ZM0 46.5867C0 45.3697 0.985343 44.3926 2.21262 44.3926H12.2591C13.4864 44.3926 14.4718 45.3697 14.4718 46.5867V69.002C14.4718 70.219 13.4864 71.1961 12.2591 71.1961H2.21262C0.985343 71.1961 0 70.219 0 69.002V46.5867Z" fill="#1A61AB"/>
<path d="M54.2393 21.5027C57.5751 21.5027 60.2792 18.8212 60.2792 15.5135C60.2792 12.2057 57.5751 9.52417 54.2393 9.52417C50.9036 9.52417 48.1995 12.2057 48.1995 15.5135C48.1995 18.8212 50.9036 21.5027 54.2393 21.5027Z" fill="#E1E3EE"/>
<path fill-rule="evenodd" clip-rule="evenodd" d="M54.2392 10.1171C51.2337 10.1171 48.7973 12.5332 48.7973 15.5134C48.7973 18.4937 51.2337 20.9097 54.2392 20.9097C57.2447 20.9097 59.6811 18.4937 59.6811 15.5134C59.6811 12.5332 57.2447 10.1171 54.2392 10.1171ZM47.6013 15.5134C47.6013 11.8781 50.5732 8.93115 54.2392 8.93115C57.9052 8.93115 60.8771 11.8781 60.8771 15.5134C60.8771 19.1487 57.9052 22.0957 54.2392 22.0957C50.5732 22.0957 47.6013 19.1487 47.6013 15.5134Z" fill="#1A61AB"/>
<path d="M37.3155 33.2442C40.6512 33.2442 43.3554 30.5627 43.3554 27.2549C43.3554 23.9471 40.6512 21.2656 37.3155 21.2656C33.9798 21.2656 31.2756 23.9471 31.2756 27.2549C31.2756 30.5627 33.9798 33.2442 37.3155 33.2442Z" fill="#E1E3EE"/>
<path fill-rule="evenodd" clip-rule="evenodd" d="M37.3156 21.8586C34.3101 21.8586 31.8737 24.2746 31.8737 27.2549C31.8737 30.2352 34.3101 32.6512 37.3156 32.6512C40.3211 32.6512 42.7575 30.2352 42.7575 27.2549C42.7575 24.2746 40.3211 21.8586 37.3156 21.8586ZM30.6777 27.2549C30.6777 23.6196 33.6496 20.6726 37.3156 20.6726C40.9816 20.6726 43.9535 23.6196 43.9535 27.2549C43.9535 30.8902 40.9816 33.8372 37.3156 33.8372C33.6496 33.8372 30.6777 30.8902 30.6777 27.2549Z" fill="#1A61AB"/>
<path d="M52.0267 43.74C55.3624 43.74 58.0665 41.0586 58.0665 37.7508C58.0665 34.443 55.3624 31.7615 52.0267 31.7615C48.691 31.7615 45.9868 34.443 45.9868 37.7508C45.9868 41.0586 48.691 43.74 52.0267 43.74Z" fill="#E1E3EE"/>
<path fill-rule="evenodd" clip-rule="evenodd" d="M52.0265 32.3547C49.0211 32.3547 46.5847 34.7707 46.5847 37.751C46.5847 40.7313 49.0211 43.1473 52.0265 43.1473C55.032 43.1473 57.4684 40.7313 57.4684 37.751C57.4684 34.7707 55.032 32.3547 52.0265 32.3547ZM45.3887 37.751C45.3887 34.1157 48.3606 31.1687 52.0265 31.1687C55.6925 31.1687 58.6644 34.1157 58.6644 37.751C58.6644 41.3863 55.6925 44.3333 52.0265 44.3333C48.3606 44.3333 45.3887 41.3863 45.3887 37.751Z" fill="#1A61AB"/>
<path d="M54.4184 12.9636C55.3154 13.0229 56.1526 13.4973 56.1526 14.5647H54.8968C54.8968 14.2089 54.7174 14.031 54.4184 13.9717V14.8612C54.5978 14.9205 54.7772 14.9205 54.8968 14.9798C55.6144 15.1577 56.332 15.5135 56.332 16.3437C56.332 17.4704 55.435 17.8855 54.4184 17.9448V18.5378H54.1194V17.9448C53.043 17.8855 52.146 17.4111 52.146 16.2251H53.4018C53.4018 16.6995 53.7008 16.9367 54.1194 16.9367V15.8693C53.9998 15.81 53.8204 15.81 53.7008 15.7507C52.9832 15.5728 52.2656 15.217 52.2656 14.3868C52.2656 13.3194 53.2224 12.9043 54.1194 12.9043V12.3113H54.4184V12.9636ZM54.1194 13.9717C53.8802 13.9717 53.5214 14.0903 53.5214 14.3868C53.5214 14.624 53.7606 14.7426 54.1194 14.8019V13.9717ZM54.4184 17.0553C54.7174 17.0553 55.0762 16.9367 55.0762 16.5809C55.0762 16.3437 54.837 16.1658 54.4184 16.1065V17.0553Z" fill="#1A61AB"/>
<path d="M37.5549 24.7644C38.4519 24.8237 39.2891 25.2981 39.2891 26.3655H38.0333C38.0333 26.0097 37.8539 25.8318 37.5549 25.7725V26.662C37.7343 26.7213 37.9137 26.7213 38.0333 26.7806C38.7509 26.9585 39.4685 27.3143 39.4685 28.1445C39.4685 29.2711 38.5715 29.6862 37.5549 29.7455V30.3385H37.2559V29.7455C36.1795 29.6862 35.2825 29.2118 35.2825 28.0258H36.5383C36.5383 28.5002 36.8373 28.7374 37.2559 28.7374V27.6701C37.1363 27.6108 36.9569 27.6108 36.8373 27.5515C36.1197 27.3736 35.4021 27.0178 35.4021 26.1876C35.4021 25.1202 36.3589 24.7051 37.2559 24.7051V24.1121H37.5549V24.7644ZM37.1961 25.7132C36.9569 25.7132 36.5981 25.8318 36.5981 26.1283C36.5981 26.3655 36.8373 26.484 37.1961 26.5433V25.7132ZM37.5549 28.7967C37.8539 28.7967 38.2127 28.6781 38.2127 28.3223C38.2127 28.0851 37.9735 27.9073 37.5549 27.848V28.7967Z" fill="#1A61AB"/>
<path d="M52.206 35.2602C53.103 35.3195 53.9402 35.7939 53.9402 36.8613H52.6844C52.6844 36.5055 52.505 36.3276 52.206 36.2683V37.1578C52.3854 37.2171 52.5648 37.2171 52.6844 37.2764C53.402 37.4543 54.1196 37.8101 54.1196 38.6403C54.1196 39.767 53.2226 40.1821 52.206 40.2414V40.8344H51.907V40.2414C50.8306 40.1821 49.9336 39.7077 49.9336 38.5217H51.1894C51.1894 38.9961 51.4884 39.2333 51.907 39.2333V38.1659C51.7874 38.1066 51.608 38.1066 51.4884 38.0473C50.7708 37.8694 50.0532 37.5136 50.0532 36.6834C50.0532 35.616 51.01 35.2009 51.907 35.2009V34.6079H52.206V35.2602ZM51.907 36.209C51.6678 36.209 51.309 36.3276 51.309 36.6241C51.309 36.8613 51.5482 36.9799 51.907 37.0392V36.209ZM52.206 39.2926C52.505 39.2926 52.8638 39.174 52.8638 38.8182C52.8638 38.581 52.6246 38.4031 52.206 38.3438V39.2926Z" fill="#1A61AB"/>
<path d="M66.319 11.2439H63.8074V28.5001H66.319V11.2439Z" fill="#1A61AB"/>
<path d="M38.5714 5.07666H36.0598V13.1414H38.5714V5.07666Z" fill="#1A61AB"/>
<path d="M38.5714 0.985107H36.0598V3.4757H38.5714V0.985107Z" fill="#1A61AB"/>
<path d="M7.95354 54.355H7.23593C6.87712 54.355 6.57812 54.0585 6.57812 53.7027V50.7377C6.57812 50.3819 6.87712 50.0854 7.23593 50.0854H7.95354C8.31235 50.0854 8.61134 50.3819 8.61134 50.7377V53.7027C8.67114 54.0585 8.31235 54.355 7.95354 54.355Z" fill="#1A61AB"/>
</svg>
